<svg version="1.0" width="1200" height="800" xmlns="http://www.w3.org/2000/svg" viewBox="-35.036445 -14.001425 303.64919 84.00855"><path fill="#0071ce" d="M135.4744 29.8037c0-5.5309-2.3676-10.4176-10.3747-10.4176-4.1081 0-7.3715 1.1708-9.1408 2.1957l1.2968 4.4373c1.629-1.022 4.2283-1.8637 6.6817-1.8637 4.0537-.0057 4.7178 2.2874 4.7178 3.7617v.355c-8.8488-.0143-14.4426 3.0431-14.4426 9.2696 0 3.8046 2.8399 7.3716 7.804 7.3716 3.0287 0 5.588-1.2224 7.1167-3.1519h.1489s1.0078 4.2169 6.5815 2.6051c-.2834-1.7663-.3893-3.627-.3893-5.8887zm-6.6015 5.84c0 .4466-.0372.9104-.169 1.3083-.5096 1.7033-2.2672 3.129-4.4545 3.129-1.8463 0-3.295-1.045-3.295-3.235 0-3.3494 3.6986-4.2712 7.9185-4.2483M0 11.8607s5.7799 23.6464 6.6989 27.4768c1.082 4.4774 3.0202 6.132 8.614 5.0299l3.6128-14.663c.9132-3.633 1.5344-6.238 2.1242-9.9396h.1001c.4094 3.7388.9992 6.3067 1.7463 9.951 0 0 1.4743 6.6616 2.2388 10.1513.7442 3.4897 2.8397 5.6912 8.3277 4.5003l8.5998-32.5067h-6.9423l-2.9514 14.062c-.7816 4.0736-1.4916 7.2828-2.0441 11.0158h-.1002c-.498-3.693-1.1308-6.7704-1.9438-10.7611l-3.0574-14.3167h-7.2428L14.517 25.811c-.9304 4.2598-1.8006 7.675-2.3475 11.2907h-.0944c-.564-3.3924-1.3283-7.7123-2.1385-11.8118 0 0-1.9381-9.9881-2.6223-13.4292m54.095 17.943c0-5.5309-2.3734-10.4176-10.3805-10.4176-4.0965 0-7.3658 1.1708-9.135 2.1957l1.2968 4.4373c1.6232-1.022 4.2198-1.8637 6.6817-1.8637 4.0537-.0057 4.7178 2.2874 4.7178 3.7617v.355c-8.8487-.0143-14.4482 3.0431-14.4482 9.2696 0 3.8046 2.8513 7.3716 7.7924 7.3716 3.0573 0 5.5938-1.2224 7.1225-3.1519h.1545s1.0134 4.2169 6.5815 2.6051c-.2862-1.7663-.3835-3.627-.3835-5.8887zm-6.6072 5.84c0 .4466-.0372.9104-.1632 1.3083-.5155 1.7033-2.273 3.129-4.466 3.129-1.835 0-3.2893-1.045-3.2893-3.235 0-3.3494 3.6986-4.2712 7.9185-4.2483M71.6189 44.356V11.8606h-6.6072V44.356zm84.1341-32.4953v23.9757c0 3.3093.621 5.6167 1.958 7.031 1.1738 1.2395 3.0946 2.0468 5.382 2.0468 1.9639 0 3.8847-.3779 4.7923-.7071l-.0803-5.1616c-.6784.1575-1.4542.292-2.5192.292-2.2558 0-3-1.4285-3-4.4v-9.178h5.754V19.55h-5.754v-7.6894M138.6754 19.95v24.4165h6.8305V31.862c0-.6728.0428-1.2539.1489-1.7921.5095-2.6366 2.5105-4.3056 5.3934-4.3056.8044 0 1.3512.0887 1.9582.1832v-6.4011c-.5097-.0916-.856-.1403-1.483-.1403-2.5564 0-5.4536 1.6232-6.676 5.1587h-.1688V19.95m-69.2228 0v24.4165h6.6557v-14.331c0-.6727.0745-1.3598.3121-1.981.5412-1.4514 1.8838-3.1319 4.0394-3.1319 2.6795 0 3.9449 2.2616 3.9449 5.5252v13.9187h6.6388V29.8638c0-.6327.0888-1.4085.2747-1.9696.5326-1.646 1.9868-2.9716 3.9966-2.9716 2.708 0 4.0193 2.213 4.0193 6.0605v13.3834h6.6329V29.9697c0-7.5634-3.8476-10.5636-8.2162-10.5636-1.9208 0-3.4495.4724-4.8237 1.3197-1.1623.7129-2.1813 1.7177-3.0946 3.0317h-.1002c-1.0506-2.628-3.5183-4.3514-6.7419-4.3514-4.1337 0-6.0117 2.087-7.1167 3.8504h-.1003V19.95"/><path fill="#fcb61a" d="M203.7867 18.8542c1.3054 0 2.4046-.6814 2.5477-1.5574l1.294-14.6573c0-1.4515-1.709-2.6395-3.8417-2.6395-2.1443 0-3.842 1.188-3.842 2.6395l1.3054 14.6573c.1375.876 1.231 1.5574 2.5366 1.5574m-7.9394 4.5864c.6469-1.1451.6097-2.4162-.0888-2.983l-12.081-8.448c-1.2566-.7329-3.1375.1403-4.2139 1.9896-1.0735 1.8465-.856 3.9191.375 4.6377l13.3748 6.2007c.856.3206 1.9753-.2748 2.6339-1.4085m15.877-.0005c.684 1.1336 1.8034 1.729 2.6365 1.4256l13.3748-6.2179c1.2425-.7329 1.4286-2.7855.378-4.632-1.0736-1.8493-2.966-2.7167-4.2198-1.9982l-12.0837 8.4395c-.67.5754-.7185 1.8522-.0716 2.9944m-7.9518 13.723c1.3054 0 2.4046.6813 2.5477 1.5573l1.294 14.6574c0 1.4514-1.709 2.628-3.8417 2.628-2.1443 0-3.842-1.1766-3.842-2.628l1.3054-14.6574c.1375-.876 1.231-1.5573 2.5366-1.5573m7.9376-4.5736c.684-1.1365 1.8034-1.7434 2.6365-1.4142l13.3748 6.2065c1.2425.7185 1.4286 2.7883.378 4.6377-1.0736 1.835-2.966 2.7081-4.2198 1.9896l-12.0837-8.4509c-.67-.5697-.7185-1.8408-.0716-2.9687m-15.8912-.0126c.6469 1.1423.6097 2.4105-.0888 2.983l-12.081 8.4366c-1.2566.7328-3.1375-.1432-4.2139-1.9782-1.0735-1.8465-.856-3.9191.375-4.6377l13.3748-6.2064c.856-.3264 1.9753.2748 2.6339 1.4027m35.8022 10.1459h.1662c.226 0 .3177.0716.3435.252.0486.2004.0744.3349.123.3922h.4295c-.0372-.043-.086-.1518-.1117-.4037-.0488-.2176-.1604-.3407-.3178-.3836v-.04c.2176-.0488.3435-.1948.3435-.3751 0-.1632-.0745-.2806-.1488-.355-.1431-.0687-.2805-.123-.584-.123-.269 0-.4667.0228-.6241.06v1.6204h.3807v-.6442zm.0115-.7386l.1947-.0257c.229 0 .352.106.352.2548 0 .166-.166.2433-.3777.2433h-.169v-.4724zm.2434-1.0993c-.939 0-1.6833.733-1.6833 1.6318 0 .9218.7444 1.6547 1.6833 1.6547.9504 0 1.6718-.7329 1.6718-1.6547 0-.8989-.7214-1.6318-1.6718-1.6318m0 .3293c.7213 0 1.2567.584 1.2567 1.3025 0 .7243-.5354 1.3255-1.2567 1.314-.7214 0-1.2683-.5897-1.2683-1.314 0-.7185.5469-1.3025 1.2568-1.3025"/></svg>