<svg xmlns="http://www.w3.org/2000/svg" width="140" height="36" viewBox="0 0 140 36" fill="none">
  <g clip-path="url(#clip0_995_92810)">
    <path
      d="M31.05 0H4.95C2.25 0 0 2.25 0 4.95V31.05C0 33.75 2.25 36 4.95 36H31.05C33.75 36 36 33.75 36 31.05V4.95C36 2.25 33.75 0 31.05 0Z"
      fill="#3E63DD" />
    <g clip-path="url(#clip1_995_92810)">
      <path
        d="M13.4851 25.8371C13.6164 25.9684 13.6319 26.177 13.5141 26.3238C11.9283 28.2939 9.88865 28.9294 7.39509 29.2442C7.02811 29.2886 6.71134 28.9738 6.7577 28.6068C7.0706 26.1133 7.70799 24.0736 9.67812 22.4878C9.82491 22.372 10.0335 22.3855 10.1649 22.5168L13.4851 25.8371Z"
        fill="white" />
      <path
        d="M29.2191 7.21346C29.2075 6.97782 29.0202 6.79046 28.7864 6.78081C28.1896 6.75183 27.6044 6.73445 27.0655 6.76535C25.1842 6.86772 23.5656 7.26754 21.9161 7.96675C18.8547 9.36322 16.5002 11.2271 14.6151 13.5584C14.458 13.7129 14.3015 13.7902 14.1457 13.7902C13.6744 13.7921 12.9907 13.7033 12.2837 13.7033C11.8144 13.7033 11.5672 13.7091 11.0824 13.7902C9.90414 14.0239 9.2397 14.472 8.44007 15.3489C8.00548 15.8241 7.65008 16.4364 7.34298 17.0216C7.29276 17.1182 6.97406 17.8444 6.77318 18.306C6.69399 18.4837 6.82533 18.6846 7.02042 18.6827C8.45359 18.6808 9.88482 18.6827 11.318 18.6827C11.4751 18.684 11.6322 18.7619 11.7893 18.9164C12.7241 19.8397 13.5663 20.7069 14.4354 21.5645C15.293 22.4337 16.1583 23.2739 17.0835 24.2087C17.238 24.3658 17.3159 24.5229 17.3172 24.68C17.3172 26.1112 17.3172 27.5444 17.3153 28.9776C17.3153 29.1726 17.5142 29.304 17.6939 29.2267C18.1536 29.0259 18.8798 28.7052 18.9764 28.655C19.5616 28.3498 20.1739 27.9925 20.651 27.5579C21.526 26.7602 21.9741 26.0938 22.2058 24.9156C22.2908 24.4328 22.2947 24.1855 22.2947 23.7142C22.2947 23.0073 22.2058 22.3255 22.2058 21.8542C22.2058 21.6971 22.2837 21.54 22.4396 21.3829C24.7709 19.4997 26.6348 17.1433 28.0312 14.0819C28.7324 12.4324 29.1322 10.8157 29.2346 8.93249C29.2635 8.39554 29.2461 7.80836 29.2191 7.21346ZM24.1335 15.0283C23.2604 15.9013 21.8466 15.9013 20.9716 15.0283C20.0986 14.1533 20.0986 12.7375 20.9716 11.8645C21.8466 10.9895 23.2604 10.9895 24.1335 11.8645C25.0104 12.7375 25.0104 14.1533 24.1335 15.0283Z"
        fill="white" />
    </g>
    <path d="M51.075 28.1251V11.7001H45V8.77515H60.525V11.9251H54.45V28.3501H51.075V28.1251Z" fill="inherit" />
    <path
      d="M67.95 28.35C66.6 28.35 65.25 28.125 64.125 27.45C63 26.775 62.1 25.875 61.425 24.75C60.975 23.625 60.75 22.275 60.75 20.7C60.75 19.125 60.975 18 61.65 16.65C62.325 15.525 63.225 14.625 64.35 13.95C65.25 13.5 66.6 13.05 67.95 13.05C69.3 13.05 70.65 13.275 71.775 13.95C72.9 14.625 73.8 15.525 74.475 16.65C75.15 17.775 75.375 19.125 75.375 20.7C75.375 22.275 75.15 23.4 74.475 24.75C73.8 25.875 72.9 26.775 71.775 27.45C70.65 28.125 69.525 28.35 67.95 28.35ZM67.95 25.425C68.85 25.425 69.525 25.2 69.975 24.975C70.65 24.525 71.1 24.075 71.325 23.4C71.775 22.725 71.775 21.825 71.775 20.925C71.775 20.025 71.55 19.125 71.325 18.45C70.875 17.775 70.425 17.1 69.975 16.875C69.3 16.425 68.625 16.425 67.95 16.425C67.05 16.425 66.375 16.65 65.925 16.875C65.25 17.325 64.8 17.775 64.575 18.45C64.125 19.125 64.125 20.025 64.125 20.925C64.125 21.825 64.35 22.725 64.575 23.4C65.025 24.075 65.475 24.75 65.925 24.975C66.6 25.2 67.275 25.425 67.95 25.425Z"
      fill="inherit" />
    <path
      d="M84.8248 28.35C83.4748 28.35 82.1248 28.125 80.9998 27.45C79.8748 26.775 78.9748 25.875 78.2998 24.75C77.6248 23.625 77.3998 22.275 77.3998 20.7C77.3998 19.125 77.6248 18 78.2998 16.65C78.9748 15.75 79.8748 14.85 80.9998 14.175C82.1248 13.5 83.2498 13.05 84.8248 13.05C86.1748 13.05 87.5248 13.275 88.6498 13.95C89.7748 14.625 90.6748 15.525 91.3498 16.65C91.7998 18 92.2498 19.35 92.2498 20.7C92.2498 22.275 92.0248 23.4 91.3498 24.75C90.6748 25.875 89.7748 26.775 88.6498 27.45C87.5248 28.125 86.1748 28.35 84.8248 28.35ZM84.8248 25.425C85.7248 25.425 86.3998 25.2 86.8498 24.975C87.5248 24.525 87.9748 24.075 88.1998 23.4C88.6498 22.725 88.6498 21.825 88.6498 20.925C88.6498 20.025 88.4248 19.125 88.1998 18.45C87.7498 17.775 87.2998 17.1 86.8498 16.875C86.1748 16.425 85.4998 16.425 84.8248 16.425C83.9248 16.425 83.2498 16.65 82.7998 16.875C82.1248 17.325 81.6748 17.775 81.4498 18.45C80.9998 19.125 80.9998 20.025 80.9998 20.925C80.9998 21.825 81.2248 22.725 81.4498 23.4C81.8998 24.075 82.3498 24.75 82.7998 24.975C83.2498 25.2 83.9248 25.425 84.8248 25.425Z"
      fill="inherit" />
    <path d="M95.1748 28.125L94.2748 7.42505H97.4248V28.125H95.1748Z" fill="inherit" />
    <path
      d="M104.85 28.5751C103.725 28.5751 102.6 28.3501 101.7 27.9001C100.8 27.4501 99.9002 26.7751 99.2252 25.8751L101.25 23.4001C101.7 24.0751 102.375 24.7501 102.825 24.9751C103.5 25.4251 104.175 25.4251 104.85 25.4251C106.65 25.4251 107.775 24.3001 107.775 21.8251V11.7001H101.25V8.77515H111.15V21.8251C111.15 24.0751 110.7 25.8751 109.575 27.0001C108.225 27.9001 106.65 28.5751 104.85 28.5751Z"
      fill="inherit" />
    <path
      d="M127.35 16.8751C126.675 15.7501 126 14.8501 124.875 14.1751C123.75 13.5001 122.625 13.2751 121.275 13.2751C119.925 13.2751 118.575 13.5001 117.45 14.1751C116.325 14.8501 115.425 15.7501 114.975 16.8751C114.3 18.0001 114.075 19.3501 114.075 20.9251C114.075 22.5001 114.3 23.6251 114.975 24.9751C115.65 26.1001 116.55 27.0001 117.675 27.6751C118.8 28.3501 120.15 28.5751 121.725 28.5751C122.85 28.5751 123.975 28.3501 124.875 27.9001C125.775 27.4501 126.675 26.7751 127.125 26.1001L125.325 23.8501C124.875 24.3001 124.2 24.7501 123.75 24.9751C123.075 25.2001 122.4 25.4251 121.725 25.4251C120.825 25.4251 119.925 25.2001 119.25 24.9751C118.575 24.5251 118.125 24.0751 117.675 23.4001C117.45 22.9501 117.225 22.5001 117.225 22.0501H128.25C128.25 21.8251 128.25 21.6001 128.25 21.6001C128.25 21.3751 128.25 21.1501 128.25 21.1501C128.25 19.3501 127.8 18.0001 127.35 16.8751ZM117.225 19.5751C117.225 19.1251 117.45 18.4501 117.675 18.0001C118.125 17.3251 118.575 16.8751 119.025 16.4251C119.7 15.9751 120.375 15.9751 121.05 15.9751C121.725 15.9751 122.625 16.2001 123.075 16.4251C123.75 16.8751 124.2 17.3251 124.65 18.0001C124.875 18.4501 125.1 18.9001 125.1 19.5751H117.225Z"
      fill="inherit" />
    <path
      d="M139.5 27.45C139.05 27.9 138.6 28.125 138.15 28.125C137.7 28.35 137.025 28.35 136.35 28.35C134.775 28.35 133.65 27.9 132.75 27C131.85 26.1 131.4 24.975 131.4 23.175V16.2H129.15V13.5H131.4V10.125H134.775V13.5H138.6V16.2H134.775V23.175C134.775 23.85 135 24.525 135.225 24.75C135.45 25.2 136.125 25.425 136.575 25.425C137.25 25.425 137.925 25.2 138.375 24.75L139.5 27.45Z"
      fill="inherit" />
  </g>
  <defs>
    <clipPath id="clip0_995_92810">
      <rect width="139.5" height="36" fill="inherit" />
    </clipPath>
    <clipPath id="clip1_995_92810">
      <rect width="22.5" height="22.5" fill="inherit" transform="translate(6.75 6.75)" />
    </clipPath>
  </defs>
</svg>