<svg width="434" height="72" viewBox="0 0 434 72" fill="#ffffff" xmlns="http://www.w3.org/2000/svg">
  <path
    d="M123.547 46.92C121.627 48.36 119.454 49.5333 117.027 50.44C114.6 51.32 111.747 51.76 108.467 51.76C104.947 51.76 101.747 50.9733 98.8669 49.4C95.9869 47.8 93.7202 45.64 92.0669 42.92C90.4136 40.2 89.5869 37.2267 89.5869 34C89.5869 30.7733 90.4002 27.8 92.0269 25.08C93.6802 22.36 95.9069 20.2133 98.7069 18.64C101.534 17.04 104.654 16.24 108.067 16.24C111.267 16.24 114.094 16.8 116.547 17.92C119 19.0133 121.054 20.4267 122.707 22.16L119.547 27.8C117.84 26.3067 116 25.1333 114.027 24.28C112.08 23.4267 110.094 23 108.067 23C105.987 23 104.08 23.4933 102.347 24.48C100.64 25.4667 99.2936 26.8 98.3069 28.48C97.3202 30.16 96.8269 32 96.8269 34C96.8269 36 97.3202 37.8533 98.3069 39.56C99.3202 41.24 100.707 42.5733 102.467 43.56C104.254 44.5467 106.254 45.04 108.467 45.04C110.2 45.04 111.707 44.8667 112.987 44.52C114.267 44.1733 115.534 43.6533 116.787 42.96V38.84H108.307V33H123.547V46.92Z">
  </path>
  <path
    d="M134.981 31.24C135.674 30.3067 136.527 29.5867 137.541 29.08C138.554 28.5733 139.581 28.32 140.621 28.32C141.447 28.32 142.247 28.4667 143.021 28.76L142.181 34.52C141.301 34.3333 140.634 34.24 140.181 34.24C138.581 34.24 137.314 34.68 136.381 35.56C135.447 36.4133 134.981 37.9067 134.981 40.04V51H128.221V28.76H134.981V31.24Z">
  </path>
  <path
    d="M161.442 51V49.08C159.762 50.8667 157.482 51.76 154.602 51.76C152.575 51.76 150.735 51.2533 149.082 50.24C147.429 49.2 146.122 47.7733 145.162 45.96C144.229 44.1467 143.762 42.12 143.762 39.88C143.762 37.64 144.229 35.6133 145.162 33.8C146.122 31.9867 147.429 30.5733 149.082 29.56C150.735 28.52 152.575 28 154.602 28C157.482 28 159.762 28.8933 161.442 30.68V28.76H168.242V51H161.442ZM156.202 45.96C157.855 45.96 159.202 45.3867 160.242 44.24C161.282 43.0667 161.802 41.6133 161.802 39.88C161.802 38.1467 161.282 36.7067 160.242 35.56C159.202 34.3867 157.855 33.8 156.202 33.8C154.549 33.8 153.202 34.3867 152.162 35.56C151.149 36.7333 150.642 38.1733 150.642 39.88C150.642 41.5867 151.149 43.0267 152.162 44.2C153.202 45.3733 154.549 45.96 156.202 45.96Z">
  </path>
  <path
    d="M179.699 30.68C181.406 28.8933 183.686 28 186.539 28C188.593 28 190.446 28.52 192.099 29.56C193.753 30.5733 195.046 31.9867 195.979 33.8C196.913 35.6133 197.379 37.64 197.379 39.88C197.379 42.12 196.913 44.1467 195.979 45.96C195.046 47.7733 193.753 49.2 192.099 50.24C190.446 51.2533 188.593 51.76 186.539 51.76C183.686 51.76 181.406 50.8667 179.699 49.08V63.92H172.939V28.76H179.699V30.68ZM184.939 45.96C186.593 45.96 187.926 45.3733 188.939 44.2C189.979 43.0267 190.499 41.5867 190.499 39.88C190.499 38.1733 189.979 36.7333 188.939 35.56C187.926 34.3867 186.593 33.8 184.939 33.8C183.313 33.8 181.979 34.3867 180.939 35.56C179.899 36.7067 179.379 38.1467 179.379 39.88C179.379 41.6133 179.899 43.0667 180.939 44.24C181.979 45.3867 183.313 45.96 184.939 45.96Z">
  </path>
  <path
    d="M207.871 30.92C208.671 29.9333 209.631 29.2 210.751 28.72C211.898 28.24 213.111 28 214.391 28C216.685 28 218.631 28.7333 220.231 30.2C221.858 31.6667 222.671 34.0267 222.671 37.28V51H215.871V38.92C215.871 35.5067 214.551 33.8 211.911 33.8C210.711 33.8 209.738 34.2267 208.991 35.08C208.245 35.9333 207.871 37.2133 207.871 38.92V51H201.111V17H207.871V30.92Z">
  </path>
  <path
    d="M251.728 50.2C249.435 51.24 247.008 51.76 244.448 51.76C241.168 51.76 238.141 50.96 235.368 49.36C232.595 47.76 230.395 45.6133 228.768 42.92C227.168 40.2 226.368 37.2267 226.368 34C226.368 30.7733 227.168 27.8133 228.768 25.12C230.395 22.4 232.595 20.24 235.368 18.64C238.141 17.04 241.168 16.24 244.448 16.24C247.701 16.24 250.715 17.04 253.488 18.64C256.261 20.24 258.462 22.4 260.088 25.12C261.715 27.84 262.528 30.8 262.528 34C262.528 36.4533 262.048 38.7733 261.088 40.96C260.128 43.1467 258.782 45.0667 257.048 46.72L263.528 53.12H254.328L251.728 50.2ZM252.168 41.8C253.155 40.7333 253.915 39.5333 254.448 38.2C254.982 36.8667 255.248 35.4667 255.248 34C255.248 32.0267 254.755 30.2 253.768 28.52C252.808 26.84 251.501 25.52 249.848 24.56C248.195 23.5733 246.395 23.08 244.448 23.08C242.475 23.08 240.661 23.5733 239.008 24.56C237.355 25.52 236.035 26.84 235.048 28.52C234.088 30.2 233.608 32.0267 233.608 34C233.608 35.9733 234.088 37.8 235.048 39.48C236.035 41.16 237.355 42.4933 239.008 43.48C240.661 44.44 242.475 44.92 244.448 44.92C245.221 44.92 245.968 44.7733 246.688 44.48L241.008 38.52H249.288L252.168 41.8Z">
  </path>
  <path d="M266.775 17H273.895V44.8H292.935V51H266.775V17Z"></path>
  <path d="M330.605 32.6V35.4H311.245V48.12H331.445V51H308.085V17H331.445V19.96H311.245V32.6H330.605Z"></path>
  <path
    d="M355.886 51V47.44C355.033 48.64 353.886 49.6267 352.446 50.4C351.006 51.1467 349.46 51.52 347.806 51.52C345.646 51.52 343.7 51.0133 341.966 50C340.26 48.9867 338.913 47.6 337.926 45.84C336.94 44.0533 336.446 42.0667 336.446 39.88C336.446 37.6933 336.94 35.72 337.926 33.96C338.913 32.1733 340.26 30.7733 341.966 29.76C343.7 28.7467 345.646 28.24 347.806 28.24C349.46 28.24 351.006 28.6267 352.446 29.4C353.886 30.1467 355.033 31.12 355.886 32.32V17H359.006V51H355.886ZM347.966 48.68C349.513 48.68 350.913 48.2933 352.166 47.52C353.446 46.7467 354.446 45.6933 355.166 44.36C355.886 43 356.246 41.5067 356.246 39.88C356.246 38.2533 355.886 36.7733 355.166 35.44C354.446 34.08 353.446 33.0133 352.166 32.24C350.913 31.4667 349.513 31.08 347.966 31.08C346.313 31.08 344.846 31.48 343.566 32.28C342.313 33.08 341.326 34.16 340.606 35.52C339.913 36.8533 339.566 38.3067 339.566 39.88C339.566 41.4533 339.913 42.92 340.606 44.28C341.326 45.6133 342.313 46.68 343.566 47.48C344.846 48.28 346.313 48.68 347.966 48.68Z">
  </path>
  <path
    d="M369.994 28.76V51H366.874V28.76H369.994ZM368.434 23.08C367.821 23.08 367.301 22.88 366.874 22.48C366.448 22.0533 366.234 21.52 366.234 20.88C366.234 20.24 366.448 19.72 366.874 19.32C367.301 18.8933 367.821 18.68 368.434 18.68C369.074 18.68 369.608 18.8933 370.034 19.32C370.461 19.72 370.674 20.24 370.674 20.88C370.674 21.52 370.461 22.0533 370.034 22.48C369.608 22.88 369.074 23.08 368.434 23.08Z">
  </path>
  <path d="M383.05 31.48V51H379.89V31.48H375.05V28.76H379.89V17.88H383.05V28.76H389.65V31.48H383.05Z"></path>
  <path
    d="M403.466 28.24C405.68 28.24 407.653 28.7467 409.386 29.76C411.146 30.7733 412.52 32.1733 413.506 33.96C414.493 35.72 414.986 37.6933 414.986 39.88C414.986 42.0667 414.493 44.0533 413.506 45.84C412.52 47.6 411.146 48.9867 409.386 50C407.653 51.0133 405.68 51.52 403.466 51.52C401.253 51.52 399.266 51.0133 397.506 50C395.773 48.9867 394.413 47.6 393.426 45.84C392.44 44.0533 391.946 42.0667 391.946 39.88C391.946 37.6933 392.44 35.72 393.426 33.96C394.413 32.1733 395.773 30.7733 397.506 29.76C399.266 28.7467 401.253 28.24 403.466 28.24ZM403.466 48.68C405.12 48.68 406.573 48.28 407.826 47.48C409.106 46.68 410.093 45.6133 410.786 44.28C411.506 42.92 411.866 41.4533 411.866 39.88C411.866 38.3067 411.506 36.8533 410.786 35.52C410.093 34.16 409.106 33.08 407.826 32.28C406.573 31.48 405.12 31.08 403.466 31.08C401.813 31.08 400.346 31.48 399.066 32.28C397.813 33.08 396.826 34.16 396.106 35.52C395.413 36.8533 395.066 38.3067 395.066 39.88C395.066 41.4533 395.413 42.92 396.106 44.28C396.826 45.6133 397.813 46.68 399.066 47.48C400.346 48.28 401.813 48.68 403.466 48.68Z">
  </path>
  <path
    d="M424.604 31.88C425.19 30.8667 426.07 30.04 427.244 29.4C428.417 28.7333 429.75 28.4 431.244 28.4C432.124 28.4 432.937 28.52 433.684 28.76L433.284 31.36C432.724 31.2 432.057 31.12 431.284 31.12C429.31 31.12 427.697 31.7867 426.444 33.12C425.217 34.4267 424.604 36.32 424.604 38.8V51H421.484V28.76H424.604V31.88Z">
  </path>
  <path fill-rule="evenodd" clip-rule="evenodd"
    d="M35.0795 0.849279L48.1158 8.30406L61.1521 15.806C63.0483 16.8912 64.1861 18.8257 64.1861 20.9961V36V50.9567C64.1861 53.1743 63.0483 55.0616 61.1521 56.194L48.1158 63.6488L35.0795 71.1507C33.2307 72.2831 31.0027 72.2831 29.1065 71.1507L16.0702 63.6488L3.0339 56.194C1.09031 55.0616 0 53.1743 0 50.9567V36V20.9961C0 18.8257 1.09031 16.8912 3.0339 15.806L16.0702 8.30406L29.1065 0.849279C31.0027 -0.283093 33.2307 -0.283093 35.0795 0.849279ZM42.0954 44.54C42.8539 44.54 43.5176 44.7287 44.1338 45.059L54.231 36L45.6508 28.2621L47.1677 26.6107L56.6487 35.1507C57.0753 35.5754 57.1227 36.2831 56.6961 36.7549L56.6487 36.8021L45.6982 46.6632C45.9826 47.2294 46.1722 47.8899 46.1722 48.5976C46.1722 50.8152 44.3709 52.6081 42.0954 52.6081C39.8674 52.6081 38.066 50.8152 38.066 48.5976C38.066 46.3329 39.8674 44.54 42.0954 44.54ZM19.8152 26.941L9.955 36L18.5353 43.6907L17.0183 45.3421L7.58476 36.8965C7.53736 36.8493 7.48995 36.8021 7.44255 36.7549C7.0159 36.2831 7.06331 35.5754 7.53736 35.1507L18.2508 25.3368C17.9664 24.7706 17.7768 24.1101 17.7768 23.4024C17.7768 21.1848 19.5782 19.3447 21.8536 19.3447C24.0816 19.3447 25.883 21.1848 25.883 23.4024C25.883 25.6199 24.0816 27.46 21.8536 27.46C21.0951 27.46 20.4315 27.2713 19.8152 26.941ZM41.6214 27.8847L25.4564 46.7575C25.7408 47.2765 25.883 47.9371 25.883 48.5976C25.883 50.8152 24.0816 52.6081 21.8536 52.6081C19.5782 52.6081 17.7768 50.8152 17.7768 48.5976C17.7768 46.3329 19.5782 44.54 21.8536 44.54C22.0906 44.54 22.3276 44.54 22.5647 44.5872L38.5875 25.8558C38.2556 25.2896 38.066 24.5819 38.066 23.8742C38.066 21.6094 39.8674 19.8165 42.0954 19.8165C44.3709 19.8165 46.1722 21.6094 46.1722 23.8742C46.1722 26.0917 44.3709 27.8847 42.0954 27.8847C41.9532 27.8847 41.7636 27.8847 41.6214 27.8847Z">
  </path>
</svg>