<svg id="Layer_1" enable-background="new 0 0 512 512" viewBox="0 0 512 512" xmlns="http://www.w3.org/2000/svg"><g fill="#d2dada"><path d="m310 313c4.1-.6 8.6.4 13.1 1.8 2.3.7 3.6 2.7 5.1 4.4 4.1 4.5 6.3 9.8 6.5 15.8.1 3.2-.9 5.9-2.8 8.7-5.7 8.4-14.3 9.4-23.2 9.5-11 .1-22 0-33 0-51.7 0-103.3 0-155 0-2.4 0-4.7.2-7 1-2.9 1.1-5.9.6-8.8 0-5.5-1.2-11.2-1.5-16.3-4.4-.1-.1-.4-.1-.5-.2-5.7-5-13.3-8.1-15.6-16.3-.6-2.1-1.5-3.9-3.1-5.4-2-1.8-2.5-4.4-2.9-6.9-.9-5.8-3-11.3-2.6-17.3.6-9.1 3.2-17.6 8.2-25.3 3.4-5.3 7.1-10.4 11.5-14.9 7.1-7.2 15.8-9.4 25.5-6.7 3.4.9 3.7.9 4.2-2.5 1.2-8.8 5.3-16.2 11.1-22.7 7.8-8.7 16.9-15.6 26.8-21.8 8.3-5.2 17.3-7.8 26.6-9.2 11.3-1.7 22.9-1.7 33.4 3.4 11.8 5.7 23.1 12.4 31.7 22.8 7.7 9.2 13.1 19.4 14.3 31.6.4 4.3 1 8.6.8 12.9 0 .9-.2 2 1.5 1.1 8.2-4.5 16.5-3.4 24.7 0 3.4 1.4 5.9 3.7 7.9 6.8 2.9 4.6 6.5 8.7 8.5 13.8 1.4 3.7 2.1 7.5 1.6 11.4 0 .4-.1.8-.1 1.3-.6 8.1-.6 8.1 7.9 7.3z"/><path d="m406.3 253.3c5.1-2.7 9.7-2.4 14.3-.3 5.2 2.4 10.2 11.5 9.8 17.3-.4 4.9-.4 4.9 4.5 4.6 7.7-.5 11.7 3.9 13 10.7.8 4-1.7 8.1-5.7 9.8-3.1 1.3-6.3 1.5-9.7 1.5-23 0-46.1 0-69.1 0-9.7 0-19.3 0-29 0-2.5 0-5 .5-7.5.6-7.9.4-15.1-2.1-19.9-8.5-4-5.4-6.5-11.9-6.3-18.8.2-6.4 2.7-12.2 6.7-17.2 1-1.3 2-2.5 3-3.8 3.9-4.8 8.9-6 14.8-4.7 1.1.3 2.1.6 2.3-1.2.8-6.7 4.7-11.7 9.5-16 4-3.7 8.3-7 13.2-9.4 7-3.5 14.5-4.8 22.4-4.1 12 1 30.5 14.1 32.9 29 .6 3.2 1.1 6.6.8 10.5z"/><path d="m308.4 224.7c-5.8.1-12.2 1.4-18.6 1-8.8-.5-17.6.3-26.2-2-8.3-2.3-15.5-6.1-19.5-14.4-3.8-7.8-1.5-16.7 5.5-21.9 4.1-3 8.7-5 13.7-5.7 1.8-.2 2.4-1 2.8-2.6 1.6-6.4 4.4-12.3 9.5-16.7 9.2-7.7 22.5-7.1 32.4 1.1 4.9 4 8.5 9 11.1 14.6 1.2 2.7 2.5 4.2 5.9 4 5-.2 10 .8 14 4.3 5.9 5.2 7.4 12.9 4.1 21.1-3.5 9-10.5 13.7-19.7 15.6-4.8 1.1-9.6 1.9-15 1.6z"/></g><path d="m126.6 252.7c-.6 1.2-.4 2.4.9 3 1.4.7 2.4 0 3.1-1.3 2.4-4.9 5.3-9.4 8.3-14 17.1-26.3 55.6-32.4 80.3-16.1 2.2 1.4 4.4 2.8 6.7 4.2 1.2.7 2.3.6 3.1-.6.7-1.2.3-2.3-.9-3-2.8-1.8-5.6-3.6-8.4-5.3-9.7-5.7-20.2-8.5-30.8-8.7-12.8.3-24.3 3-34.9 9.2-13 7.7-20.8 19.7-27.4 32.6z"/><path d="m98.6 276.4c1.5-.6 2.8-1.2 2.2-3.1-.6-1.8-2.1-1.5-3.6-1-17.3 5.5-23.5 20.2-24 33.4.4 9.6 3.7 18.8 11 26.5 1.6 1.7 3.4 3.3 5.4 4.6 1.2.8 2.3.7 3.1-.5.7-1.1.4-2.1-.6-2.9-.3-.3-.7-.5-1-.8-8.6-6.7-12.9-15.6-13.5-26.2-.7-13.7 7.1-24.7 21-30z"/><path d="m339 246.5c1.8.7 2.5-.5 3.2-2 6.5-14.7 24.2-20 37.8-11.2 1.4.9 2.7 1.5 3.7-.1s-.1-2.6-1.4-3.5c-5-3.4-10.5-4.9-13.9-4.9-14.6-.1-26.2 7.6-30.3 18.1-.5 1.4-.9 2.8.9 3.6z"/><path d="m300.8 165.1c-6.2-4-12.7-4.3-19.2-.9s-9.9 9.2-11.4 15.9c-.1 1.5.5 2.5 1.7 2.7 1.4.2 2.2-.6 2.5-1.9.6-2.7 1.6-5.2 3.1-7.4 4.6-6.8 12.7-9.1 19.5-5.5 2.4 1.3 4.4 3.1 6.1 5.3.9 1.2 2 1.6 3.3.6 1.2-1 1-2.2.1-3.4-1.6-2.1-3.4-4-5.7-5.4z"/><path d="m314.6 285c1.2 1.3 2.7 3.3 4.6 1.3s-.4-3.1-1.5-4.3c-3.8-4.2-5.9-9-4.3-14.6 1.5-5.2 4.5-9.1 10.5-9.6 1.3-.1 2-1.1 1.8-2.3-.2-1.4-1.2-1.9-2.7-1.9-2.9 0-6.2 1.4-8.7 3.9-7.7 7.4-7.6 19.5.3 27.5z"/><path d="m235 238c-.8.7-1.1 1.6-.5 2.5 1.9 2.6 3.4 5.4 4.7 8.4.4.9 1.5 1.1 2.4.7 1-.4 1.4-1.2 1.4-2.4-1.2-3.4-2.8-6.7-5.5-9.4-.7-.7-1.7-.5-2.5.2z"/><path d="m389.9 240.5c-1 .7-1.2 1.7-.7 2.7.8 1.7 1.7 3.3 2.6 4.9.5.9 1.4 1.3 2.4 1 1-.2 1.5-1 1.6-2.3-.9-2.1-1.7-4.5-3.5-6.3-.7-.6-1.6-.6-2.4 0z"/><path d="m246.6 273c1.7-.1 2.1-1.4 2.1-2.9 0-.7 0-1.4-.1-2-.3-1.7.3-4.3-2.4-4.2-2.8.1-1.9 2.6-1.8 4.3v2c-.1 1.7.4 2.9 2.2 2.8z"/><path d="m113.3 277.5c.7-.1 1.7-.6 1.8-2 .1-1.7-1.6-2.7-4.9-2.9-1.5-.1-2.5.6-2.6 2.1.1 1.6 2.1 2.7 5.7 2.8z"/><path d="m311.2 185.4c1.4.1 2.1-.9 2.1-2 0-2.8-1.4-5-3-4.9-1.4.1-2.3 1.1-2 2.4.5 1.8.3 4.2 2.9 4.5z"/></svg>