<svg xmlns="http://www.w3.org/2000/svg" width="40" height="40">
  <defs>
    <linearGradient id="a" x1="50%" x2="50%" y1="0%" y2="100%">
      <stop offset="0%" stop-color="#F8FAFC"/>
      <stop offset="100%" stop-color="#E2E8F0"/>
    </linearGradient>
  </defs>
  <g fill="none" fill-rule="evenodd">
    <circle cx="20" cy="20" r="20" fill="url(#a)"/>
    <path fill="#0B0909" d="M20.012 11.5c-4.682 0-8.512 3.83-8.512 8.512 0 3.724 2.447 6.916 5.852 8.087.426.106.532-.213.532-.426v-1.49c-2.34.533-2.873-1.064-2.873-1.064-.425-.957-.957-1.276-.957-1.276-.745-.532.106-.532.106-.532.851.106 1.277.85 1.277.85.745 1.384 2.022.958 2.447.746.107-.532.32-.958.532-1.17-1.915-.214-3.83-.958-3.83-4.257 0-.957.319-1.702.85-2.234-.106-.213-.425-1.064.107-2.235 0 0 .745-.213 2.341.851.639-.212 1.383-.319 2.128-.319.745 0 1.49.107 2.128.32 1.596-1.065 2.341-.852 2.341-.852.426 1.17.213 2.022.106 2.235.532.638.852 1.383.852 2.234 0 3.299-2.022 3.937-3.937 4.15.319.425.638.957.638 1.702v2.341c0 .213.107.532.639.426 3.404-1.17 5.852-4.363 5.852-8.087-.107-4.682-3.937-8.512-8.619-8.512Z"/>
  </g>
</svg>
