<svg xmlns="http://www.w3.org/2000/svg" width="40" height="40">
  <g fill="none" fill-rule="evenodd">
    <circle cx="20" cy="20" r="20" fill="#E1567C"/>
    <path fill="#FFF" fill-rule="nonzero" d="M21.497 12.757a1.564 1.564 0 0 0-2.68 0l-2.204 3.775a10.79 10.79 0 0 1 5.946 8.93H21.01a9.272 9.272 0 0 0-5.179-7.61l-2.04 3.527a5.333 5.333 0 0 1 3.092 4.077H13.33a.255.255 0 0 1-.208-.372l.985-1.675a3.598 3.598 0 0 0-1.125-.636l-.975 1.675a1.52 1.52 0 0 0 .566 2.09c.231.13.492.2.757.201h4.867a6.499 6.499 0 0 0-2.68-5.798l.774-1.34a7.996 7.996 0 0 1 3.45 7.138h4.124a12.02 12.02 0 0 0-5.497-10.652l1.565-2.68a.258.258 0 0 1 .351-.09c.178.097 6.797 11.647 6.921 11.78a.255.255 0 0 1-.228.38h-1.594c.02.426.02.851 0 1.276h1.601a1.538 1.538 0 0 0 1.34-2.308l-6.827-11.688Z"/>
  </g>
</svg>
