<svg xmlns="http://www.w3.org/2000/svg" viewBox="0 0 90 90"><defs><linearGradient x1="84.775%" y1="-9.121%" x2="-40.08%" y2="116.867%" id="a"><stop stop-color="#17CCFC" offset="0%"/><stop stop-color="#5D31FF" offset="50%"/><stop stop-color="#F35AFF" offset="100%"/></linearGradient></defs><g fill="none"><path fill="" d="M0 0h90v90H0z"/><path d="m59.468 9.877-8.961 9.002a1.773 1.773 0 0 1-2.18.262 21.247 21.247 0 0 0-23.187.755 21.418 21.418 0 0 0-5.33 5.355 21.536 21.536 0 0 0-.758 23.299 1.792 1.792 0 0 1-.262 2.183l-8.96 9.001a1.774 1.774 0 0 1-2.69-.196A37.6 37.6 0 0 1 .014 36.45a37.583 37.583 0 0 1 8.388-22.657 37.053 37.053 0 0 1 5.33-5.354A37.214 37.214 0 0 1 36.285.014 37.197 37.197 0 0 1 59.267 7.17a1.781 1.781 0 0 1 .722 1.307 1.79 1.79 0 0 1-.52 1.4Z" fill="url(#a)" transform="translate(8 8)"/><path d="m67.46 73.09-8.962-9.002a1.774 1.774 0 0 0-2.18-.262 21.25 21.25 0 0 1-11.013 3.079 21.25 21.25 0 0 1-11.013-3.079 1.77 1.77 0 0 0-2.18.262l-8.96 9.002a1.784 1.784 0 0 0-.542 1.414 1.79 1.79 0 0 0 .737 1.322A37.2 37.2 0 0 0 45.3 83a37.2 37.2 0 0 0 21.952-7.174 1.781 1.781 0 0 0 .743-1.319 1.796 1.796 0 0 0-.535-1.417ZM45.324 56.194c5.887 0 10.66-4.795 10.66-10.71 0-5.914-4.773-10.708-10.66-10.708-5.888 0-10.662 4.794-10.662 10.709 0 5.914 4.774 10.709 10.662 10.709Z" fill="#1F0256"/>
</g></svg>