<svg id="color" enable-background="new 0 0 24 24" height="512" viewBox="0 0 24 24" width="512" xmlns="http://www.w3.org/2000/svg"><path d="m18.697 19.487c-2.684 0-6.246-1.221-9.338-2.97-4.18-2.365-7.309-5.489-7.971-7.959-.31-1.156-.04-1.968.242-2.445 1.718-2.918 7.986-1.472 13.01 1.371 4.18 2.365 7.309 5.489 7.971 7.959.31 1.156.04 1.968-.242 2.445-.661 1.122-1.994 1.599-3.672 1.599zm-13.398-12.989c-1.959 0-2.208.686-1.979 1.542.42 1.568 2.797 4.345 7.023 6.737 5.283 2.989 9.631 3.238 10.302 2.096.126-.214.138-.521.033-.912-.42-1.568-2.797-4.345-7.023-6.737-3.428-1.94-6.464-2.726-8.356-2.726z" fill="#0097a7"/><path d="m14 12c0 1.104-.896 2-2 2s-2-.896-2-2 .896-2 2-2 2 .896 2 2z" fill="#607d8b"/><path d="m12 24c-3.283 0-5-6.037-5-12s1.717-12 5-12 5 6.037 5 12-1.717 12-5 12zm0-22c-1.194 0-3 3.988-3 10s1.806 10 3 10 3-3.988 3-10-1.806-10-3-10z" fill="#00bcd4"/><path d="m14.14 5.36c-.71.22-1.43.5-2.14.81.82.35 1.63.75 2.42 1.19l.18-.06c-.13-.71-.29-1.36-.46-1.94zm8.23.75c-.98-1.66-3.43-1.91-6.29-1.28.18.61.33 1.26.45 1.93.83-.18 1.56-.26 2.17-.26 2.014 0 2.187.732 1.98 1.54-.18.67-.72 1.57-1.61 2.57-1.804 1.98-4.587 3.881-7.07 5.03.85.41 1.66.74 2.42 1 1.65-.944 4.001-2.374 6.07-4.64 1.09-1.19 1.84-2.37 2.12-3.44.231-.853.193-1.697-.24-2.45zm-7.77 1.19c-.13-.71-.29-1.36-.46-1.94-.71.22-1.43.5-2.14.81.82.35 1.63.75 2.42 1.19zm-5.2 9.4c.13.71.29 1.37.46 1.95.71-.23 1.43-.5 2.14-.81-.82-.36-1.64-.76-2.42-1.2zm-3.04-4.7c1.758-1.507 3.766-2.772 5.64-3.64-.85-.41-1.66-.74-2.42-1-1.65.944-3.127 1.887-4.65 3.25-1.366 1.186-3.079 3.067-3.54 4.83-.576 2.153.636 4.05 3.91 4.05.81 0 1.69-.11 2.62-.32-.18-.61-.33-1.26-.45-1.93-1.88.4-4.63.593-4.15-1.28.382-1.423 1.945-2.987 3.04-3.96z" fill="#4dd0e1"/><path d="m9.069 14.009c.063.901.167 1.742.301 2.514.07.039.14.079.21.117h.001c.786.435 1.599.835 2.419 1.19v-2.189c-.539-.258-1.092-.546-1.656-.865-.445-.252-.87-.508-1.275-.767zm-2.705-2.012c-.002.001-.003.002-.004.003-.436.388-.947.87-1.428 1.399.672.593 1.42 1.178 2.228 1.739-.089-.853-.141-1.728-.156-2.606-.223-.179-.437-.358-.64-.535zm3.494-6.642c-.172.582-.326 1.231-.455 1.94.373.126.757.268 1.152.427.348.139.705.293 1.07.461.124.057.249.116.375.176v-2.189c-.714-.309-1.433-.583-2.142-.815zm-4.556-.842c-1.677 0-3.011.477-3.672 1.599-.281.477-.551 1.289-.241 2.445.285 1.064 1.028 2.25 2.116 3.444.474-.521.969-.995 1.426-1.391.002-.002.005-.004.007-.006-.895-.994-1.437-1.891-1.617-2.564-.23-.855.02-1.542 1.979-1.542.611 0 1.341.082 2.164.258.126-.675.278-1.322.455-1.932-.927-.201-1.811-.311-2.617-.311z" fill="#008391"/><path d="m12 10c-1.104 0-2 .896-2 2s.896 2 2 2z" fill="#546d79"/><path d="m9.07 9.983c-.703.454-1.398.951-2.065 1.484-.003.178-.005.355-.005.533 0 .177.002.355.005.532.015.877.067 1.752.156 2.606.075.721.176 1.426.303 2.104.002 0 .004-.001.006-.001.12.67.271 1.32.45 1.93-.001 0-.001 0-.002 0 .823 2.832 2.194 4.829 4.082 4.829v-2c-.769 0-1.792-1.654-2.422-4.437-.064-.277-.124-.566-.178-.863h.002c-.011-.059-.021-.117-.031-.177-.134-.772-.238-1.613-.301-2.514-.046-.64-.07-1.311-.07-2.009 0-.701.025-1.374.07-2.017zm2.93-9.983c-1.887 0-3.257 1.995-4.081 4.824-.177.61-.329 1.257-.455 1.932-.127.678-.228 1.383-.303 2.104.715-.492 1.444-.938 2.209-1.379.01-.063.021-.124.033-.186.129-.709.284-1.358.455-1.94.626-2.124 1.479-3.355 2.142-3.355z" fill="#00a4b9"/><path d="m9.58 16.64-.178.06h-.002c.055.297.114.586.178.863.088.385.183.749.282 1.087.71-.23 1.43-.5 2.14-.81-.82-.36-1.64-.76-2.42-1.2zm0-9.28c-.07.04-.141.08-.21.121-.765.441-1.494.887-2.209 1.379-.747.514-1.48 1.079-2.223 1.744-.002.002-.005.004-.007.006-.456.396-.951.87-1.426 1.391-.946 1.039-1.808 2.265-2.115 3.439-.576 2.153.636 4.05 3.91 4.05.809 0 1.689-.11 2.618-.32h.002c-.18-.61-.33-1.26-.45-1.93-.002 0-.004.001-.006.001-.686.146-1.488.264-2.205.264-1.248 0-2.243-.357-1.938-1.545.23-.856.887-1.762 1.612-2.561.48-.529.99-1.011 1.427-1.399.001-.001.002-.002.004-.003.21-.18.424-.357.641-.53.667-.532 1.362-1.03 2.065-1.484.977-.631 1.971-1.179 2.93-1.623-.126-.061-.251-.12-.375-.177-.365-.168-.722-.321-1.07-.461-.333-.133-.658-.254-.975-.362z" fill="#43b5c4"/></svg>