<?xml version="1.0" encoding="iso-8859-1"?>
<!-- Generator: Adobe Illustrator 19.0.0, SVG Export Plug-In . SVG Version: 6.00 Build 0)  -->
<svg version="1.1" id="Capa_1" xmlns="http://www.w3.org/2000/svg" xmlns:xlink="http://www.w3.org/1999/xlink" x="0px" y="0px"
	 viewBox="0 0 409.606 409.606" style="enable-background:new 0 0 409.606 409.606;" xml:space="preserve">
<g>
	<g>
		<path d="M85.338,307.206H17.073c-9.385,0-17.07,7.68-17.07,17.065v68.265c0,9.385,7.685,17.07,17.07,17.07h68.265
			c9.38,0,17.065-7.685,17.065-17.07v-68.265C102.403,314.886,94.718,307.206,85.338,307.206z"/>
	</g>
</g>
<g>
	<g>
		<path d="M221.868,307.206h-68.265c-9.385,0-17.07,7.68-17.07,17.065v68.265c0,9.385,7.685,17.07,17.07,17.07h68.265
			c9.38,0,17.065-7.685,17.065-17.07v-68.265C238.933,314.886,231.248,307.206,221.868,307.206z"/>
	</g>
</g>
<g>
	<g>
		<path d="M358.398,307.206h-68.265c-9.385,0-17.07,7.68-17.07,17.065v68.265c0,9.385,7.685,17.07,17.07,17.07h68.265
			c9.38,0,17.065-7.685,17.065-17.07v-68.265C375.463,314.886,367.778,307.206,358.398,307.206z"/>
	</g>
</g>
<g>
	<g>
		<path d="M85.338,170.676H17.073c-9.385,0-17.07,7.68-17.07,17.065v68.265c0,9.385,7.685,17.065,17.07,17.065h68.265
			c9.38,0,17.065-7.68,17.065-17.065v-68.265C102.403,178.356,94.718,170.676,85.338,170.676z"/>
	</g>
</g>
<g>
	<g>
		<path d="M221.868,170.676h-68.265c-9.385,0-17.07,7.68-17.07,17.065v68.265c0,9.385,7.685,17.065,17.07,17.065h68.265
			c9.38,0,17.065-7.68,17.065-17.065v-68.265C238.933,178.356,231.248,170.676,221.868,170.676z"/>
	</g>
</g>
<g>
	<g>
		<path d="M401.698,233.827l-26.132-63.083c-3.589-8.668-13.619-12.836-22.282-9.237l-63.078,26.138
			c-8.668,3.599-12.815,13.635-9.236,22.298l26.132,63.063c3.584,8.668,13.614,12.815,22.298,9.237l63.063-26.133
			C401.13,252.52,405.277,242.49,401.698,233.827z"/>
	</g>
</g>
<g>
	<g>
		<path d="M85.338,34.147H17.073c-9.385,0-17.07,7.68-17.07,17.065v68.265c0,9.385,7.685,17.065,17.07,17.065h68.265
			c9.38,0,17.065-7.68,17.065-17.065V51.211C102.403,41.827,94.718,34.147,85.338,34.147z"/>
	</g>
</g>
<g>
	<g>
		<path d="M238.867,51.114l-63.084-26.132c-8.663-3.599-18.698,0.573-22.298,9.236l-26.117,63.063
			c-3.599,8.663,0.568,18.714,9.236,22.298l63.068,26.133c8.663,3.594,18.714-0.573,22.298-9.237l26.127-63.063
			C251.682,64.749,247.53,54.698,238.867,51.114z"/>
	</g>
</g>
<g>
	<g>
		<path d="M404.627,53.26L356.36,4.973c-6.63-6.63-17.5-6.63-24.131,0L283.958,53.26c-6.63,6.635-6.63,17.5,0,24.136l48.271,48.282
			c6.63,6.636,17.5,6.636,24.131,0l48.266-48.282C411.262,70.76,411.262,59.895,404.627,53.26z"/>
	</g>
</g>
<g>
</g>
<g>
</g>
<g>
</g>
<g>
</g>
<g>
</g>
<g>
</g>
<g>
</g>
<g>
</g>
<g>
</g>
<g>
</g>
<g>
</g>
<g>
</g>
<g>
</g>
<g>
</g>
<g>
</g>
</svg>
