<svg id="Capa_1" enable-background="new 0 0 510 510" height="512" viewBox="0 0 510 510" width="512" xmlns="http://www.w3.org/2000/svg" xmlns:xlink="http://www.w3.org/1999/xlink"><linearGradient id="lg1"><stop offset="0" stop-color="#f7e07d"/><stop offset="1" stop-color="#e69642"/></linearGradient><linearGradient id="SVGID_1_" gradientUnits="userSpaceOnUse" x1="20" x2="436.173" xlink:href="#lg1" y1="20" y2="436.173"/><linearGradient id="lg2"><stop offset="0" stop-color="#d52c1c" stop-opacity="0"/><stop offset=".2813" stop-color="#cc2c20" stop-opacity=".281"/><stop offset=".7301" stop-color="#b52b2a" stop-opacity=".73"/><stop offset="1" stop-color="#a42b31"/></linearGradient><linearGradient id="SVGID_2_" gradientUnits="userSpaceOnUse" x1="255" x2="255" xlink:href="#lg2" y1="288.383" y2="619.034"/><linearGradient id="SVGID_3_" gradientUnits="userSpaceOnUse" x1="101.456" x2="291.624" xlink:href="#lg1" y1="295.462" y2="485.631"/><linearGradient id="SVGID_4_" gradientUnits="userSpaceOnUse" x1="255" x2="255" xlink:href="#lg2" y1="400" y2="544.014"/><linearGradient id="SVGID_5_" gradientUnits="userSpaceOnUse" x1="427.024" x2="339.024" xlink:href="#lg2" y1="243.399" y2="178.399"/><linearGradient id="SVGID_6_" gradientUnits="userSpaceOnUse" x1="153.549" x2="364.948" xlink:href="#lg1" y1="-7.269" y2="204.13"/><linearGradient id="SVGID_7_" gradientUnits="userSpaceOnUse" x1="286.542" x2="343.257" xlink:href="#lg2" y1="173.127" y2="405.302"/><linearGradient id="SVGID_8_" gradientUnits="userSpaceOnUse" x1="382" x2="192.243" xlink:href="#lg2" y1="428" y2="238.243"/><linearGradient id="lg3"><stop offset="0" stop-color="#dc4955"/><stop offset="1" stop-color="#c4237c"/></linearGradient><linearGradient id="SVGID_9_" gradientUnits="userSpaceOnUse" x1="213.139" x2="288.647" xlink:href="#lg3" y1="259.139" y2="334.647"/><linearGradient id="SVGID_10_" gradientUnits="userSpaceOnUse" x1="301.73" x2="213.914" xlink:href="#lg3" y1="347.73" y2="259.914"/><linearGradient id="SVGID_11_" gradientUnits="userSpaceOnUse" x1="255" x2="255" y1="154.667" y2="344.198"><stop offset="0" stop-color="#8a1958" stop-opacity="0"/><stop offset="1" stop-color="#8a1958"/></linearGradient><g><path d="m403.41 0h-296.82c-58.87 0-106.59 47.72-106.59 106.59v296.82c0 58.87 47.72 106.59 106.59 106.59h296.82c58.87 0 106.59-47.72 106.59-106.59v-296.82c0-58.87-47.72-106.59-106.59-106.59z" fill="url(#SVGID_1_)"/><path d="m0 276.384v127.026c0 58.87 47.72 106.59 106.59 106.59h296.82c58.87 0 106.59-47.72 106.59-106.59v-127.026z" fill="url(#SVGID_2_)"/><path d="m106.59 510h296.82c34.117 0 64.487-16.029 83.997-40.965l-179.006-219.665c-27.565-33.827-79.236-33.827-106.802 0l-179.006 219.665c19.51 24.936 49.88 40.965 83.997 40.965z" fill="url(#SVGID_3_)"/><path d="m0 344.63v58.78c0 58.87 47.72 106.59 106.59 106.59h296.82c58.87 0 106.59-47.72 106.59-106.59v-58.78z" fill="url(#SVGID_4_)"/><path d="m437.825 5.681-228.962 268.37 229.928 229.928c41.476-14.59 71.209-54.103 71.209-100.569v-296.82c0-46.827-30.194-86.597-72.175-100.909z" fill="url(#SVGID_5_)"/><g><path d="m403.41 0h-296.82c-35.481 0-66.907 17.339-86.281 44.002l181.29 282.998c27.565 33.827 79.236 33.827 106.802 0l181.29-282.998c-19.374-26.663-50.8-44.002-86.281-44.002z" fill="url(#SVGID_6_)"/><path d="m403.41 0h-296.82c-35.481 0-66.907 17.339-86.281 44.002l181.29 282.998c27.565 33.827 79.236 33.827 106.802 0l181.29-282.998c-19.374-26.663-50.8-44.002-86.281-44.002z" fill="url(#SVGID_7_)"/></g><path d="m502.131 443.659-190.972-190.973c-13.55-15.146-33.237-24.686-55.159-24.686-40.869 0-74 33.131-74 74 0 21.922 9.54 41.609 24.686 55.159l152.841 152.841h43.883c44.627 0 82.84-27.427 98.721-66.341z" fill="url(#SVGID_8_)"/><circle cx="255" cy="301" fill="url(#SVGID_9_)" r="74"/><circle cx="255" cy="301" fill="url(#SVGID_10_)" r="58.283"/><path d="m255.696 255.544c-30.135 0-44.696 20.386-44.696 46.722 0 29.756 18.612 44.19 38.619 44.19 7.47 0 23.424-1.899 23.424-8.104 0-1.899-1.519-5.571-4.685-5.571-2.912 0-6.458 3.039-16.334 3.039-22.412 0-28.742-15.7-28.742-33.68 0-19.247 7.218-35.96 32.541-35.96 21.525 0 31.022 12.282 31.022 34.947 0 5.571-.507 17.347-6.838 17.347-1.899 0-2.786-1.266-3.545-5.951v-21.652c0-11.522-10.635-17.22-21.398-17.22-9.116 0-18.866 4.179-18.866 9.37 0 2.406 1.899 7.217 4.431 7.217 2.28 0 5.065-3.545 12.535-3.545 6.458 0 9.37 2.659 9.37 8.104v1.646h-3.419c-14.435 0-25.703 4.052-25.703 16.08 0 10.256 8.356 14.941 15.827 14.941 6.837 0 11.902-3.799 15.954-9.243 1.013 5.571 6.078 9.623 13.675 9.623 13.675 0 20.133-13.421 20.133-29.882-.001-25.831-16.082-42.418-43.305-42.418zm7.597 51.534c0 5.319-5.445 10.383-10.13 10.383-2.659 0-4.305-1.9-4.305-5.192 0-5.191 4.178-7.976 12.156-7.976h2.279z" fill="url(#SVGID_11_)"/></g></svg>