<svg id="Capa_1" enable-background="new 0 0 510 510" height="512" viewBox="0 0 510 510" width="512" xmlns="http://www.w3.org/2000/svg" xmlns:xlink="http://www.w3.org/1999/xlink"><linearGradient id="SVGID_1_" gradientUnits="userSpaceOnUse" x1="187.633" x2="308.01" y1="403.867" y2="524.243"><stop offset="0" stop-color="#5a5a5a"/><stop offset="1" stop-color="#464646"/></linearGradient><linearGradient id="lg1"><stop offset="0" stop-color="#464646" stop-opacity="0"/><stop offset="1" stop-color="#202020"/></linearGradient><linearGradient id="SVGID_2_" gradientUnits="userSpaceOnUse" x1="290.124" x2="335.668" xlink:href="#lg1" y1="490.624" y2="445.08"/><linearGradient id="SVGID_3_" gradientUnits="userSpaceOnUse" x1="202.734" x2="171.04" xlink:href="#lg1" y1="280.734" y2="312.427"/><linearGradient id="SVGID_4_" gradientUnits="userSpaceOnUse" x1="88.938" x2="119.485" xlink:href="#lg1" y1="412.938" y2="382.391"/><linearGradient id="lg2"><stop offset="0" stop-color="#bce097"/><stop offset="1" stop-color="#7dc03a"/></linearGradient><linearGradient id="SVGID_5_" gradientUnits="userSpaceOnUse" x1="216.632" x2="216.632" xlink:href="#lg2" y1="132.037" y2="399.083"/><linearGradient id="lg3"><stop offset="0" stop-color="#8cc951" stop-opacity="0"/><stop offset="1" stop-color="#3e6e66"/></linearGradient><linearGradient id="SVGID_6_" gradientUnits="userSpaceOnUse" x1="240.185" x2="217.846" xlink:href="#lg3" y1="374.918" y2="455.899"/><linearGradient id="SVGID_7_" gradientUnits="userSpaceOnUse" x1="296.511" x2="338.431" xlink:href="#lg3" y1="403.299" y2="359.35"/><linearGradient id="SVGID_8_" gradientUnits="userSpaceOnUse" x1="82.278" x2="126.989" xlink:href="#lg3" y1="177.933" y2="150.659"/><linearGradient id="SVGID_9_" gradientUnits="userSpaceOnUse" x1="77.4" x2="185.24" xlink:href="#lg2" y1="71.755" y2="179.595"/><linearGradient id="SVGID_10_" gradientUnits="userSpaceOnUse" x1="127.635" x2="89.322" xlink:href="#lg3" y1="132.063" y2="161.863"/><linearGradient id="SVGID_11_" gradientUnits="userSpaceOnUse" x1="302.791" x2="414.987" xlink:href="#lg2" y1="297.147" y2="409.342"/><linearGradient id="SVGID_12_" gradientUnits="userSpaceOnUse" x1="356.043" x2="327.246" xlink:href="#lg3" y1="355.401" y2="393.099"/><linearGradient id="lg4"><stop offset="0" stop-color="#eef4ff"/><stop offset="1" stop-color="#cfe7fd"/></linearGradient><linearGradient id="SVGID_13_" gradientTransform="matrix(.707 .707 -.707 .707 279.806 -498.556)" gradientUnits="userSpaceOnUse" x1="446.223" x2="526.032" xlink:href="#lg4" y1="314.768" y2="425.049"/><linearGradient id="SVGID_14_" gradientTransform="matrix(.707 .707 -.707 .707 279.806 -498.556)" gradientUnits="userSpaceOnUse" x1="420.194" x2="500.003" xlink:href="#lg4" y1="333.605" y2="443.886"/><linearGradient id="SVGID_15_" gradientTransform="matrix(.707 .707 -.707 .707 279.806 -498.556)" gradientUnits="userSpaceOnUse" x1="395.199" x2="475.007" xlink:href="#lg4" y1="351.694" y2="461.975"/><g><path d="m313.921 510h-186.028c-31.18 0-57.962-17.895-69.894-46.701-11.933-28.807-5.648-60.398 16.399-82.445.07-.071.142-.141.213-.21l133.728-129.228c6.95-6.719 18.028-6.526 24.745.423 6.717 6.95 6.527 18.029-.423 24.745l-133.61 129.114c-14.064 14.146-13.73 32.102-8.716 44.206 5.024 12.132 17.53 25.096 37.558 25.096h186.028c9.202 0 12.822-7.013 13.712-9.162.891-2.149 3.289-9.667-3.217-16.174l-16.29-16.29c-6.835-6.834-6.835-17.914 0-24.748 6.834-6.834 17.914-6.834 24.748 0l16.29 16.29c14.525 14.525 18.666 35.338 10.805 54.316-7.862 18.978-25.506 30.768-46.048 30.768z" fill="url(#SVGID_1_)"/><path d="m332.874 408.626c-6.834-6.834-17.914-6.834-24.748 0-6.835 6.834-6.835 17.914 0 24.748l16.29 16.29c6.506 6.507 4.107 14.024 3.217 16.174-.89 2.149-4.51 9.162-13.712 9.162h-49.421v35h49.421c20.542 0 38.187-11.79 46.048-30.768 7.861-18.979 3.721-39.791-10.805-54.316z" fill="url(#SVGID_2_)"/><path d="m146.843 310.843 24.752 24.752 61.066-59.011c6.95-6.716 7.14-17.795.423-24.745-6.717-6.949-17.795-7.142-24.745-.423z" fill="url(#SVGID_3_)"/><path d="m93 455.5.113-.113c-1.094-1.815-2.022-3.658-2.778-5.482-5.015-12.104-5.349-30.06 8.716-44.206l57.033-55.114-24.752-24.752-56.72 54.812c-.071.069-.143.139-.213.21-10.264 10.264-17.107 22.597-20.291 35.754z" fill="url(#SVGID_4_)"/><g><path d="m328.535 321.525c-13.689-9.857-32.744-6.983-42.918 6.473-20.408 26.991-58.849 32.402-85.826 11.975-9.459-7.162-49.553-47.257-56.715-56.716-20.427-26.977-15.016-65.418 11.975-85.826 13.456-10.174 16.33-29.229 6.473-42.918l-47.751-66.321c-11.604-16.116-35.144-17.344-48.373-2.534-.298.333-.594.665-.888.996-34.936 39.283-47.66 93.688-33.06 144.19 5.053 17.478 12.009 34.203 19.744 49.615 32.802 65.362 86.029 118.589 151.392 151.392 15.412 7.735 32.137 14.691 49.615 19.744 50.503 14.601 104.907 1.876 144.19-33.06.331-.294.663-.59.996-.888 14.81-13.228 13.581-36.769-2.534-48.372z" fill="url(#SVGID_5_)"/><path d="m285.617 327.997c-20.408 26.991-58.849 32.402-85.826 11.975-2.767-2.096-8.166-7.02-14.587-13.163h-105.894c31.895 44.203 74.159 80.39 123.278 105.041 15.412 7.735 32.137 14.691 49.615 19.744 50.502 14.601 104.907 1.876 144.19-33.06.331-.294.663-.59.996-.888 14.81-13.228 13.581-36.769-2.534-48.372l-58.981-42.466h-49.313c-.321.388-.637.783-.944 1.189z" fill="url(#SVGID_6_)"/><g><path d="m394.857 369.276-66.321-47.751c-13.69-9.857-32.744-6.983-42.918 6.473-13.35 17.657-34.418 26.074-54.945 24.069l100.834 100.834c23.708-5.971 46.041-17.603 64.888-34.365.331-.294.663-.59.996-.888 14.809-13.229 13.581-36.77-2.534-48.372z" fill="url(#SVGID_7_)"/><path d="m130.982 252.376c-2.005-20.527 6.412-41.595 24.069-54.945 13.456-10.174 16.33-29.229 6.473-42.918l-47.751-66.321c-11.604-16.116-35.145-17.344-48.373-2.534-.298.333-.594.665-.888.996-16.762 18.847-28.394 41.18-34.365 64.888z" fill="url(#SVGID_8_)"/></g><g><path d="m186.451 187.74-15.107 10.527c-12.578 8.765-29.881 5.674-38.646-6.904l-59.058-84.751c-8.765-12.578-5.674-29.881 6.904-38.646l15.107-10.527c12.578-8.765 29.881-5.674 38.646 6.904l59.059 84.751c8.765 12.578 5.673 29.881-6.905 38.646z" fill="url(#SVGID_9_)"/><path d="m88.883 62.155-8.339 5.811c-12.578 8.765-15.669 26.067-6.904 38.646l59.059 84.751c8.765 12.578 26.068 15.669 38.646 6.904l7.082-4.935z" fill="url(#SVGID_10_)"/><path d="m298.212 299.501-10.527 15.107c-8.765 12.578-5.674 29.881 6.904 38.646l84.751 59.059c12.578 8.765 29.881 5.674 38.646-6.904l10.527-15.107c8.765-12.578 5.674-29.881-6.904-38.646l-84.751-59.059c-12.578-8.765-29.88-5.674-38.646 6.904z" fill="url(#SVGID_11_)"/><path d="m417.986 405.408 8.632-12.388-132.089-88.233-6.844 9.821c-8.765 12.578-5.674 29.881 6.904 38.646l84.751 59.059c12.578 8.765 29.881 5.674 38.646-6.905z" fill="url(#SVGID_12_)"/></g></g><g><g><g><path d="m443.212 243.964c-4.338-4.338-7.037-10.316-7.083-16.935-.327-47.58-19.039-92.315-52.691-125.967s-78.387-52.364-125.967-52.691c-13.356-.092-24.11-10.995-24.019-24.351.092-13.357 10.994-24.11 24.351-24.019 60.374.415 117.14 24.159 159.838 66.858 42.699 42.699 66.443 99.464 66.858 159.838.092 13.357-10.662 24.259-24.019 24.351-6.738.046-12.852-2.668-17.268-7.084z" fill="url(#SVGID_13_)"/><path d="m240.536 118.794c-4.44-4.44-7.158-10.593-7.083-17.367.146-13.357 11.092-24.066 24.449-23.92 39.633.434 76.901 16.113 104.94 44.152s43.719 65.308 44.152 104.94c.146 13.357-10.564 24.303-23.92 24.449-13.357.145-24.303-10.564-24.449-23.92-.294-26.913-10.943-52.221-29.987-71.265-19.043-19.043-44.353-29.693-71.265-29.987-6.583-.073-12.523-2.768-16.837-7.082z" fill="url(#SVGID_14_)"/><path d="m291.277 243.963c-4.222-4.222-6.898-10.005-7.072-16.444-.194-7.182-3.104-13.94-8.194-19.029-5.089-5.089-11.847-7.999-19.029-8.193-13.354-.362-23.885-11.479-23.522-24.831.361-13.352 11.479-23.883 24.831-23.522 19.606.531 38.047 8.466 51.924 22.343s21.812 32.318 22.343 51.923c.362 13.353-10.17 24.47-23.522 24.831-6.913.186-13.227-2.546-17.759-7.078z" fill="url(#SVGID_15_)"/></g></g></g></g></svg>