<svg id="Capa_1" enable-background="new 0 0 510 510" height="512" viewBox="0 0 510 510" width="512" xmlns="http://www.w3.org/2000/svg" xmlns:xlink="http://www.w3.org/1999/xlink"><linearGradient id="lg1"><stop offset="0" stop-color="#eef4ff"/><stop offset="1" stop-color="#cfe7fd"/></linearGradient><linearGradient id="SVGID_1_" gradientUnits="userSpaceOnUse" x1="20" x2="436.173" xlink:href="#lg1" y1="20" y2="436.173"/><linearGradient id="lg2"><stop offset="0" stop-color="#8aaadc" stop-opacity="0"/><stop offset="1" stop-color="#8aaadc"/></linearGradient><linearGradient id="SVGID_2_" gradientUnits="userSpaceOnUse" x1="255" x2="255" xlink:href="#lg2" y1="409" y2="508.247"/><linearGradient id="SVGID_3_" gradientUnits="userSpaceOnUse" x1="94.193" x2="374.056" y1="93.193" y2="373.056"><stop offset="0" stop-color="#76ccf8"/><stop offset=".833" stop-color="#518ef8"/><stop offset="1" stop-color="#4981f8"/></linearGradient><linearGradient id="SVGID_4_" gradientUnits="userSpaceOnUse" x1="223.697" x2="11.944" y1="269.636" y2="57.883"><stop offset="0" stop-color="#4071f7" stop-opacity="0"/><stop offset="1" stop-color="#30569f"/></linearGradient><linearGradient id="lg3"><stop offset="0" stop-color="#f7e07d"/><stop offset="1" stop-color="#e69642"/></linearGradient><linearGradient id="SVGID_5_" gradientUnits="userSpaceOnUse" x1="303.115" x2="355.932" xlink:href="#lg3" y1="60.888" y2="80.694"/><linearGradient id="SVGID_6_" gradientUnits="userSpaceOnUse" x1="152.239" x2="205.056" xlink:href="#lg3" y1="428.62" y2="448.427"/><linearGradient id="SVGID_7_" gradientUnits="userSpaceOnUse" x1="398.173" x2="476.835" xlink:href="#lg3" y1="315.178" y2="344.676"/><linearGradient id="SVGID_8_" gradientUnits="userSpaceOnUse" x1="30.441" x2="109.103" xlink:href="#lg3" y1="164.302" y2="193.801"/><linearGradient id="SVGID_9_" gradientUnits="userSpaceOnUse" x1="401.404" x2="472.834" xlink:href="#lg3" y1="164.473" y2="191.259"/><linearGradient id="SVGID_10_" gradientUnits="userSpaceOnUse" x1="34.693" x2="106.123" xlink:href="#lg3" y1="317.814" y2="344.6"/><linearGradient id="SVGID_11_" gradientUnits="userSpaceOnUse" x1="295.315" x2="365.592" xlink:href="#lg3" y1="424.723" y2="451.076"/><linearGradient id="SVGID_12_" gradientUnits="userSpaceOnUse" x1="141.975" x2="212.251" xlink:href="#lg3" y1="58.012" y2="84.365"/><linearGradient id="SVGID_13_" gradientUnits="userSpaceOnUse" x1="184.037" x2="296.033" xlink:href="#lg3" y1="184.037" y2="296.033"/><linearGradient id="lg4"><stop offset="0" stop-color="#d52c1c" stop-opacity="0"/><stop offset=".2813" stop-color="#cc2c20" stop-opacity=".281"/><stop offset=".7301" stop-color="#b52b2a" stop-opacity=".73"/><stop offset="1" stop-color="#a42b31"/></linearGradient><linearGradient id="SVGID_14_" gradientUnits="userSpaceOnUse" x1="218" x2="306.535" xlink:href="#lg4" y1="218" y2="306.535"/><linearGradient id="SVGID_15_" gradientUnits="userSpaceOnUse" x1="261.63" x2="61" xlink:href="#lg4" y1="307.703" y2="107.073"/><linearGradient id="lg5"><stop offset="0" stop-color="#bce097"/><stop offset="1" stop-color="#7dc03a"/></linearGradient><linearGradient id="SVGID_16_" gradientUnits="userSpaceOnUse" x1="72.645" x2="175.611" xlink:href="#lg5" y1="326.4" y2="429.366"/><linearGradient id="SVGID_17_" gradientUnits="userSpaceOnUse" x1="228.58" x2="419.857" xlink:href="#lg5" y1="276.959" y2="468.236"/><linearGradient id="SVGID_18_" gradientUnits="userSpaceOnUse" x1="255" x2="255" y1="394.878" y2="482.196"><stop offset="0" stop-color="#8cc951" stop-opacity="0"/><stop offset="1" stop-color="#3e6e66"/></linearGradient><linearGradient id="SVGID_19_" gradientUnits="userSpaceOnUse" x1="65.198" x2="152.872" xlink:href="#lg1" y1="111.142" y2="198.816"/><linearGradient id="SVGID_20_" gradientUnits="userSpaceOnUse" x1="150.362" x2="184.091" xlink:href="#lg2" y1="132.942" y2="132.942"/><linearGradient id="SVGID_21_" gradientUnits="userSpaceOnUse" x1="116.091" x2="148.427" xlink:href="#lg2" y1="119.501" y2="87.488"/><linearGradient id="SVGID_22_" gradientUnits="userSpaceOnUse" x1="122.876" x2="122.876" xlink:href="#lg2" y1="180.869" y2="208.47"/><g><path d="m403.41 0h-296.82c-58.87 0-106.59 47.72-106.59 106.59v296.82c0 58.87 47.72 106.59 106.59 106.59h296.82c58.87 0 106.59-47.72 106.59-106.59v-296.82c0-58.87-47.72-106.59-106.59-106.59z" fill="url(#SVGID_1_)"/><path d="m0 346v57.41c0 58.87 47.72 106.59 106.59 106.59h296.82c58.87 0 106.59-47.72 106.59-106.59v-57.41z" fill="url(#SVGID_2_)"/><path d="m383.622 34h-257.244c-51.021 0-92.378 41.357-92.378 92.378v225.402l2 31.842c0 51.021 39.357 90.378 90.378 90.378h257.244c51.021 0 90.378-39.357 90.378-90.378l2-103.832v-153.412c0-51.021-41.357-92.378-92.378-92.378z" fill="url(#SVGID_3_)"/><path d="m383.622 476c38.888 0 72.157-24.028 85.783-58.046l-295.156-295.157c-3.938-6.523-11.094-10.885-19.269-10.885-2.687 0-5.261.476-7.649 1.342-.025-.02-.05-.04-.075-.059-2.226-2.861-4.799-5.436-7.661-7.661-7.948-10.217-20.355-16.793-34.302-16.793-23.992 0-43.441 19.449-43.441 43.441 0 3.698.464 7.289 1.334 10.717-12.624 4.036-21.766 15.862-21.766 29.825 0 10.602 5.275 19.966 13.338 25.63l277.646 277.646z" fill="url(#SVGID_4_)"/><g><g><path d="m321.178 93.704c8.239 3.38 17.658-.558 21.039-8.797l6.279-15.304c3.38-8.239-.558-17.658-8.797-21.038s-17.658.558-21.039 8.797l-6.279 15.304c-3.381 8.238.558 17.658 8.797 21.038z" fill="url(#SVGID_5_)"/><path d="m188.822 416.297c-8.239-3.38-17.658.558-21.038 8.796l-6.279 15.304c-3.38 8.239.559 17.658 8.797 21.039 8.239 3.38 17.658-.559 21.038-8.797l6.279-15.304c3.381-8.239-.558-17.658-8.797-21.038z" fill="url(#SVGID_6_)"/><path d="m452.639 318.66-15.304-6.279c-8.239-3.38-17.658.558-21.039 8.797-3.38 8.239.558 17.658 8.797 21.039l15.304 6.279c8.239 3.38 17.658-.558 21.038-8.797 3.381-8.24-.557-17.659-8.796-21.039z" fill="url(#SVGID_7_)"/><path d="m57.362 191.341 15.304 6.279c8.239 3.38 17.658-.559 21.038-8.797 3.38-8.239-.558-17.658-8.797-21.039l-15.304-6.279c-8.239-3.38-17.658.558-21.038 8.797h-.001c-3.38 8.239.558 17.658 8.798 21.039z" fill="url(#SVGID_8_)"/><path d="m415.849 187.741c3.436 8.216 12.881 12.091 21.097 8.656l15.261-6.382c8.216-3.435 12.091-12.881 8.656-21.097-3.436-8.216-12.881-12.091-21.097-8.656l-15.262 6.382c-8.215 3.436-12.091 12.881-8.655 21.097z" fill="url(#SVGID_9_)"/><path d="m73.055 313.603-15.261 6.382c-8.216 3.436-12.091 12.881-8.656 21.097 3.435 8.216 12.881 12.091 21.097 8.656l15.262-6.381c8.216-3.435 12.091-12.881 8.656-21.097-3.437-8.217-12.883-12.092-21.098-8.657z" fill="url(#SVGID_10_)"/><path d="m343.356 424.504c-3.435-8.216-12.881-12.091-21.097-8.656-8.216 3.435-12.092 12.881-8.656 21.097l6.382 15.262c3.435 8.215 12.881 12.091 21.096 8.656 8.217-3.436 12.092-12.881 8.656-21.097z" fill="url(#SVGID_11_)"/><path d="m187.741 94.152c8.216-3.436 12.092-12.881 8.656-21.097l-6.382-15.261c-3.435-8.216-12.881-12.092-21.097-8.656-8.216 3.435-12.091 12.881-8.656 21.097l6.382 15.262c3.436 8.215 12.881 12.09 21.097 8.655z" fill="url(#SVGID_12_)"/></g><g><circle cx="255" cy="255" fill="url(#SVGID_13_)" r="130"/></g><circle cx="255" cy="255" fill="url(#SVGID_14_)" r="130"/></g><path d="m368.99 317.538-176.528-176.527c-40.209 22.106-67.462 64.863-67.462 113.989 0 4.866.276 9.667.797 14.394l114.809 114.809c4.728.521 9.528.797 14.394.797 49.127 0 91.883-27.253 113.99-67.462z" fill="url(#SVGID_15_)"/><g><path d="m212.57 360.2-33.73-58.41c-25.77-44.63-90.2-44.63-115.98 0l-28.86 49.99v31.84c0 51.02 41.36 92.38 92.38 92.38h153.04z" fill="url(#SVGID_16_)"/><path d="m429.91 199.96c-27.74-48.05-97.09-48.05-124.83 0l-92.51 160.24-66.86 115.8h237.91c51.02 0 92.38-41.36 92.38-92.38v-103.83z" fill="url(#SVGID_17_)"/></g><path d="m34 366.379v17.243c0 51.021 41.357 92.378 92.378 92.378h257.244c51.021 0 92.378-41.357 92.378-92.378v-17.243z" fill="url(#SVGID_18_)"/><g><path d="m175.343 140.445c.73-2.215 1.13-4.581 1.13-7.04 0-12.423-10.071-22.493-22.493-22.493-3.627 0-7.051.864-10.085 2.389-6.816-15.072-21.984-25.56-39.602-25.56-23.992 0-43.441 19.449-43.441 43.441 0 3.699.464 7.289 1.334 10.717-12.624 4.036-21.766 15.862-21.766 29.825 0 17.291 14.017 31.308 31.308 31.308h102.298s31.308-14.017 31.308-31.308c-.001-16.85-13.311-30.588-29.991-31.279z" fill="url(#SVGID_19_)"/><path d="m176.473 133.406c0 2.458-.394 4.825-1.125 7.04-.437-.019-.88-.029-1.323-.029-11.127 0-20.899 5.808-26.448 14.554-9.303-2.755-16.09-11.366-16.09-21.565 0-12.424 10.069-22.493 22.493-22.493s22.493 10.069 22.493 22.493z" fill="url(#SVGID_20_)"/><path d="m142.132 152.529c-7.453 13.19-21.607 22.092-37.84 22.092-23.99 0-43.44-19.447-43.44-43.44 0-23.99 19.45-43.44 43.44-43.44 17.617 0 32.786 10.487 39.602 25.555-7.36 3.696-12.407 11.314-12.407 20.11 0 8.074 4.256 15.155 10.645 19.123z" fill="url(#SVGID_21_)"/><path d="m40.419 171.724c0 17.291 14.017 31.308 31.308 31.308h102.298s31.308-14.017 31.308-31.308c0-3.353-.529-6.582-1.504-9.61h-161.901c-.977 3.028-1.509 6.256-1.509 9.61z" fill="url(#SVGID_22_)"/></g></g></svg>