<svg id="Capa_1" enable-background="new 0 0 510 510" height="512" viewBox="0 0 510 510" width="512" xmlns="http://www.w3.org/2000/svg" xmlns:xlink="http://www.w3.org/1999/xlink"><linearGradient id="lg1"><stop offset="0" stop-color="#f7e07d"/><stop offset="1" stop-color="#e69642"/></linearGradient><linearGradient id="SVGID_1_" gradientUnits="userSpaceOnUse" x1="350.468" x2="403.285" xlink:href="#lg1" y1="13.535" y2="33.341"/><linearGradient id="SVGID_2_" gradientUnits="userSpaceOnUse" x1="199.592" x2="252.409" xlink:href="#lg1" y1="381.268" y2="401.074"/><linearGradient id="SVGID_3_" gradientUnits="userSpaceOnUse" x1="445.526" x2="524.188" xlink:href="#lg1" y1="267.825" y2="297.324"/><linearGradient id="SVGID_4_" gradientUnits="userSpaceOnUse" x1="77.794" x2="156.456" xlink:href="#lg1" y1="116.949" y2="146.448"/><linearGradient id="SVGID_5_" gradientUnits="userSpaceOnUse" x1="448.757" x2="520.187" xlink:href="#lg1" y1="117.12" y2="143.906"/><linearGradient id="SVGID_6_" gradientUnits="userSpaceOnUse" x1="82.046" x2="153.476" xlink:href="#lg1" y1="270.461" y2="297.247"/><linearGradient id="SVGID_7_" gradientUnits="userSpaceOnUse" x1="342.668" x2="412.945" xlink:href="#lg1" y1="377.37" y2="403.724"/><linearGradient id="SVGID_8_" gradientUnits="userSpaceOnUse" x1="189.328" x2="259.604" xlink:href="#lg1" y1="10.659" y2="37.012"/><linearGradient id="SVGID_9_" gradientUnits="userSpaceOnUse" x1="213.108" x2="353.957" xlink:href="#lg1" y1="118.402" y2="259.251"/><linearGradient id="SVGID_10_" gradientUnits="userSpaceOnUse" x1="318.159" x2="267.996" y1="165.275" y2="299.753"><stop offset="0" stop-color="#d52c1c" stop-opacity="0"/><stop offset=".2813" stop-color="#cc2c20" stop-opacity=".281"/><stop offset=".7301" stop-color="#b52b2a" stop-opacity=".73"/><stop offset="1" stop-color="#a42b31"/></linearGradient><linearGradient id="SVGID_11_" gradientUnits="userSpaceOnUse" x1="71.522" x2="324.578" y1="244.775" y2="497.831"><stop offset="0" stop-color="#eef4ff"/><stop offset="1" stop-color="#cfe7fd"/></linearGradient><linearGradient id="lg2"><stop offset="0" stop-color="#8aaadc" stop-opacity="0"/><stop offset="1" stop-color="#8aaadc"/></linearGradient><linearGradient id="SVGID_12_" gradientUnits="userSpaceOnUse" x1="317.333" x2="414.687" xlink:href="#lg2" y1="307.696" y2="307.696"/><linearGradient id="SVGID_13_" gradientUnits="userSpaceOnUse" x1="218.416" x2="311.75" xlink:href="#lg2" y1="268.902" y2="176.502"/><linearGradient id="SVGID_14_" gradientUnits="userSpaceOnUse" x1="238" x2="238" xlink:href="#lg2" y1="446.03" y2="525.696"/><linearGradient id="SVGID_15_" gradientUnits="userSpaceOnUse" x1="298.321" x2="160.821" xlink:href="#lg2" y1="470.583" y2="361.083"/><linearGradient id="SVGID_16_" gradientUnits="userSpaceOnUse" x1="152.142" x2="98.142" xlink:href="#lg2" y1="373.649" y2="331.149"/><linearGradient id="lg3"><stop offset="0" stop-color="#76ccf8"/><stop offset=".833" stop-color="#518ef8"/><stop offset="1" stop-color="#4981f8"/></linearGradient><linearGradient id="SVGID_17_" gradientUnits="userSpaceOnUse" x1="74.86" x2="256.852" xlink:href="#lg3" y1="286.592" y2="468.584"/><linearGradient id="SVGID_18_" gradientUnits="userSpaceOnUse" x1="87.851" x2="269.843" xlink:href="#lg3" y1="273.601" y2="455.593"/><g><g><g><path d="m368.531 46.351c8.239 3.38 17.658-.558 21.039-8.797l6.279-15.304c3.38-8.239-.558-17.658-8.797-21.038s-17.658.558-21.039 8.797l-6.279 15.304c-3.381 8.238.558 17.658 8.797 21.038z" fill="url(#SVGID_1_)"/><path d="m236.175 368.944c-8.239-3.38-17.658.558-21.038 8.796l-6.279 15.304c-3.38 8.239.559 17.658 8.797 21.039 8.239 3.38 17.658-.559 21.038-8.797l6.279-15.304c3.381-8.239-.558-17.658-8.797-21.038z" fill="url(#SVGID_2_)"/><path d="m499.992 271.307-15.304-6.279c-8.239-3.38-17.658.558-21.039 8.797-3.38 8.239.558 17.658 8.797 21.039l15.304 6.279c8.239 3.38 17.658-.558 21.038-8.797 3.381-8.24-.557-17.659-8.796-21.039z" fill="url(#SVGID_3_)"/><path d="m104.714 143.988 15.304 6.279c8.239 3.38 17.658-.559 21.038-8.797 3.38-8.239-.558-17.658-8.797-21.039l-15.304-6.279c-8.239-3.38-17.658.558-21.038 8.797h-.001c-3.379 8.239.559 17.658 8.798 21.039z" fill="url(#SVGID_4_)"/><path d="m463.202 140.388c3.436 8.216 12.881 12.091 21.097 8.656l15.261-6.382c8.216-3.435 12.091-12.881 8.656-21.097-3.436-8.216-12.881-12.091-21.097-8.656l-15.262 6.382c-8.216 3.436-12.091 12.881-8.655 21.097z" fill="url(#SVGID_5_)"/><path d="m120.408 266.25-15.261 6.382c-8.216 3.436-12.091 12.881-8.656 21.097 3.435 8.216 12.881 12.091 21.097 8.656l15.262-6.381c8.216-3.435 12.091-12.881 8.656-21.097-3.437-8.217-12.883-12.092-21.098-8.657z" fill="url(#SVGID_6_)"/><path d="m390.709 377.151c-3.435-8.216-12.881-12.091-21.097-8.656-8.216 3.435-12.092 12.881-8.656 21.097l6.382 15.262c3.435 8.215 12.881 12.091 21.096 8.656 8.217-3.436 12.092-12.881 8.656-21.097z" fill="url(#SVGID_7_)"/><path d="m235.094 46.799c8.216-3.436 12.092-12.881 8.656-21.097l-6.382-15.261c-3.435-8.216-12.881-12.092-21.097-8.656-8.216 3.435-12.091 12.881-8.656 21.097l6.382 15.262c3.435 8.215 12.881 12.09 21.097 8.655z" fill="url(#SVGID_8_)"/></g><g><circle cx="302.353" cy="207.647" fill="url(#SVGID_9_)" r="163.492"/></g><circle cx="302.353" cy="207.647" fill="url(#SVGID_10_)" r="163.492"/></g><g><g><path d="m389.438 329.354c2.106-6.395 3.262-13.221 3.262-20.321 0-35.857-29.068-64.924-64.924-64.924-10.47 0-20.352 2.493-29.11 6.895-19.674-43.504-63.454-73.775-114.305-73.775-69.249 0-125.386 56.137-125.386 125.386 0 10.676 1.338 21.038 3.849 30.933-36.437 11.649-62.824 45.784-62.824 86.086 0 49.908 40.458 90.366 90.366 90.366h295.269s90.365-40.458 90.365-90.366c0-48.633-38.419-88.286-86.562-90.28z" fill="url(#SVGID_11_)"/><path d="m392.7 309.035c0 7.093-1.139 13.926-3.248 20.319-1.26-.056-2.539-.084-3.817-.084-32.116 0-60.321 16.763-76.337 42.009-26.852-7.952-46.443-32.807-46.443-62.244 0-35.859 29.064-64.923 64.923-64.923s64.922 29.065 64.922 64.923z" fill="url(#SVGID_12_)"/><path d="m293.58 364.233c-21.513 38.071-62.365 63.765-109.219 63.765-69.244 0-125.384-56.131-125.384-125.384 0-69.244 56.14-125.384 125.384-125.384 50.848 0 94.631 30.268 114.305 73.761-21.243 10.668-35.812 32.657-35.812 58.044.001 23.306 12.283 43.745 30.726 55.198z" fill="url(#SVGID_13_)"/><path d="m0 419.634c0 49.908 40.458 90.366 90.366 90.366h295.269s90.365-40.458 90.365-90.366c0-9.678-1.526-18.997-4.342-27.738h-467.304c-2.818 8.742-4.354 18.059-4.354 27.738z" fill="url(#SVGID_14_)"/></g><path d="m422.945 501.961-171.591-171.591c-9.618-11.308-26.067-17.413-45.484-17.413-28.488 0-52.192 13.918-52.192 51.322v57.629c0 18.813 6 31.68 15.585 39.828l48.264 48.264h168.107c13.305 0 25.937-2.876 37.311-8.039z" fill="url(#SVGID_15_)"/><path d="m137.677 313.953c-3.267-5.078-9.34-7.127-16.444-7.127-10.776 0-19.018 4.564-19.018 17.116v18.003c0 6.958 2.539 11.453 6.63 14.085l153.97 153.97h70.908z" fill="url(#SVGID_16_)"/><g><path d="m120.233 305.826c-10.776 0-19.018 4.564-19.018 17.116v18.003c0 12.553 8.241 17.117 19.018 17.117 10.649 0 19.019-4.564 19.019-17.117v-18.003c-.001-12.551-8.37-17.116-19.019-17.116zm6.339 35.119c0 4.185-2.408 6.086-6.339 6.086s-6.212-1.901-6.212-6.086v-18.003c0-4.185 2.281-6.086 6.212-6.086s6.339 1.901 6.339 6.086z" fill="url(#SVGID_17_)"/><path d="m242.275 410.688c-8.699 0-16.094 2.174-16.746 10.221-.652 8.48-1.739 21.746-19.137 21.746-12.613 0-19.789-6.959-19.789-21.746v-57.629c0-14.788 7.176-21.747 19.572-21.747 18.484 0 19.137 13.918 19.354 19.572.436 7.829 7.829 10.221 16.963 10.221 11.525 0 16.963-3.044 16.963-16.093 0-27.618-23.486-43.275-54.585-43.275-28.488 0-52.192 13.918-52.192 51.322v57.629c0 37.404 23.704 51.322 52.192 51.322 31.099 0 54.585-16.527 54.585-45.451 0-13.049-5.438-16.092-17.18-16.092z" fill="url(#SVGID_18_)"/></g></g></g></svg>