<svg id="Capa_1" enable-background="new 0 0 510 510" height="512" viewBox="0 0 510 510" width="512" xmlns="http://www.w3.org/2000/svg" xmlns:xlink="http://www.w3.org/1999/xlink"><linearGradient id="lg1"><stop offset="0" stop-color="#5a5a5a"/><stop offset="1" stop-color="#464646"/></linearGradient><linearGradient id="SVGID_1_" gradientUnits="userSpaceOnUse" x1="67.441" x2="438.283" xlink:href="#lg1" y1="67.441" y2="438.283"/><linearGradient id="lg2"><stop offset="0" stop-color="#464646" stop-opacity="0"/><stop offset=".1772" stop-color="#3d3d3d" stop-opacity=".177"/><stop offset=".6736" stop-color="#282828" stop-opacity=".674"/><stop offset="1" stop-color="#202020"/></linearGradient><linearGradient id="SVGID_2_" gradientUnits="userSpaceOnUse" x1="515.5" x2="129.602" xlink:href="#lg2" y1="429.833" y2="43.935"/><linearGradient id="SVGID_3_" gradientUnits="userSpaceOnUse" x1="255" x2="255" xlink:href="#lg2" y1="408" y2="510.02"/><linearGradient id="SVGID_4_" gradientUnits="userSpaceOnUse" x1="96.968" x2="409.429" y1="96.968" y2="409.429"><stop offset="0" stop-color="#eef4ff"/><stop offset="1" stop-color="#cfe7fd"/></linearGradient><linearGradient id="lg3"><stop offset="0" stop-color="#8aaadc" stop-opacity="0"/><stop offset="1" stop-color="#8aaadc"/></linearGradient><linearGradient id="SVGID_5_" gradientUnits="userSpaceOnUse" x1="297.055" x2="203.722" xlink:href="#lg3" y1="285.853" y2="160.52"/><linearGradient id="SVGID_6_" gradientUnits="userSpaceOnUse" x1="443.333" x2="283.239" xlink:href="#lg3" y1="254.285" y2="254.285"/><linearGradient id="SVGID_7_" gradientUnits="userSpaceOnUse" x1="88.5" x2="88.5" xlink:href="#lg3" y1="-94" y2="524.305"/><linearGradient id="SVGID_8_" gradientUnits="userSpaceOnUse" x1="421.5" x2="421.5" xlink:href="#lg3" y1="-94" y2="524.305"/><linearGradient id="SVGID_9_" gradientUnits="userSpaceOnUse" x1="255" x2="255" xlink:href="#lg3" y1="-94" y2="524.305"/><linearGradient id="SVGID_11_" gradientUnits="userSpaceOnUse" x1="398.222" x2="398.222" xlink:href="#lg3" y1="-94" y2="524.305"/><linearGradient id="SVGID_12_" gradientUnits="userSpaceOnUse" x1="111.778" x2="111.778" xlink:href="#lg3" y1="-94" y2="524.305"/><linearGradient id="SVGID_13_" gradientUnits="userSpaceOnUse" x1="170.09" x2="170.09" xlink:href="#lg3" y1="-94" y2="524.305"/><linearGradient id="SVGID_14_" gradientUnits="userSpaceOnUse" x1="339.91" x2="339.91" xlink:href="#lg3" y1="-94" y2="524.305"/><linearGradient id="SVGID_19_" gradientUnits="userSpaceOnUse" x1="255" x2="255" xlink:href="#lg3" y1="410.409" y2="478.055"/><linearGradient id="lg4"><stop offset="0" stop-color="#76ccf8"/><stop offset=".833" stop-color="#518ef8"/><stop offset="1" stop-color="#4981f8"/></linearGradient><linearGradient id="SVGID_20_" gradientTransform="matrix(.707 .707 -.707 .707 385.258 -228.279)" gradientUnits="userSpaceOnUse" x1="130.465" x2="225.694" xlink:href="#lg4" y1="314.678" y2="409.907"/><linearGradient id="lg5"><stop offset="0" stop-color="#4071f7" stop-opacity="0"/><stop offset="1" stop-color="#30569f"/></linearGradient><linearGradient id="SVGID_21_" gradientTransform="matrix(.707 .707 -.707 .707 385.258 -228.279)" gradientUnits="userSpaceOnUse" x1="224.977" x2="252.722" xlink:href="#lg5" y1="409.19" y2="436.934"/><linearGradient id="SVGID_22_" gradientTransform="matrix(.707 .707 -.707 .707 385.258 -228.279)" gradientUnits="userSpaceOnUse" x1="112.646" x2="125.591" xlink:href="#lg5" y1="365.746" y2="378.691"/><linearGradient id="SVGID_23_" gradientTransform="matrix(.707 .707 -.707 .707 385.258 -228.279)" gradientUnits="userSpaceOnUse" x1="181.533" x2="194.479" xlink:href="#lg5" y1="296.858" y2="309.804"/><linearGradient id="SVGID_24_" gradientUnits="userSpaceOnUse" x1="381.61" x2="193.385" xlink:href="#lg3" y1="381.39" y2="193.166"/><linearGradient id="SVGID_25_" gradientUnits="userSpaceOnUse" x1="250.724" x2="411.828" xlink:href="#lg4" y1="250.724" y2="411.828"/><linearGradient id="SVGID_26_" gradientTransform="matrix(-1 0 0 -1 587.972 890.057)" gradientUnits="userSpaceOnUse" x1="312.955" x2="340.933" xlink:href="#lg5" y1="615.04" y2="643.018"/><linearGradient id="SVGID_27_" gradientTransform="matrix(-1 0 0 -1 587.972 890.057)" gradientUnits="userSpaceOnUse" x1="212.014" x2="221.653" xlink:href="#lg5" y1="565.39" y2="575.028"/><linearGradient id="SVGID_28_" gradientTransform="matrix(-1 0 0 -1 587.972 890.057)" gradientUnits="userSpaceOnUse" x1="263.305" x2="272.944" xlink:href="#lg5" y1="514.099" y2="523.738"/><linearGradient id="SVGID_29_" gradientUnits="userSpaceOnUse" x1="173.5" x2="173.5" y1="247.5" y2="262.5"><stop offset="0" stop-color="#f7e07d"/><stop offset="1" stop-color="#e69642"/></linearGradient><linearGradient id="SVGID_30_" gradientUnits="userSpaceOnUse" x1="226.78" x2="270.448" xlink:href="#lg1" y1="226.78" y2="270.448"/><linearGradient id="SVGID_31_" gradientUnits="userSpaceOnUse" x1="255" x2="255" xlink:href="#lg2" y1="247.56" y2="295.565"/><g><path d="m403.41 510h-296.82c-58.868 0-106.59-47.722-106.59-106.59v-296.82c0-58.868 47.722-106.59 106.59-106.59h296.82c58.868 0 106.59 47.722 106.59 106.59v296.82c0 58.868-47.722 106.59-106.59 106.59z" fill="url(#SVGID_1_)"/><path d="m433.386 505.72c44.273-12.951 76.614-53.851 76.614-102.31v-137.077l-246.333-246.333v248.667l81 81-33.667 33.666z" fill="url(#SVGID_2_)"/><path d="m0 344.628v58.782c0 58.868 47.722 106.59 106.59 106.59h296.82c58.868 0 106.59-47.722 106.59-106.59v-58.782z" fill="url(#SVGID_3_)"/><path d="m380.046 469.855h-250.092c-49.6 0-89.809-40.209-89.809-89.809v-250.092c0-49.6 40.209-89.809 89.809-89.809h250.092c49.6 0 89.809 40.209 89.809 89.809v250.092c0 49.6-40.209 89.809-89.809 89.809z" fill="url(#SVGID_4_)"/><path d="m469.855 260h-384.105l209.855 209.855h84.441c49.6 0 89.809-40.209 89.809-89.81z" fill="url(#SVGID_5_)"/><path d="m283.811 40.145h-20.145v228.522l81 81-33.666 33.666 85.091 85.091c41.944-7.565 73.764-44.255 73.764-88.379v-153.856z" fill="url(#SVGID_6_)"/><g><path d="m123.329 255c0-8.906-7.219-16.125-16.125-16.125h-37.409c-8.905 0-16.125 7.219-16.125 16.125 0 8.905 7.219 16.125 16.125 16.125h37.409c8.906 0 16.125-7.22 16.125-16.125z" fill="url(#SVGID_7_)"/><path d="m440.205 238.875h-37.409c-8.905 0-16.125 7.219-16.125 16.125 0 8.905 7.219 16.125 16.125 16.125h37.409c8.905 0 16.125-7.219 16.125-16.125-.001-8.906-7.22-16.125-16.125-16.125z" fill="url(#SVGID_8_)"/><path d="m255 53.671c-8.906 0-16.125 7.219-16.125 16.125v37.409c0 8.905 7.219 16.125 16.125 16.125s16.125-7.219 16.125-16.125v-37.41c0-8.905-7.219-16.124-16.125-16.124z" fill="url(#SVGID_9_)"/><path d="m255 386.671c-8.906 0-16.125 7.219-16.125 16.125v37.409c0 8.905 7.219 16.125 16.125 16.125s16.125-7.219 16.125-16.125v-37.409c0-8.906-7.219-16.125-16.125-16.125z" fill="url(#SVGID_9_)"/><path d="m368.262 187.852c4.541 7.66 14.433 10.189 22.093 5.647l32.179-19.078c7.66-4.542 10.189-14.433 5.647-22.093-4.542-7.661-14.433-10.189-22.093-5.647l-32.179 19.078c-7.66 4.541-10.188 14.432-5.647 22.093z" fill="url(#SVGID_11_)"/><path d="m119.645 316.501-32.179 19.078c-7.66 4.542-10.189 14.433-5.647 22.093 4.542 7.661 14.433 10.189 22.093 5.647l32.179-19.078c7.66-4.542 10.189-14.433 5.647-22.094s-14.433-10.188-22.093-5.646z" fill="url(#SVGID_12_)"/><path d="m174.421 87.465c-4.542-7.66-14.433-10.189-22.093-5.647-7.66 4.542-10.189 14.433-5.647 22.093l19.078 32.179c4.541 7.66 14.433 10.188 22.093 5.647s10.189-14.433 5.647-22.093z" fill="url(#SVGID_13_)"/><path d="m344.242 373.909c-4.541-7.66-14.433-10.188-22.093-5.647s-10.189 14.433-5.647 22.093l19.078 32.179c4.542 7.66 14.433 10.188 22.093 5.647 7.66-4.542 10.189-14.433 5.647-22.093z" fill="url(#SVGID_14_)"/><path d="m187.852 368.262c-7.66-4.542-17.552-2.013-22.093 5.647l-19.078 32.179c-4.541 7.66-2.013 17.552 5.647 22.093 7.66 4.542 17.552 2.013 22.093-5.647l19.078-32.179c4.542-7.66 2.013-17.551-5.647-22.093z" fill="url(#SVGID_13_)"/><path d="m357.672 81.818c-7.66-4.542-17.552-2.013-22.094 5.647l-19.078 32.179c-4.542 7.66-2.013 17.552 5.647 22.093s17.552 2.013 22.093-5.647l19.078-32.179c4.543-7.66 2.014-17.551-5.646-22.093z" fill="url(#SVGID_14_)"/><path d="m136.091 165.758-32.179-19.078c-7.66-4.542-17.552-2.013-22.093 5.647-4.541 7.66-2.013 17.552 5.647 22.093l32.179 19.078c7.66 4.542 17.552 2.013 22.093-5.647 4.541-7.66 2.013-17.551-5.647-22.093z" fill="url(#SVGID_12_)"/><path d="m422.535 335.579-32.179-19.078c-7.66-4.542-17.552-2.013-22.093 5.647s-2.013 17.552 5.647 22.094l32.179 19.078c7.66 4.542 17.552 2.013 22.093-5.647 4.541-7.661 2.013-17.553-5.647-22.094z" fill="url(#SVGID_11_)"/></g><path d="m380.046 469.855h-250.092c-49.6 0-89.809-40.209-89.809-89.81v-10.045h429.711v10.046c-.001 49.6-40.21 89.809-89.81 89.809z" fill="url(#SVGID_19_)"/><g><path d="m283.993 244v-116.609h25.46c11.116 0 17.769-12.363 11.646-21.641l-54.453-82.504c-5.516-8.357-17.777-8.357-23.293 0l-54.453 82.505c-6.123 9.278.53 21.641 11.646 21.641h25.46v116.608c0 7.419 6.014 13.434 13.434 13.434h31.119c7.42 0 13.434-6.015 13.434-13.434z" fill="url(#SVGID_20_)"/><path d="m283.993 244v-116.609h-57.987v116.609c0 7.419 6.014 13.434 13.434 13.434h31.119c7.42 0 13.434-6.015 13.434-13.434z" fill="url(#SVGID_21_)"/><path d="m226.008 74.09v53.304h-25.46c-11.114-.005-17.771-12.364-11.643-21.644l23.574-35.722c1.365-2.068 3.677-3.312 6.155-3.312 4.072 0 7.374 3.301 7.374 7.374z" fill="url(#SVGID_22_)"/><path d="m309.453 127.394h-25.46v-53.304c0-4.073 3.302-7.374 7.374-7.374 2.478 0 4.79 1.244 6.155 3.312l23.574 35.722c6.128 9.279-.529 21.639-11.643 21.644z" fill="url(#SVGID_23_)"/></g><path d="m468.338 396.542-172.19-172.19c-9.317-10.985-23.213-17.965-38.745-17.965-28.053 0-50.795 22.742-50.795 50.795 0 15.532 6.979 29.428 17.964 38.745l172.339 172.34c36.197-6.878 64.696-35.475 71.427-71.725z" fill="url(#SVGID_24_)"/><g><path d="m240.236 270.765 85.654 85.654-13.404 13.404c-5.852 5.852-2.846 15.864 5.262 17.525l72.106 14.769c7.304 1.496 13.759-4.96 12.263-12.263l-14.769-72.106c-1.661-8.108-11.673-11.114-17.525-5.262l-13.404 13.404-85.654-85.654c-3.906-3.906-10.239-3.906-14.145 0l-16.384 16.384c-3.907 3.905-3.907 10.238 0 14.145z" fill="url(#SVGID_25_)"/><path d="m240.236 270.765 85.654 85.654 30.529-30.529-85.654-85.654c-3.906-3.906-10.239-3.906-14.145 0l-16.384 16.384c-3.907 3.905-3.907 10.238 0 14.145z" fill="url(#SVGID_26_)"/><path d="m384.48 353.952-28.064-28.064 13.404-13.404c5.854-5.849 15.866-2.847 17.525 5.265l6.395 31.218c.37 1.807-.192 3.68-1.496 4.984-2.144 2.145-5.62 2.145-7.764.001z" fill="url(#SVGID_27_)"/><path d="m312.484 369.82 13.404-13.404 28.064 28.064c2.144 2.144 2.144 5.621 0 7.765-1.305 1.305-3.177 1.867-4.984 1.496l-31.218-6.395c-8.113-1.66-11.115-11.671-5.266-17.526z" fill="url(#SVGID_28_)"/></g><path d="m255.333 262.5h-163.667c-4.143 0-7.5-3.357-7.5-7.5s3.357-7.5 7.5-7.5h163.667c4.143 0 7.5 3.357 7.5 7.5s-3.357 7.5-7.5 7.5z" fill="url(#SVGID_29_)"/><g><circle cx="255" cy="255" fill="url(#SVGID_30_)" r="50.795"/><circle cx="255" cy="255" fill="url(#SVGID_31_)" r="50.795"/></g></g></svg>