<svg id="Capa_1" enable-background="new 0 0 510 510" height="512" viewBox="0 0 510 510" width="512" xmlns="http://www.w3.org/2000/svg" xmlns:xlink="http://www.w3.org/1999/xlink"><linearGradient id="lg1"><stop offset="0" stop-color="#eef4ff"/><stop offset="1" stop-color="#cfe7fd"/></linearGradient><linearGradient id="SVGID_1_" gradientUnits="userSpaceOnUse" x1="20" x2="436.173" xlink:href="#lg1" y1="20" y2="436.173"/><linearGradient id="lg2"><stop offset="0" stop-color="#8aaadc" stop-opacity="0"/><stop offset="1" stop-color="#8aaadc"/></linearGradient><linearGradient id="SVGID_2_" gradientUnits="userSpaceOnUse" x1="255" x2="255" xlink:href="#lg2" y1="409" y2="508.247"/><linearGradient id="SVGID_3_" gradientUnits="userSpaceOnUse" x1="51.333" x2="412.017" y1="51.333" y2="412.017"><stop offset="0" stop-color="#bce097"/><stop offset="1" stop-color="#7dc03a"/></linearGradient><linearGradient id="lg3"><stop offset="0" stop-color="#8cc951" stop-opacity="0"/><stop offset="1" stop-color="#3e6e66"/></linearGradient><linearGradient id="SVGID_4_" gradientUnits="userSpaceOnUse" x1="136.5" x2="224.241" xlink:href="#lg3" y1="373.5" y2="285.759"/><linearGradient id="SVGID_5_" gradientUnits="userSpaceOnUse" x1="376.5" x2="292.664" xlink:href="#lg3" y1="376.5" y2="292.664"/><linearGradient id="SVGID_6_" gradientUnits="userSpaceOnUse" x1="463.5" x2="241.648" xlink:href="#lg3" y1="463.5" y2="241.648"/><linearGradient id="SVGID_7_" gradientUnits="userSpaceOnUse" x1="255" x2="255" xlink:href="#lg3" y1="404.409" y2="476.674"/><linearGradient id="SVGID_8_" gradientUnits="userSpaceOnUse" x1="185.076" x2="267.25" y1="22.924" y2="105.097"><stop offset="0" stop-color="#5a5a5a"/><stop offset="1" stop-color="#464646"/></linearGradient><linearGradient id="SVGID_9_" gradientUnits="userSpaceOnUse" x1="218.492" x2="449.008" y1="279.484" y2="279.484"><stop offset="0" stop-color="#f7e07d"/><stop offset="1" stop-color="#e69642"/></linearGradient><linearGradient id="SVGID_10_" gradientUnits="userSpaceOnUse" x1="243.504" x2="353.255" xlink:href="#lg1" y1="243.504" y2="353.255"/><linearGradient id="SVGID_11_" gradientUnits="userSpaceOnUse" x1="359.333" x2="237.786" xlink:href="#lg2" y1="359.333" y2="237.786"/><linearGradient id="SVGID_12_" gradientUnits="userSpaceOnUse" x1="339.998" x2="426.207" y1="80.003" y2="166.212"><stop offset="0" stop-color="#dc4955"/><stop offset="1" stop-color="#c4237c"/></linearGradient><linearGradient id="SVGID_13_" gradientUnits="userSpaceOnUse" x1="423.342" x2="364.37" y1="258.658" y2="199.685"><stop offset="0" stop-color="#8a1958" stop-opacity="0"/><stop offset="1" stop-color="#8a1958"/></linearGradient><linearGradient id="SVGID_14_" gradientUnits="userSpaceOnUse" x1="161.255" x2="349.246" y1="161.255" y2="349.246"><stop offset="0" stop-color="#76ccf8"/><stop offset=".833" stop-color="#518ef8"/><stop offset="1" stop-color="#4981f8"/></linearGradient><linearGradient id="SVGID_15_" gradientUnits="userSpaceOnUse" x1="255" x2="255" y1="294.261" y2="390.409"><stop offset="0" stop-color="#4071f7" stop-opacity="0"/><stop offset="1" stop-color="#30569f"/></linearGradient><linearGradient id="SVGID_16_" gradientUnits="userSpaceOnUse" x1="373.265" x2="290.765" y1="321.916" y2="274.916"><stop offset="0" stop-color="#4071f7" stop-opacity="0"/><stop offset=".2283" stop-color="#3b69db" stop-opacity=".228"/><stop offset=".5504" stop-color="#355eba" stop-opacity=".55"/><stop offset=".8193" stop-color="#3158a6" stop-opacity=".819"/><stop offset="1" stop-color="#30569f"/></linearGradient><linearGradient id="SVGID_17_" gradientTransform="matrix(.707 -.707 .707 .707 -101.231 265.607)" gradientUnits="userSpaceOnUse" x1="213.367" x2="298.589" xlink:href="#lg1" y1="211.094" y2="296.317"/><linearGradient id="SVGID_18_" gradientTransform="matrix(.707 -.707 .707 .707 -101.231 265.607)" gradientUnits="userSpaceOnUse" x1="276.347" x2="293.825" xlink:href="#lg2" y1="274.787" y2="307.054"/><linearGradient id="SVGID_19_" gradientUnits="userSpaceOnUse" x1="360.157" x2="360.157" y1="419" y2="491.543"><stop offset="0" stop-color="#d52c1c" stop-opacity="0"/><stop offset=".2813" stop-color="#cc2c20" stop-opacity=".281"/><stop offset=".7301" stop-color="#b52b2a" stop-opacity=".73"/><stop offset="1" stop-color="#a42b31"/></linearGradient><linearGradient id="SVGID_20_" gradientUnits="userSpaceOnUse" x1="143.246" x2="143.246" xlink:href="#lg2" y1="424.5" y2="475.657"/><g><path d="m403.41 0h-296.82c-58.87 0-106.59 47.72-106.59 106.59v296.82c0 58.87 47.72 106.59 106.59 106.59h296.82c58.87 0 106.59-47.72 106.59-106.59v-296.82c0-58.87-47.72-106.59-106.59-106.59z" fill="url(#SVGID_1_)"/><path d="m0 346v57.41c0 58.87 47.72 106.59 106.59 106.59h296.82c58.87 0 106.59-47.72 106.59-106.59v-57.41z" fill="url(#SVGID_2_)"/><path d="m383.622 34h-257.244c-51.021 0-92.378 41.357-92.378 92.378v257.244c0 51.021 41.357 92.378 92.378 92.378h257.244c51.021 0 92.378-41.357 92.378-92.378v-257.244c0-51.021-41.357-92.378-92.378-92.378z" fill="url(#SVGID_3_)"/><path d="m35.536 109.536c-1.006 5.462-1.536 11.089-1.536 16.842v257.244c0 51.021 41.357 92.378 92.378 92.378h257.244c5.752 0 11.38-.53 16.842-1.537z" fill="url(#SVGID_4_)"/><path d="m126.378 476h257.244c51.021 0 92.378-41.357 92.378-92.378v-257.244c0-8.081-1.041-15.918-2.99-23.388l-370.02 370.02c7.47 1.949 15.307 2.99 23.388 2.99z" fill="url(#SVGID_5_)"/><path d="m476 383.622v-104.748l-117.807-117.808c-25.471-27.406-61.826-44.56-102.193-44.56-77.04 0-139.493 62.453-139.493 139.493 0 40.366 17.153 76.721 44.559 102.192l117.808 117.809h104.748c51.021 0 92.378-41.357 92.378-92.378z" fill="url(#SVGID_6_)"/><path d="m34 344.63v38.992c0 51.021 41.357 92.378 92.378 92.378h257.244c51.021 0 92.378-41.357 92.378-92.378v-38.992z" fill="url(#SVGID_7_)"/><path d="m201.5 252.5 213.153-213.153c-9.699-3.458-20.144-5.347-31.031-5.347h-257.244c-38.765 0-71.946 23.878-85.652 57.726z" fill="url(#SVGID_8_)"/><path d="m476 282.463-115.843 115.843-315.337-315.337c-6.903 12.942-10.82 27.717-10.82 43.409v2.368l347.254 347.254h2.368c15.692 0 30.467-3.917 43.409-10.82l-38.576-38.576 87.545-87.544z" fill="url(#SVGID_9_)"/><path d="m388.878 34.152-354.726 354.726c2.628 46.834 40.136 84.342 86.97 86.97l354.726-354.726c-2.628-46.834-40.136-84.342-86.97-86.97z" fill="url(#SVGID_10_)"/><path d="m358.193 161.066c-15.868-17.074-35.962-30.166-58.616-37.612l-176.123 176.122c7.447 22.655 20.538 42.748 37.612 58.616l38.856 38.855 197.126-197.126z" fill="url(#SVGID_11_)"/><path d="m475.85 121.12-111.31 111.31c-13.91-40.78-46.19-73.06-86.97-86.97l111.31-111.31c46.83 2.63 84.34 40.14 86.97 86.97z" fill="url(#SVGID_12_)"/><path d="m358.193 161.066c-15.868-17.074-35.962-30.166-58.617-37.612l-22.006 22.006c40.78 13.91 73.06 46.19 86.97 86.97l32.508-32.508z" fill="url(#SVGID_13_)"/><g><g><circle cx="255" cy="255" fill="url(#SVGID_14_)" r="139.493"/><path d="m115.545 258.01c1.602 75.649 63.421 136.483 139.455 136.483s137.853-60.834 139.455-136.483z" fill="url(#SVGID_15_)"/></g><path d="m292.527 171.021-111.55 29.891c-29.416 7.882-39.268 44.652-17.734 66.186l123.713 123.712c61.638-14.448 107.537-69.767 107.537-135.81 0-3.38-.127-6.731-.364-10.051l-60.754-60.754c-9.296-11.319-24.687-17.504-40.848-13.174z" fill="url(#SVGID_16_)"/><g><path d="m291.527 170.021-111.55 29.891c-29.416 7.882-39.268 44.652-17.734 66.185l81.659 81.659c21.534 21.534 58.303 11.681 66.185-17.734l29.891-111.55c7.883-29.415-19.035-56.333-48.451-48.451z" fill="url(#SVGID_17_)"/><path d="m291.527 170.021-111.55 29.891c-29.416 7.882-39.268 44.652-17.734 66.185l81.659 81.659c21.534 21.534 58.303 11.681 66.185-17.734l29.891-111.55c7.883-29.415-19.035-56.333-48.451-48.451z" fill="url(#SVGID_18_)"/></g></g><path d="m388.455 426.604 81.974-81.975h-56.596l-53.676 53.676-53.676-53.676h-56.597l131.37 131.371h2.368c15.692 0 30.467-3.917 43.409-10.82z" fill="url(#SVGID_19_)"/><path d="m121.122 475.848 131.218-131.218h-173.94l-44.248 44.248c2.627 46.834 40.136 84.343 86.97 86.97z" fill="url(#SVGID_20_)"/></g></svg>