<svg id="Capa_1" enable-background="new 0 0 510 510" height="512" viewBox="0 0 510 510" width="512" xmlns="http://www.w3.org/2000/svg" xmlns:xlink="http://www.w3.org/1999/xlink"><linearGradient id="lg1"><stop offset="0" stop-color="#5a5a5a"/><stop offset="1" stop-color="#464646"/></linearGradient><linearGradient id="SVGID_1_" gradientUnits="userSpaceOnUse" x1="281.245" x2="305.599" xlink:href="#lg1" y1="46.254" y2="70.608"/><linearGradient id="SVGID_2_" gradientUnits="userSpaceOnUse" x1="226.008" x2="204.299" xlink:href="#lg1" y1="49.006" y2="70.715"/><linearGradient id="SVGID_3_" gradientUnits="userSpaceOnUse" x1="66.223" x2="315.398" xlink:href="#lg1" y1="110.999" y2="360.174"/><linearGradient id="SVGID_4_" gradientUnits="userSpaceOnUse" x1="255" x2="255" y1="436.901" y2="506.016"><stop offset="0" stop-color="#464646" stop-opacity="0"/><stop offset="1" stop-color="#202020"/></linearGradient><linearGradient id="SVGID_5_" gradientUnits="userSpaceOnUse" x1="255" x2="255" xlink:href="#lg1" y1="495.855" y2="114.814"/><linearGradient id="lg2"><stop offset="0" stop-color="#bce097"/><stop offset="1" stop-color="#7dc03a"/></linearGradient><linearGradient id="SVGID_6_" gradientUnits="userSpaceOnUse" x1="423.772" x2="444.094" xlink:href="#lg2" y1="465.461" y2="485.783"/><linearGradient id="SVGID_7_" gradientUnits="userSpaceOnUse" x1="255" x2="255" xlink:href="#lg2" y1="178.009" y2="424.098"/><linearGradient id="SVGID_8_" gradientUnits="userSpaceOnUse" x1="111.75" x2="111.75" y1="188.186" y2="398.457"><stop offset="0" stop-color="#dc4955"/><stop offset="1" stop-color="#c4237c"/></linearGradient><linearGradient id="SVGID_9_" gradientUnits="userSpaceOnUse" x1="207.25" x2="207.25" y1="188.186" y2="398.457"><stop offset="0" stop-color="#f7e07d"/><stop offset="1" stop-color="#e69642"/></linearGradient><linearGradient id="SVGID_10_" gradientUnits="userSpaceOnUse" x1="398.25" x2="398.25" y1="188.186" y2="398.457"><stop offset="0" stop-color="#76ccf8"/><stop offset=".833" stop-color="#518ef8"/><stop offset="1" stop-color="#4981f8"/></linearGradient><g><g><path d="m351.48 34.159-68.18 68.19-28.3 28.29-28.29-28.29 28.29-28.3 68.19-68.19c7.81-7.81 20.48-7.81 28.29 0 7.82 7.82 7.82 20.48 0 28.3z" fill="url(#SVGID_1_)"/><path d="m283.3 102.349-28.3 28.29-28.29-28.29-68.19-68.19c-7.82-7.82-7.82-20.48 0-28.3 7.81-7.81 20.48-7.81 28.3 0l68.18 68.19z" fill="url(#SVGID_2_)"/></g><g><g><path d="m475.631 509.999h-441.262c-18.981 0-34.369-15.388-34.369-34.369v-351.708c0-18.982 15.388-34.369 34.369-34.369h441.262c18.982 0 34.369 15.388 34.369 34.369v351.708c0 18.981-15.388 34.369-34.369 34.369z" fill="url(#SVGID_3_)"/><path d="m0 407.505v68.125c0 18.981 15.388 34.369 34.369 34.369h441.262c18.982 0 34.369-15.387 34.369-34.369v-68.125z" fill="url(#SVGID_4_)"/></g><path d="m442.506 470.346h-375.012c-14.667 0-26.556-11.89-26.556-26.556v-288.029c0-14.667 11.89-26.556 26.556-26.556h375.013c14.667 0 26.556 11.89 26.556 26.556v288.029c-.001 14.667-11.89 26.556-26.557 26.556z" fill="url(#SVGID_5_)"/><circle cx="431.684" cy="473.373" fill="url(#SVGID_6_)" r="14.316"/><path d="m422.981 154.18h-335.962c-12.713 0-23.019 10.306-23.019 23.019v245.154c0 12.713 10.306 23.019 23.019 23.019h335.962c12.713 0 23.019-10.306 23.019-23.019v-245.154c0-12.713-10.306-23.019-23.019-23.019z" fill="url(#SVGID_7_)"/></g><g><path d="m159.5 154.184v291.189h-72.48c-12.71 0-23.02-10.31-23.02-23.02v-245.159c0-12.71 10.31-23.01 23.02-23.01z" fill="url(#SVGID_8_)"/><path d="m159.5 154.184h95.5v291.189h-95.5z" fill="url(#SVGID_9_)"/><path d="m446 177.194v245.159c0 12.71-10.31 23.02-23.02 23.02h-72.48v-291.189h72.48c12.71 0 23.02 10.3 23.02 23.01z" fill="url(#SVGID_10_)"/></g></g></svg>