<svg id="Capa_1" enable-background="new 0 0 510 510" height="512" viewBox="0 0 510 510" width="512" xmlns="http://www.w3.org/2000/svg" xmlns:xlink="http://www.w3.org/1999/xlink"><linearGradient id="lg1"><stop offset="0" stop-color="#eef4ff"/><stop offset="1" stop-color="#cfe7fd"/></linearGradient><linearGradient id="SVGID_1_" gradientUnits="userSpaceOnUse" x1="-20.485" x2="462.73" xlink:href="#lg1" y1="18.75" y2="501.964"/><linearGradient id="lg2"><stop offset="0" stop-color="#8aaadc" stop-opacity="0"/><stop offset="1" stop-color="#8aaadc"/></linearGradient><linearGradient id="SVGID_2_" gradientUnits="userSpaceOnUse" x1="425.601" x2="346.351" xlink:href="#lg2" y1="335.909" y2="256.659"/><linearGradient id="SVGID_3_" gradientUnits="userSpaceOnUse" x1="213.101" x2="213.101" xlink:href="#lg2" y1="187.51" y2="124.439"/><linearGradient id="lg3"><stop offset="0" stop-color="#5a5a5a"/><stop offset="1" stop-color="#464646"/></linearGradient><linearGradient id="SVGID_4_" gradientUnits="userSpaceOnUse" x1="52.266" x2="356.106" xlink:href="#lg3" y1="195.713" y2="195.713"/><linearGradient id="SVGID_5_" gradientUnits="userSpaceOnUse" x1="52.266" x2="356.106" xlink:href="#lg3" y1="241.645" y2="241.645"/><linearGradient id="SVGID_6_" gradientUnits="userSpaceOnUse" x1="52.266" x2="218.375" xlink:href="#lg3" y1="287.578" y2="287.578"/><linearGradient id="SVGID_7_" gradientUnits="userSpaceOnUse" x1="213.101" x2="213.101" xlink:href="#lg2" y1="372.299" y2="498.329"/><linearGradient id="SVGID_8_" gradientUnits="userSpaceOnUse" x1="252.26" x2="252.26" xlink:href="#lg1" y1="388.578" y2="485.83"/><linearGradient id="SVGID_9_" gradientUnits="userSpaceOnUse" x1="252.26" x2="252.26" xlink:href="#lg2" y1="434.51" y2="503.626"/><linearGradient id="lg4"><stop offset="0" stop-color="#f7e07d"/><stop offset="1" stop-color="#e69642"/></linearGradient><linearGradient id="SVGID_10_" gradientUnits="userSpaceOnUse" x1="213.101" x2="213.101" xlink:href="#lg4" y1="32.51" y2="134.51"/><linearGradient id="SVGID_11_" gradientTransform="matrix(.707 .707 -.707 .707 -4728.795 -2169.98)" gradientUnits="userSpaceOnUse" x1="5279.674" x2="5300.546" xlink:href="#lg4" y1="-2070.043" y2="-2070.043"/><linearGradient id="SVGID_12_" gradientUnits="userSpaceOnUse" x1="482.417" x2="456.916" y1="136.352" y2="110.852"><stop offset="0" stop-color="#d52c1c" stop-opacity="0"/><stop offset=".28" stop-color="#d12c1e" stop-opacity=".28"/><stop offset=".5735" stop-color="#c42c23" stop-opacity=".574"/><stop offset=".8721" stop-color="#af2b2c" stop-opacity=".872"/><stop offset="1" stop-color="#a42b31"/></linearGradient><linearGradient id="SVGID_13_" gradientTransform="matrix(.707 .707 -.707 .707 -4728.795 -2169.98)" gradientUnits="userSpaceOnUse" x1="5251.412" x2="5314.548" xlink:href="#lg1" y1="-1899.643" y2="-1899.643"/><linearGradient id="SVGID_14_" gradientTransform="matrix(.707 .707 -.707 .707 -4728.795 -2169.98)" gradientUnits="userSpaceOnUse" x1="5251.412" x2="5314.548" xlink:href="#lg2" y1="-1787.322" y2="-1787.322"/><linearGradient id="SVGID_15_" gradientTransform="matrix(.707 .707 2.007 -2.007 13510.543 -20409.318)" gradientUnits="userSpaceOnUse" x1="5251.412" x2="5314.548" y1="-8401.17" y2="-8401.17"><stop offset="0" stop-color="#dc4955"/><stop offset="1" stop-color="#c4237c"/></linearGradient><linearGradient id="SVGID_16_" gradientTransform="matrix(.707 .707 -.707 .707 198.865 -207.636)" gradientUnits="userSpaceOnUse" x1="457.44" x2="425.969" y1="102.114" y2="102.114"><stop offset="0" stop-color="#8a1958" stop-opacity="0"/><stop offset="1" stop-color="#8a1958"/></linearGradient><linearGradient id="SVGID_17_" gradientUnits="userSpaceOnUse" x1="414.741" x2="427.78" xlink:href="#lg1" y1="140.424" y2="153.463"/><g><g><path d="m355.796 488.51h-329.69c-14.418 0-26.106-11.688-26.106-26.106v-423.906c0-9.393 7.615-17.008 17.008-17.008h392.186c9.393 0 17.008 7.615 17.008 17.008v379.606c0 38.884-31.522 70.406-70.406 70.406z" fill="url(#SVGID_1_)"/><path d="m426.202 146.308-190.202 190.202 146.675 146.675c25.547-10.563 43.527-35.718 43.527-65.081z" fill="url(#SVGID_2_)"/><path d="m0 75.51h426.202v121h-426.202z" fill="url(#SVGID_3_)"/><g><path d="m349.73 206.434h-291.089c-3.521 0-6.375-2.854-6.375-6.375v-8.693c0-3.521 2.854-6.375 6.375-6.375h291.09c3.521 0 6.375 2.854 6.375 6.375v8.693c0 3.521-2.855 6.375-6.376 6.375z" fill="url(#SVGID_4_)"/><path d="m349.73 252.367h-291.089c-3.521 0-6.375-2.854-6.375-6.375v-8.693c0-3.521 2.854-6.375 6.375-6.375h291.09c3.521 0 6.375 2.854 6.375 6.375v8.693c0 3.521-2.855 6.375-6.376 6.375z" fill="url(#SVGID_5_)"/><path d="m212 298.3h-153.359c-3.521 0-6.375-2.854-6.375-6.375v-8.693c0-3.521 2.854-6.375 6.375-6.375h153.359c3.521 0 6.375 2.854 6.375 6.375v8.693c0 3.52-2.854 6.375-6.375 6.375z" fill="url(#SVGID_6_)"/></g><path d="m0 367.211v95.193c0 14.418 11.688 26.106 26.106 26.106h329.69c38.884 0 70.406-31.522 70.406-70.406v-50.893z" fill="url(#SVGID_7_)"/><path d="m52.211 405.586v56.818c0 14.418-11.688 26.106-26.106 26.106h381.902c38.884 0 70.406-31.522 70.406-70.406v-12.518c0-9.393-7.615-17.008-17.008-17.008h-392.185c-9.394 0-17.009 7.615-17.009 17.008z" fill="url(#SVGID_8_)"/><path d="m52.211 405.586v56.818c0 14.418-11.688 26.106-26.106 26.106h381.902c38.884 0 70.406-31.522 70.406-70.406v-12.518c0-9.393-7.615-17.008-17.008-17.008h-392.185c-9.394 0-17.009 7.615-17.009 17.008z" fill="url(#SVGID_9_)"/><path d="m409.194 21.49h-392.186c-9.393 0-17.008 7.615-17.008 17.008v89.012h426.202v-89.012c0-9.393-7.615-17.008-17.008-17.008z" fill="url(#SVGID_10_)"/></g><g><path d="m504.871 71.15-3.535-3.535c-6.838-6.838-17.925-6.838-24.764 0l-52.672 52.672 28.298 28.298 52.672-52.672c6.84-6.838 6.84-17.925.001-24.763z" fill="url(#SVGID_11_)"/><path d="m438.05 134.436 14.149 14.149 42.45-42.45-14.149-14.149z" fill="url(#SVGID_12_)"/><g><path d="m258.966 335.249-12.3 3.426c-9.054 2.521-15.376-3.801-12.854-12.854l3.426-12.3c5.732-20.581 17.917-40.833 34.615-57.531l6.276-6.276 158.261-150.262c5.28-5.28 12.652-6.47 16.464-2.658l21.838 22.838c3.812 3.812 2.622 11.184-2.658 16.464l-149.265 158.265-6.273 6.273c-16.698 16.698-36.949 28.883-57.53 34.615z" fill="url(#SVGID_13_)"/><path d="m258.966 335.249-12.3 3.426c-9.054 2.521-15.376-3.801-12.854-12.854l3.426-12.3c5.732-20.581 17.917-40.833 34.615-57.531l6.253-6.253 25.245 15.245 19.399 29.399-6.253 6.253c-16.699 16.698-36.95 28.883-57.531 34.615z" fill="url(#SVGID_14_)"/><path d="m482.471 118.411-28.396-28.396c-4.487-4.487-11.761-4.487-16.248 0l-159.721 159.721 44.644 44.644 159.721-159.721c4.487-4.486 4.487-11.761 0-16.248z" fill="url(#SVGID_15_)"/><path d="m483.692 119.632-15.419-15.419-101.97 101.97 22.322 22.322 92.409-92.409c5.28-5.28 6.47-12.651 2.658-16.464z" fill="url(#SVGID_16_)"/></g><path d="m462.815 91.986-96.512 96.512c-4.884 4.884-4.884 12.802 0 17.685 4.884 4.884 12.802 4.884 17.685 0l96.512-96.512c4.884-4.884 4.884-12.802 0-17.685-4.883-4.884-12.802-4.884-17.685 0z" fill="url(#SVGID_17_)"/></g></g></svg>