<svg id="Capa_1" enable-background="new 0 0 510 510" height="512" viewBox="0 0 510 510" width="512" xmlns="http://www.w3.org/2000/svg" xmlns:xlink="http://www.w3.org/1999/xlink"><linearGradient id="SVGID_1_" gradientUnits="userSpaceOnUse" x1="324.033" x2="410.36" y1="99.623" y2="185.95"><stop offset="0" stop-color="#5a5a5a"/><stop offset="1" stop-color="#464646"/></linearGradient><linearGradient id="SVGID_2_" gradientUnits="userSpaceOnUse" x1="448.465" x2="410.749" y1="120.789" y2="158.505"><stop offset="0" stop-color="#464646" stop-opacity="0"/><stop offset="1" stop-color="#202020"/></linearGradient><linearGradient id="SVGID_3_" gradientUnits="userSpaceOnUse" x1="108.814" x2="395.233" y1="204.317" y2="490.737"><stop offset="0" stop-color="#eef4ff"/><stop offset="1" stop-color="#cfe7fd"/></linearGradient><linearGradient id="lg1"><stop offset="0" stop-color="#8aaadc" stop-opacity="0"/><stop offset="1" stop-color="#8aaadc"/></linearGradient><linearGradient id="SVGID_4_" gradientUnits="userSpaceOnUse" x1="234.955" x2="161.965" xlink:href="#lg1" y1="250.198" y2="177.208"/><linearGradient id="SVGID_5_" gradientUnits="userSpaceOnUse" x1="288.239" x2="160.099" xlink:href="#lg1" y1="397.104" y2="268.963"/><linearGradient id="SVGID_6_" gradientUnits="userSpaceOnUse" x1="283.24" x2="171.549" xlink:href="#lg1" y1="498.769" y2="387.078"/><linearGradient id="SVGID_7_" gradientUnits="userSpaceOnUse" x1="394.911" x2="263.76" xlink:href="#lg1" y1="397.765" y2="266.615"/><linearGradient id="SVGID_8_" gradientUnits="userSpaceOnUse" x1="389.912" x2="275.214" xlink:href="#lg1" y1="499.431" y2="384.733"/><linearGradient id="lg2"><stop offset="0" stop-color="#76ccf8"/><stop offset=".833" stop-color="#518ef8"/><stop offset="1" stop-color="#4981f8"/></linearGradient><linearGradient id="SVGID_9_" gradientUnits="userSpaceOnUse" x1="171.676" x2="229.008" xlink:href="#lg2" y1="280.54" y2="337.872"/><linearGradient id="lg3"><stop offset="0" stop-color="#4071f7" stop-opacity="0"/><stop offset="1" stop-color="#30569f"/></linearGradient><linearGradient id="SVGID_10_" gradientUnits="userSpaceOnUse" x1="200.672" x2="200.672" xlink:href="#lg3" y1="334.137" y2="350.54"/><linearGradient id="SVGID_11_" gradientUnits="userSpaceOnUse" x1="277.676" x2="335.008" xlink:href="#lg2" y1="280.54" y2="337.872"/><linearGradient id="SVGID_12_" gradientUnits="userSpaceOnUse" x1="306.672" x2="306.672" xlink:href="#lg3" y1="334.137" y2="350.54"/><linearGradient id="SVGID_13_" gradientUnits="userSpaceOnUse" x1="171.676" x2="229.008" xlink:href="#lg2" y1="387.207" y2="444.539"/><linearGradient id="SVGID_14_" gradientUnits="userSpaceOnUse" x1="200.672" x2="200.672" xlink:href="#lg3" y1="440.804" y2="457.207"/><linearGradient id="SVGID_15_" gradientUnits="userSpaceOnUse" x1="277.676" x2="335.008" xlink:href="#lg2" y1="387.207" y2="444.539"/><linearGradient id="SVGID_16_" gradientUnits="userSpaceOnUse" x1="306.672" x2="306.672" xlink:href="#lg3" y1="440.804" y2="457.207"/><linearGradient id="SVGID_17_" gradientUnits="userSpaceOnUse" x1="55.849" x2="410.165" xlink:href="#lg2" y1="66.322" y2="420.638"/><linearGradient id="SVGID_18_" gradientUnits="userSpaceOnUse" x1="255" x2="255" xlink:href="#lg3" y1="288" y2="-23.97"/><linearGradient id="SVGID_19_" gradientUnits="userSpaceOnUse" x1="253.674" x2="253.674" xlink:href="#lg1" y1="457" y2="516.212"/><linearGradient id="SVGID_20_" gradientUnits="userSpaceOnUse" x1="88.118" x2="88.118" xlink:href="#lg3" y1="265.448" y2="345.297"/><linearGradient id="SVGID_21_" gradientUnits="userSpaceOnUse" x1="421.882" x2="421.882" xlink:href="#lg3" y1="265.448" y2="345.297"/><g><path d="m453.079 298.511v-240.393c0-15.714-12.738-28.452-28.452-28.452h-55.59c-15.714 0-28.452 12.738-28.452 28.452v240.392h112.494z" fill="url(#SVGID_1_)"/><path d="m453.079 298.511v-240.393c0-15.714-12.738-28.452-28.452-28.452h-55.59c-15.714 0-28.452 12.738-28.452 28.452v240.392h112.494z" fill="url(#SVGID_2_)"/><path d="m428.235 510h-349.122c-13.721 0-24.844-11.123-24.844-24.844v-244l157.887-195.694c21.354-26.467 61.687-26.466 83.04 0l157.883 195.693v244c0 13.722-11.123 24.845-24.844 24.845z" fill="url(#SVGID_3_)"/><path d="m295.196 45.463c-21.353-26.467-61.687-26.467-83.04 0l-157.888 195.693v93.77l175.075 175.074h198.892c13.721 0 24.844-11.123 24.844-24.844v-244z" fill="url(#SVGID_4_)"/><path d="m452.056 492.214-213.319-213.319c-3.95-5.66-10.51-9.36-17.93-9.36h-38.27c-12.08 0-21.87 9.79-21.87 21.87v38.27c0 7.42 3.71 13.97 9.36 17.93l28.6 28.6 133.795 133.795h95.813c11.268 0 20.778-7.504 23.821-17.786z" fill="url(#SVGID_5_)"/><path d="m238.737 385.555c-3.95-5.65-10.51-9.35-17.93-9.35h-38.27c-12.08 0-21.87 9.79-21.87 21.86v38.27c0 7.43 3.71 13.98 9.36 17.93l55.735 55.735h137.414z" fill="url(#SVGID_6_)"/><path d="m453.077 485.221v-97.995l-108.33-108.33c-3.95-5.66-10.51-9.36-17.93-9.36h-38.27c-12.08 0-21.87 9.79-21.87 21.87v38.27c0 7.42 3.71 13.97 9.36 17.93l28.6 28.6 132.245 132.245c9.438-3.505 16.168-12.579 16.195-23.23z" fill="url(#SVGID_7_)"/><path d="m451.905 492.713-107.158-107.158c-3.95-5.65-10.51-9.35-17.93-9.35h-38.27c-12.08 0-21.87 9.79-21.87 21.86v38.27c0 7.43 3.71 13.98 9.36 17.93l55.735 55.735h96.463c11.085 0 20.471-7.262 23.67-17.287z" fill="url(#SVGID_8_)"/><g><g><g><path d="m219.809 350.537h-38.273c-12.075 0-21.864-9.789-21.864-21.864v-38.273c0-12.075 9.789-21.864 21.864-21.864h38.273c12.075 0 21.864 9.789 21.864 21.864v38.273c-.001 12.075-9.789 21.864-21.864 21.864z" fill="url(#SVGID_9_)"/><path d="m159.672 328.673c0 12.075 9.789 21.864 21.864 21.864h38.273c12.075 0 21.864-9.789 21.864-21.864 0-2.61-2.116-4.726-4.726-4.726h-72.549c-2.61.001-4.726 2.116-4.726 4.726z" fill="url(#SVGID_10_)"/></g><g><path d="m325.809 350.537h-38.273c-12.075 0-21.864-9.789-21.864-21.864v-38.273c0-12.075 9.789-21.864 21.864-21.864h38.273c12.075 0 21.864 9.789 21.864 21.864v38.273c-.001 12.075-9.789 21.864-21.864 21.864z" fill="url(#SVGID_11_)"/><path d="m265.672 328.673c0 12.075 9.789 21.864 21.864 21.864h38.273c12.075 0 21.864-9.789 21.864-21.864 0-2.61-2.116-4.726-4.726-4.726h-72.549c-2.61.001-4.726 2.116-4.726 4.726z" fill="url(#SVGID_12_)"/></g></g><g><g><path d="m219.809 457.203h-38.273c-12.075 0-21.864-9.789-21.864-21.864v-38.273c0-12.075 9.789-21.864 21.864-21.864h38.273c12.075 0 21.864 9.789 21.864 21.864v38.273c-.001 12.076-9.789 21.864-21.864 21.864z" fill="url(#SVGID_13_)"/><path d="m159.672 435.34c0 12.075 9.789 21.864 21.864 21.864h38.273c12.075 0 21.864-9.789 21.864-21.864 0-2.61-2.116-4.726-4.726-4.726h-72.549c-2.61 0-4.726 2.116-4.726 4.726z" fill="url(#SVGID_14_)"/></g><g><path d="m325.809 457.203h-38.273c-12.075 0-21.864-9.789-21.864-21.864v-38.273c0-12.075 9.789-21.864 21.864-21.864h38.273c12.075 0 21.864 9.789 21.864 21.864v38.273c-.001 12.076-9.789 21.864-21.864 21.864z" fill="url(#SVGID_15_)"/><path d="m265.672 435.34c0 12.075 9.789 21.864 21.864 21.864h38.273c12.075 0 21.864-9.789 21.864-21.864 0-2.61-2.116-4.726-4.726-4.726h-72.549c-2.61 0-4.726 2.116-4.726 4.726z" fill="url(#SVGID_16_)"/></g></g></g><path d="m270.426 120.719 149.099 192.4c11.121 14.35 28.255 22.749 46.41 22.749 36.565 0 57.164-42.023 34.766-70.925l-180.578-233.021c-32.984-42.563-97.263-42.563-130.246 0l-180.578 233.021c-22.398 28.902-1.799 70.925 34.766 70.925 18.155 0 35.289-8.399 46.41-22.749l149.099-192.4c7.813-10.082 23.039-10.082 30.852 0z" fill="url(#SVGID_17_)"/><path d="m44.065 335.868c18.155 0 35.289-8.399 46.41-22.749l149.099-192.4c7.813-10.082 23.039-10.082 30.852 0l149.099 192.4c11.121 14.35 28.255 22.749 46.41 22.749 11.551 0 21.506-4.197 29.018-10.846l-197.543-254.912c-21.48-27.718-63.341-27.718-84.821 0l-197.542 254.912c7.512 6.649 17.467 10.846 29.018 10.846z" fill="url(#SVGID_18_)"/><path d="m54.268 413v72.156c0 13.721 11.123 24.844 24.844 24.844h349.122c13.721 0 24.844-11.123 24.844-24.844v-72.156z" fill="url(#SVGID_19_)"/><g><path d="m44.065 335.868c18.155 0 35.289-8.399 46.41-22.749l85.762-110.668h-118.511l-48.427 62.492c-22.398 28.902-1.799 70.925 34.766 70.925z" fill="url(#SVGID_20_)"/><path d="m419.525 313.119c11.121 14.35 28.255 22.749 46.41 22.749 36.565 0 57.164-42.023 34.766-70.925l-48.428-62.492h-118.51z" fill="url(#SVGID_21_)"/></g></g></svg>