<svg id="Capa_1" enable-background="new 0 0 510 510" height="512" viewBox="0 0 510 510" width="512" xmlns="http://www.w3.org/2000/svg" xmlns:xlink="http://www.w3.org/1999/xlink"><linearGradient id="SVGID_1_" gradientUnits="userSpaceOnUse" x1="37.687" x2="377.642" y1="37.687" y2="377.642"><stop offset="0" stop-color="#dc4955"/><stop offset="1" stop-color="#c4237c"/></linearGradient><linearGradient id="lg1"><stop offset="0" stop-color="#8a1958" stop-opacity="0"/><stop offset="1" stop-color="#8a1958"/></linearGradient><linearGradient id="SVGID_2_" gradientUnits="userSpaceOnUse" x1="481.682" x2="334.772" xlink:href="#lg1" y1="442.985" y2="296.075"/><linearGradient id="SVGID_3_" gradientUnits="userSpaceOnUse" x1="255" x2="255" xlink:href="#lg1" y1="377" y2="538.003"/><linearGradient id="SVGID_4_" gradientUnits="userSpaceOnUse" x1="141.68" x2="350.666" y1="102.978" y2="311.964"><stop offset="0" stop-color="#eef4ff"/><stop offset="1" stop-color="#cfe7fd"/></linearGradient><linearGradient id="lg2"><stop offset="0" stop-color="#8aaadc" stop-opacity="0"/><stop offset="1" stop-color="#8aaadc"/></linearGradient><linearGradient id="SVGID_5_" gradientUnits="userSpaceOnUse" x1="255" x2="255" xlink:href="#lg2" y1="286.675" y2="406.84"/><linearGradient id="SVGID_6_" gradientUnits="userSpaceOnUse" x1="220.362" x2="320.959" xlink:href="#lg2" y1="246.639" y2="146.041"/><linearGradient id="SVGID_7_" gradientUnits="userSpaceOnUse" x1="278.065" x2="239.064" xlink:href="#lg2" y1="298.558" y2="169.058"/><linearGradient id="SVGID_8_" gradientUnits="userSpaceOnUse" x1="267.784" x2="267.784" xlink:href="#lg2" y1="380.667" y2="234.782"/><linearGradient id="SVGID_9_" gradientUnits="userSpaceOnUse" x1="255" x2="255" y1="232.449" y2="304.461"><stop offset="0" stop-color="#f7e07d"/><stop offset="1" stop-color="#e69642"/></linearGradient><linearGradient id="SVGID_10_" gradientUnits="userSpaceOnUse" x1="255" x2="255" y1="316.5" y2="145.474"><stop offset="0" stop-color="#d52c1c" stop-opacity="0"/><stop offset=".28" stop-color="#d12c1e" stop-opacity=".28"/><stop offset=".5735" stop-color="#c42c23" stop-opacity=".574"/><stop offset=".8721" stop-color="#af2b2c" stop-opacity=".872"/><stop offset="1" stop-color="#a42b31"/></linearGradient><g><path d="m403.41 0h-296.82c-58.868 0-106.59 47.722-106.59 106.59v296.82c0 58.868 47.722 106.59 106.59 106.59h296.82c58.868 0 106.59-47.722 106.59-106.59v-296.82c0-58.868-47.722-106.59-106.59-106.59z" fill="url(#SVGID_1_)"/><path d="m510 403.41v-171.9l-95.654-95.654c-18.213-20.199-42.741-31.957-69.752-33.273-1.716-.084-3.455-.126-5.167-.126-27.345 0-53.159 10.538-72.686 29.672-3.322 3.255-6.39 6.705-9.212 10.31-.832-.873-8.721-8.789-10.272-10.309-19.528-19.135-45.341-29.673-72.684-29.673-1.712 0-3.451.042-5.167.126-29.185 1.422-55.475 15.026-74.029 38.305-20.033 25.136-28.23 58.036-22.489 90.264 6.461 36.264 27.083 71.291 61.382 104.342l174.507 174.506h94.633c58.868 0 106.59-47.722 106.59-106.59z" fill="url(#SVGID_2_)"/><path d="m0 344.628v58.782c0 58.868 47.722 106.59 106.59 106.59h296.82c58.868 0 106.59-47.722 106.59-106.59v-58.782z" fill="url(#SVGID_3_)"/><g><path d="m255 409.544c-6.748 0-13.507-1.598-19.546-4.62-18.251-9.134-53.892-28.72-87.513-57.273-43.737-37.144-69.66-77.013-77.052-118.5-5.741-32.228 2.456-65.128 22.489-90.264 18.554-23.279 44.844-36.883 74.029-38.305 1.716-.084 3.455-.126 5.167-.126 27.344 0 53.157 10.538 72.684 29.673 3.527 3.457 6.779 7.124 9.741 10.973 2.963-3.849 6.215-7.518 9.742-10.974 19.527-19.134 45.341-29.672 72.685-29.672 1.712 0 3.451.042 5.167.126 29.185 1.422 55.476 15.026 74.03 38.307 20.033 25.136 28.229 58.036 22.487 90.263-7.39 41.486-33.314 81.355-77.051 118.499-33.62 28.552-69.26 48.139-87.513 57.273-6.039 3.023-12.798 4.62-19.546 4.62z" fill="url(#SVGID_4_)"/><path d="m84.396 269.959c13.107 26.892 34.352 52.899 63.545 77.692 33.621 28.553 69.262 48.139 87.513 57.273 6.039 3.022 12.799 4.62 19.547 4.62s13.507-1.597 19.547-4.62c18.253-9.134 53.893-28.721 87.513-57.273 29.193-24.793 50.438-50.801 63.545-77.692z" fill="url(#SVGID_5_)"/><path d="m254.999 293.87c-42.186-42.186-42.185-110.582.001-152.767-2.962-3.85-6.214-7.517-9.741-10.974-19.528-19.135-45.341-29.673-72.684-29.673-1.712 0-3.451.042-5.167.126-29.185 1.422-55.475 15.026-74.029 38.305-20.033 25.137-28.23 58.036-22.489 90.264 7.391 41.487 33.315 81.356 77.052 118.5 33.621 28.553 69.262 48.139 87.513 57.273 6.039 3.022 12.799 4.62 19.547 4.62s13.507-1.597 19.547-4.62c12.802-6.406 34.158-17.961 57.369-34.137z" fill="url(#SVGID_6_)"/></g><path d="m424.068 273.033-25.145-25.145c-2.135-3.833-6.224-6.429-10.922-6.429h-41.161c-5.571 0-10.47 3.687-12.012 9.04l-.865 3.003-32.752-32.161c-2.146-3.854-6.192-6.332-10.674-6.417-.08-.001-.16-.002-.239-.002-4.882 0-9.327 2.846-11.365 7.298l-2.218 4.845-40.809-40.18c-2.175-3.917-6.324-6.434-10.919-6.434-.019 0-.037 0-.056 0-5.4.023-10.175 3.513-11.838 8.651l-23.18 71.628-13.408-12.839c-2.168-3.903-6.312-6.433-10.922-6.433h-41.583c-6.903 0-12.5 5.597-12.5 12.5 0 4.699 2.596 8.787 6.429 10.922l52.947 53.11 1.283 4.491c.934 3.266 3.12 5.916 5.949 7.489l79.49 79.492c5.874-.355 11.685-1.905 16.949-4.54 18.253-9.134 53.893-28.721 87.513-57.273 28.079-23.845 48.803-48.816 62.008-74.616z" fill="url(#SVGID_7_)"/><g><path d="m399.474 248.439c.007.174.026.344.026.52 0 6.903-5.597 12.5-12.5 12.5h-31.754l-16.146 56.05c-1.472 5.108-6.013 8.727-11.32 9.021-.232.014-.465.02-.695.02-5.037 0-9.614-3.035-11.552-7.734l-26.832-65.055-19.182 41.907c-2.137 4.668-6.901 7.563-12.038 7.279-5.127-.275-9.563-3.658-11.187-8.529l-22.135-66.409-29.09 89.89c-1.671 5.164-6.479 8.651-11.891 8.651-.073 0-.146-.001-.219-.002-5.5-.096-10.291-3.775-11.803-9.064l-16.004-56.023h-32.152c-5.159 0-9.587-3.127-11.496-7.589 0 .03-.004.059-.004.089 0 4.699 2.596 8.787 6.429 10.922l52.947 53.11 1.283 4.491c.934 3.266 3.12 5.916 5.949 7.489l79.49 79.492c5.874-.355 11.685-1.905 16.949-4.54 18.253-9.134 53.893-28.721 87.513-57.273 28.079-23.846 48.803-48.818 62.008-74.618z" fill="url(#SVGID_8_)"/></g><path d="m327.085 330.549c-5.037 0-9.614-3.035-11.552-7.734l-26.832-65.055-19.182 41.907c-2.137 4.668-6.901 7.563-12.038 7.279-5.127-.275-9.563-3.658-11.187-8.529l-22.135-66.409-29.09 89.89c-1.671 5.164-6.479 8.651-11.891 8.651-.073 0-.146-.001-.219-.002-5.5-.096-10.291-3.775-11.803-9.064l-16.004-56.023h-32.152c-6.903 0-12.5-5.597-12.5-12.5s5.597-12.5 12.5-12.5h41.583c5.581 0 10.486 3.7 12.02 9.066l7.32 25.624 28.17-87.047c1.663-5.139 6.438-8.628 11.838-8.651h.056c5.378 0 10.155 3.441 11.857 8.548l24.142 72.43 17.946-39.209c2.038-4.452 6.483-7.298 11.365-7.298.079 0 .159.001.239.002 4.975.095 9.42 3.132 11.317 7.732l24.137 58.521 8.837-30.678c1.542-5.354 6.44-9.04 12.012-9.04h41.161c6.903 0 12.5 5.597 12.5 12.5s-5.597 12.5-12.5 12.5h-31.754l-16.146 56.05c-1.472 5.108-6.013 8.727-11.32 9.021-.232.012-.465.018-.695.018z" fill="url(#SVGID_9_)"/><path d="m399.5 252.96c0 6.9-5.6 12.5-12.5 12.5h-31.75l-16.15 56.05c-1.47 5.11-6.01 8.73-11.32 9.02-.23.01-.46.02-.7.02-5.03 0-9.61-3.04-11.55-7.74l-26.83-65.05-19.18 41.91c-2.14 4.66-6.9 7.56-12.04 7.28-5.13-.28-9.56-3.66-11.19-8.53l-22.13-66.41-29.09 89.89c-1.67 5.16-6.48 8.65-11.89 8.65h-.22c-5.5-.1-10.29-3.78-11.8-9.07l-16.01-56.02h-32.15c-6.9 0-12.5-5.6-12.5-12.5h47.28c4.03 0 7.56 2.67 8.67 6.54l9.55 33.43c2.16 7.56 12.8 7.74 15.22.27l25.31-78.2c2.36-7.31 12.69-7.36 15.11-.07l20.13 60.39c2.28 6.85 11.78 7.36 14.78.79l15.13-33.05c2.9-6.33 11.94-6.16 14.59.27l22.13 53.65c2.87 6.96 12.91 6.41 15-.83l10.56-36.67c1.11-3.86 4.64-6.52 8.66-6.52z" fill="url(#SVGID_10_)"/></g></svg>