<svg id="Capa_1" enable-background="new 0 0 510 510" height="512" viewBox="0 0 510 510" width="512" xmlns="http://www.w3.org/2000/svg" xmlns:xlink="http://www.w3.org/1999/xlink"><linearGradient id="lg1"><stop offset="0" stop-color="#eef4ff"/><stop offset="1" stop-color="#cfe7fd"/></linearGradient><linearGradient id="SVGID_1_" gradientUnits="userSpaceOnUse" x1="34.696" x2="184.309" xlink:href="#lg1" y1="80.281" y2="229.894"/><linearGradient id="lg2"><stop offset="0" stop-color="#8aaadc" stop-opacity="0"/><stop offset="1" stop-color="#8aaadc"/></linearGradient><linearGradient id="SVGID_2_" gradientUnits="userSpaceOnUse" x1="12" x2="134.037" xlink:href="#lg2" y1="282.277" y2="282.277"/><linearGradient id="SVGID_3_" gradientUnits="userSpaceOnUse" x1="228.844" x2="228.844" xlink:href="#lg2" y1="398.734" y2="478.605"/><linearGradient id="SVGID_4_" gradientUnits="userSpaceOnUse" x1="99.047" x2="351.554" xlink:href="#lg1" y1="84.953" y2="337.461"/><linearGradient id="SVGID_5_" gradientUnits="userSpaceOnUse" x1="311.322" x2="311.322" xlink:href="#lg2" y1="80.667" y2="195.211"/><linearGradient id="lg3"><stop offset="0" stop-color="#dc4955"/><stop offset="1" stop-color="#c4237c"/></linearGradient><linearGradient id="SVGID_6_" gradientUnits="userSpaceOnUse" x1="181.49" x2="181.49" xlink:href="#lg3" y1="47" y2="134.367"/><linearGradient id="SVGID_7_" gradientUnits="userSpaceOnUse" x1="258.409" x2="258.409" xlink:href="#lg3" y1="47" y2="134.367"/><linearGradient id="SVGID_8_" gradientUnits="userSpaceOnUse" x1="349.517" x2="349.517" xlink:href="#lg3" y1="47" y2="134.367"/><linearGradient id="SVGID_9_" gradientUnits="userSpaceOnUse" x1="442.555" x2="442.555" xlink:href="#lg3" y1="47" y2="134.367"/><linearGradient id="lg4"><stop offset="0" stop-color="#5a5a5a"/><stop offset="1" stop-color="#464646"/></linearGradient><linearGradient id="SVGID_10_" gradientUnits="userSpaceOnUse" x1="368.916" x2="503.25" xlink:href="#lg4" y1="181.62" y2="315.954"/><linearGradient id="SVGID_11_" gradientUnits="userSpaceOnUse" x1="345.95" x2="480.283" xlink:href="#lg4" y1="204.587" y2="338.92"/><linearGradient id="SVGID_12_" gradientUnits="userSpaceOnUse" x1="285.785" x2="420.118" xlink:href="#lg4" y1="264.752" y2="399.086"/><linearGradient id="SVGID_13_" gradientUnits="userSpaceOnUse" x1="322.95" x2="457.283" xlink:href="#lg4" y1="227.587" y2="361.92"/><linearGradient id="SVGID_14_" gradientUnits="userSpaceOnUse" x1="275.88" x2="275.88" xlink:href="#lg2" y1="441" y2="510.007"/><g><path d="m386.506 510h-342.03c-24.207 0-43.831-19.624-43.831-43.831v-394.576c0-9.411 7.629-17.04 17.04-17.04h422.319c9.411 0 17.04 7.629 17.04 17.04v367.869c0 38.957-31.581 70.538-70.538 70.538z" fill="url(#SVGID_1_)"/><path d="m386.506 510h-342.03c-24.207 0-43.831-19.624-43.831-43.831v-394.576c0-9.411 7.629-17.04 17.04-17.04h422.319c9.411 0 17.04 7.629 17.04 17.04v367.869c0 38.957-31.581 70.538-70.538 70.538z" fill="url(#SVGID_2_)"/><path d="m.645 388.475v77.694c0 24.207 19.624 43.831 43.831 43.831h344.129c37.797 0 68.438-30.641 68.438-68.438v-53.087z" fill="url(#SVGID_3_)"/><path d="m509.355 23.172v416.287c0 38.959-31.583 70.542-70.542 70.542h-396.408c38.953 0 70.531-31.579 70.531-70.542v-416.287c0-12.798 10.375-23.172 23.172-23.172h350.075c12.798 0 23.172 10.374 23.172 23.172z" fill="url(#SVGID_4_)"/><path d="m459.122 439.064h-295.484c-8.281 0-14.995-6.713-14.995-14.995v-23.802c0-8.281 6.713-14.995 14.995-14.995h295.484c8.281 0 14.995 6.713 14.995 14.995v23.802c0 8.282-6.713 14.995-14.995 14.995z" fill="#fff"/><path d="m273.505 354.5h-109.867c-8.281 0-14.995-6.713-14.995-14.995v-129.682c0-8.281 6.713-14.995 14.995-14.995h109.867c8.281 0 14.995 6.713 14.995 14.995v129.682c0 8.282-6.713 14.995-14.995 14.995z" fill="#fff"/><path d="m467.625 172.887h-312.606c-3.521 0-6.375-2.854-6.375-6.375v-8.693c0-3.521 2.854-6.375 6.375-6.375h312.606c3.521 0 6.375 2.854 6.375 6.375v8.693c0 3.521-2.854 6.375-6.375 6.375z" fill="url(#SVGID_5_)"/><g><path d="m193.111 123.583-24.398-44.43v43.66c0 4.109-5.008 6.164-10.016 6.164s-10.016-2.055-10.016-6.164v-81.54c0-4.238 5.008-6.164 10.016-6.164 7.191 0 9.887.642 14.767 10.016l20.802 39.679v-43.66c0-4.238 5.008-6.036 10.016-6.036s10.016 1.798 10.016 6.036v81.669c0 4.109-5.008 6.164-10.016 6.164-4.622-.001-8.731-.9-11.171-5.394z" fill="url(#SVGID_6_)"/><path d="m248.201 74.273h19.262c3.852 0 6.035 3.724 6.035 7.833 0 3.467-1.798 7.576-6.035 7.576h-19.262v21.83h34.414c3.853 0 6.035 4.109 6.035 8.86 0 4.109-1.797 8.603-6.035 8.603h-45.715c-4.366 0-8.732-2.055-8.732-6.164v-81.54c0-4.109 4.366-6.164 8.732-6.164h45.714c4.238 0 6.035 4.494 6.035 8.603 0 4.752-2.183 8.861-6.035 8.861h-34.414v21.702z" fill="url(#SVGID_7_)"/><path d="m382.39 123.07c-1.541 4.494-7.319 6.677-13.226 6.677-5.779 0-11.942-2.183-12.969-6.677l-6.677-30.434-6.677 30.434c-1.027 4.494-7.191 6.677-12.969 6.677-5.907 0-11.814-2.183-13.226-6.677l-25.556-78.331c-.128-.385-.257-1.028-.257-1.669 0-4.366 7.191-7.962 12.969-7.962 3.082 0 5.651 1.028 6.421 3.724l19.518 65.875 10.144-43.403c.771-3.467 5.265-5.265 9.631-5.265s8.86 1.798 9.631 5.265l10.144 43.403 19.518-65.875c.771-2.696 3.339-3.724 6.421-3.724 5.779 0 12.969 3.596 12.969 7.962 0 .642-.128 1.284-.257 1.669z" fill="url(#SVGID_8_)"/><path d="m454.048 103.808c0-15.538-40.706-12.841-40.706-42.889 0-19.261 16.822-26.581 32.873-26.581 6.806 0 25.554 1.284 25.554 11.3 0 3.467-2.312 10.529-7.962 10.529-4.623 0-7.063-4.88-17.592-4.88-9.117 0-12.841 3.724-12.841 7.704 0 12.841 40.706 10.401 40.706 42.761 0 18.491-13.483 28.507-32.103 28.507-16.822 0-30.947-8.218-30.947-16.694 0-4.366 3.853-10.786 8.732-10.786 6.035 0 9.888 9.502 21.83 9.502 5.907.002 12.456-2.31 12.456-8.473z" fill="url(#SVGID_9_)"/></g><g><path d="m467.742 194.828h-149.792c-3.521 0-6.375 2.854-6.375 6.375v8.693c0 3.521 2.854 6.375 6.375 6.375h149.792c3.521 0 6.375-2.854 6.375-6.375v-8.693c0-3.52-2.854-6.375-6.375-6.375z" fill="url(#SVGID_10_)"/><path d="m467.742 240.761h-149.792c-3.521 0-6.375 2.854-6.375 6.375v8.693c0 3.521 2.854 6.375 6.375 6.375h149.792c3.521 0 6.375-2.854 6.375-6.375v-8.693c0-3.521-2.854-6.375-6.375-6.375z" fill="url(#SVGID_11_)"/><path d="m410.945 332.694h-92.995c-3.521 0-6.375 2.854-6.375 6.375v8.693c0 3.521 2.854 6.375 6.375 6.375h92.995c3.521 0 6.375-2.854 6.375-6.375v-8.693c0-3.521-2.854-6.375-6.375-6.375z" fill="url(#SVGID_12_)"/><path d="m467.742 286.761h-149.792c-3.521 0-6.375 2.854-6.375 6.375v8.693c0 3.521 2.854 6.375 6.375 6.375h149.792c3.521 0 6.375-2.854 6.375-6.375v-8.693c0-3.521-2.854-6.375-6.375-6.375z" fill="url(#SVGID_13_)"/></g><path d="m112.936 385v54.458c0 38.963-31.579 70.542-70.531 70.542h396.408c38.959 0 70.542-31.583 70.542-70.542v-54.458z" fill="url(#SVGID_14_)"/></g></svg>