<svg id="Capa_1" enable-background="new 0 0 510 510" height="512" viewBox="0 0 510 510" width="512" xmlns="http://www.w3.org/2000/svg" xmlns:xlink="http://www.w3.org/1999/xlink"><linearGradient id="SVGID_1_" gradientUnits="userSpaceOnUse" x1="76.631" x2="347.762" y1="72.37" y2="343.501"><stop offset="0" stop-color="#eef4ff"/><stop offset="1" stop-color="#cfe7fd"/></linearGradient><linearGradient id="lg1"><stop offset="0" stop-color="#8aaadc" stop-opacity="0"/><stop offset="1" stop-color="#8aaadc"/></linearGradient><linearGradient id="SVGID_2_" gradientUnits="userSpaceOnUse" x1="340" x2="444.307" xlink:href="#lg1" y1="139.785" y2="139.785"/><linearGradient id="SVGID_3_" gradientUnits="userSpaceOnUse" x1="234.017" x2="334.017" xlink:href="#lg1" y1="98.22" y2="-.781"/><linearGradient id="SVGID_4_" gradientUnits="userSpaceOnUse" x1="255" x2="255" xlink:href="#lg1" y1="288" y2="373.357"/><linearGradient id="SVGID_5_" gradientUnits="userSpaceOnUse" x1="268.275" x2="103.608" xlink:href="#lg1" y1="361.118" y2="233.784"/><linearGradient id="SVGID_6_" gradientUnits="userSpaceOnUse" x1="338.396" x2="292.396" xlink:href="#lg1" y1="325.867" y2="264.367"/><linearGradient id="SVGID_7_" gradientUnits="userSpaceOnUse" x1="492" x2="429.492" xlink:href="#lg1" y1="270.29" y2="270.29"/><linearGradient id="SVGID_8_" gradientUnits="userSpaceOnUse" x1="149.093" x2="465.408" y1="211.767" y2="528.082"><stop offset="0" stop-color="#9d66d6"/><stop offset="1" stop-color="#453d81"/></linearGradient><linearGradient id="lg2"><stop offset="0" stop-color="#453d81" stop-opacity="0"/><stop offset="1" stop-color="#453d81"/></linearGradient><linearGradient id="SVGID_9_" gradientUnits="userSpaceOnUse" x1="166.493" x2="231.535" xlink:href="#lg2" y1="388.046" y2="481.809"/><linearGradient id="SVGID_10_" gradientUnits="userSpaceOnUse" x1="349.951" x2="413.304" xlink:href="#lg2" y1="355.168" y2="448.086"/><linearGradient id="SVGID_11_" gradientUnits="userSpaceOnUse" x1="48.341" x2="190.437" y1="208.153" y2="350.25"><stop offset="0" stop-color="#f7e07d"/><stop offset="1" stop-color="#e69642"/></linearGradient><linearGradient id="SVGID_12_" gradientUnits="userSpaceOnUse" x1="72.467" x2="117.273" y1="301.161" y2="365.752"><stop offset="0" stop-color="#d52c1c" stop-opacity="0"/><stop offset=".28" stop-color="#d12c1e" stop-opacity=".28"/><stop offset=".5735" stop-color="#c42c23" stop-opacity=".574"/><stop offset=".8721" stop-color="#af2b2c" stop-opacity=".872"/><stop offset="1" stop-color="#a42b31"/></linearGradient><g><g><path d="m417.255 162.99c2.257-6.851 3.495-14.165 3.495-21.772 0-38.418-31.144-69.562-69.562-69.562-11.218 0-21.806 2.671-31.189 7.388-21.079-46.611-67.986-79.044-122.469-79.044-74.195 0-134.342 60.147-134.342 134.342 0 11.438 1.434 22.541 4.124 33.142-39.041 12.48-67.312 49.053-67.312 92.235 0 53.472 43.348 96.82 96.82 96.82h316.359s96.821-43.348 96.821-96.82c0-52.107-41.164-94.592-92.745-96.729z" fill="url(#SVGID_1_)"/><path d="m420.75 141.22c0 7.6-1.22 14.92-3.48 21.77-1.35-.06-2.72-.09-4.09-.09-34.41 0-64.63 17.96-81.79 45.01-28.77-8.52-49.76-35.15-49.76-66.69 0-38.42 31.14-69.56 69.56-69.56s69.56 31.14 69.56 69.56z" fill="url(#SVGID_2_)"/><path d="m314.55 200.36c-23.05 40.79-66.82 68.32-117.02 68.32-74.19 0-134.34-60.14-134.34-134.34 0-74.19 60.15-134.34 134.34-134.34 54.48 0 101.39 32.43 122.47 79.03-22.76 11.43-38.37 34.99-38.37 62.19 0 24.97 13.16 46.87 32.92 59.14z" fill="url(#SVGID_3_)"/><path d="m0 259.719c0 53.472 43.348 96.82 96.82 96.82h316.359s96.821-43.348 96.821-96.82c0-10.369-1.635-20.354-4.653-29.719h-500.682c-3.019 9.366-4.665 19.349-4.665 29.719z" fill="url(#SVGID_4_)"/><path d="m367.539 356.539-180.206-180.206-83 16.333v163.873z" fill="url(#SVGID_5_)"/></g><path d="m236 356.539h166.5v-112.539l-166.5 33.5z" fill="url(#SVGID_6_)"/><path d="m509.834 265.334-79.834-79.834v169.58c43.659-7.648 77.248-44.544 79.834-89.746z" fill="url(#SVGID_7_)"/><g><g><path d="m201.75 232.132v155.997c-18.154-3.857-39.46.283-57.884 12.971-31.728 21.849-42.876 60.721-24.901 86.824s58.267 29.552 89.995 7.703c22.097-15.217 34.197-38.689 33.443-60.356h.049v-146.098c0-3.351 2.391-6.225 5.686-6.834l136.423-25.228c4.272-.79 8.214 2.489 8.214 6.834v81.333c-18.153-3.857-39.46.283-57.884 12.971-31.728 21.849-42.876 60.721-24.902 86.824 17.975 26.103 58.267 29.552 89.995 7.703 22.097-15.217 34.197-38.689 33.443-60.356h.049v-198.625c0-7.63-6.922-13.39-14.425-12.002l-207.315 38.337c-5.787 1.07-9.986 6.117-9.986 12.002z" fill="url(#SVGID_8_)"/><g><path d="m201.749 388.129c-18.153-3.857-39.46.283-57.884 12.971-31.728 21.848-42.877 60.721-24.901 86.824 17.975 26.103 58.267 29.551 89.995 7.703 22.097-15.217 34.197-38.69 33.443-60.357h.049v-106.12h-40.701v58.979z" fill="url(#SVGID_9_)"/><path d="m433.474 329.15h-40.701v16.128c-18.153-3.857-39.46.283-57.884 12.971-31.728 21.848-42.876 60.721-24.902 86.823 17.975 26.103 58.267 29.552 89.995 7.703 22.098-15.217 34.197-38.69 33.443-60.357h.049z" fill="url(#SVGID_10_)"/></g></g><g><path d="m189.077 181.898c0 20.442-14.586 37.974-34.688 41.692l-25.677 4.749c-2.27.421-3.924 2.403-3.924 4.714v100.639h-.031c.524 14.924-7.816 31.091-23.039 41.578-21.857 15.048-49.611 12.675-61.998-5.31-12.377-17.975-4.694-44.752 17.153-59.81 12.695-8.741 27.373-11.586 39.884-8.936v-107.459c0-4.057 2.886-7.529 6.872-8.268l73.443-13.578c6.244-1.154 12.005 3.639 12.005 9.989z" fill="url(#SVGID_11_)"/><path d="m96.754 301.219c-12.505-2.657-27.183.195-39.875 8.935-21.857 15.051-29.537 41.829-17.154 59.811s40.139 20.357 61.995 5.306c15.222-10.483 23.557-26.652 23.038-41.578h.034v-73.104h-28.038z" fill="url(#SVGID_12_)"/></g></g></g></svg>