<svg id="Capa_1" enable-background="new 0 0 510 510" height="512" viewBox="0 0 510 510" width="512" xmlns="http://www.w3.org/2000/svg" xmlns:xlink="http://www.w3.org/1999/xlink"><linearGradient id="lg1"><stop offset="0" stop-color="#f7e07d"/><stop offset="1" stop-color="#e69642"/></linearGradient><linearGradient id="SVGID_1_" gradientUnits="userSpaceOnUse" x1="199.154" x2="199.154" xlink:href="#lg1" y1="30.873" y2="371.935"/><linearGradient id="SVGID_2_" gradientUnits="userSpaceOnUse" x1="8" x2="114.003" y1="327.823" y2="327.823"><stop offset="0" stop-color="#d52c1c" stop-opacity="0"/><stop offset=".2649" stop-color="#cf2c1f" stop-opacity=".265"/><stop offset=".6249" stop-color="#bd2c26" stop-opacity=".625"/><stop offset="1" stop-color="#a42b31"/></linearGradient><linearGradient id="lg2"><stop offset="0" stop-color="#d52c1c" stop-opacity="0"/><stop offset=".28" stop-color="#d12c1e" stop-opacity=".28"/><stop offset=".5735" stop-color="#c42c23" stop-opacity=".574"/><stop offset=".8721" stop-color="#af2b2c" stop-opacity=".872"/><stop offset="1" stop-color="#a42b31"/></linearGradient><linearGradient id="SVGID_3_" gradientUnits="userSpaceOnUse" x1="199.154" x2="199.154" xlink:href="#lg2" y1="404.812" y2="475.395"/><linearGradient id="lg3"><stop offset="0" stop-color="#eef4ff"/><stop offset="1" stop-color="#cfe7fd"/></linearGradient><linearGradient id="SVGID_4_" gradientUnits="userSpaceOnUse" x1="256.551" x2="256.551" xlink:href="#lg3" y1="11" y2="248.413"/><linearGradient id="lg4"><stop offset="0" stop-color="#8aaadc" stop-opacity="0"/><stop offset="1" stop-color="#8aaadc"/></linearGradient><linearGradient id="SVGID_5_" gradientUnits="userSpaceOnUse" x1="256.551" x2="256.551" xlink:href="#lg4" y1="80" y2="-28.005"/><linearGradient id="SVGID_6_" gradientUnits="userSpaceOnUse" x1="285.048" x2="285.048" xlink:href="#lg4" y1="218.667" y2="67.081"/><linearGradient id="SVGID_7_" gradientUnits="userSpaceOnUse" x1="295.709" x2="295.709" xlink:href="#lg3" y1="6" y2="97.788"/><linearGradient id="SVGID_8_" gradientUnits="userSpaceOnUse" x1="295.709" x2="295.709" xlink:href="#lg4" y1="49" y2="174.144"/><linearGradient id="SVGID_9_" gradientUnits="userSpaceOnUse" x1="255.005" x2="255.005" xlink:href="#lg1" y1="193.28" y2="534.161"/><linearGradient id="SVGID_10_" gradientUnits="userSpaceOnUse" x1="219.021" x2="219.021" xlink:href="#lg2" y1="424.335" y2="535.506"/><g><g><path d="m151.753 179.255c0-18.561-15.047-33.609-33.609-33.609h-84.535c-18.562.001-33.609 15.048-33.609 33.609v282.865c0 26.443 21.437 47.88 47.88 47.88h302.549c26.443 0 47.88-21.437 47.88-47.88v-220.359c0-26.443-21.437-47.88-47.88-47.88h-184.05c-8.078 0-14.626-6.548-14.626-14.626z" fill="url(#SVGID_1_)"/><path d="m151.753 179.255c0-18.561-15.047-33.609-33.609-33.609h-84.535c-18.562.001-33.609 15.048-33.609 33.609v282.865c0 26.443 21.437 47.88 47.88 47.88h302.549c26.443 0 47.88-21.437 47.88-47.88v-220.359c0-26.443-21.437-47.88-47.88-47.88h-184.05c-8.078 0-14.626-6.548-14.626-14.626z" fill="url(#SVGID_2_)"/><path d="m0 409.174v52.946c0 26.443 21.437 47.88 47.88 47.88h302.549c26.443 0 47.88-21.437 47.88-47.88v-52.946z" fill="url(#SVGID_3_)"/></g><g><path d="m350.689 0h-232.577c-14.418 0-26.106 11.688-26.106 26.106v411.484c0 9.393 7.615 17.008 17.008 17.008h295.073c9.393 0 17.008-7.615 17.008-17.008v-367.184c0-38.884-31.521-70.406-70.406-70.406z" fill="url(#SVGID_4_)"/><path d="m366.883 121.648h-220.665c-8.266 0-14.967 6.701-14.967 14.967v23.757c0 8.266 6.701 14.967 14.967 14.967h220.665c8.266 0 14.967-6.701 14.967-14.967v-23.757c0-8.267-6.701-14.967-14.967-14.967z" fill="#fff"/><path d="m92.006 121.299v-95.193c0-14.418 11.688-26.106 26.106-26.106h232.578c38.884 0 70.406 31.522 70.406 70.406v50.893z" fill="url(#SVGID_5_)"/><path d="m421.095 94.667h-272.095l123.667 123.666h148.428z" fill="url(#SVGID_6_)"/><path d="m144.217 82.924v-56.818c0-14.418-11.688-26.106-26.105-26.106h284.789c38.884 0 70.406 31.522 70.406 70.406v12.518c0 9.393-7.615 17.008-17.008 17.008h-295.074c-9.393 0-17.008-7.615-17.008-17.008z" fill="url(#SVGID_7_)"/><path d="m144.217 82.924v-56.818c0-14.418-11.688-26.106-26.105-26.106h284.789c38.884 0 70.406 31.522 70.406 70.406v12.518c0 9.393-7.615 17.008-17.008 17.008h-295.074c-9.393 0-17.008-7.615-17.008-17.008z" fill="url(#SVGID_8_)"/></g><g><path d="m508.062 230.408-92.693 236.299c-10.283 26.122-35.504 43.293-63.579 43.293h-303.911c-26.273 0-47.599-21.156-47.869-47.358.26 9.732 13.887 12.075 17.491 2.924l95.337-242.998c7.049-17.912 24.35-29.686 43.593-29.686h326.079c19.374 0 32.65 19.504 25.552 37.526z" fill="url(#SVGID_9_)"/><path d="m415.368 466.707 22.664-57.533h-398.315l-22.216 56.391c-3.604 9.151-17.231 6.808-17.491-2.924.27 26.203 21.596 47.359 47.869 47.359h303.911c28.075 0 53.296-17.171 63.578-43.293z" fill="url(#SVGID_10_)"/></g></g></svg>