<svg id="Capa_1" enable-background="new 0 0 510 510" height="512" viewBox="0 0 510 510" width="512" xmlns="http://www.w3.org/2000/svg" xmlns:xlink="http://www.w3.org/1999/xlink"><linearGradient id="lg1"><stop offset="0" stop-color="#f7e07d"/><stop offset="1" stop-color="#e69642"/></linearGradient><linearGradient id="SVGID_1_" gradientUnits="userSpaceOnUse" x1="112.979" x2="407.023" xlink:href="#lg1" y1="112.979" y2="407.023"/><linearGradient id="SVGID_2_" gradientTransform="matrix(0 -1 1 0 0 510)" gradientUnits="userSpaceOnUse" x1="131.866" x2="386.806" xlink:href="#lg1" y1="131.866" y2="386.806"/><linearGradient id="SVGID_3_" gradientUnits="userSpaceOnUse" x1="150.512" x2="366.847" xlink:href="#lg1" y1="150.512" y2="366.847"/><linearGradient id="lg2"><stop offset="0" stop-color="#d52c1c" stop-opacity="0"/><stop offset=".28" stop-color="#d12c1e" stop-opacity=".28"/><stop offset=".5735" stop-color="#c42c23" stop-opacity=".574"/><stop offset=".8721" stop-color="#af2b2c" stop-opacity=".872"/><stop offset="1" stop-color="#a42b31"/></linearGradient><linearGradient id="SVGID_4_" gradientUnits="userSpaceOnUse" x1="329.363" x2="191.363" xlink:href="#lg2" y1="370.88" y2="252.88"/><linearGradient id="SVGID_5_" gradientUnits="userSpaceOnUse" x1="255" x2="255" xlink:href="#lg2" y1="349.975" y2="475.978"/><linearGradient id="SVGID_6_" gradientUnits="userSpaceOnUse" x1="415.916" x2="168.429" xlink:href="#lg2" y1="373.113" y2="227.62"/><linearGradient id="SVGID_7_" gradientUnits="userSpaceOnUse" x1="320.44" x2="320.44" xlink:href="#lg2" y1="388" y2="248.709"/><linearGradient id="SVGID_8_" gradientUnits="userSpaceOnUse" x1="69.61" x2="223.89" y1="228.39" y2="382.671"><stop offset="0" stop-color="#cce8b0"/><stop offset="1" stop-color="#7dc03a"/></linearGradient><linearGradient id="lg3"><stop offset="0" stop-color="#8cc951" stop-opacity="0"/><stop offset="1" stop-color="#3e6e66"/></linearGradient><linearGradient id="SVGID_9_" gradientTransform="matrix(.707 -.707 .707 .707 -108.592 351.653)" gradientUnits="userSpaceOnUse" x1="155.487" x2="173.5" xlink:href="#lg3" y1="181.119" y2="199.132"/><linearGradient id="SVGID_10_" gradientTransform="matrix(.707 -.707 .707 .707 -108.592 351.653)" gradientUnits="userSpaceOnUse" x1="251.339" x2="269.352" xlink:href="#lg3" y1="85.268" y2="103.281"/><linearGradient id="SVGID_11_" gradientUnits="userSpaceOnUse" x1="304.981" x2="424.981" y1="103.361" y2="284.361"><stop offset="0" stop-color="#dc4955"/><stop offset="1" stop-color="#c4237c"/></linearGradient><linearGradient id="lg4"><stop offset="0" stop-color="#8a1958" stop-opacity="0"/><stop offset="1" stop-color="#8a1958"/></linearGradient><linearGradient id="SVGID_12_" gradientUnits="userSpaceOnUse" x1="337.455" x2="264.955" xlink:href="#lg4" y1="259.625" y2="181.125"/><linearGradient id="SVGID_13_" gradientTransform="matrix(-.707 -.707 -.707 .707 373.696 351.653)" gradientUnits="userSpaceOnUse" x1="48.788" x2="66.801" xlink:href="#lg4" y1="-58.516" y2="-40.503"/><linearGradient id="SVGID_14_" gradientTransform="matrix(-.707 -.707 -.707 .707 373.696 351.653)" gradientUnits="userSpaceOnUse" x1="144.639" x2="162.652" xlink:href="#lg4" y1="-154.367" y2="-136.355"/><linearGradient id="SVGID_15_" gradientUnits="userSpaceOnUse" x1="140.475" x2="273.443" xlink:href="#lg1" y1="142.525" y2="275.493"/><linearGradient id="SVGID_16_" gradientUnits="userSpaceOnUse" x1="255" x2="255" xlink:href="#lg2" y1="291.671" y2="371.727"/><g><circle cx="255" cy="255" fill="url(#SVGID_1_)" r="198.02"/><circle cx="255" cy="255" fill="url(#SVGID_2_)" r="171.685"/><circle cx="255" cy="255" fill="url(#SVGID_3_)" r="145.688"/><path d="m57.416 268c6.697 103.302 92.59 185.02 197.584 185.02s190.887-81.718 197.584-185.02z" fill="url(#SVGID_4_)"/><path d="m57.416 268c6.697 103.302 92.59 185.02 197.584 185.02s190.887-81.718 197.584-185.02z" fill="url(#SVGID_5_)"/><path d="m446.238 306.514-129.886-129.886c-6.393-9.605-23.518-13.538-37.425-14.96-1-1.3-10.409-10.313-10.971-11.005-1.9-2.338-5.524-4.053-9.156-4.053-6.096 0-10.53 3.603-10.53 7.482v7.759c-29.373 4.156-55.421 21.059-55.421 56.252 0 15.407 5.652 26.366 14.13 34.632 1.466 1.429 3.187 2.57 5.038 3.445 8.728 4.125 35.975 17.017 36.253 17.321v46.575c-20.506-3.603-29.927-19.951-41.566-19.951-10.53 0-18.842 13.855-18.842 23.276 0 6.891 4.114 13.694 11.079 19.508l104.206 104.206c69.552-17.377 124.529-71.526 143.091-140.601z" fill="url(#SVGID_6_)"/><path d="m453.02 255c0-1.435-.024-2.864-.054-4.292l-59.486 39.262c-12.91 8.52-30.11-.74-30.11-16.2v-35.43h-166.52c2.46 5.6 5.95 10.32 10.13 14.39 1.46 1.43 3.18 2.57 5.04 3.45 8.72 4.12 35.97 17.02 36.25 17.32v46.58c-20.51-3.61-29.93-19.96-41.57-19.96-10.53 0-18.84 13.86-18.84 23.28 0 6.89 4.11 13.69 11.08 19.51l104.21 104.202c86.092-21.509 149.87-99.357 149.87-192.112z" fill="url(#SVGID_7_)"/><g><g><g><path d="m246.412 261.658h-92.782v-35.425c0-15.467-17.203-24.725-30.112-16.205l-114.797 75.767c-11.628 7.674-11.628 24.735 0 32.41l114.799 75.767c12.909 8.52 30.111-.738 30.111-16.205v-35.425h92.782c10.323 0 18.692-8.369 18.692-18.692v-43.3c-.001-10.323-8.369-18.692-18.693-18.692z" fill="url(#SVGID_8_)"/><path d="m79.467 342.34h74.168v35.426c-.007 15.464-17.204 24.727-30.116 16.2l-49.704-32.802c-2.878-1.899-4.609-5.116-4.609-8.564 0-5.666 4.594-10.26 10.261-10.26z" fill="url(#SVGID_9_)"/><path d="m153.635 226.234v35.426h-74.168c-5.667 0-10.261-4.594-10.261-10.261 0-3.448 1.731-6.665 4.609-8.564l49.704-32.802c12.912-8.527 30.109.736 30.116 16.201z" fill="url(#SVGID_10_)"/></g></g><g><g><path d="m271.588 167.658h84.782v-35.425c0-15.467 17.203-24.725 30.112-16.205l114.798 75.767c11.628 7.675 11.628 24.735 0 32.41l-114.799 75.767c-12.909 8.52-30.111-.738-30.111-16.205v-35.425h-84.782c-10.323 0-18.692-8.369-18.692-18.692v-43.3c0-10.323 8.368-18.692 18.692-18.692z" fill="url(#SVGID_11_)"/><path d="m314.333 174.333-8.792-6.675h-33.954c-10.323 0-18.692 8.368-18.692 18.692v43.3c0 10.323 8.369 18.692 18.692 18.692h84.781v35.425c0 15.467 17.203 24.725 30.112 16.205l32.224-21.268z" fill="url(#SVGID_12_)"/><path d="m430.533 248.34h-74.168v35.426c.007 15.464 17.204 24.727 30.116 16.2l49.704-32.802c2.878-1.899 4.609-5.116 4.609-8.564 0-5.666-4.594-10.26-10.261-10.26z" fill="url(#SVGID_13_)"/><path d="m356.365 132.234v35.426h74.168c5.667 0 10.261-4.594 10.261-10.261 0-3.448-1.731-6.665-4.609-8.564l-49.704-32.802c-12.912-8.527-30.109.736-30.116 16.201z" fill="url(#SVGID_14_)"/></g></g></g><g><path d="m268.439 237.212v-40.457c18.012 1.386 23.277 10.253 32.42 10.253 12.193 0 17.181-15.241 17.181-22.723 0-19.12-32.422-23.554-49.601-24.108v-6.928c0-3.879-5.265-7.482-10.53-7.482-6.096 0-10.53 3.602-10.53 7.482v7.759c-29.373 4.156-55.421 21.059-55.421 56.252 0 35.469 29.927 47.384 55.421 57.083v44.891c-20.506-3.602-29.927-19.951-41.566-19.951-10.53 0-18.842 13.855-18.842 23.276 0 17.735 27.157 34.915 60.408 36.023v6.927c0 3.88 4.434 7.482 10.53 7.482 5.265 0 10.53-3.602 10.53-7.482v-8.036c32.42-5.265 54.59-26.047 54.59-60.408 0-37.408-29.374-50.432-54.59-59.853zm-18.289-6.651c-10.53-4.434-17.735-9.422-17.735-17.458 0-6.65 5.266-13.023 17.735-15.518zm15.519 88.396v-37.132c9.975 4.711 16.902 10.53 16.902 19.674 0 9.976-7.482 15.241-16.902 17.458z" fill="url(#SVGID_15_)"/><path d="m247.38 274.343v44.891c-20.506-3.602-29.927-19.951-41.567-19.951-10.53 0-18.842 13.855-18.842 23.276 0 17.734 27.157 34.915 60.409 36.023v6.927c0 3.88 4.434 7.482 10.53 7.482 5.265 0 10.53-3.602 10.53-7.482v-8.036c32.421-5.265 54.59-26.047 54.59-60.408 0-15.693-5.18-27.084-13.044-35.729h-91.401c9.008 5.404 19.214 9.363 28.795 13.007zm18.289 7.482c9.975 4.711 16.902 10.53 16.902 19.674 0 9.975-7.482 15.24-16.902 17.457z" fill="url(#SVGID_16_)"/></g></g></svg>