<svg id="Capa_1" enable-background="new 0 0 510 510" height="512" viewBox="0 0 510 510" width="512" xmlns="http://www.w3.org/2000/svg" xmlns:xlink="http://www.w3.org/1999/xlink"><linearGradient id="lg1"><stop offset="0" stop-color="#eef4ff"/><stop offset="1" stop-color="#cfe7fd"/></linearGradient><linearGradient id="SVGID_1_" gradientUnits="userSpaceOnUse" x1="52.725" x2="470.593" xlink:href="#lg1" y1="46.769" y2="340.406"/><linearGradient id="SVGID_2_" gradientUnits="userSpaceOnUse" x1="255" x2="255" xlink:href="#lg1" y1="256.274" y2="122.108"/><linearGradient id="lg2"><stop offset="0" stop-color="#4071f7" stop-opacity="0"/><stop offset=".255" stop-color="#3d6be5" stop-opacity=".255"/><stop offset=".7636" stop-color="#345db7" stop-opacity=".764"/><stop offset="1" stop-color="#30569f"/></linearGradient><linearGradient id="SVGID_3_" gradientUnits="userSpaceOnUse" x1="255" x2="255" xlink:href="#lg2" y1="237.908" y2="344.908"/><linearGradient id="lg3"><stop offset="0" stop-color="#5a5a5a"/><stop offset="1" stop-color="#464646"/></linearGradient><linearGradient id="SVGID_4_" gradientUnits="userSpaceOnUse" x1="128.665" x2="128.665" xlink:href="#lg3" y1="183.908" y2="219.908"/><linearGradient id="SVGID_5_" gradientUnits="userSpaceOnUse" x1="255" x2="255" xlink:href="#lg3" y1="183.908" y2="219.908"/><linearGradient id="SVGID_6_" gradientUnits="userSpaceOnUse" x1="381.335" x2="381.335" xlink:href="#lg3" y1="183.908" y2="219.908"/><linearGradient id="SVGID_7_" gradientUnits="userSpaceOnUse" x1="422.535" x2="378.836" xlink:href="#lg2" y1="326.227" y2="282.528"/><linearGradient id="SVGID_8_" gradientUnits="userSpaceOnUse" x1="323.102" x2="428.093" y1="259.824" y2="364.814"><stop offset="0" stop-color="#76ccf8"/><stop offset=".833" stop-color="#518ef8"/><stop offset="1" stop-color="#4981f8"/></linearGradient><linearGradient id="lg4"><stop offset="0" stop-color="#4071f7" stop-opacity="0"/><stop offset="1" stop-color="#30569f"/></linearGradient><linearGradient id="SVGID_9_" gradientUnits="userSpaceOnUse" x1="433.77" x2="457.553" xlink:href="#lg4" y1="370.491" y2="394.274"/><linearGradient id="SVGID_10_" gradientUnits="userSpaceOnUse" x1="312.507" x2="330.52" xlink:href="#lg4" y1="345.08" y2="363.093"/><linearGradient id="SVGID_11_" gradientUnits="userSpaceOnUse" x1="408.358" x2="426.371" xlink:href="#lg4" y1="249.229" y2="267.242"/><g><g><path d="m483.967 281.694h-457.934c-14.378 0-26.033-11.656-26.033-26.033v-133.506c0-14.377 11.655-26.033 26.033-26.033h457.935c14.377 0 26.033 11.655 26.033 26.033v133.506c-.001 14.377-11.656 26.033-26.034 26.033z" fill="url(#SVGID_1_)"/><path d="m470.17 261.283h-430.34c-10.622 0-19.233-8.611-19.233-19.233v-106.283c0-10.622 8.611-19.233 19.233-19.233h430.34c10.622 0 19.233 8.611 19.233 19.233v106.282c.001 10.623-8.61 19.234-19.233 19.234z" fill="url(#SVGID_2_)"/><path d="m0 196.274v59.387c0 14.377 11.655 26.033 26.033 26.033h457.935c14.377 0 26.033-11.655 26.033-26.033v-59.387z" fill="url(#SVGID_3_)"/></g><g><path d="m161.099 226.45c-1.362 3.405-5.789 4.597-10.216 4.597-5.107 0-9.875-1.703-10.897-4.597l-11.237-29.624-11.237 29.624c-1.021 2.895-5.959 4.597-11.068 4.597-4.256 0-8.682-1.192-10.045-4.597l-26.22-65.549c-.68-1.703-.851-2.554-.851-3.576 0-6.129 10.556-10.556 17.366-10.556 3.405 0 6.299 1.193 7.321 4.087l15.154 43.246 10.897-36.606c1.362-4.597 4.767-5.107 8.683-5.107 3.746 0 7.321.511 8.683 5.107l10.897 36.606 15.153-43.246c.851-2.554 3.576-4.087 7.151-4.087 6.47 0 17.366 4.427 17.366 10.897 0 1.022-.17 2.214-.68 3.236z" fill="url(#SVGID_4_)"/><path d="m287.434 226.45c-1.362 3.405-5.789 4.597-10.215 4.597-5.108 0-9.874-1.703-10.897-4.597l-11.237-29.624-11.238 29.624c-1.021 2.895-5.959 4.597-11.066 4.597-4.257 0-8.684-1.192-10.046-4.597l-26.219-65.549c-.682-1.703-.852-2.554-.852-3.576 0-6.129 10.556-10.556 17.366-10.556 3.405 0 6.3 1.193 7.321 4.087l15.152 43.246 10.897-36.606c1.362-4.597 4.768-5.107 8.684-5.107 3.746 0 7.321.511 8.683 5.107l10.897 36.606 15.153-43.246c.852-2.554 3.575-4.087 7.151-4.087 6.47 0 17.366 4.427 17.366 10.897 0 1.022-.171 2.214-.681 3.236z" fill="url(#SVGID_5_)"/><path d="m413.769 226.45c-1.362 3.405-5.788 4.597-10.215 4.597-5.108 0-9.875-1.703-10.897-4.597l-11.238-29.624-11.237 29.624c-1.021 2.895-5.959 4.597-11.067 4.597-4.256 0-8.683-1.192-10.045-4.597l-26.22-65.549c-.681-1.703-.852-2.554-.852-3.576 0-6.129 10.556-10.556 17.366-10.556 3.405 0 6.3 1.193 7.321 4.087l15.154 43.246 10.897-36.606c1.361-4.597 4.766-5.107 8.682-5.107 3.746 0 7.321.511 8.684 5.107l10.898 36.605 15.152-43.246c.852-2.554 3.576-4.087 7.152-4.087 6.47 0 17.366 4.427 17.366 10.897 0 1.022-.171 2.214-.681 3.236z" fill="url(#SVGID_6_)"/></g><g><path d="m434.725 237.452c-2.649-4.156-6.902-7.374-12.435-8.507l-134.75-27.599c-13.649-2.795-25.713 9.268-22.917 22.917l11.763 57.432h202.581z" fill="url(#SVGID_7_)"/><g><path d="m471.681 351.351-65.606-65.606 25.05-25.049c10.937-10.937 5.319-29.647-9.833-32.751l-134.75-27.599c-13.649-2.796-25.713 9.268-22.917 22.917l27.599 134.75c3.104 15.152 21.814 20.77 32.75 9.833l25.05-25.049 65.606 65.606c7.3 7.3 19.135 7.3 26.434 0l30.618-30.618c7.299-7.3 7.299-19.135-.001-26.434z" fill="url(#SVGID_8_)"/><path d="m471.681 351.351-65.606-65.606-57.052 57.052 65.606 65.606c7.3 7.3 19.135 7.3 26.434 0l30.618-30.618c7.3-7.3 7.3-19.135 0-26.434z" fill="url(#SVGID_9_)"/><path d="m296.582 290.353 52.445 52.445-25.05 25.05c-10.94 10.93-29.65 5.32-32.75-9.84l-11.952-58.34c-.692-3.378.359-6.877 2.797-9.315 4.006-4.007 10.503-4.007 14.51 0z" fill="url(#SVGID_10_)"/><path d="m431.126 260.698-25.05 25.05-52.445-52.445c-4.007-4.007-4.007-10.504 0-14.511 2.438-2.438 5.937-3.488 9.314-2.796l58.34 11.952c15.161 3.1 20.771 21.81 9.841 32.75z" fill="url(#SVGID_11_)"/></g></g></g></svg>