<svg id="Capa_1" enable-background="new 0 0 510 510" height="512" viewBox="0 0 510 510" width="512" xmlns="http://www.w3.org/2000/svg" xmlns:xlink="http://www.w3.org/1999/xlink"><linearGradient id="SVGID_1_" gradientUnits="userSpaceOnUse" x1="37.687" x2="377.642" y1="37.687" y2="377.642"><stop offset="0" stop-color="#eef4ff"/><stop offset="1" stop-color="#cfe7fd"/></linearGradient><linearGradient id="lg1"><stop offset="0" stop-color="#8aaadc" stop-opacity="0"/><stop offset="1" stop-color="#8aaadc"/></linearGradient><linearGradient id="SVGID_2_" gradientUnits="userSpaceOnUse" x1="255" x2="255" xlink:href="#lg1" y1="213.192" y2="154.267"/><linearGradient id="SVGID_3_" gradientUnits="userSpaceOnUse" x1="255" x2="255" xlink:href="#lg1" y1="377" y2="538.003"/><linearGradient id="SVGID_4_" gradientUnits="userSpaceOnUse" x1="255" x2="255" y1="33.553" y2="147.623"><stop offset="0" stop-color="#9d66d6"/><stop offset="1" stop-color="#453d81"/></linearGradient><linearGradient id="SVGID_5_" gradientUnits="userSpaceOnUse" x1="158.726" x2="53.036" xlink:href="#lg1" y1="329.252" y2="223.563"/><linearGradient id="SVGID_6_" gradientUnits="userSpaceOnUse" x1="264.053" x2="170.825" xlink:href="#lg1" y1="315.48" y2="222.252"/><linearGradient id="SVGID_7_" gradientUnits="userSpaceOnUse" x1="399.693" x2="286.634" xlink:href="#lg1" y1="331.64" y2="218.581"/><linearGradient id="SVGID_8_" gradientUnits="userSpaceOnUse" x1="517.152" x2="422.146" xlink:href="#lg1" y1="328.848" y2="233.843"/><linearGradient id="SVGID_9_" gradientUnits="userSpaceOnUse" x1="175.322" x2="11.273" xlink:href="#lg1" y1="484.011" y2="319.963"/><linearGradient id="SVGID_10_" gradientUnits="userSpaceOnUse" x1="272.872" x2="147.861" xlink:href="#lg1" y1="462.461" y2="337.45"/><linearGradient id="SVGID_11_" gradientUnits="userSpaceOnUse" x1="405.755" x2="268.085" xlink:href="#lg1" y1="476.245" y2="338.574"/><linearGradient id="lg2"><stop offset="0" stop-color="#cce8b0"/><stop offset="1" stop-color="#7dc03a"/></linearGradient><linearGradient id="SVGID_12_" gradientUnits="userSpaceOnUse" x1="46.967" x2="105.069" xlink:href="#lg2" y1="214.748" y2="272.85"/><linearGradient id="lg3"><stop offset="0" stop-color="#8cc951" stop-opacity="0"/><stop offset="1" stop-color="#3e6e66"/></linearGradient><linearGradient id="SVGID_13_" gradientUnits="userSpaceOnUse" x1="76.353" x2="76.353" xlink:href="#lg3" y1="269.394" y2="286.238"/><linearGradient id="SVGID_14_" gradientUnits="userSpaceOnUse" x1="166.065" x2="224.167" xlink:href="#lg2" y1="214.748" y2="272.85"/><linearGradient id="SVGID_15_" gradientUnits="userSpaceOnUse" x1="195.451" x2="195.451" xlink:href="#lg3" y1="269.394" y2="286.238"/><linearGradient id="SVGID_16_" gradientUnits="userSpaceOnUse" x1="285.163" x2="343.265" xlink:href="#lg2" y1="214.748" y2="272.85"/><linearGradient id="SVGID_17_" gradientUnits="userSpaceOnUse" x1="314.549" x2="314.549" xlink:href="#lg3" y1="269.394" y2="286.238"/><linearGradient id="SVGID_18_" gradientUnits="userSpaceOnUse" x1="404.262" x2="462.364" xlink:href="#lg2" y1="214.748" y2="272.85"/><linearGradient id="SVGID_19_" gradientUnits="userSpaceOnUse" x1="433.648" x2="433.648" xlink:href="#lg3" y1="269.394" y2="286.238"/><linearGradient id="SVGID_20_" gradientUnits="userSpaceOnUse" x1="46.967" x2="105.069" xlink:href="#lg2" y1="355.741" y2="413.843"/><linearGradient id="SVGID_21_" gradientUnits="userSpaceOnUse" x1="76.353" x2="76.353" xlink:href="#lg3" y1="410.387" y2="427.23"/><linearGradient id="SVGID_22_" gradientUnits="userSpaceOnUse" x1="166.065" x2="224.167" xlink:href="#lg2" y1="355.741" y2="413.843"/><linearGradient id="SVGID_23_" gradientUnits="userSpaceOnUse" x1="195.451" x2="195.451" xlink:href="#lg3" y1="410.387" y2="427.23"/><linearGradient id="SVGID_24_" gradientUnits="userSpaceOnUse" x1="285.163" x2="343.265" xlink:href="#lg2" y1="355.741" y2="413.843"/><linearGradient id="SVGID_25_" gradientUnits="userSpaceOnUse" x1="314.549" x2="314.549" xlink:href="#lg3" y1="410.387" y2="427.23"/><g><g><path d="m403.41 0h-296.82c-58.868 0-106.59 47.722-106.59 106.59v296.82c0 58.868 47.722 106.59 106.59 106.59h296.82c58.868 0 106.59-47.722 106.59-106.59v-296.82c0-58.868-47.722-106.59-106.59-106.59zm-246.41 116.914c-23.538 0-42.619-19.081-42.619-42.618 0-23.538 19.081-42.619 42.619-42.619s42.619 19.081 42.619 42.619c0 23.537-19.081 42.618-42.619 42.618zm196 0c-23.538 0-42.619-19.081-42.619-42.618 0-23.538 19.081-42.619 42.619-42.619s42.619 19.081 42.619 42.619c0 23.537-19.081 42.618-42.619 42.618z" fill="url(#SVGID_1_)"/><path d="m0 120h510v126.18h-510z" fill="url(#SVGID_2_)"/><path d="m0 344.628v58.782c0 58.868 47.722 106.59 106.59 106.59h296.82c58.868 0 106.59-47.722 106.59-106.59v-58.782z" fill="url(#SVGID_3_)"/><path d="m403.41 0h-296.82c-58.868 0-106.59 47.722-106.59 106.59v42h510v-42c0-58.868-47.722-106.59-106.59-106.59zm-246.41 116.914c-23.538 0-42.619-19.081-42.619-42.618 0-23.538 19.081-42.619 42.619-42.619s42.619 19.081 42.619 42.619c0 23.537-19.081 42.618-42.619 42.618zm196 0c-23.538 0-42.619-19.081-42.619-42.618 0-23.538 19.081-42.619 42.619-42.619s42.619 19.081 42.619 42.619c0 23.537-19.081 42.618-42.619 42.618z" fill="url(#SVGID_4_)"/></g><g><path d="m156.45 255.4 250.13 254.55c-1.05.03-2.11.05-3.17.05h-136.8l-191.3-196.43-28.6-29.37c-5.65-4.07-9.36-10.79-9.36-18.41v-39.3c0-12.4 9.79-22.46 21.87-22.46h38.27c7.42 0 13.98 3.8 17.93 9.62z" fill="url(#SVGID_5_)"/><path d="m486.15 470.61c-2.98 3.66-6.19 7.12-9.62 10.35-18.37 17.33-42.9 28.2-69.95 28.99-1.05.03-2.11.05-3.17.05h-17.7l-191.3-196.43-28.6-29.37c-5.65-4.07-9.36-10.79-9.36-18.41v-39.3c0-12.4 9.79-22.46 21.87-22.46h38.27c7.42 0 13.98 3.8 17.93 9.62l41.03 41.9z" fill="url(#SVGID_6_)"/><path d="m510 374.23v29.18c0 25.47-8.94 48.87-23.85 67.2-2.98 3.66-6.19 7.12-9.62 10.35l-163.02-167.39-28.6-29.37c-5.65-4.07-9.36-10.79-9.36-18.41v-39.3c0-12.4 9.79-22.46 21.87-22.46h38.27c7.42 0 13.98 3.8 17.93 9.62l41.03 42.13z" fill="url(#SVGID_7_)"/><path d="m510 251.93v141.1l-77.39-79.46-28.6-29.37c-5.65-4.07-9.36-10.79-9.36-18.41v-39.3c0-12.4 9.79-22.46 21.87-22.46h38.27c7.42 0 13.98 3.8 17.93 9.62z" fill="url(#SVGID_8_)"/></g><g><path d="m267.7 510h-137.42l-54.97-56.44-28.6-29.37c-5.65-4.06-9.36-10.79-9.36-18.41v-39.3c0-12.4 9.79-22.45 21.87-22.45h38.27c7.42 0 13.98 3.8 17.93 9.61l41.03 42.13z" fill="url(#SVGID_9_)"/><path d="m386.8 510h-137.42l-54.97-56.44-28.6-29.37c-5.65-4.06-9.36-10.79-9.36-18.41v-39.3c0-12.4 9.79-22.45 21.87-22.45h38.27c7.42 0 13.98 3.8 17.93 9.61l41.03 42.13z" fill="url(#SVGID_10_)"/><path d="m477.09 480.42c-.19.19-.37.36-.56.54-3 2.83-6.17 5.49-9.48 7.96-16.97 12.65-37.84 20.37-60.47 21.03-1.05.03-2.11.05-3.17.05h-34.93l-54.97-56.44-28.6-29.37c-5.65-4.06-9.36-10.79-9.36-18.41v-39.3c0-12.4 9.79-22.45 21.87-22.45h38.27c7.42 0 13.98 3.8 17.93 9.61l41.03 42.13z" fill="url(#SVGID_11_)"/></g><g><g><g><path d="m95.198 286.234h-37.69c-12.236 0-22.155-9.919-22.155-22.155v-39.89c0-12.236 9.919-22.155 22.155-22.155h37.69c12.236 0 22.155 9.919 22.155 22.155v39.89c0 12.236-9.92 22.155-22.155 22.155z" fill="url(#SVGID_12_)"/><path d="m35.353 263.784c0 12.399 9.789 22.45 21.864 22.45h38.273c12.075 0 21.864-10.051 21.864-22.45 0-2.68-2.116-4.852-4.726-4.852h-72.55c-2.61 0-4.725 2.172-4.725 4.852z" fill="url(#SVGID_13_)"/></g></g><g><g><path d="m214.296 286.234h-37.69c-12.236 0-22.155-9.919-22.155-22.155v-39.89c0-12.236 9.919-22.155 22.155-22.155h37.69c12.236 0 22.155 9.919 22.155 22.155v39.89c0 12.236-9.919 22.155-22.155 22.155z" fill="url(#SVGID_14_)"/><path d="m154.451 263.784c0 12.399 9.789 22.45 21.864 22.45h38.273c12.075 0 21.864-10.051 21.864-22.45 0-2.68-2.116-4.852-4.726-4.852h-72.549c-2.61 0-4.726 2.172-4.726 4.852z" fill="url(#SVGID_15_)"/></g></g><g><g><path d="m333.394 286.234h-37.69c-12.236 0-22.155-9.919-22.155-22.155v-39.89c0-12.236 9.919-22.155 22.155-22.155h37.69c12.236 0 22.155 9.919 22.155 22.155v39.89c0 12.236-9.919 22.155-22.155 22.155z" fill="url(#SVGID_16_)"/><path d="m273.549 263.784c0 12.399 9.789 22.45 21.864 22.45h38.273c12.075 0 21.864-10.051 21.864-22.45 0-2.68-2.116-4.852-4.726-4.852h-72.549c-2.61 0-4.726 2.172-4.726 4.852z" fill="url(#SVGID_17_)"/></g></g><g><g><path d="m452.493 286.234h-37.69c-12.236 0-22.155-9.919-22.155-22.155v-39.89c0-12.236 9.919-22.155 22.155-22.155h37.69c12.236 0 22.155 9.919 22.155 22.155v39.89c-.001 12.236-9.92 22.155-22.155 22.155z" fill="url(#SVGID_18_)"/><path d="m392.647 263.784c0 12.399 9.789 22.45 21.864 22.45h38.273c12.075 0 21.864-10.051 21.864-22.45 0-2.68-2.116-4.852-4.726-4.852h-72.549c-2.61 0-4.726 2.172-4.726 4.852z" fill="url(#SVGID_19_)"/></g></g></g><g><g><g><path d="m95.198 427.227h-37.69c-12.236 0-22.155-9.919-22.155-22.155v-39.89c0-12.236 9.919-22.155 22.155-22.155h37.69c12.236 0 22.155 9.919 22.155 22.155v39.89c0 12.236-9.92 22.155-22.155 22.155z" fill="url(#SVGID_20_)"/><path d="m35.353 404.777c0 12.399 9.789 22.45 21.864 22.45h38.273c12.075 0 21.864-10.051 21.864-22.45 0-2.68-2.116-4.852-4.726-4.852h-72.55c-2.61 0-4.725 2.172-4.725 4.852z" fill="url(#SVGID_21_)"/></g></g><g><g><path d="m214.296 427.227h-37.69c-12.236 0-22.155-9.919-22.155-22.155v-39.89c0-12.236 9.919-22.155 22.155-22.155h37.69c12.236 0 22.155 9.919 22.155 22.155v39.89c0 12.236-9.919 22.155-22.155 22.155z" fill="url(#SVGID_22_)"/><path d="m154.451 404.777c0 12.399 9.789 22.45 21.864 22.45h38.273c12.075 0 21.864-10.051 21.864-22.45 0-2.68-2.116-4.852-4.726-4.852h-72.549c-2.61 0-4.726 2.172-4.726 4.852z" fill="url(#SVGID_23_)"/></g></g><g><g><path d="m333.394 427.227h-37.69c-12.236 0-22.155-9.919-22.155-22.155v-39.89c0-12.236 9.919-22.155 22.155-22.155h37.69c12.236 0 22.155 9.919 22.155 22.155v39.89c0 12.236-9.919 22.155-22.155 22.155z" fill="url(#SVGID_24_)"/><path d="m273.549 404.777c0 12.399 9.789 22.45 21.864 22.45h38.273c12.075 0 21.864-10.051 21.864-22.45 0-2.68-2.116-4.852-4.726-4.852h-72.549c-2.61 0-4.726 2.172-4.726 4.852z" fill="url(#SVGID_25_)"/></g></g></g></g></svg>