<svg id="Capa_1" enable-background="new 0 0 510 510" height="512" viewBox="0 0 510 510" width="512" xmlns="http://www.w3.org/2000/svg" xmlns:xlink="http://www.w3.org/1999/xlink"><linearGradient id="lg1"><stop offset="0" stop-color="#eef4ff"/><stop offset="1" stop-color="#cfe7fd"/></linearGradient><linearGradient id="SVGID_1_" gradientUnits="userSpaceOnUse" x1="-29.168" x2="416.038" xlink:href="#lg1" y1="29.648" y2="474.854"/><linearGradient id="lg2"><stop offset="0" stop-color="#8aaadc" stop-opacity="0"/><stop offset="1" stop-color="#8aaadc"/></linearGradient><linearGradient id="SVGID_2_" gradientUnits="userSpaceOnUse" x1="307.75" x2="115.083" xlink:href="#lg2" y1="247.873" y2="211.873"/><linearGradient id="SVGID_3_" gradientUnits="userSpaceOnUse" x1="289.417" x2="208.084" xlink:href="#lg2" y1="215.867" y2="213.2"/><linearGradient id="SVGID_4_" gradientUnits="userSpaceOnUse" x1="88.5" x2="44.489" xlink:href="#lg1" y1="255" y2="255"/><linearGradient id="SVGID_5_" gradientUnits="userSpaceOnUse" x1="196.185" x2="196.185" xlink:href="#lg2" y1="412" y2="504.087"/><linearGradient id="lg3"><stop offset="0" stop-color="#5a5a5a"/><stop offset="1" stop-color="#464646"/></linearGradient><linearGradient id="SVGID_6_" gradientUnits="userSpaceOnUse" x1="196.958" x2="359.5" xlink:href="#lg3" y1="328.041" y2="328.041"/><linearGradient id="SVGID_7_" gradientUnits="userSpaceOnUse" x1="196.958" x2="359.5" xlink:href="#lg3" y1="373.974" y2="373.974"/><linearGradient id="SVGID_8_" gradientUnits="userSpaceOnUse" x1="196.958" x2="302.703" xlink:href="#lg3" y1="419.907" y2="419.907"/><linearGradient id="SVGID_9_" gradientUnits="userSpaceOnUse" x1="120.698" x2="159.711" y1="305.907" y2="344.92"><stop offset="0" stop-color="#dc4955"/><stop offset="1" stop-color="#c4237c"/></linearGradient><linearGradient id="SVGID_10_" gradientUnits="userSpaceOnUse" x1="120.698" x2="159.711" y1="397.773" y2="436.786"><stop offset="0" stop-color="#76ccf8"/><stop offset=".833" stop-color="#518ef8"/><stop offset="1" stop-color="#4981f8"/></linearGradient><linearGradient id="SVGID_11_" gradientUnits="userSpaceOnUse" x1="327.993" x2="327.993" xlink:href="#lg2" y1="334.667" y2="235.425"/><linearGradient id="lg4"><stop offset="0" stop-color="#f7e07d"/><stop offset="1" stop-color="#e69642"/></linearGradient><linearGradient id="SVGID_12_" gradientUnits="userSpaceOnUse" x1="357.542" x2="408.207" xlink:href="#lg4" y1="228.44" y2="279.105"/><linearGradient id="lg5"><stop offset="0" stop-color="#d52c1c" stop-opacity="0"/><stop offset=".28" stop-color="#d12c1e" stop-opacity=".28"/><stop offset=".5735" stop-color="#c42c23" stop-opacity=".574"/><stop offset=".8721" stop-color="#af2b2c" stop-opacity=".872"/><stop offset="1" stop-color="#a42b31"/></linearGradient><linearGradient id="SVGID_13_" gradientUnits="userSpaceOnUse" x1="383.798" x2="383.798" xlink:href="#lg5" y1="288.277" y2="245.51"/><linearGradient id="SVGID_14_" gradientUnits="userSpaceOnUse" x1="296.406" x2="470.376" xlink:href="#lg4" y1="77.674" y2="251.644"/><linearGradient id="SVGID_15_" gradientUnits="userSpaceOnUse" x1="383.798" x2="383.798" xlink:href="#lg5" y1="182.937" y2="261.154"/><linearGradient id="lg6"><stop offset="0" stop-color="#cce8b0"/><stop offset="1" stop-color="#7dc03a"/></linearGradient><linearGradient id="SVGID_16_" gradientUnits="userSpaceOnUse" x1="53.98" x2="254.98" xlink:href="#lg6" y1="63.97" y2="179.97"/><linearGradient id="SVGID_17_" gradientUnits="userSpaceOnUse" x1="67.129" x2="268.129" xlink:href="#lg6" y1="41.186" y2="157.186"/><g><g><path d="m8.5 475.631v-441.262c0-18.981 15.388-34.369 34.369-34.369h306.631c18.982 0 34.369 15.388 34.369 34.369v441.262c0 18.982-15.388 34.369-34.369 34.369h-306.631c-18.981 0-34.369-15.388-34.369-34.369z" fill="url(#SVGID_1_)"/><path d="m243.47 78.21-50.33-50.65c-9.55-9.34-24.86-9.17-34.21.38-27.71 28.33-42.98 65.77-42.98 105.42s15.27 77.1 42.98 105.43l224.94 226.36v-245.64z" fill="url(#SVGID_2_)"/><path d="m243.47 78.21 140.4 141.3v140.05l-172.58-173.68c-13.49-14.24-20.92-32.89-20.92-52.52 0-19.62 7.43-38.27 20.92-52.51 8.58-9.05 22.49-10.01 32.18-2.64z" fill="url(#SVGID_3_)"/><path d="m48.52 0h40.02v510h-40.02z" fill="url(#SVGID_4_)"/><path d="m8.5 321.812v153.818c0 18.982 15.388 34.37 34.369 34.37h306.631c18.982 0 34.369-15.388 34.369-34.369v-153.819z" fill="url(#SVGID_5_)"/></g><g><g><path d="m353.125 338.763h-149.792c-3.521 0-6.375-2.854-6.375-6.375v-8.693c0-3.521 2.854-6.375 6.375-6.375h149.792c3.521 0 6.375 2.854 6.375 6.375v8.693c0 3.521-2.854 6.375-6.375 6.375z" fill="url(#SVGID_6_)"/><path d="m353.125 384.696h-149.792c-3.521 0-6.375-2.854-6.375-6.375v-8.693c0-3.521 2.854-6.375 6.375-6.375h149.792c3.521 0 6.375 2.854 6.375 6.375v8.693c0 3.52-2.854 6.375-6.375 6.375z" fill="url(#SVGID_7_)"/><path d="m296.328 430.628h-92.995c-3.521 0-6.375-2.854-6.375-6.375v-8.693c0-3.521 2.854-6.375 6.375-6.375h92.995c3.521 0 6.375 2.854 6.375 6.375v8.693c0 3.521-2.854 6.375-6.375 6.375z" fill="url(#SVGID_8_)"/></g><circle cx="142.832" cy="328.041" fill="url(#SVGID_9_)" r="28.882"/><circle cx="142.832" cy="419.907" fill="url(#SVGID_10_)" r="28.882"/></g><path d="m383.869 340.702v-114.702h-109.659c-1.861 0-2.793 2.25-1.477 3.566z" fill="url(#SVGID_11_)"/><g><circle cx="383.798" cy="254.696" fill="url(#SVGID_12_)" r="43.177"/><circle cx="383.798" cy="254.696" fill="url(#SVGID_13_)" r="43.177"/><g><path d="m473.686 137.265c1.289-6.365 1.918-12.97 1.814-19.739-.76-49.343-41.052-89.571-90.396-90.258-51.251-.714-93.02 40.617-93.02 91.704 0 5.998.576 11.862 1.676 17.538 4.889 25.237-2.785 51.547-21.576 69.088-3.948 3.685-6.088 7.631-6.088 11.733 0 20.361 52.697 36.867 117.702 36.867s117.702-16.505 117.702-36.867c0-4.101-2.138-8.045-6.084-11.73-18.59-17.357-26.777-43.408-21.73-68.336z" fill="url(#SVGID_14_)"/><path d="m272.184 205.598c-3.948 3.685-6.088 7.631-6.088 11.733 0 20.361 52.697 36.867 117.702 36.867s117.702-16.505 117.702-36.867c0-4.101-2.138-8.045-6.084-11.73-12.293-11.478-20.032-26.758-22.408-43h-178.614c-2.361 16.251-9.9 31.506-22.21 42.997z" fill="url(#SVGID_15_)"/></g></g><g><path d="m162.321 133.362c0-26.932 10.366-52.358 29.188-71.596 9.341-9.548 9.174-24.859-.374-34.202-9.548-9.341-24.86-9.174-34.202.374-27.718 28.33-42.983 65.771-42.983 105.424s15.265 77.093 42.983 105.424c9.342 9.548 24.654 9.715 34.202.374 4.843-4.738 7.272-11.01 7.272-17.289 0-6.101-2.295-12.207-6.898-16.912-18.822-19.239-29.188-44.666-29.188-71.597z" fill="url(#SVGID_16_)"/><path d="m236.746 133.362c0-7.197 2.721-14.033 7.662-19.25 4.431-4.676 6.627-10.658 6.627-16.628 0-6.409-2.533-12.806-7.553-17.562-9.697-9.186-25.005-8.772-34.191.926-13.488 14.238-20.917 32.889-20.917 52.514s7.429 38.276 20.917 52.514c9.186 9.697 24.494 10.112 34.191.926 9.698-9.185 10.113-24.493.926-34.191-4.941-5.216-7.662-12.052-7.662-19.249z" fill="url(#SVGID_17_)"/></g></g></svg>