<svg id="Capa_1" enable-background="new 0 0 510 510" height="512" viewBox="0 0 510 510" width="512" xmlns="http://www.w3.org/2000/svg" xmlns:xlink="http://www.w3.org/1999/xlink"><linearGradient id="lg1"><stop offset="0" stop-color="#dc4955"/><stop offset="1" stop-color="#c4237c"/></linearGradient><linearGradient id="SVGID_1_" gradientUnits="userSpaceOnUse" x1="314.599" x2="538.906" xlink:href="#lg1" y1="138.45" y2="362.757"/><linearGradient id="lg2"><stop offset="0" stop-color="#8a1958" stop-opacity="0"/><stop offset="1" stop-color="#8a1958"/></linearGradient><linearGradient id="SVGID_2_" gradientUnits="userSpaceOnUse" x1="461" x2="536.71" xlink:href="#lg2" y1="260.136" y2="260.136"/><linearGradient id="SVGID_3_" gradientUnits="userSpaceOnUse" x1="470.363" x2="352.363" xlink:href="#lg2" y1="308.417" y2="271.917"/><linearGradient id="SVGID_4_" gradientUnits="userSpaceOnUse" x1="29.098" x2="305.232" xlink:href="#lg1" y1="134.902" y2="411.036"/><linearGradient id="SVGID_5_" gradientUnits="userSpaceOnUse" x1="266.924" x2="113.59" xlink:href="#lg2" y1="249.399" y2="162.732"/><linearGradient id="SVGID_6_" gradientUnits="userSpaceOnUse" x1="296.13" x2="236.13" xlink:href="#lg2" y1="409.798" y2="291.798"/><linearGradient id="SVGID_7_" gradientUnits="userSpaceOnUse" x1="177.036" x2="177.036" xlink:href="#lg2" y1="355.802" y2="456.69"/><linearGradient id="SVGID_8_" gradientUnits="userSpaceOnUse" x1="167.401" x2="167.401" y1="88.114" y2="288.045"><stop offset="0" stop-color="#76ccf8"/><stop offset=".833" stop-color="#518ef8"/><stop offset="1" stop-color="#4981f8"/></linearGradient><linearGradient id="lg3"><stop offset="0" stop-color="#4071f7" stop-opacity="0"/><stop offset="1" stop-color="#30569f"/></linearGradient><linearGradient id="SVGID_9_" gradientUnits="userSpaceOnUse" x1="185.035" x2="168.31" xlink:href="#lg3" y1="269.953" y2="330.582"/><linearGradient id="SVGID_10_" gradientUnits="userSpaceOnUse" x1="227.205" x2="258.589" xlink:href="#lg3" y1="291.202" y2="258.298"/><linearGradient id="SVGID_11_" gradientUnits="userSpaceOnUse" x1="66.814" x2="100.288" xlink:href="#lg3" y1="122.476" y2="102.056"/><linearGradient id="lg4"><stop offset="0" stop-color="#eef4ff"/><stop offset="1" stop-color="#cfe7fd"/></linearGradient><linearGradient id="SVGID_12_" gradientUnits="userSpaceOnUse" x1="63.162" x2="143.899" xlink:href="#lg4" y1="42.983" y2="123.72"/><linearGradient id="lg5"><stop offset="0" stop-color="#8aaadc" stop-opacity="0"/><stop offset="1" stop-color="#8aaadc"/></linearGradient><linearGradient id="SVGID_13_" gradientUnits="userSpaceOnUse" x1="100.772" x2="72.088" xlink:href="#lg5" y1="88.134" y2="110.444"/><linearGradient id="SVGID_14_" gradientUnits="userSpaceOnUse" x1="231.907" x2="315.905" xlink:href="#lg4" y1="211.728" y2="295.726"/><linearGradient id="SVGID_15_" gradientUnits="userSpaceOnUse" x1="271.775" x2="250.215" xlink:href="#lg5" y1="255.342" y2="283.565"/><g><g><path d="m308.208 299.514 133.587 77.125c30.314 17.501 68.205-4.375 68.205-39.378v-154.251c0-35.003-37.891-56.879-68.205-39.378l-133.587 77.125c-30.313 17.502-30.313 61.256 0 78.757z" fill="url(#SVGID_1_)"/><path d="m308.208 299.514 133.587 77.125c30.314 17.501 68.205-4.375 68.205-39.378v-154.251c0-35.003-37.891-56.879-68.205-39.378l-133.587 77.125c-30.313 17.502-30.313 61.256 0 78.757z" fill="url(#SVGID_2_)"/><path d="m354.205 194.202-45.997 26.556c-30.314 17.501-30.314 61.255 0 78.757l133.587 77.125c26.882 15.52 59.72.07 66.81-28.037z" fill="url(#SVGID_3_)"/><g><path d="m289.897 83.1h-225.723c-35.442 0-64.174 28.732-64.174 64.174v225.723c0 22.58 11.671 42.421 29.3 53.859l-4.04 32.857c-1.882 15.305 14.014 26.559 27.825 19.699l83.582-42.241h153.23c35.442 0 64.174-28.732 64.174-64.174v-225.723c0-35.442-28.732-64.174-64.174-64.174z" fill="url(#SVGID_4_)"/><path d="m354.07 147.276v225.72c0 8.05-1.48 15.75-4.19 22.84-9.2 24.17-32.59 41.34-59.98 41.34h-24.86l-172.04-172.04.19.02c-19.2-19.17-35.34-41.41-47.65-65.92-5.79-11.54-10.99-24.06-14.78-37.15-6.86-23.74-5.66-48.63 2.67-71.15 9.13-5 19.6-7.84 30.74-7.84h225.73c35.44 0 64.17 28.74 64.17 64.18z" fill="url(#SVGID_5_)"/><path d="m354.07 285.546v87.45c0 8.05-1.48 15.75-4.19 22.84-9.2 24.17-32.59 41.34-59.98 41.34h-24.86l-154.84-154.84c14.34 11.7 29.99 21.86 46.69 30.24 11.54 5.79 24.06 11 37.14 14.78 37.81 10.94 78.54 1.41 107.96-24.75.24-.22.49-.44.74-.66.14-.12.26-.25.4-.38 5.84-.57 11.4-3.59 15.02-8.78l7.88-11.32c5.31-7.61 4.81-17.53-.56-24.52z" fill="url(#SVGID_6_)"/><path d="m0 311.623v61.374c0 22.579 11.671 42.421 29.3 53.859l-4.04 32.857c-1.882 15.305 14.014 26.559 27.825 19.699l83.582-42.241h153.23c35.442 0 64.174-28.732 64.174-64.174v-61.374z" fill="url(#SVGID_7_)"/></g></g><g><path d="m251.181 229.979c-10.249-7.38-24.515-5.228-32.132 4.846-15.279 20.208-44.059 24.259-64.256 8.965-7.081-5.362-37.099-35.38-42.462-42.462-15.293-20.197-11.242-48.977 8.965-64.256 10.074-7.617 12.226-21.883 4.846-32.132l-35.75-49.653c-8.687-12.065-26.311-12.985-36.215-1.897-.223.25-.444.498-.665.746-26.156 29.41-35.682 70.142-24.751 107.952 3.783 13.085 8.991 25.607 14.782 37.146 24.558 48.935 64.408 88.785 113.343 113.343 11.539 5.791 24.06 10.999 37.146 14.782 37.81 10.931 78.541 1.405 107.952-24.751.248-.22.496-.442.746-.665 11.088-9.904 10.168-27.528-1.897-36.215z" fill="url(#SVGID_8_)"/><path d="m219.049 234.825c-15.279 20.208-44.059 24.259-64.256 8.965-2.072-1.569-6.114-5.256-10.921-9.855h-79.28c23.879 33.093 55.521 60.186 92.296 78.642 11.539 5.791 24.06 10.999 37.146 14.782 37.81 10.931 78.542 1.405 107.952-24.751.248-.22.496-.442.746-.665 11.088-9.904 10.168-27.528-1.897-36.215l-44.158-31.793h-36.92c-.242.29-.478.586-.708.89z" fill="url(#SVGID_9_)"/><g><path d="m300.834 265.729-49.653-35.75c-10.249-7.38-24.515-5.228-32.132 4.846-9.995 13.219-25.768 19.521-41.136 18.02l75.492 75.492c17.75-4.47 34.469-13.179 48.58-25.728.248-.22.496-.442.746-.665 11.088-9.904 10.168-27.528-1.897-36.215z" fill="url(#SVGID_10_)"/><path d="m103.277 178.209c-1.501-15.368 4.8-31.141 18.02-41.136 10.074-7.617 12.226-21.883 4.846-32.132l-35.75-49.653c-8.687-12.065-26.311-12.985-36.215-1.897-.223.25-.444.498-.665.746-12.549 14.111-21.258 30.83-25.728 48.58z" fill="url(#SVGID_11_)"/></g><g><path d="m144.806 129.818-11.31 7.882c-9.417 6.562-22.371 4.248-28.933-5.169l-44.216-63.452c-6.562-9.417-4.248-22.371 5.169-28.933l11.31-7.882c9.417-6.562 22.371-4.248 28.933 5.169l44.216 63.451c6.562 9.418 4.248 22.371-5.169 28.934z" fill="url(#SVGID_12_)"/><path d="m71.759 35.796-6.243 4.351c-9.417 6.562-11.731 19.516-5.169 28.933l44.216 63.451c6.562 9.417 19.516 11.731 28.933 5.169l5.302-3.695z" fill="url(#SVGID_13_)"/><path d="m228.479 213.491-7.882 11.31c-6.562 9.417-4.248 22.371 5.169 28.933l63.451 44.216c9.417 6.562 22.371 4.248 28.933-5.169l7.882-11.31c6.562-9.417 4.248-22.371-5.169-28.933l-63.451-44.216c-9.417-6.563-22.371-4.248-28.933 5.169z" fill="url(#SVGID_14_)"/><path d="m318.15 292.781 6.463-9.275-98.892-66.058-5.124 7.353c-6.562 9.417-4.248 22.371 5.169 28.933l63.451 44.216c9.417 6.562 22.371 4.248 28.933-5.169z" fill="url(#SVGID_15_)"/></g></g></g></svg>