<svg id="Capa_1" enable-background="new 0 0 510 510" height="512" viewBox="0 0 510 510" width="512" xmlns="http://www.w3.org/2000/svg" xmlns:xlink="http://www.w3.org/1999/xlink"><linearGradient id="lg1"><stop offset="0" stop-color="#9d66d6"/><stop offset="1" stop-color="#453d81"/></linearGradient><linearGradient id="SVGID_1_" gradientUnits="userSpaceOnUse" x1="93.46" x2="416.39" xlink:href="#lg1" y1="66.701" y2="389.631"/><linearGradient id="SVGID_2_" gradientUnits="userSpaceOnUse" x1="156.633" x2="353.367" xlink:href="#lg1" y1="129.875" y2="326.609"/><linearGradient id="lg2"><stop offset="0" stop-color="#453d81" stop-opacity="0"/><stop offset="1" stop-color="#453d81"/></linearGradient><linearGradient id="SVGID_3_" gradientUnits="userSpaceOnUse" x1="70.125" x2="70.125" xlink:href="#lg2" y1="266.511" y2="370.017"/><linearGradient id="SVGID_4_" gradientUnits="userSpaceOnUse" x1="439.882" x2="439.882" xlink:href="#lg2" y1="266.511" y2="370.017"/><linearGradient id="SVGID_5_" gradientUnits="userSpaceOnUse" x1="380" x2="348.964" xlink:href="#lg2" y1="247.147" y2="247.147"/><linearGradient id="SVGID_6_" gradientUnits="userSpaceOnUse" x1="255" x2="255" xlink:href="#lg2" y1="252.001" y2="320.648"/><linearGradient id="SVGID_7_" gradientUnits="userSpaceOnUse" x1="199.5" x2="333.56" y1="459.167" y2="459.167"><stop offset="0" stop-color="#5a5a5a"/><stop offset="1" stop-color="#464646"/></linearGradient><linearGradient id="lg3"><stop offset="0" stop-color="#464646" stop-opacity="0"/><stop offset="1" stop-color="#202020"/></linearGradient><linearGradient id="SVGID_8_" gradientUnits="userSpaceOnUse" x1="255" x2="255" xlink:href="#lg3" y1="484.262" y2="424.781"/><linearGradient id="SVGID_9_" gradientUnits="userSpaceOnUse" x1="237.5" x2="285.066" xlink:href="#lg3" y1="459.167" y2="459.167"/><linearGradient id="lg4"><stop offset="0" stop-color="#eef4ff"/><stop offset="1" stop-color="#cfe7fd"/></linearGradient><linearGradient id="SVGID_10_" gradientUnits="userSpaceOnUse" x1="255" x2="255" xlink:href="#lg4" y1="321.167" y2="454.54"/><linearGradient id="SVGID_11_" gradientUnits="userSpaceOnUse" x1="111.913" x2="371.802" xlink:href="#lg4" y1="271.991" y2="271.991"/><linearGradient id="lg5"><stop offset="0" stop-color="#8aaadc" stop-opacity="0"/><stop offset="1" stop-color="#8aaadc"/></linearGradient><linearGradient id="SVGID_12_" gradientUnits="userSpaceOnUse" x1="186.999" x2="326.103" xlink:href="#lg5" y1="203.99" y2="343.094"/><linearGradient id="SVGID_13_" gradientUnits="userSpaceOnUse" x1="255" x2="255" xlink:href="#lg5" y1="226.35" y2="203.137"/><linearGradient id="SVGID_14_" gradientUnits="userSpaceOnUse" x1="255" x2="255" xlink:href="#lg5" y1="276.69" y2="251.751"/><linearGradient id="SVGID_15_" gradientUnits="userSpaceOnUse" x1="255" x2="255" xlink:href="#lg5" y1="329.844" y2="312.636"/><linearGradient id="SVGID_16_" gradientUnits="userSpaceOnUse" x1="169.646" x2="318.327" xlink:href="#lg4" y1="186.637" y2="335.318"/><linearGradient id="SVGID_17_" gradientUnits="userSpaceOnUse" x1="277.512" x2="238.951" xlink:href="#lg4" y1="323.113" y2="323.113"/><linearGradient id="SVGID_18_" gradientUnits="userSpaceOnUse" x1="277.512" x2="238.951" xlink:href="#lg4" y1="220.87" y2="220.87"/><linearGradient id="SVGID_19_" gradientUnits="userSpaceOnUse" x1="255" x2="255" xlink:href="#lg5" y1="353.607" y2="403.357"/><g><path d="m259.183.038c-127.555-2.293-231.688 99.292-232.419 226.865-.375 65.445 26.794 124.543 70.591 166.388 6.979 6.668 18.343-.291 15.598-9.545-3.222-10.863-4.953-22.361-4.953-34.256v-.064c0-7.391-2.265-14.574-6.329-20.748-19.464-29.575-29.911-64.206-29.911-100.438 0-48.94 19.06-94.96 53.67-129.57 34.61-34.609 80.62-53.67 129.57-53.67s94.96 19.06 129.57 53.67 53.67 80.63 53.67 129.57c0 36.232-10.447 70.862-29.911 100.438-4.063 6.174-6.329 13.357-6.329 20.748v.064c0 11.89-1.73 23.385-4.95 34.244-2.751 9.278 8.641 16.204 15.637 9.516 43.474-41.557 70.553-100.119 70.553-165.01 0-124.652-99.937-225.971-224.057-228.202z" fill="url(#SVGID_1_)"/><g><circle cx="255" cy="228.242" fill="url(#SVGID_2_)" r="139.112"/></g><g><path d="m97.355 393.291c6.979 6.668 18.343-.291 15.598-9.545-3.222-10.863-4.953-22.361-4.953-34.256v-.064c0-7.392-2.265-14.574-6.329-20.748-18.248-27.727-28.571-59.897-29.789-93.665h-45.006c1.814 62.206 28.5 118.17 70.479 158.278z" fill="url(#SVGID_3_)"/><path d="m438.118 235.013c-1.219 33.768-11.541 65.938-29.789 93.665-4.063 6.174-6.329 13.357-6.329 20.748v.064c0 11.89-1.729 23.385-4.95 34.244-2.751 9.279 8.641 16.204 15.637 9.516 41.956-40.106 68.634-96.051 70.446-158.238h-45.015z" fill="url(#SVGID_4_)"/></g><path d="m327 347.293c40.229-24.382 67.112-68.577 67.112-119.052 0-5.044-.275-10.023-.799-14.928l-66.313-66.313z" fill="url(#SVGID_5_)"/><path d="m116.896 245c8.277 68.926 66.948 122.353 138.104 122.353s129.827-53.426 138.104-122.353z" fill="url(#SVGID_6_)"/><g><g><path d="m283.144 481.857v-73.523h-56.288v73.523c0 15.543 12.601 28.143 28.144 28.143 15.544 0 28.144-12.6 28.144-28.143z" fill="url(#SVGID_7_)"/><path d="m283.144 481.857v-73.523h-56.288v73.523c0 15.543 12.601 28.143 28.144 28.143 15.544 0 28.144-12.6 28.144-28.143z" fill="url(#SVGID_8_)"/><path d="m283.144 481.857v-73.523h-56.288v73.523c0 15.543 12.601 28.143 28.144 28.143 15.544 0 28.144-12.6 28.144-28.143z" fill="url(#SVGID_9_)"/></g><path d="m278.367 454.54h-46.734c-58.931 0-106.875-47.944-106.875-106.875v-18.997c0-4.143 3.358-7.5 7.5-7.5s7.5 3.357 7.5 7.5v18.997c0 50.66 41.215 91.875 91.875 91.875h46.734c50.66 0 91.875-41.215 91.875-91.875v-18.997c0-4.143 3.357-7.5 7.5-7.5s7.5 3.357 7.5 7.5v18.997c0 58.93-47.944 106.875-106.875 106.875z" fill="url(#SVGID_10_)"/><g><g><path d="m170.599 185.031h168.802v173.92h-168.802z" fill="url(#SVGID_11_)"/><path d="m170.599 185.031h168.802v173.92h-168.802z" fill="url(#SVGID_12_)"/><g><path d="m170.598 200.139h168.804v25.898h-168.804z" fill="url(#SVGID_13_)"/></g><path d="m170.598 251.261h168.804v25.898h-168.804z" fill="url(#SVGID_14_)"/><path d="m170.598 305.196h168.804v25.898h-168.804z" fill="url(#SVGID_15_)"/><path d="m305.921 339.024c-8.128 0-14.684-6.734-14.392-14.927.277-7.804 6.928-13.876 14.737-13.876h31.776c4.763 0 8.624-3.861 8.624-8.624v-6.58c0-4.763-3.861-8.624-8.624-8.624h-32.121c-7.954 0-14.402-6.448-14.402-14.402 0-7.954 6.448-14.402 14.402-14.402h32.121c4.763 0 8.624-3.861 8.624-8.624v-6.58c0-4.763-3.861-8.624-8.624-8.624h-32.121c-7.954 0-14.402-6.448-14.402-14.402 0-7.954 6.448-14.402 14.402-14.402h32.121c4.763 0 8.624-3.861 8.624-8.624 0-40.062-32.477-72.539-72.539-72.539h-38.255c-40.062 0-72.539 32.477-72.539 72.539 0 4.763 3.861 8.624 8.624 8.624h32.121c7.954 0 14.402 6.448 14.402 14.402 0 7.954-6.448 14.402-14.402 14.402h-32.121c-4.763 0-8.624 3.861-8.624 8.624v6.58c0 4.763 3.861 8.624 8.624 8.624h32.121c7.954 0 14.402 6.448 14.402 14.402 0 7.954-6.448 14.402-14.402 14.402h-32.121c-4.763 0-8.624 3.861-8.624 8.624v6.58c0 4.763 3.861 8.624 8.624 8.624h31.776c7.809 0 14.46 6.072 14.737 13.876.291 8.193-6.264 14.927-14.392 14.927h-32.121c-4.763 0-8.624 3.861-8.624 8.624 0 40.062 32.477 72.539 72.539 72.539h38.255c40.062 0 72.539-32.477 72.539-72.539 0-4.763-3.861-8.624-8.624-8.624z" fill="url(#SVGID_16_)"/><g><path d="m237.498 348.309v-50.392c0-9.666 7.836-17.502 17.502-17.502 9.666 0 17.502 7.836 17.502 17.502v50.392c0 9.666-7.836 17.502-17.502 17.502-9.666 0-17.502-7.836-17.502-17.502z" fill="url(#SVGID_17_)"/><path d="m237.498 246.066v-50.392c0-9.666 7.836-17.502 17.502-17.502 9.666 0 17.502 7.836 17.502 17.502v50.392c0 9.666-7.836 17.502-17.502 17.502-9.666 0-17.502-7.836-17.502-17.502z" fill="url(#SVGID_18_)"/></g></g><path d="m204.079 339.024h-32.121c-4.763 0-8.624 3.861-8.624 8.624 0 40.062 32.477 72.539 72.539 72.539h38.255c40.062 0 72.539-32.477 72.539-72.539 0-4.763-3.861-8.624-8.624-8.624h-32.121c-3.952 0-7.524-1.6-10.126-4.177h-81.591c-2.602 2.577-6.174 4.177-10.126 4.177z" fill="url(#SVGID_19_)"/></g></g></g></svg>