<svg id="Capa_1" enable-background="new 0 0 510 510" height="512" viewBox="0 0 510 510" width="512" xmlns="http://www.w3.org/2000/svg" xmlns:xlink="http://www.w3.org/1999/xlink"><linearGradient id="lg1"><stop offset="0" stop-color="#bce097"/><stop offset="1" stop-color="#7dc03a"/></linearGradient><linearGradient id="SVGID_1_" gradientUnits="userSpaceOnUse" x1="223.083" x2="300.37" xlink:href="#lg1" y1="104.821" y2="182.108"/><linearGradient id="lg2"><stop offset="0" stop-color="#3e6e66" stop-opacity="0"/><stop offset="1" stop-color="#3e6e66"/></linearGradient><linearGradient id="SVGID_2_" gradientUnits="userSpaceOnUse" x1="259.493" x2="281.493" xlink:href="#lg2" y1="125.875" y2="154.875"/><linearGradient id="SVGID_3_" gradientUnits="userSpaceOnUse" x1="114.524" x2="346.754" xlink:href="#lg1" y1="-8.12" y2="224.109"/><linearGradient id="SVGID_4_" gradientUnits="userSpaceOnUse" x1="135.418" x2="313.418" y1="-65.371" y2="270.629"><stop offset="0" stop-color="#8cc951" stop-opacity="0"/><stop offset="1" stop-color="#3e6e66"/></linearGradient><linearGradient id="SVGID_5_" gradientUnits="userSpaceOnUse" x1="324.674" x2="348.674" xlink:href="#lg2" y1="150.621" y2="186.621"/><linearGradient id="SVGID_6_" gradientTransform="matrix(-1 0 0 1 733.94 0)" gradientUnits="userSpaceOnUse" x1="548.614" x2="572.614" xlink:href="#lg2" y1="150.621" y2="186.621"/><linearGradient id="SVGID_7_" gradientUnits="userSpaceOnUse" x1="203.212" x2="423.212" y1="131.861" y2="511.861"><stop offset="0" stop-color="#5a5a5a"/><stop offset="1" stop-color="#464646"/></linearGradient><linearGradient id="lg3"><stop offset="0" stop-color="#464646" stop-opacity="0"/><stop offset="1" stop-color="#202020"/></linearGradient><linearGradient id="SVGID_8_" gradientUnits="userSpaceOnUse" x1="381.715" x2="329.715" xlink:href="#lg3" y1="278.112" y2="534.112"/><linearGradient id="SVGID_9_" gradientUnits="userSpaceOnUse" x1="389.452" x2="414.414" xlink:href="#lg3" y1="365.958" y2="406.15"/><linearGradient id="SVGID_10_" gradientTransform="matrix(-1 0 0 1 765 0)" gradientUnits="userSpaceOnUse" x1="646.052" x2="672.134" xlink:href="#lg3" y1="371.577" y2="422.849"/><linearGradient id="SVGID_11_" gradientUnits="userSpaceOnUse" x1="113.173" x2="21.173" xlink:href="#lg3" y1="303.746" y2="254.746"/><linearGradient id="SVGID_12_" gradientUnits="userSpaceOnUse" x1="34.789" x2="80.262" y1="218.058" y2="263.531"><stop offset="0" stop-color="#f7e07d"/><stop offset=".2892" stop-color="#f3cf6f"/><stop offset=".862" stop-color="#e9a24b"/><stop offset="1" stop-color="#e69642"/></linearGradient><g><path d="m278.757 331.405 75.628-90.692c5.06-6.068 8.115-16.469 8.115-27.63v-173.004c0-7.841-9.802-11.391-14.824-5.37l-68.919 82.647c-7.227 8.666-15.492 13-23.757 13v214.049c8.265-.001 16.53-4.334 23.757-13z" fill="url(#SVGID_1_)"/><path d="m278.757 331.405 75.628-90.692c5.06-6.068 8.115-16.469 8.115-27.63v-173.004c0-7.841-9.802-11.391-14.824-5.37l-68.919 82.647c-7.227 8.666-15.492 13-23.757 13v214.049c8.265-.001 16.53-4.334 23.757-13z" fill="url(#SVGID_2_)"/><g><path d="m205.51 114.403-146.435-94.861c-12.075-7.822-28.017.845-28.017 15.232v187.354c0 12.56 6.364 24.264 16.905 31.093l157.547 102.059c30.111 19.506 68.87 19.506 98.98 0l157.547-102.059c10.541-6.829 16.905-18.533 16.905-31.093v-187.353c0-14.388-15.941-23.055-28.017-15.232l-146.435 94.86c-30.111 19.505-68.87 19.505-98.98 0z" fill="url(#SVGID_3_)"/><path d="m209.939 145.459-133.331-86.372c-10.995-7.122-25.51.769-25.51 13.869v170.588c0 11.436 5.794 22.093 15.392 28.311l143.448 92.926c27.416 17.76 62.707 17.76 90.123 0l143.449-92.926c9.598-6.218 15.392-16.875 15.392-28.311v-170.587c0-13.1-14.515-20.992-25.51-13.869l-133.331 86.372c-27.416 17.759-62.706 17.759-90.122-.001z" fill="url(#SVGID_4_)"/></g><g><path d="m478.94 63.774v158.35c0 12.56-6.36 24.27-16.9 31.1l-53.28 34.52-104.27 67.54c-15.05 9.75-32.27 14.62-49.49 14.62v-211.88c17.22 0 34.44-4.87 49.49-14.62l146.44-94.86c12.07-7.82 28.01.84 28.01 15.23z" fill="url(#SVGID_5_)"/><path d="m31.06 63.774v158.35c0 12.56 6.36 24.27 16.9 31.1l53.28 34.52 104.27 67.54c15.05 9.75 32.27 14.62 49.49 14.62v-211.88c-17.22 0-34.44-4.87-49.49-14.62l-146.44-94.86c-12.07-7.82-28.01.84-28.01 15.23z" fill="url(#SVGID_6_)"/></g><g><path d="m198.646 202.462-166.744-108.016c-13.75-8.907-31.902.962-31.902 17.345v213.337c0 14.302 7.246 27.63 19.25 35.405l179.397 116.213c34.286 22.211 78.421 22.211 112.707 0l179.396-116.213c12.003-7.776 19.25-21.104 19.25-35.405v-213.337c0-16.383-18.152-26.252-31.902-17.345l-166.744 108.016c-34.287 22.211-78.421 22.211-112.708 0z" fill="url(#SVGID_7_)"/><path d="m311.354 476.746 179.396-116.213c12.004-7.775 19.25-21.103 19.25-35.405v-213.337c0-16.383-18.152-26.252-31.902-17.345l-166.744 108.017c-17.144 11.105-36.749 16.657-56.354 16.657v274.284c19.605 0 39.21-5.552 56.354-16.658z" fill="url(#SVGID_8_)"/><path d="m510 216.124v109c0 14.31-7.25 27.63-19.25 35.41l-179.4 116.21c-17.14 11.11-36.74 16.66-56.35 16.66v-109c19.6 0 39.21-5.56 56.35-16.66l179.4-116.21c12-7.78 19.25-21.1 19.25-35.41z" fill="url(#SVGID_9_)"/><path d="m0 216.124v109c0 14.31 7.25 27.63 19.25 35.41l179.4 116.21c17.14 11.11 36.74 16.66 56.35 16.66v-109c-19.6 0-39.21-5.56-56.35-16.66l-179.4-116.21c-12-7.78-19.25-21.1-19.25-35.41z" fill="url(#SVGID_10_)"/></g><path d="m167.333 299.414v102.29l-127.71-127.72c-8.57-6.66 44.43-59.66 51.09-51.09z" fill="url(#SVGID_11_)"/><circle cx="61.955" cy="245.224" fill="url(#SVGID_12_)" r="36.422"/></g></svg>