<svg id="Capa_1" enable-background="new 0 0 510 510" height="512" viewBox="0 0 510 510" width="512" xmlns="http://www.w3.org/2000/svg" xmlns:xlink="http://www.w3.org/1999/xlink"><linearGradient id="SVGID_1_" gradientUnits="userSpaceOnUse" x1="52.447" x2="436.665" y1="127.173" y2="511.391"><stop offset="0" stop-color="#eef4ff"/><stop offset="1" stop-color="#cfe7fd"/></linearGradient><linearGradient id="lg1"><stop offset="0" stop-color="#8aaadc" stop-opacity="0"/><stop offset="1" stop-color="#8aaadc"/></linearGradient><linearGradient id="SVGID_2_" gradientUnits="userSpaceOnUse" x1="211.623" x2="359.447" xlink:href="#lg1" y1="165.856" y2="475.845"/><linearGradient id="SVGID_3_" gradientUnits="userSpaceOnUse" x1="254.999" x2="254.999" xlink:href="#lg1" y1="466" y2="514.094"/><linearGradient id="SVGID_4_" gradientUnits="userSpaceOnUse" x1="380.14" x2="169.698" xlink:href="#lg1" y1="210.528" y2=".087"/><linearGradient id="SVGID_5_" gradientUnits="userSpaceOnUse" x1="487.64" x2="371.005" xlink:href="#lg1" y1="203.028" y2="86.394"/><linearGradient id="SVGID_6_" gradientUnits="userSpaceOnUse" x1="127.499" x2="382.499" y1="68.54" y2="68.54"><stop offset="0" stop-color="#5a5a5a"/><stop offset="1" stop-color="#464646"/></linearGradient><linearGradient id="SVGID_7_" gradientUnits="userSpaceOnUse" x1="282.978" x2="179.304" xlink:href="#lg1" y1="297.523" y2="193.849"/><linearGradient id="SVGID_8_" gradientUnits="userSpaceOnUse" x1="247.146" x2="172.767" xlink:href="#lg1" y1="368.356" y2="293.976"/><linearGradient id="SVGID_9_" gradientUnits="userSpaceOnUse" x1="353.983" x2="278.204" xlink:href="#lg1" y1="262.518" y2="186.739"/><linearGradient id="SVGID_10_" gradientUnits="userSpaceOnUse" x1="374.401" x2="280.504" xlink:href="#lg1" y1="389.6" y2="295.704"/><linearGradient id="SVGID_11_" gradientUnits="userSpaceOnUse" x1="173" x2="230.332" y1="187.545" y2="244.877"><stop offset="0" stop-color="#f7e07d"/><stop offset="1" stop-color="#e69642"/></linearGradient><linearGradient id="SVGID_12_" gradientUnits="userSpaceOnUse" x1="201.996" x2="201.996" y1="241.142" y2="257.545"><stop offset="0" stop-color="#d52c1c" stop-opacity="0"/><stop offset=".28" stop-color="#d12c1e" stop-opacity=".28"/><stop offset=".5735" stop-color="#c42c23" stop-opacity=".574"/><stop offset=".8721" stop-color="#af2b2c" stop-opacity=".872"/><stop offset="1" stop-color="#a42b31"/></linearGradient><linearGradient id="SVGID_13_" gradientUnits="userSpaceOnUse" x1="279" x2="336.332" y1="187.545" y2="244.877"><stop offset="0" stop-color="#76ccf8"/><stop offset=".833" stop-color="#518ef8"/><stop offset="1" stop-color="#4981f8"/></linearGradient><linearGradient id="SVGID_14_" gradientUnits="userSpaceOnUse" x1="307.996" x2="307.996" y1="241.142" y2="257.545"><stop offset="0" stop-color="#4071f7" stop-opacity="0"/><stop offset="1" stop-color="#30569f"/></linearGradient><linearGradient id="SVGID_15_" gradientUnits="userSpaceOnUse" x1="173" x2="230.332" y1="294.212" y2="351.544"><stop offset="0" stop-color="#bce097"/><stop offset="1" stop-color="#7dc03a"/></linearGradient><linearGradient id="SVGID_16_" gradientUnits="userSpaceOnUse" x1="201.996" x2="201.996" y1="347.808" y2="364.211"><stop offset="0" stop-color="#8cc951" stop-opacity="0"/><stop offset="1" stop-color="#3e6e66"/></linearGradient><linearGradient id="SVGID_17_" gradientUnits="userSpaceOnUse" x1="279" x2="336.332" y1="294.212" y2="351.544"><stop offset="0" stop-color="#dc4955"/><stop offset="1" stop-color="#c4237c"/></linearGradient><linearGradient id="SVGID_18_" gradientUnits="userSpaceOnUse" x1="307.996" x2="307.996" y1="347.808" y2="364.211"><stop offset="0" stop-color="#8a1958" stop-opacity="0"/><stop offset="1" stop-color="#8a1958"/></linearGradient><g><g><path d="m502.598 478.405-48.194-82.405v-272.735c0-13.721-11.123-24.844-24.844-24.844h-349.122c-13.721 0-24.844 11.123-24.844 24.844v272.735l-48.194 82.405c-6.161 15.081 4.932 31.595 21.223 31.595h51.815 349.122 51.815c16.291 0 27.384-16.514 21.223-31.595z" fill="url(#SVGID_1_)"/><path d="m454.401 123.26v272.736h-398.81v-272.736c0-13.72 11.13-24.84 24.85-24.84h349.12c13.72 0 24.84 11.12 24.84 24.84z" fill="url(#SVGID_2_)"/><path d="m7.4 478.405c-6.161 15.081 4.932 31.595 21.223 31.595h51.815 349.122 51.815c16.291 0 27.383-16.514 21.223-31.595l-48.194-82.405h-398.81z" fill="url(#SVGID_3_)"/></g><path d="m454.409 123.26v333.36l-323.81-323.81v-34.39h298.96c13.72 0 24.85 11.12 24.85 24.84z" fill="url(#SVGID_4_)"/><path d="m454.409 226.62v-103.36c0-13.72-11.13-24.84-24.85-24.84h-68.96v34.39z" fill="url(#SVGID_5_)"/><path d="m369.999 137.08c-6.904 0-12.5-5.596-12.5-12.5v-64.116c0-19.586-15.878-35.464-35.464-35.464h-134.072c-19.586 0-35.464 15.878-35.464 35.464v64.116c0 6.904-5.596 12.5-12.5 12.5-6.904 0-12.5-5.596-12.5-12.5v-64.116c0-33.394 27.07-60.464 60.464-60.464h134.072c33.393 0 60.464 27.071 60.464 60.464v64.116c0 6.903-5.596 12.5-12.5 12.5z" fill="url(#SVGID_6_)"/><path d="m481.371 510h-54.63l-226.79-226.79-28.6-28.6c-5.65-3.96-9.36-10.51-9.36-17.93v-38.27c0-12.08 9.79-21.87 21.87-21.87h38.27c7.42 0 13.98 3.7 17.93 9.36l220.31 220.31 42.23 72.2c6.16 15.08-4.94 31.59-21.23 31.59z" fill="url(#SVGID_7_)"/><path d="m457.491 510h-137.41l-148.73-148.73c-5.65-3.95-9.36-10.5-9.36-17.93v-38.27c0-12.07 9.79-21.86 21.87-21.86h38.27c7.42 0 13.98 3.7 17.93 9.35z" fill="url(#SVGID_8_)"/><path d="m503.381 480.63-197.42-197.42-28.6-28.6c-5.65-3.96-9.36-10.51-9.36-17.93v-38.27c0-12.08 9.79-21.87 21.87-21.87h38.27c7.42 0 13.98 3.7 17.93 9.36l108.33 108.33v101.77l6.9 11.79 41.3 70.62c.3.74.56 1.48.78 2.22z" fill="url(#SVGID_9_)"/><path d="m481.371 510h-55.28l-148.73-148.73c-5.65-3.95-9.36-10.5-9.36-17.93v-38.27c0-12.07 9.79-21.86 21.87-21.86h38.27c7.42 0 13.98 3.7 17.93 9.35l115.23 115.23 41.3 70.62c.3.74.56 1.48.78 2.22 4.28 14.44-6.52 29.37-22.01 29.37z" fill="url(#SVGID_10_)"/><g><g><g><path d="m221.133 257.541h-38.273c-12.075 0-21.864-9.789-21.864-21.864v-38.273c0-12.075 9.789-21.864 21.864-21.864h38.273c12.075 0 21.864 9.789 21.864 21.864v38.273c-.001 12.076-9.789 21.864-21.864 21.864z" fill="url(#SVGID_11_)"/><path d="m160.996 235.678c0 12.075 9.789 21.864 21.864 21.864h38.273c12.075 0 21.864-9.789 21.864-21.864 0-2.61-2.116-4.726-4.726-4.726h-72.549c-2.61 0-4.726 2.116-4.726 4.726z" fill="url(#SVGID_12_)"/></g><g><path d="m327.133 257.541h-38.273c-12.075 0-21.864-9.789-21.864-21.864v-38.273c0-12.075 9.789-21.864 21.864-21.864h38.273c12.075 0 21.864 9.789 21.864 21.864v38.273c-.001 12.076-9.789 21.864-21.864 21.864z" fill="url(#SVGID_13_)"/><path d="m266.996 235.678c0 12.075 9.789 21.864 21.864 21.864h38.273c12.075 0 21.864-9.789 21.864-21.864 0-2.61-2.116-4.726-4.726-4.726h-72.549c-2.61 0-4.726 2.116-4.726 4.726z" fill="url(#SVGID_14_)"/></g></g><g><g><path d="m221.133 364.208h-38.273c-12.075 0-21.864-9.789-21.864-21.864v-38.273c0-12.075 9.789-21.864 21.864-21.864h38.273c12.075 0 21.864 9.789 21.864 21.864v38.273c-.001 12.075-9.789 21.864-21.864 21.864z" fill="url(#SVGID_15_)"/><path d="m160.996 342.345c0 12.075 9.789 21.864 21.864 21.864h38.273c12.075 0 21.864-9.789 21.864-21.864 0-2.61-2.116-4.726-4.726-4.726h-72.549c-2.61 0-4.726 2.116-4.726 4.726z" fill="url(#SVGID_16_)"/></g><g><path d="m327.133 364.208h-38.273c-12.075 0-21.864-9.789-21.864-21.864v-38.273c0-12.075 9.789-21.864 21.864-21.864h38.273c12.075 0 21.864 9.789 21.864 21.864v38.273c-.001 12.075-9.789 21.864-21.864 21.864z" fill="url(#SVGID_17_)"/><path d="m266.996 342.345c0 12.075 9.789 21.864 21.864 21.864h38.273c12.075 0 21.864-9.789 21.864-21.864 0-2.61-2.116-4.726-4.726-4.726h-72.549c-2.61 0-4.726 2.116-4.726 4.726z" fill="url(#SVGID_18_)"/></g></g></g><path d="m327.133 257.541h-38.273c-12.075 0-21.864-9.789-21.864-21.864v-38.273c0-12.075 9.789-21.864 21.864-21.864h38.273c12.075 0 21.864 9.789 21.864 21.864v38.273c-.001 12.076-9.789 21.864-21.864 21.864z" fill="url(#SVGID_13_)"/></g></svg>