<svg id="Capa_1" enable-background="new 0 0 510 510" height="512" viewBox="0 0 510 510" width="512" xmlns="http://www.w3.org/2000/svg" xmlns:xlink="http://www.w3.org/1999/xlink"><linearGradient id="SVGID_1_" gradientUnits="userSpaceOnUse" x1="79.429" x2="426.548" y1="95.045" y2="442.164"><stop offset="0" stop-color="#f7e07d"/><stop offset="1" stop-color="#e69642"/></linearGradient><linearGradient id="lg1"><stop offset="0" stop-color="#d52c1c" stop-opacity="0"/><stop offset=".28" stop-color="#d12c1e" stop-opacity=".28"/><stop offset=".5735" stop-color="#c42c23" stop-opacity=".574"/><stop offset=".8721" stop-color="#af2b2c" stop-opacity=".872"/><stop offset="1" stop-color="#a42b31"/></linearGradient><linearGradient id="SVGID_2_" gradientUnits="userSpaceOnUse" x1="512.968" x2="471.917" xlink:href="#lg1" y1="263.488" y2="259.181"/><linearGradient id="SVGID_3_" gradientUnits="userSpaceOnUse" x1="255" x2="255" xlink:href="#lg1" y1="381.642" y2="470.332"/><linearGradient id="SVGID_4_" gradientUnits="userSpaceOnUse" x1="405.75" x2="405.75" xlink:href="#lg1" y1="366.116" y2="447.267"/><linearGradient id="SVGID_5_" gradientTransform="matrix(-1 0 0 1 811.5 0)" gradientUnits="userSpaceOnUse" x1="707.25" x2="707.25" xlink:href="#lg1" y1="366.116" y2="447.267"/><linearGradient id="lg2"><stop offset="0" stop-color="#eef4ff"/><stop offset="1" stop-color="#cfe7fd"/></linearGradient><linearGradient id="SVGID_6_" gradientUnits="userSpaceOnUse" x1="255" x2="255" xlink:href="#lg2" y1="322.309" y2="398.976"/><linearGradient id="lg3"><stop offset="0" stop-color="#8aaadc" stop-opacity="0"/><stop offset="1" stop-color="#8aaadc"/></linearGradient><linearGradient id="SVGID_7_" gradientUnits="userSpaceOnUse" x1="255" x2="255" xlink:href="#lg3" y1="342.976" y2="473.979"/><linearGradient id="SVGID_8_" gradientUnits="userSpaceOnUse" x1="315.5" x2="243.998" xlink:href="#lg3" y1="366.157" y2="366.157"/><linearGradient id="SVGID_9_" gradientUnits="userSpaceOnUse" x1="-31.679" x2="272.735" xlink:href="#lg2" y1="55.012" y2="359.426"/><linearGradient id="SVGID_10_" gradientUnits="userSpaceOnUse" x1="62.28" x2="285.008" xlink:href="#lg2" y1="264.72" y2="487.449"/><linearGradient id="SVGID_11_" gradientUnits="userSpaceOnUse" x1="141.386" x2="364.115" xlink:href="#lg2" y1="185.614" y2="408.342"/><linearGradient id="SVGID_12_" gradientUnits="userSpaceOnUse" x1="251.389" x2="474.295" xlink:href="#lg2" y1="119.827" y2="342.733"/><linearGradient id="SVGID_13_" gradientUnits="userSpaceOnUse" x1="472.447" x2="275.447" xlink:href="#lg3" y1="224.859" y2="87.359"/><linearGradient id="SVGID_14_" gradientUnits="userSpaceOnUse" x1="280.629" x2="361.43" y1="73.68" y2="154.482"><stop offset="0" stop-color="#dc4955"/><stop offset="1" stop-color="#c4237c"/></linearGradient><linearGradient id="SVGID_15_" gradientUnits="userSpaceOnUse" x1="329" x2="329" y1="120.976" y2="184.983"><stop offset="0" stop-color="#8a1958" stop-opacity="0"/><stop offset="1" stop-color="#8a1958"/></linearGradient><g><path d="m493.075 93.469c-78.521-26.395-160.012-24.347-238.075 6.149-78.118-30.517-159.673-32.548-238.25-6.09-10.025 3.375-16.75 12.814-16.75 23.392v307.314c0 16.515 15.832 28.443 31.695 23.849 58.393-16.908 118.194-18.209 176.805-3.932v.001c0 9.291 7.532 16.822 16.822 16.822h59.355c9.291 0 16.822-7.532 16.822-16.822 58.613-14.278 118.414-12.978 176.806 3.93 15.864 4.595 31.695-7.332 31.695-23.847v-307.315c0-10.645-6.834-20.059-16.925-23.451z" fill="url(#SVGID_1_)"/><path d="m510 116.916v307.32c0 5.47-1.74 10.43-4.65 14.46-2.96-4.13-7.2-7.35-12.27-9.05-10.32-3.471-20.69-6.448-31.095-8.933-14.856-3.548-25.315-16.852-25.315-32.125v-309.112c18.91 3.05 37.75 7.72 56.41 13.99 10.09 3.4 16.92 12.81 16.92 23.45z" fill="url(#SVGID_2_)"/><path d="m0 320.976v103.259c0 16.515 15.832 28.443 31.695 23.849 58.393-16.908 118.194-18.209 176.805-3.932v.001c0 9.291 7.532 16.823 16.823 16.823h59.355c9.291 0 16.823-7.532 16.823-16.823 58.613-14.278 118.414-12.978 176.806 3.93 15.862 4.594 31.693-7.333 31.693-23.848v-103.26h-510z" fill="url(#SVGID_3_)"/><path d="m478.306 448.084c15.863 4.593 31.694-7.334 31.694-23.849v-103.26h-208.5v123.177c58.613-14.277 118.414-12.977 176.806 3.932z" fill="url(#SVGID_4_)"/><path d="m31.694 448.084c-15.863 4.593-31.694-7.334-31.694-23.849v-103.26h208.5v123.177c-58.613-14.277-118.414-12.977-176.806 3.932z" fill="url(#SVGID_5_)"/><g><path d="m472.135 96.157c-71.615-24.074-145.939-22.206-217.135 5.608-71.247-27.833-145.628-29.686-217.295-5.554-9.143 3.079-15.276 11.687-15.276 21.335v280.284c0 15.063 14.439 25.941 28.908 21.752 53.257-15.421 103.798-16.608 157.253-3.586v.001c0 8.474 6.869 15.343 15.343 15.343h62.134c8.474 0 15.343-6.869 15.343-15.343 53.457-13.022 103.999-11.836 157.255 3.585 14.468 4.189 28.906-6.688 28.906-21.75v-280.287c0-9.709-6.233-18.294-15.436-21.388z" fill="url(#SVGID_6_)"/><path d="m472.135 96.157c-71.615-24.074-145.939-22.206-217.135 5.608-71.247-27.833-145.628-29.686-217.295-5.554-9.143 3.079-15.276 11.687-15.276 21.335v280.284c0 15.063 14.439 25.941 28.908 21.752 53.257-15.421 103.798-16.608 157.253-3.586v.001c0 8.474 6.869 15.343 15.343 15.343h62.134c8.474 0 15.343-6.869 15.343-15.343 53.457-13.022 103.999-11.836 157.255 3.585 14.468 4.189 28.906-6.688 28.906-21.75v-280.287c0-9.709-6.233-18.294-15.436-21.388z" fill="url(#SVGID_7_)"/><path d="m255 300.976v130.363h31.067c8.474 0 15.343-6.869 15.343-15.343 53.457-13.022 103.999-11.837 157.254 3.585 14.468 4.189 28.906-6.688 28.906-21.75v-96.854h-232.57z" fill="url(#SVGID_8_)"/></g><g><path d="m37.865 67.064c-9.203 3.094-15.436 11.679-15.436 21.388v280.284c0 15.005 14.365 25.969 28.777 21.789 67.473-19.567 137.012-16.307 203.794 9.784v-327.637c-71.194-27.813-145.518-29.683-217.135-5.608z" fill="url(#SVGID_9_)"/><g><g><path d="m213.493 366.441c-49.767-8.972-98.494-8.974-148.266 0-8.204 1.627-14.807-3.456-14.807-11.722 0-9.503 0-14.254 0-23.757 0-8.266 6.603-16.584 14.807-18.211 49.772-8.973 98.499-8.972 148.266 0 8.204 1.627 14.807 9.945 14.807 18.211v23.757c0 8.266-6.603 13.35-14.807 11.722z" fill="url(#SVGID_10_)"/><path d="m213.493 282.035c-49.767-8.972-98.494-8.973-148.266 0-8.204 1.627-14.807-3.456-14.807-11.722 0-57.123 0-114.247 0-171.37 0-8.266 6.603-16.584 14.807-18.212 49.773-8.974 98.499-8.972 148.266.001 8.204 1.627 14.807 9.945 14.807 18.211v171.37c0 8.265-6.603 13.349-14.807 11.722z" fill="url(#SVGID_11_)"/></g></g><path d="m472.135 67.064c-71.615-24.074-145.939-22.206-217.135 5.608v327.637c66.785-26.09 136.324-29.352 203.795-9.784 14.411 4.179 28.776-6.783 28.776-21.788v-280.285c0-9.709-6.233-18.295-15.436-21.388z" fill="url(#SVGID_12_)"/></g><path d="m472.135 67.064c-59.541-20.015-120.953-22.091-180.885-6.239-6.027 1.594-10.25 7.014-10.25 13.248v116.403l196.866 196.866c5.789-4.051 9.705-10.775 9.705-18.605v-280.285c0-9.709-6.233-18.295-15.436-21.388z" fill="url(#SVGID_13_)"/><path d="m278 74.136v110.202c0 6.823 8.249 10.239 13.073 5.415l24.866-24.866c7.213-7.213 18.908-7.213 26.121 0l24.866 24.866c4.824 4.824 13.073 1.408 13.073-5.415v-122.456c0-7.203-5.916-12.96-13.118-12.857-26.193.376-52.37 4.103-78.261 11.183-6.272 1.716-10.62 7.425-10.62 13.928z" fill="url(#SVGID_14_)"/><path d="m278 112.976v71.362c0 6.823 8.249 10.24 13.073 5.415l24.866-24.866c7.213-7.213 18.908-7.213 26.121 0l24.866 24.866c4.824 4.824 13.073 1.407 13.073-5.415v-71.362z" fill="url(#SVGID_15_)"/></g></svg>