<svg id="Capa_1" enable-background="new 0 0 510 510" height="512" viewBox="0 0 510 510" width="512" xmlns="http://www.w3.org/2000/svg" xmlns:xlink="http://www.w3.org/1999/xlink"><linearGradient id="lg1"><stop offset="0" stop-color="#f7e07d"/><stop offset="1" stop-color="#e69642"/></linearGradient><linearGradient id="SVGID_1_" gradientUnits="userSpaceOnUse" x1="126.088" x2="338.018" xlink:href="#lg1" y1="70.912" y2="282.843"/><linearGradient id="SVGID_2_" gradientUnits="userSpaceOnUse" x1="210.602" x2="391.403" xlink:href="#lg1" y1="133.398" y2="314.199"/><linearGradient id="lg2"><stop offset="0" stop-color="#d52c1c" stop-opacity="0"/><stop offset=".28" stop-color="#d12c1e" stop-opacity=".28"/><stop offset=".5735" stop-color="#c42c23" stop-opacity=".574"/><stop offset=".8721" stop-color="#af2b2c" stop-opacity=".872"/><stop offset="1" stop-color="#a42b31"/></linearGradient><linearGradient id="SVGID_3_" gradientUnits="userSpaceOnUse" x1="401.107" x2="119.948" xlink:href="#lg2" y1="320.893" y2="39.734"/><linearGradient id="lg3"><stop offset="0" stop-color="#e38523"/><stop offset="1" stop-color="#c4237c"/></linearGradient><linearGradient id="SVGID_4_" gradientUnits="userSpaceOnUse" x1="209.883" x2="319.534" xlink:href="#lg3" y1="129.666" y2="239.317"/><linearGradient id="SVGID_5_" gradientUnits="userSpaceOnUse" x1="419.045" x2="527.54" xlink:href="#lg1" y1="155.662" y2="196.348"/><linearGradient id="SVGID_6_" gradientUnits="userSpaceOnUse" x1="-21.297" x2="87.199" xlink:href="#lg1" y1="155.662" y2="196.348"/><linearGradient id="SVGID_7_" gradientUnits="userSpaceOnUse" x1="392.556" x2="499.484" xlink:href="#lg1" y1="270.159" y2="310.257"/><linearGradient id="SVGID_8_" gradientUnits="userSpaceOnUse" x1="6.814" x2="113.742" xlink:href="#lg1" y1="41.774" y2="81.872"/><linearGradient id="SVGID_9_" gradientUnits="userSpaceOnUse" x1="22.309" x2="99.284" xlink:href="#lg1" y1="275.969" y2="304.835"/><linearGradient id="SVGID_10_" gradientUnits="userSpaceOnUse" x1="408.051" x2="485.026" xlink:href="#lg1" y1="47.585" y2="76.451"/><linearGradient id="SVGID_11_" gradientUnits="userSpaceOnUse" x1="340.609" x2="252.203" xlink:href="#lg2" y1="400.891" y2="312.485"/><linearGradient id="SVGID_12_" gradientUnits="userSpaceOnUse" x1="240.615" x2="267.065" xlink:href="#lg3" y1="300.886" y2="327.336"/><linearGradient id="SVGID_13_" gradientUnits="userSpaceOnUse" x1="255.004" x2="255.004" xlink:href="#lg2" y1="285" y2="366.514"/><linearGradient id="lg4"><stop offset="0" stop-color="#eef4ff"/><stop offset="1" stop-color="#cfe7fd"/></linearGradient><linearGradient id="SVGID_14_" gradientUnits="userSpaceOnUse" x1="255" x2="255" xlink:href="#lg4" y1="376" y2="410"/><linearGradient id="SVGID_15_" gradientUnits="userSpaceOnUse" x1="185.511" x2="312.88" y1="480.524" y2="480.524"><stop offset="0" stop-color="#5a5a5a"/><stop offset="1" stop-color="#464646"/></linearGradient><linearGradient id="SVGID_16_" gradientUnits="userSpaceOnUse" x1="255" x2="255" y1="501.5" y2="479.994"><stop offset="0" stop-color="#464646" stop-opacity="0"/><stop offset="1" stop-color="#202020"/></linearGradient><linearGradient id="SVGID_17_" gradientUnits="userSpaceOnUse" x1="255" x2="255" xlink:href="#lg4" y1="424" y2="464.05"/><linearGradient id="lg5"><stop offset="0" stop-color="#8aaadc" stop-opacity="0"/><stop offset="1" stop-color="#8aaadc"/></linearGradient><linearGradient id="SVGID_18_" gradientUnits="userSpaceOnUse" x1="255" x2="255" xlink:href="#lg5" y1="389" y2="424"/><linearGradient id="SVGID_19_" gradientUnits="userSpaceOnUse" x1="255" x2="255" xlink:href="#lg5" y1="445.292" y2="468.911"/><g><path d="m431.05 176.05c0-97.343-79.004-176.234-176.39-176.05-96.389.182-174.226 76.935-175.689 173.314-.937 61.707 29.88 116.276 77.167 148.426.188.128.301.34.301.568 9.33 5.822 15 16.043 15 27.041v39.662h167.122v-40.02c0-10.802 5.472-20.87 14.536-26.746l.464-.301c46.756-31.649 77.489-85.182 77.489-145.894z" fill="url(#SVGID_1_)"/><circle cx="255" cy="177.797" fill="url(#SVGID_2_)" r="119.244"/><path d="m421.746 232.61-110.782-110.782c-1.65-3.045-4.256-5.174-7.99-5.174h-93.946c-7.177 0-10.222 7.829-10.222 15.005 0 6.67 2.411 12.626 6.771 14.677l33.46 34.121v84.727c0 3.428 2.063 6.007 5.165 7.746l94.36 94.359v-18.299c0-10.802 5.471-20.87 14.536-26.746l.464-.301c31.515-21.332 55.733-52.617 68.184-89.333z" fill="url(#SVGID_3_)"/><path d="m301.974 115.655h-93.946c-7.177 0-10.222 7.829-10.222 15.005 0 8.264 3.697 15.44 10.222 15.44h30.01v118.085c0 6.959 8.481 10.438 16.963 10.438s16.963-3.479 16.963-10.438v-118.085h30.011c6.523 0 10.221-7.176 10.221-15.44-.002-7.177-3.047-15.005-10.222-15.005z" fill="url(#SVGID_4_)"/><g><path d="m493.875 160.585h-37.409c-8.905 0-16.125 7.219-16.125 16.125 0 8.905 7.219 16.125 16.125 16.125h37.409c8.905 0 16.125-7.219 16.125-16.125 0-8.906-7.219-16.125-16.125-16.125z" fill="url(#SVGID_5_)"/><path d="m69.659 176.71c0-8.905-7.219-16.125-16.125-16.125h-37.409c-8.906 0-16.125 7.219-16.125 16.125 0 8.905 7.219 16.125 16.125 16.125h37.409c8.905-.001 16.125-7.22 16.125-16.125z" fill="url(#SVGID_6_)"/><path d="m446.047 266.274c-6.297-6.297-16.507-6.297-22.804 0-6.297 6.297-6.297 16.507 0 22.804l26.452 26.452c6.297 6.297 16.507 6.297 22.804 0 6.297-6.297 6.297-16.507 0-22.804z" fill="url(#SVGID_7_)"/><path d="m60.305 37.89c-6.297-6.297-16.507-6.297-22.804 0-6.297 6.297-6.297 16.507 0 22.804l26.452 26.452c6.297 6.297 16.507 6.297 22.804 0 6.297-6.297 6.297-16.507 0-22.804z" fill="url(#SVGID_8_)"/><path d="m86.757 266.274c-6.297-6.297-16.507-6.297-22.804 0l-26.452 26.452c-6.297 6.297-6.297 16.507 0 22.804 6.297 6.297 16.507 6.297 22.804 0l26.452-26.452c6.297-6.298 6.297-16.507 0-22.804z" fill="url(#SVGID_9_)"/><path d="m423.243 87.146c6.297 6.297 16.507 6.297 22.804 0l26.452-26.452c6.297-6.297 6.297-16.507 0-22.804-6.297-6.297-16.507-6.297-22.804 0l-26.452 26.452c-6.297 6.297-6.297 16.507 0 22.804z" fill="url(#SVGID_10_)"/></g><path d="m338.561 358.143-60.973-60.973c-5.3-6.24-13.2-10.21-22.03-10.21-15.95 0-28.88 12.93-28.88 28.88 0 1.04.05 2.07.16 3.08.8 7.57 4.54 14.27 10.05 18.95l51.14 51.14h50.533z" fill="url(#SVGID_11_)"/><circle cx="254.998" cy="315.27" fill="url(#SVGID_12_)" r="28.882"/><path d="m90.94 240c13.032 33.407 35.96 61.861 65.198 81.74.188.128.301.34.301.567 9.33 5.822 15 16.043 15 27.041v39.662h167.122v-40.02c0-10.802 5.471-20.87 14.536-26.746l.464-.301c29.381-19.888 52.428-48.421 65.505-81.944h-328.126z" fill="url(#SVGID_13_)"/><path d="m328.75 359.649h-147.5c-15.418 0-27.916 12.499-27.916 27.916 0 15.418 12.499 27.916 27.916 27.916h147.5c15.418 0 27.916-12.499 27.916-27.916.001-15.417-12.498-27.916-27.916-27.916z" fill="url(#SVGID_14_)"/><path d="m173.333 451.047c14.592 34.873 45.676 58.953 81.667 58.953s67.074-24.08 81.667-58.953z" fill="url(#SVGID_15_)"/><path d="m173.333 451.047c14.592 34.873 45.676 58.953 81.667 58.953s67.074-24.08 81.667-58.953z" fill="url(#SVGID_16_)"/><path d="m328.75 415.482h-147.5c-15.418 0-27.916 12.499-27.916 27.916 0 15.418 12.499 27.916 27.916 27.916h147.5c15.418 0 27.916-12.499 27.916-27.916.001-15.418-12.498-27.916-27.916-27.916z" fill="url(#SVGID_17_)"/><path d="m328.75 359.649h-147.5c-15.418 0-27.916 12.499-27.916 27.916 0 15.418 12.499 27.916 27.916 27.916h147.5c15.418 0 27.916-12.499 27.916-27.916.001-15.417-12.498-27.916-27.916-27.916z" fill="url(#SVGID_18_)"/><path d="m328.75 415.482-73.447-2.717-74.054 2.717c-15.418 0-27.916 12.499-27.916 27.916 0 15.418 12.499 27.916 27.916 27.916h147.501c15.418 0 27.916-12.499 27.916-27.916.001-15.418-12.498-27.916-27.916-27.916z" fill="url(#SVGID_19_)"/></g></svg>