<svg id="Capa_1" enable-background="new 0 0 510 510" height="512" viewBox="0 0 510 510" width="512" xmlns="http://www.w3.org/2000/svg" xmlns:xlink="http://www.w3.org/1999/xlink"><linearGradient id="lg1"><stop offset="0" stop-color="#5a5a5a"/><stop offset="1" stop-color="#464646"/></linearGradient><linearGradient id="SVGID_1_" gradientUnits="userSpaceOnUse" x1="83.59" x2="324.609" xlink:href="#lg1" y1="82.408" y2="323.427"/><linearGradient id="lg2"><stop offset="0" stop-color="#464646" stop-opacity="0"/><stop offset="1" stop-color="#202020"/></linearGradient><linearGradient id="SVGID_2_" gradientUnits="userSpaceOnUse" x1="254.998" x2="254.998" xlink:href="#lg2" y1="411" y2="505.191"/><linearGradient id="SVGID_3_" gradientUnits="userSpaceOnUse" x1="280.955" x2="71.055" y1="150.043" y2="-59.857"><stop offset="0" stop-color="#202020" stop-opacity="0"/><stop offset="1" stop-color="#202020"/></linearGradient><linearGradient id="SVGID_4_" gradientUnits="userSpaceOnUse" x1="177.346" x2="227.354" y1="46.347" y2="96.356"><stop offset="0" stop-color="#dc4955"/><stop offset="1" stop-color="#c4237c"/></linearGradient><linearGradient id="lg3"><stop offset="0" stop-color="#eef4ff"/><stop offset="1" stop-color="#cfe7fd"/></linearGradient><linearGradient id="SVGID_5_" gradientUnits="userSpaceOnUse" x1="189.536" x2="204.096" xlink:href="#lg3" y1="47.467" y2="62.026"/><linearGradient id="SVGID_6_" gradientUnits="userSpaceOnUse" x1="183.078" x2="210.552" xlink:href="#lg3" y1="52.001" y2="79.475"/><linearGradient id="SVGID_7_" gradientUnits="userSpaceOnUse" x1="196.816" x2="196.816" y1="70.5" y2="101.536"><stop offset="0" stop-color="#8a1958" stop-opacity="0"/><stop offset="1" stop-color="#8a1958"/></linearGradient><linearGradient id="SVGID_8_" gradientUnits="userSpaceOnUse" x1="236.858" x2="160.588" xlink:href="#lg2" y1="232.641" y2="156.371"/><linearGradient id="SVGID_9_" gradientUnits="userSpaceOnUse" x1="306.108" x2="240.515" xlink:href="#lg2" y1="229.39" y2="163.797"/><linearGradient id="SVGID_10_" gradientUnits="userSpaceOnUse" x1="383.608" x2="301.107" xlink:href="#lg2" y1="234.39" y2="151.889"/><linearGradient id="SVGID_11_" gradientUnits="userSpaceOnUse" x1="165.953" x2="190.782" xlink:href="#lg3" y1="162.224" y2="187.053"/><linearGradient id="lg4"><stop offset="0" stop-color="#8aaadc" stop-opacity="0"/><stop offset="1" stop-color="#8aaadc"/></linearGradient><linearGradient id="SVGID_12_" gradientUnits="userSpaceOnUse" x1="181.998" x2="181.998" xlink:href="#lg4" y1="174.039" y2="201.334"/><linearGradient id="SVGID_13_" gradientUnits="userSpaceOnUse" x1="238.953" x2="263.782" xlink:href="#lg3" y1="162.224" y2="187.053"/><linearGradient id="SVGID_14_" gradientUnits="userSpaceOnUse" x1="254.998" x2="254.998" xlink:href="#lg4" y1="174.039" y2="201.334"/><linearGradient id="SVGID_15_" gradientUnits="userSpaceOnUse" x1="311.953" x2="336.782" xlink:href="#lg3" y1="162.224" y2="187.053"/><linearGradient id="SVGID_16_" gradientUnits="userSpaceOnUse" x1="327.998" x2="327.998" xlink:href="#lg4" y1="174.039" y2="201.334"/><linearGradient id="SVGID_17_" gradientUnits="userSpaceOnUse" x1="232.447" x2="160.71" xlink:href="#lg2" y1="308.899" y2="237.162"/><linearGradient id="SVGID_18_" gradientUnits="userSpaceOnUse" x1="300.823" x2="167.113" xlink:href="#lg2" y1="455.175" y2="321.465"/><linearGradient id="SVGID_19_" gradientUnits="userSpaceOnUse" x1="306.514" x2="240.546" xlink:href="#lg2" y1="310.466" y2="244.497"/><linearGradient id="SVGID_20_" gradientUnits="userSpaceOnUse" x1="384.387" x2="301.04" xlink:href="#lg2" y1="315.839" y2="232.492"/><linearGradient id="SVGID_21_" gradientUnits="userSpaceOnUse" x1="165.953" x2="190.782" xlink:href="#lg3" y1="242.89" y2="267.72"/><linearGradient id="SVGID_22_" gradientUnits="userSpaceOnUse" x1="181.998" x2="181.998" xlink:href="#lg4" y1="254.706" y2="282.001"/><linearGradient id="SVGID_23_" gradientUnits="userSpaceOnUse" x1="238.953" x2="263.782" xlink:href="#lg3" y1="242.89" y2="267.72"/><linearGradient id="SVGID_24_" gradientUnits="userSpaceOnUse" x1="254.998" x2="254.998" xlink:href="#lg4" y1="254.706" y2="282.001"/><linearGradient id="SVGID_25_" gradientUnits="userSpaceOnUse" x1="311.953" x2="336.782" xlink:href="#lg3" y1="242.89" y2="267.72"/><linearGradient id="SVGID_26_" gradientUnits="userSpaceOnUse" x1="327.998" x2="327.998" xlink:href="#lg4" y1="254.706" y2="282.001"/><linearGradient id="SVGID_27_" gradientUnits="userSpaceOnUse" x1="412.082" x2="315.903" xlink:href="#lg2" y1="456.25" y2="360.072"/><linearGradient id="SVGID_28_" gradientUnits="userSpaceOnUse" x1="295.563" x2="332.722" xlink:href="#lg3" y1="340.147" y2="377.307"/><linearGradient id="SVGID_29_" gradientUnits="userSpaceOnUse" x1="323.024" x2="330.645" xlink:href="#lg4" y1="367.919" y2="381.988"/><linearGradient id="SVGID_30_" gradientUnits="userSpaceOnUse" x1="185.396" x2="222.555" xlink:href="#lg3" y1="340.147" y2="377.307"/><linearGradient id="SVGID_31_" gradientTransform="matrix(-1 0 0 1 650 0)" gradientUnits="userSpaceOnUse" x1="463.027" x2="470.648" xlink:href="#lg4" y1="367.919" y2="381.988"/><linearGradient id="SVGID_32_" gradientUnits="userSpaceOnUse" x1="303.332" x2="303.332" xlink:href="#lg1" y1="84.151" y2="47.43"/><g><g><path d="m376.016 54.685c-1.477-30.619-26.733-54.685-57.387-54.685h-127.26c-30.655 0-55.91 24.066-57.388 54.685l-4.459 386.322c0 38.104 30.889 68.993 68.993 68.993h112.968c38.104 0 68.993-30.889 68.993-68.993z" fill="url(#SVGID_1_)"/><path d="m129.522 441.007c0 38.104 30.889 68.993 68.993 68.993h112.968c38.104 0 68.993-30.889 68.993-68.993l-.947-82.007h-249.061z" fill="url(#SVGID_2_)"/></g><path d="m377.664 197.451-153.245-153.245c-6.429-7.96-16.258-13.06-27.287-13.06-19.371 0-35.075 15.703-35.075 35.075 0 11.029 5.101 20.857 13.06 27.287l203.697 203.697z" fill="url(#SVGID_3_)"/><g><circle cx="196.816" cy="65.818" fill="url(#SVGID_4_)" r="35.228"/><g><path d="m196.816 67.028c-3.038 0-5.5-2.462-5.5-5.5v-13.563c0-3.038 2.462-5.5 5.5-5.5 3.038 0 5.5 2.462 5.5 5.5v13.563c0 3.037-2.462 5.5-5.5 5.5z" fill="url(#SVGID_5_)"/><path d="m204.796 52.667v8.597c0 1.033.15 2.056.33 3.074.242 1.368.151 2.828-.442 4.318-1.288 3.24-4.403 5.524-7.889 5.514-4.643-.014-8.415-3.79-8.415-8.43 0-.496.046-.985.133-1.462.182-.999.322-2.005.322-3.021v-8.595c0-2.169-2.522-3.419-4.209-2.056-5.592 4.517-8.502 12.002-6.727 19.612 1.819 7.801 8.432 13.774 16.378 14.789 11.843 1.512 21.973-7.716 21.973-19.267 0-5.951-2.717-11.466-7.2-15.098-1.704-1.381-4.254-.17-4.254 2.025z" fill="url(#SVGID_6_)"/></g><path d="m161.589 65.818c0 19.456 15.772 35.228 35.228 35.228s35.228-15.772 35.228-35.228c0-.274-.014-.545-.021-.818h-70.414c-.007.273-.021.543-.021.818z" fill="url(#SVGID_7_)"/></g><path d="m380.198 416.68-215.81-215.81c-6.25-5.3-10.21-13.2-10.21-22.03 0-15.95 12.93-28.88 28.88-28.88 8.83 0 16.73 3.97 22.03 10.21l174.16 174.16.1 9z" fill="url(#SVGID_8_)"/><path d="m379.348 343.33-142.46-142.46c-5.51-4.68-9.25-11.38-10.05-18.95-.11-1.01-.16-2.04-.16-3.08 0-15.95 12.93-28.88 28.88-28.88 8.83 0 16.73 3.97 22.03 10.21l100.81 100.81.11 9.01.74 64.34z" fill="url(#SVGID_9_)"/><path d="m378.508 269.99-69.12-69.12c-5.51-4.68-9.25-11.38-10.05-18.95-.11-1.01-.16-2.04-.16-3.08 0-15.95 12.93-28.88 28.88-28.88 8.83 0 16.73 3.97 22.03 10.21l27.46 27.46.85 73.35z" fill="url(#SVGID_10_)"/><g><g><circle cx="181.998" cy="178.269" fill="url(#SVGID_11_)" r="28.882"/><circle cx="181.998" cy="178.269" fill="url(#SVGID_12_)" r="28.882"/></g><g><circle cx="254.998" cy="178.269" fill="url(#SVGID_13_)" r="28.882"/><circle cx="254.998" cy="178.269" fill="url(#SVGID_14_)" r="28.882"/></g><g><circle cx="327.998" cy="178.269" fill="url(#SVGID_15_)" r="28.882"/><circle cx="327.998" cy="178.269" fill="url(#SVGID_16_)" r="28.882"/></g></g><path d="m380.478 441.01c0 15.9-5.38 30.54-14.42 42.2l-201.67-201.67c-6.25-5.3-10.21-13.2-10.21-22.03 0-15.95 12.93-28.88 28.88-28.88 8.83 0 16.73 3.97 22.03 10.21l21.75 21.75 153.35 153.34.1 9.01z" fill="url(#SVGID_17_)"/><path d="m374.059 470.061-153.394-153.394-63.762 52.938 140.395 140.395h14.184c27.721 0 51.609-16.357 62.577-39.939z" fill="url(#SVGID_18_)"/><path d="m380.288 424.94-143.4-143.4c-5.51-4.68-9.25-11.38-10.05-18.95-.11-1.01-.16-2.04-.16-3.08 0-15.95 12.93-28.88 28.88-28.88 8.83 0 16.73 3.97 22.03 10.21l101.75 101.75.11 9 .74 64.34z" fill="url(#SVGID_19_)"/><path d="m379.448 351.59-70.06-70.05c-5.51-4.68-9.25-11.38-10.05-18.95-.11-1.01-.16-2.04-.16-3.08 0-15.95 12.93-28.88 28.88-28.88 8.83 0 16.73 3.97 22.03 10.21l28.41 28.4.84 73.35z" fill="url(#SVGID_20_)"/><g><g><circle cx="181.998" cy="258.936" fill="url(#SVGID_21_)" r="28.882"/><circle cx="181.998" cy="258.936" fill="url(#SVGID_22_)" r="28.882"/></g><g><circle cx="254.998" cy="258.936" fill="url(#SVGID_23_)" r="28.882"/><circle cx="254.998" cy="258.936" fill="url(#SVGID_24_)" r="28.882"/></g><g><circle cx="327.998" cy="258.936" fill="url(#SVGID_25_)" r="28.882"/><circle cx="327.998" cy="258.936" fill="url(#SVGID_26_)" r="28.882"/></g></g><path d="m291.332 394 80.479 80.479c5.513-9.915 8.664-21.323 8.664-33.472l-.874-75.738-22.936-22.936z" fill="url(#SVGID_27_)"/><g><g><path d="m353.094 339.728-43.608-25.177c-11.5-6.639-25.874 1.66-25.874 14.938v50.354c0 13.278 14.374 21.577 25.874 14.938l43.608-25.177c11.499-6.638 11.499-23.236 0-29.876z" fill="url(#SVGID_28_)"/><path d="m353.094 339.728-43.608-25.177c-11.5-6.639-25.874 1.66-25.874 14.938v50.354c0 13.278 14.374 21.577 25.874 14.938l43.608-25.177c11.499-6.638 11.499-23.236 0-29.876z" fill="url(#SVGID_29_)"/></g><g><path d="m200.511 314.551-43.608 25.177c-11.5 6.639-11.5 23.237 0 29.877l43.608 25.177c11.5 6.639 25.874-1.66 25.874-14.938v-50.354c0-13.279-14.374-21.578-25.874-14.939z" fill="url(#SVGID_30_)"/><path d="m156.903 339.728 43.608-25.177c11.499-6.639 25.874 1.66 25.874 14.938v50.354c0 13.278-14.374 21.577-25.874 14.938l-43.608-25.177c-11.5-6.638-11.5-23.236 0-29.876z" fill="url(#SVGID_31_)"/></g></g><path d="m333.114 84.818h-59.565c-7.852 0-14.217-6.365-14.217-14.217v-9.565c0-7.852 6.365-14.217 14.217-14.217h59.565c7.852 0 14.217 6.365 14.217 14.217v9.564c.001 7.852-6.365 14.218-14.217 14.218z" fill="url(#SVGID_32_)"/></g></svg>