<svg id="Capa_1" enable-background="new 0 0 510 510" height="512" viewBox="0 0 510 510" width="512" xmlns="http://www.w3.org/2000/svg" xmlns:xlink="http://www.w3.org/1999/xlink"><linearGradient id="SVGID_1_" gradientUnits="userSpaceOnUse" x1="196.891" x2="322.778" y1="157.15" y2="464.698"><stop offset="0" stop-color="#dc4955"/><stop offset="1" stop-color="#c4237c"/></linearGradient><linearGradient id="lg1"><stop offset="0" stop-color="#8a1958" stop-opacity="0"/><stop offset="1" stop-color="#8a1958"/></linearGradient><linearGradient id="SVGID_2_" gradientUnits="userSpaceOnUse" x1="254.991" x2="254.991" xlink:href="#lg1" y1="390" y2="486.021"/><linearGradient id="SVGID_3_" gradientUnits="userSpaceOnUse" x1="362.5" x2="233.655" xlink:href="#lg1" y1="424.25" y2="424.25"/><linearGradient id="SVGID_4_" gradientUnits="userSpaceOnUse" x1="421.311" x2="240.644" xlink:href="#lg1" y1="345.855" y2="178.521"/><linearGradient id="SVGID_5_" gradientUnits="userSpaceOnUse" x1="479.312" x2="144.571" xlink:href="#lg1" y1="458.688" y2="123.947"/><linearGradient id="lg2"><stop offset="0" stop-color="#eef4ff"/><stop offset="1" stop-color="#cfe7fd"/></linearGradient><linearGradient id="SVGID_6_" gradientUnits="userSpaceOnUse" x1="102.456" x2="379.521" xlink:href="#lg2" y1="157.991" y2="157.991"/><linearGradient id="lg3"><stop offset="0" stop-color="#8aaadc" stop-opacity="0"/><stop offset="1" stop-color="#8aaadc"/></linearGradient><linearGradient id="SVGID_7_" gradientUnits="userSpaceOnUse" x1="182.505" x2="330.802" xlink:href="#lg3" y1="85.495" y2="233.792"/><linearGradient id="SVGID_8_" gradientUnits="userSpaceOnUse" x1="255" x2="255" xlink:href="#lg3" y1="109.333" y2="84.586"/><linearGradient id="SVGID_9_" gradientUnits="userSpaceOnUse" x1="255" x2="255" xlink:href="#lg3" y1="163" y2="136.413"/><linearGradient id="SVGID_10_" gradientUnits="userSpaceOnUse" x1="255" x2="255" xlink:href="#lg3" y1="219.667" y2="201.321"/><linearGradient id="SVGID_11_" gradientUnits="userSpaceOnUse" x1="164.005" x2="322.512" xlink:href="#lg2" y1="66.995" y2="225.502"/><linearGradient id="SVGID_12_" gradientTransform="matrix(1 0 0 -1 0 49.34)" gradientUnits="userSpaceOnUse" x1="246.667" x2="206.978" xlink:href="#lg3" y1="-241.971" y2="-241.971"/><linearGradient id="SVGID_13_" gradientTransform="matrix(1 0 0 -1 0 49.34)" gradientUnits="userSpaceOnUse" x1="304.667" x2="259.665" xlink:href="#lg3" y1="-241.971" y2="-241.971"/><linearGradient id="SVGID_14_" gradientUnits="userSpaceOnUse" x1="255" x2="255" xlink:href="#lg3" y1="245" y2="298.038"/><linearGradient id="SVGID_15_" gradientUnits="userSpaceOnUse" x1="277.512" x2="238.951" xlink:href="#lg2" y1="157.991" y2="157.991"/><linearGradient id="SVGID_16_" gradientUnits="userSpaceOnUse" x1="199.5" x2="333.56" xlink:href="#lg2" y1="410.5" y2="410.5"/><linearGradient id="SVGID_17_" gradientUnits="userSpaceOnUse" x1="255" x2="255" xlink:href="#lg3" y1="427.038" y2="387.839"/><linearGradient id="SVGID_18_" gradientUnits="userSpaceOnUse" x1="237.5" x2="285.066" xlink:href="#lg3" y1="410.5" y2="410.5"/><linearGradient id="SVGID_19_" gradientUnits="userSpaceOnUse" x1="222.044" x2="311.619" xlink:href="#lg2" y1="359.75" y2="359.75"/><linearGradient id="SVGID_20_" gradientUnits="userSpaceOnUse" x1="255" x2="255" xlink:href="#lg3" y1="369.5" y2="343.495"/><linearGradient id="SVGID_21_" gradientUnits="userSpaceOnUse" x1="116" x2="116" xlink:href="#lg2" y1="205.203" y2="237.547"/><linearGradient id="SVGID_22_" gradientTransform="matrix(-1 0 0 1 796.371 0)" gradientUnits="userSpaceOnUse" x1="402.371" x2="402.371" xlink:href="#lg2" y1="205.203" y2="237.547"/><linearGradient id="SVGID_23_" gradientUnits="userSpaceOnUse" x1="255" x2="255" xlink:href="#lg2" y1="177.5" y2="349.539"/><linearGradient id="SVGID_24_" gradientUnits="userSpaceOnUse" x1="246.667" x2="206.978" xlink:href="#lg2" y1="24.67" y2="24.67"/><linearGradient id="SVGID_25_" gradientUnits="userSpaceOnUse" x1="304.667" x2="259.665" xlink:href="#lg2" y1="24.67" y2="24.67"/><linearGradient id="SVGID_26_" gradientUnits="userSpaceOnUse" x1="246.667" x2="206.978" xlink:href="#lg3" y1="24.67" y2="24.67"/><linearGradient id="SVGID_27_" gradientUnits="userSpaceOnUse" x1="304.667" x2="259.665" xlink:href="#lg3" y1="24.67" y2="24.67"/><g><g><path d="m302.168 115.157h-94.336c-101.595 0-183.955 82.359-183.955 183.955v.001c0 101.595 82.359 183.954 183.954 183.954h94.336c10.698 0 21.165-.965 31.363-2.717l55.551 27.594c13.811 6.86 29.707-4.394 27.825-19.699l-5.094-41.425c45.09-33.526 74.31-87.201 74.31-147.707.001-101.596-82.359-183.956-183.954-183.956z" fill="url(#SVGID_1_)"/><path d="m473.558 366.005h-437.134c26.76 68.519 93.412 117.062 171.407 117.062h94.336c10.698 0 21.165-.965 31.363-2.718l55.551 27.594c13.811 6.86 29.707-4.394 27.825-19.699l-5.094-41.425c27.502-20.448 49.081-48.399 61.746-80.814z" fill="url(#SVGID_2_)"/><path d="m481.885 338.5h-245.385v98.5l46.067 46.067h19.601c10.698 0 21.165-.965 31.363-2.717l55.551 27.594c13.81 6.86 29.707-4.394 27.825-19.699l-5.094-41.425c35.014-26.035 60.448-64.222 70.072-108.32z" fill="url(#SVGID_3_)"/></g><path d="m411.81 446.82 5.1 41.42c.92 7.47-2.4 13.97-7.64 17.87-3.61 2.7-8.13 4.15-12.81 3.85l-214.96-214.96v-177.97c6.04-.86 12.17-1.44 18.39-1.7 2.63-.11 5.28-.17 7.94-.17h94.34c50.79 0 96.78 20.59 130.07 53.88s53.88 79.28 53.88 130.07c0 60.51-29.22 114.18-74.31 147.71z" fill="url(#SVGID_4_)"/><path d="m383.925 180.58c-1.346-1.288-3.172-2.08-5.183-2.08-4.143 0-7.5 3.357-7.5 7.5v57.664c0 46.259-34.366 84.635-78.907 90.956 0 0-152.314-152.13-153.136-153.196-1.371-1.778-3.522-2.923-5.941-2.923-4.142 0-7.5 3.357-7.5 7.5v57.664c0 31.154 13.402 59.234 34.74 78.787l159.701 159.701c4.491-.448 8.938-1.047 13.332-1.803l55.551 27.594c13.811 6.86 29.707-4.394 27.825-19.699l-5.094-41.425c45.09-33.526 74.31-87.2 74.31-147.707 0-5.127-.22-10.202-.631-15.223-39.803-40.51-100.73-102.509-101.567-103.31z" fill="url(#SVGID_5_)"/><g><g><path d="m165.021 65.284h179.958v185.414h-179.958z" fill="url(#SVGID_6_)"/><path d="m165.021 65.284h179.958v185.414h-179.958z" fill="url(#SVGID_7_)"/><g><path d="m165.02 81.39h179.96v27.61h-179.96z" fill="url(#SVGID_8_)"/></g><path d="m165.02 135.89h179.96v27.61h-179.96z" fill="url(#SVGID_9_)"/><path d="m165.02 193.39h179.96v27.61h-179.96z" fill="url(#SVGID_10_)"/><path d="m309.286 229.453c-8.665 0-15.654-7.179-15.343-15.913.296-8.32 7.386-14.793 15.711-14.793h33.876c5.078 0 9.194-4.116 9.194-9.194v-7.014c0-5.078-4.116-9.194-9.194-9.194h-34.244c-8.48 0-15.353-6.874-15.353-15.353 0-8.479 6.874-15.353 15.353-15.353h34.244c5.078 0 9.194-4.116 9.194-9.194v-7.014c0-5.078-4.116-9.194-9.194-9.194h-34.244c-8.48 0-15.353-6.874-15.353-15.353 0-8.48 6.874-15.353 15.353-15.353h34.244c5.078 0 9.194-4.116 9.194-9.194.001-42.714-34.623-77.337-77.333-77.337h-40.783c-42.71 0-77.333 34.623-77.333 77.333 0 5.078 4.116 9.194 9.194 9.194h34.244c8.479 0 15.353 6.874 15.353 15.353 0 8.479-6.874 15.353-15.353 15.353h-34.244c-5.078 0-9.194 4.116-9.194 9.194v7.014c0 5.078 4.116 9.194 9.194 9.194h34.244c8.479 0 15.353 6.874 15.353 15.353 0 8.479-6.874 15.353-15.353 15.353h-34.244c-5.078 0-9.194 4.116-9.194 9.194v7.014c0 5.078 4.116 9.194 9.194 9.194h33.876c8.325 0 15.416 6.474 15.711 14.793.311 8.735-6.678 15.913-15.343 15.913h-34.244c-5.078 0-9.194 4.116-9.194 9.194 0 42.71 34.623 77.333 77.333 77.333h40.783c42.71 0 77.333-34.623 77.333-77.333 0-5.078-4.116-9.194-9.194-9.194h-34.244z" fill="url(#SVGID_11_)"/></g><g><path d="m234.61 315.981c-8.6 0-16.87-1.41-24.6-4v-26.69c0-5.15 2.09-9.81 5.46-13.19 3.38-3.37 8.05-5.46 13.2-5.46 10.3 0 18.66 8.35 18.66 18.65v30.69z" fill="url(#SVGID_12_)"/><path d="m275.39 315.981h-12.72v-30.69c0-5.15 2.09-9.81 5.47-13.19 3.38-3.37 8.04-5.46 13.19-5.46 10.31 0 18.66 8.35 18.66 18.65v26.69c-7.73 2.59-16 4-24.6 4z" fill="url(#SVGID_13_)"/></g><path d="m200.713 229.453h-34.244c-5.078 0-9.194 4.116-9.194 9.194 0 42.71 34.623 77.333 77.333 77.333h40.783c42.71 0 77.333-34.623 77.333-77.333 0-5.078-4.116-9.194-9.194-9.194h-34.244c-4.213 0-8.021-1.706-10.795-4.453h-86.983c-2.774 2.747-6.582 4.453-10.795 4.453z" fill="url(#SVGID_14_)"/></g><path d="m237.498 233.773v-151.565c0-9.666 7.836-17.502 17.502-17.502 9.666 0 17.502 7.836 17.502 17.502v151.565c0 9.666-7.836 17.502-17.502 17.502-9.666 0-17.502-7.836-17.502-17.502z" fill="url(#SVGID_15_)"/><g><path d="m283.144 415.856v-38.856h-56.288v38.856c0 15.544 12.601 28.144 28.144 28.144 15.543 0 28.144-12.6 28.144-28.144z" fill="url(#SVGID_16_)"/><path d="m283.144 415.856v-38.856h-56.288v38.856c0 15.544 12.601 28.144 28.144 28.144 15.543 0 28.144-12.6 28.144-28.144z" fill="url(#SVGID_17_)"/><path d="m283.144 415.856v-38.856h-56.288v38.856c0 15.544 12.601 28.144 28.144 28.144 15.543 0 28.144-12.6 28.144-28.144z" fill="url(#SVGID_18_)"/></g><path d="m283.979 381h-57.957c-13.267 0-24.022-10.755-24.022-24.021v-18.479h106v18.479c0 13.266-10.755 24.021-24.021 24.021z" fill="url(#SVGID_19_)"/><path d="m283.979 381h-57.957c-13.267 0-24.022-10.755-24.022-24.021v-18.479h106v18.479c0 13.266-10.755 24.021-24.021 24.021z" fill="url(#SVGID_20_)"/><g><path d="m136.814 247.972h-20.824c-11.49 0-20.804-9.314-20.804-20.804v-6.863c0-11.49 9.314-20.804 20.804-20.804h20.824z" fill="url(#SVGID_21_)"/><path d="m373.186 247.972h20.824c11.49 0 20.804-9.314 20.804-20.804v-6.863c0-11.49-9.314-20.804-20.804-20.804h-20.824z" fill="url(#SVGID_22_)"/></g><path d="m278.367 349.539h-46.734c-58.931 0-106.875-47.944-106.875-106.875v-57.664c0-4.143 3.358-7.5 7.5-7.5s7.5 3.357 7.5 7.5v57.664c0 50.66 41.215 91.875 91.875 91.875h46.734c50.66 0 91.875-41.215 91.875-91.875v-57.664c0-4.143 3.357-7.5 7.5-7.5s7.5 3.357 7.5 7.5v57.664c0 58.931-47.944 106.875-106.875 106.875z" fill="url(#SVGID_23_)"/><g><path d="m234.61 0c-8.6 0-16.87 1.41-24.6 4v26.69c0 5.15 2.09 9.81 5.46 13.19 3.38 3.37 8.05 5.46 13.2 5.46 10.3 0 18.66-8.35 18.66-18.65v-30.69z" fill="url(#SVGID_24_)"/><path d="m275.39 0h-12.72v30.69c0 5.15 2.09 9.81 5.47 13.19 3.38 3.37 8.04 5.46 13.19 5.46 10.31 0 18.66-8.35 18.66-18.65v-26.69c-7.73-2.59-16-4-24.6-4z" fill="url(#SVGID_25_)"/></g><g><path d="m234.61 0c-8.6 0-16.87 1.41-24.6 4v26.69c0 5.15 2.09 9.81 5.46 13.19 3.38 3.37 8.05 5.46 13.2 5.46 10.3 0 18.66-8.35 18.66-18.65v-30.69z" fill="url(#SVGID_26_)"/><path d="m275.39 0h-12.72v30.69c0 5.15 2.09 9.81 5.47 13.19 3.38 3.37 8.04 5.46 13.19 5.46 10.31 0 18.66-8.35 18.66-18.65v-26.69c-7.73-2.59-16-4-24.6-4z" fill="url(#SVGID_27_)"/></g></g></svg>