<svg id="Capa_1" enable-background="new 0 0 510 510" height="512" viewBox="0 0 510 510" width="512" xmlns="http://www.w3.org/2000/svg" xmlns:xlink="http://www.w3.org/1999/xlink"><linearGradient id="lg1"><stop offset="0" stop-color="#5a5a5a"/><stop offset="1" stop-color="#464646"/></linearGradient><linearGradient id="SVGID_1_" gradientUnits="userSpaceOnUse" x1="423" x2="423" xlink:href="#lg1" y1="99" y2="151.039"/><linearGradient id="SVGID_2_" gradientTransform="matrix(-1 0 0 1 68 0)" gradientUnits="userSpaceOnUse" x1="-19" x2="-19" xlink:href="#lg1" y1="86.363" y2="113.108"/><linearGradient id="SVGID_3_" gradientTransform="matrix(-1 0 0 1 68 0)" gradientUnits="userSpaceOnUse" x1="-19" x2="-19" xlink:href="#lg1" y1="148.363" y2="175.108"/><linearGradient id="SVGID_4_" gradientTransform="matrix(0 1 1 0 39.188 -39.188)" gradientUnits="userSpaceOnUse" x1="115.827" x2="351.253" xlink:href="#lg1" y1="37.452" y2="272.878"/><linearGradient id="SVGID_5_" gradientTransform="matrix(0 1 1 0 39.188 -39.188)" gradientUnits="userSpaceOnUse" x1="280.188" x2="280.188" xlink:href="#lg1" y1="397.626" y2="44.307"/><linearGradient id="lg2"><stop offset="0" stop-color="#bce097"/><stop offset="1" stop-color="#7dc03a"/></linearGradient><linearGradient id="SVGID_6_" gradientUnits="userSpaceOnUse" x1="106.09" x2="427.972" xlink:href="#lg2" y1="92.09" y2="413.972"/><linearGradient id="lg3"><stop offset="0" stop-color="#8cc951" stop-opacity="0"/><stop offset="1" stop-color="#3e6e66"/></linearGradient><linearGradient id="SVGID_7_" gradientUnits="userSpaceOnUse" x1="255" x2="255" xlink:href="#lg3" y1="360.667" y2="171.479"/><linearGradient id="SVGID_8_" gradientUnits="userSpaceOnUse" x1="334.667" x2="196.351" xlink:href="#lg3" y1="241" y2="241"/><linearGradient id="SVGID_9_" gradientUnits="userSpaceOnUse" x1="255" x2="255" xlink:href="#lg1" y1="487.5" y2="463.479"/><linearGradient id="SVGID_10_" gradientUnits="userSpaceOnUse" x1="255" x2="255" y1="428" y2="512.38"><stop offset="0" stop-color="#464646" stop-opacity="0"/><stop offset="1" stop-color="#202020"/></linearGradient><linearGradient id="SVGID_11_" gradientUnits="userSpaceOnUse" x1="59" x2="331.392" xlink:href="#lg2" y1="45" y2="317.392"/><linearGradient id="SVGID_12_" gradientUnits="userSpaceOnUse" x1="353.394" x2="313.328" y1="220.626" y2="163.176"><stop offset="0" stop-color="#e69642" stop-opacity="0"/><stop offset="1" stop-color="#f7e07d"/></linearGradient><linearGradient id="SVGID_13_" gradientUnits="userSpaceOnUse" x1="206.333" x2="274.804" xlink:href="#lg2" y1="192.333" y2="260.804"/><linearGradient id="SVGID_14_" gradientUnits="userSpaceOnUse" x1="206.333" x2="274.804" xlink:href="#lg3" y1="192.333" y2="260.804"/><linearGradient id="lg4"><stop offset="0" stop-color="#f7e07d"/><stop offset="1" stop-color="#e69642"/></linearGradient><linearGradient id="SVGID_15_" gradientUnits="userSpaceOnUse" x1="171.828" x2="188.143" xlink:href="#lg4" y1="114.495" y2="130.81"/><linearGradient id="SVGID_16_" gradientUnits="userSpaceOnUse" x1="329.352" x2="345.666" xlink:href="#lg4" y1="235.742" y2="252.057"/><linearGradient id="SVGID_17_" gradientUnits="userSpaceOnUse" x1="149.542" x2="165.857" xlink:href="#lg4" y1="283.094" y2="299.409"/><linearGradient id="SVGID_18_" gradientUnits="userSpaceOnUse" x1="255" x2="255" xlink:href="#lg3" y1="376.667" y2="431.398"/><g><g><path d="m443.605 173h-54.605v-100h54.605c7.398 0 13.395 5.997 13.395 13.395v73.211c0 7.397-5.997 13.394-13.395 13.394z" fill="url(#SVGID_1_)"/><g><path d="m66.395 124.395h54.605v-51.395h-54.605c-7.398 0-13.395 5.997-13.395 13.395v24.605c0 7.398 5.997 13.395 13.395 13.395z" fill="url(#SVGID_2_)"/><path d="m66.395 186.395h54.605v-51.395h-54.605c-7.398 0-13.395 5.997-13.395 13.395v24.605c0 7.398 5.997 13.395 13.395 13.395z" fill="url(#SVGID_3_)"/></g></g><path d="m440 476.763v-443.526c0-18.356-14.881-33.237-33.237-33.237h-303.526c-18.356 0-33.237 14.881-33.237 33.237v443.525c0 18.357 14.881 33.238 33.237 33.238h303.525c18.357 0 33.238-14.881 33.238-33.237z" fill="url(#SVGID_4_)"/><path d="m413.161 428.506v-375.012c0-14.667-11.89-26.556-26.556-26.556h-263.21c-14.667 0-26.556 11.89-26.556 26.556v375.013c0 14.667 11.89 26.556 26.556 26.556h263.21c14.666-.001 26.556-11.89 26.556-26.557z" fill="url(#SVGID_5_)"/><path d="m121.813 408.981v-335.962c0-12.713 10.306-23.019 23.019-23.019h220.335c12.713 0 23.019 10.306 23.019 23.019v335.961c0 12.713-10.306 23.019-23.019 23.019h-220.334c-12.714.001-23.02-10.305-23.02-23.018z" fill="url(#SVGID_6_)"/><path d="m121.813 240.667v168.314c0 12.713 10.306 23.019 23.019 23.019h220.335c12.713 0 23.019-10.306 23.019-23.019v-168.314z" fill="url(#SVGID_7_)"/><path d="m365.167 50h-109.167v382h109.167c12.713 0 23.019-10.306 23.019-23.019v-335.962c.001-12.713-10.305-23.019-23.019-23.019z" fill="url(#SVGID_8_)"/><circle cx="255" cy="471.947" fill="url(#SVGID_9_)" r="27.309"/><path d="m70 412v63.631c0 18.981 14.391 34.369 32.143 34.369h305.714c17.752 0 32.143-15.388 32.143-34.369v-63.631z" fill="url(#SVGID_10_)"/><path d="m388.19 106.81v-20.41c-17.92-15.46-38.54-27.86-61.05-36.4h-144.28c-22.51 8.54-43.13 20.94-61.05 36.4v20.41c32.554-32.316 76.765-52.89 125.69-54.808v37.664c-54.266 2.66-101.126 33.973-125.69 79.115v42.09c13.227-58.482 64.089-102.847 125.69-106.198v48.501c-42.638 3.609-76.719 37.689-80.328 80.328h-45.359v15h45.359c3.609 42.638 37.689 76.719 80.328 80.328v48.501c-61.601-3.352-112.463-47.717-125.69-106.198v42.09c24.564 45.141 71.424 76.455 125.69 79.115v37.664c-48.925-1.918-93.136-22.492-125.69-54.808v20.41c17.92 15.46 38.54 27.86 61.05 36.4h144.28c22.51-8.54 43.13-20.94 61.05-36.4v-20.41c-32.554 32.316-76.765 52.89-125.69 54.808v-37.664c54.266-2.66 101.126-33.973 125.69-79.115v-42.09c-13.227 58.482-64.089 102.847-125.69 106.198v-48.501c42.638-3.609 76.719-37.689 80.328-80.328h45.359v-15h-45.359c-3.609-42.638-37.689-76.719-80.328-80.328v-48.501c61.601 3.352 112.463 47.717 125.69 106.198v-42.09c-24.564-45.141-71.424-76.455-125.69-79.115v-37.664c48.925 1.918 93.136 22.492 125.69 54.808zm-140.69 61.422v65.268h-65.268c3.515-34.363 30.905-61.753 65.268-65.268zm-65.268 80.268h65.268v65.268c-34.363-3.515-61.753-30.905-65.268-65.268zm80.268 65.268v-65.268h65.268c-3.515 34.363-30.905 61.753-65.268 65.268zm65.268-80.268h-65.268v-65.268c34.363 3.515 61.753 30.905 65.268 65.268z" fill="url(#SVGID_11_)"/><path d="m255 241 127.134 183.535c3.758-4.097 6.053-9.557 6.053-15.554v-301.168z" fill="url(#SVGID_12_)"/><g><circle cx="255" cy="241" fill="url(#SVGID_13_)" r="29.5"/><circle cx="255" cy="241" fill="url(#SVGID_14_)" r="29.5"/></g><circle cx="177.333" cy="120" fill="url(#SVGID_15_)" r="12.875"/><circle cx="334.857" cy="241.247" fill="url(#SVGID_16_)" r="12.875"/><circle cx="155.047" cy="288.599" fill="url(#SVGID_17_)" r="12.875"/><path d="m121.813 346.667v62.314c0 12.713 10.306 23.019 23.019 23.019h220.335c12.713 0 23.019-10.306 23.019-23.019v-62.314z" fill="url(#SVGID_18_)"/></g></svg>