<svg id="Capa_1" enable-background="new 0 0 510 510" height="512" viewBox="0 0 510 510" width="512" xmlns="http://www.w3.org/2000/svg" xmlns:xlink="http://www.w3.org/1999/xlink"><linearGradient id="SVGID_1_" gradientUnits="userSpaceOnUse" x1="149.785" x2="396.652" y1="44.737" y2="291.604"><stop offset="0" stop-color="#e38523"/><stop offset="1" stop-color="#c4237c"/></linearGradient><linearGradient id="lg1"><stop offset="0" stop-color="#d52c1c" stop-opacity="0"/><stop offset=".28" stop-color="#d12c1e" stop-opacity=".28"/><stop offset=".5735" stop-color="#c42c23" stop-opacity=".574"/><stop offset=".8721" stop-color="#af2b2c" stop-opacity=".872"/><stop offset="1" stop-color="#a42b31"/></linearGradient><linearGradient id="SVGID_2_" gradientUnits="userSpaceOnUse" x1="199.339" x2="199.339" xlink:href="#lg1" y1="80.5" y2="189.5"/><linearGradient id="lg2"><stop offset="0" stop-color="#8a1958" stop-opacity="0"/><stop offset="1" stop-color="#8a1958"/></linearGradient><linearGradient id="SVGID_3_" gradientUnits="userSpaceOnUse" x1="488.273" x2="271.66" xlink:href="#lg2" y1="373.727" y2="157.114"/><linearGradient id="SVGID_4_" gradientUnits="userSpaceOnUse" x1="311.089" x2="311.089" xlink:href="#lg2" y1="268.117" y2="366.938"/><linearGradient id="SVGID_5_" gradientUnits="userSpaceOnUse" x1="490" x2="407.642" xlink:href="#lg2" y1="289.12" y2="289.12"/><linearGradient id="SVGID_6_" gradientUnits="userSpaceOnUse" x1="37.606" x2="284.473" y1="190.829" y2="437.696"><stop offset="0" stop-color="#f7e07d"/><stop offset="1" stop-color="#e69642"/></linearGradient><linearGradient id="SVGID_7_" gradientUnits="userSpaceOnUse" x1="198.911" x2="198.911" xlink:href="#lg1" y1="414.209" y2="513.03"/><linearGradient id="SVGID_8_" gradientUnits="userSpaceOnUse" x1="422.09" x2="231.09" xlink:href="#lg1" y1="367.229" y2="231.729"/><linearGradient id="SVGID_9_" gradientUnits="userSpaceOnUse" x1="219.233" x2="332.134" y1="99.767" y2="212.667"><stop offset="0" stop-color="#bce097"/><stop offset="1" stop-color="#7dc03a"/></linearGradient><linearGradient id="lg3"><stop offset="0" stop-color="#8cc951" stop-opacity="0"/><stop offset="1" stop-color="#3e6e66"/></linearGradient><linearGradient id="SVGID_10_" gradientUnits="userSpaceOnUse" x1="298.478" x2="269.478" xlink:href="#lg3" y1="74.677" y2="93.01"/><linearGradient id="SVGID_11_" gradientUnits="userSpaceOnUse" x1="350.862" x2="321.862" xlink:href="#lg3" y1="157.54" y2="175.873"/><linearGradient id="SVGID_12_" gradientUnits="userSpaceOnUse" x1="248.774" x2="248.774" xlink:href="#lg3" y1="264" y2="328.68"/><g><g><path d="m263.746 33.567c0-18.538-15.029-33.567-33.567-33.567h-84.433c-18.539 0-33.567 15.029-33.567 33.567v282.519c0 26.411 21.41 47.821 47.821 47.821h302.179c26.411 0 47.821-21.41 47.821-47.821v-220.089c0-26.411-21.41-47.821-47.821-47.821h-183.825c-8.068-.001-14.608-6.541-14.608-14.609z" fill="url(#SVGID_1_)"/><path d="m112.179 316.086c0 26.411 21.41 47.821 47.821 47.821h126.5v-300.243h-174.321z" fill="url(#SVGID_2_)"/><path d="m395 70.5-126.5 126.5v166.907h193.679c26.411 0 47.821-21.41 47.821-47.821v-130.586z" fill="url(#SVGID_3_)"/><path d="m112.179 263.205v52.881c0 26.411 21.41 47.821 47.821 47.821h302.179c26.411 0 47.821-21.41 47.821-47.821v-52.881z" fill="url(#SVGID_4_)"/></g><path d="m389 363.907h73.179c20.661 0 38.259-13.103 44.944-31.451l-118.123-118.123z" fill="url(#SVGID_5_)"/><g><path d="m151.567 179.66c0-18.539-15.029-33.567-33.567-33.567h-84.433c-18.538 0-33.567 15.028-33.567 33.567v282.519c0 26.411 21.41 47.821 47.821 47.821h302.179c26.411 0 47.821-21.41 47.821-47.821v-220.09c0-26.411-21.41-47.821-47.821-47.821h-183.825c-8.067 0-14.608-6.54-14.608-14.608z" fill="url(#SVGID_6_)"/><path d="m0 409.298v52.881c0 26.411 21.41 47.821 47.821 47.821h302.179c26.411 0 47.821-21.41 47.821-47.821v-52.881z" fill="url(#SVGID_7_)"/></g><path d="m350 194.268h-119.484v122.091l163.798 163.798c2.255-5.552 3.508-11.618 3.508-17.979v-220.089c-.001-26.411-21.411-47.821-47.822-47.821z" fill="url(#SVGID_8_)"/><path d="m274.767 315.742c8.445-8.445 11.327-20.897 7.674-32.268-4.035-12.563-6.021-26.038-5.565-40.024 1.103-33.829 16.586-64.121 40.453-85.023l10.739 16.587c6.808 10.515 22.528 9.424 27.818-1.93l40.425-86.756c4.964-10.654-2.92-22.831-14.673-22.662h-95.702c-12.525.18-19.954 15.456-13.146 25.97l10.482 16.19c-40.878 32.672-68.184 82.182-69.659 136.533-.579 21.332 2.542 41.878 8.769 61.035 7.267 22.361 35.759 28.973 52.385 12.348z" fill="url(#SVGID_9_)"/><path d="m347.73 63.67-64.46 42.16-10.48-16.19c-6.81-10.52.62-25.79 13.15-25.97z" fill="url(#SVGID_10_)"/><path d="m382.61 115.73-26.72 57.35c-5.3 11.36-21.01 12.45-27.82 1.93l-10.74-16.58z" fill="url(#SVGID_11_)"/><path d="m213.565 245.333c-.225 20.268 2.881 39.796 8.817 58.062 7.267 22.36 35.76 28.972 52.385 12.347 8.445-8.445 11.327-20.897 7.674-32.268-3.854-11.998-5.833-24.828-5.606-38.141z" fill="url(#SVGID_12_)"/></g></svg>