<svg id="Capa_1" enable-background="new 0 0 510 510" height="512" viewBox="0 0 510 510" width="512" xmlns="http://www.w3.org/2000/svg" xmlns:xlink="http://www.w3.org/1999/xlink"><linearGradient id="lg1"><stop offset="0" stop-color="#bce097"/><stop offset="1" stop-color="#7dc03a"/></linearGradient><linearGradient id="SVGID_1_" gradientUnits="userSpaceOnUse" x1="70.966" x2="179.341" xlink:href="#lg1" y1="339.034" y2="447.408"/><linearGradient id="lg2"><stop offset="0" stop-color="#8cc951" stop-opacity="0"/><stop offset="1" stop-color="#3e6e66"/></linearGradient><linearGradient id="SVGID_2_" gradientUnits="userSpaceOnUse" x1="160" x2="204.553" xlink:href="#lg2" y1="437.589" y2="437.589"/><linearGradient id="SVGID_3_" gradientUnits="userSpaceOnUse" x1="327.534" x2="442.747" xlink:href="#lg1" y1="59.466" y2="174.679"/><linearGradient id="SVGID_4_" gradientUnits="userSpaceOnUse" x1="351" x2="304.61" xlink:href="#lg2" y1="72.411" y2="72.411"/><linearGradient id="lg3"><stop offset="0" stop-color="#76ccf8"/><stop offset=".833" stop-color="#518ef8"/><stop offset="1" stop-color="#4981f8"/></linearGradient><linearGradient id="SVGID_5_" gradientUnits="userSpaceOnUse" x1="241.861" x2="466.548" xlink:href="#lg3" y1="241.861" y2="466.548"/><linearGradient id="lg4"><stop offset="0" stop-color="#4071f7" stop-opacity="0"/><stop offset="1" stop-color="#30569f"/></linearGradient><linearGradient id="SVGID_6_" gradientUnits="userSpaceOnUse" x1="364.54" x2="112.114" xlink:href="#lg4" y1="446.127" y2="193.7"/><linearGradient id="SVGID_7_" gradientUnits="userSpaceOnUse" x1="516.396" x2="288.697" xlink:href="#lg4" y1="526.604" y2="298.906"/><linearGradient id="lg5"><stop offset="0" stop-color="#eef4ff"/><stop offset="1" stop-color="#cfe7fd"/></linearGradient><linearGradient id="SVGID_8_" gradientUnits="userSpaceOnUse" x1="342.23" x2="413.25" xlink:href="#lg5" y1="352.437" y2="423.456"/><linearGradient id="lg6"><stop offset="0" stop-color="#8aaadc" stop-opacity="0"/><stop offset="1" stop-color="#8aaadc"/></linearGradient><linearGradient id="SVGID_9_" gradientUnits="userSpaceOnUse" x1="370.67" x2="211.684" xlink:href="#lg6" y1="407.997" y2="249.012"/><linearGradient id="SVGID_10_" gradientUnits="userSpaceOnUse" x1="355.5" x2="355.5" xlink:href="#lg4" y1="448.2" y2="510.012"/><linearGradient id="SVGID_11_" gradientUnits="userSpaceOnUse" x1="40.861" x2="265.548" xlink:href="#lg5" y1="40.861" y2="265.548"/><linearGradient id="SVGID_12_" gradientUnits="userSpaceOnUse" x1="154.5" x2="154.5" xlink:href="#lg6" y1="247.2" y2="309.012"/><linearGradient id="SVGID_13_" gradientUnits="userSpaceOnUse" x1="385.737" x2="128.737" xlink:href="#lg6" y1="308.857" y2="166.857"/><linearGradient id="SVGID_14_" gradientUnits="userSpaceOnUse" x1="76.759" x2="185.667" xlink:href="#lg3" y1="106.241" y2="215.15"/><g><path d="m246.314 421.384c-6.362-6.362-15.741-8.532-24.307-5.781-9.463 3.04-19.613 4.536-30.148 4.192-25.482-.831-48.301-12.494-64.045-30.472l12.494-8.089c7.921-5.128 7.099-16.969-1.454-20.955l-65.351-30.451c-8.025-3.739-17.198 2.2-17.071 11.052v72.089c.136 9.435 11.642 15.031 19.563 9.902l12.196-7.896c24.611 30.792 61.905 51.361 102.846 52.472 16.069.436 31.545-1.915 45.976-6.605 16.844-5.473 21.824-26.935 9.301-39.458z" fill="url(#SVGID_1_)"/><path d="m246.314 421.384c-6.361-6.362-15.741-8.532-24.306-5.781-9.463 3.04-19.613 4.536-30.148 4.192-15.216-.496-29.481-4.857-41.859-12.116v51.923c12.984 4.711 26.789 7.46 41.038 7.847 16.069.436 31.545-1.915 45.976-6.605 16.842-5.475 21.822-26.937 9.299-39.46z" fill="url(#SVGID_2_)"/><path d="m263.686 88.616c6.362 6.362 15.741 8.532 24.307 5.781 9.463-3.04 19.613-4.536 30.148-4.192 25.482.831 48.301 12.494 64.045 30.472l-12.494 8.089c-7.921 5.128-7.099 16.969 1.454 20.955l65.351 30.451c8.025 3.739 17.198-2.2 17.071-11.052v-72.09c-.136-9.435-11.642-15.031-19.563-9.902l-12.196 7.896c-24.611-30.792-61.905-51.361-102.846-52.472-16.069-.436-31.545 1.915-45.976 6.605-16.844 5.474-21.824 26.936-9.301 39.459z" fill="url(#SVGID_3_)"/><path d="m360 50.398c-12.984-4.711-26.789-7.46-41.038-7.847-16.069-.436-31.545 1.915-45.976 6.605-16.843 5.474-21.824 26.937-9.301 39.46 6.361 6.362 15.741 8.532 24.306 5.781 9.463-3.04 19.613-4.536 30.148-4.192 15.216.496 29.481 4.857 41.859 12.116v-51.923z" fill="url(#SVGID_4_)"/><g><path d="m445.419 510h-179.838c-35.667 0-64.581-28.914-64.581-64.581v-179.838c0-35.667 28.914-64.581 64.581-64.581h179.838c35.667 0 64.581 28.914 64.581 64.581v179.838c0 35.667-28.914 64.581-64.581 64.581z" fill="url(#SVGID_5_)"/><path d="m510 402v43.42c0 35.67-28.91 64.58-64.58 64.58h-179.84c-35.67 0-64.58-28.91-64.58-64.58v-179.84c0-35.67 28.91-64.58 64.58-64.58h43.42z" fill="url(#SVGID_6_)"/><path d="m445.419 510c35.667 0 64.581-28.914 64.581-64.581v-97.201l-57.783-57.783c-2.679-4.091-7.295-6.798-12.55-6.798h-56.774c-.261-.197-13.843-13.615-13.843-13.615-2.679-4.091-7.295-6.798-12.55-6.798-8.284 0-15 6.716-15 15v5.413h-68.166c-8.284 0-15 6.716-15 15 0 5.255 2.707 9.871 6.798 12.55l38.409 38.618c5.88 17.428 15.464 33.042 28.172 45.993-19.03 11.382-39.66 19.544-61.573 24.318-8.095 1.764-13.227 9.755-11.463 17.85.872 4.004 3.271 7.278 6.45 9.356l62.678 62.678z" fill="url(#SVGID_7_)"/><path d="m441.86 419.117c-21.93-4.778-42.575-12.949-61.616-24.344 21.312-21.848 33.882-51.314 34.562-82.135h23.861c8.284 0 15-6.716 15-15s-6.716-15-15-15h-68.167v-5.413c0-8.284-6.716-15-15-15s-15 6.716-15 15v5.413h-68.166c-8.284 0-15 6.716-15 15s6.716 15 15 15h112.472c-.718 24.512-11.429 47.833-29.313 64.387-11.693-10.767-20.315-24.309-25.141-39.661-2.484-7.903-10.905-12.297-18.809-9.811-7.902 2.484-12.295 10.905-9.811 18.809 5.79 18.416 15.679 34.883 28.98 48.437-19.03 11.382-39.66 19.544-61.573 24.318-8.095 1.764-13.227 9.755-11.463 17.85 1.529 7.019 7.74 11.81 14.642 11.81 1.058 0 2.133-.112 3.208-.347 28.768-6.269 55.613-17.619 79.973-33.793 24.36 16.173 51.205 27.524 79.973 33.793 1.076.234 2.149.347 3.208.347 6.9 0 13.112-4.791 14.642-11.81 1.764-8.095-3.367-16.087-11.462-17.85z" fill="url(#SVGID_8_)"/><path d="m420.637 312.637-30-30h-20.137v-5.413c0-8.284-6.716-15-15-15s-15 6.716-15 15v5.413h-68.166c-8.284 0-15 6.716-15 15s6.716 15 15 15h112.472c-.718 24.512-11.429 47.833-29.313 64.387-11.693-10.767-20.315-24.309-25.141-39.661-2.484-7.903-10.905-12.297-18.809-9.811-7.902 2.484-12.295 10.905-9.811 18.809 5.79 18.416 15.679 34.883 28.98 48.437-19.03 11.382-39.66 19.544-61.573 24.318-8.095 1.764-13.227 9.755-11.463 17.85 1.529 7.019 7.74 11.81 14.642 11.81 1.058 0 2.133-.112 3.208-.347 28.768-6.269 55.613-17.619 79.973-33.793 24.36 16.173 51.205 27.524 79.973 33.793 1.076.234 2.149.347 3.208.347 6.9 0 13.112-4.791 14.642-11.81 1.764-8.095-3.368-16.086-11.463-17.85-21.93-4.778-42.575-12.949-61.616-24.344 21.312-21.848 33.882-51.314 34.562-82.135z" fill="url(#SVGID_9_)"/><path d="m201 409.804v35.615c0 35.667 28.914 64.581 64.581 64.581h179.838c35.667 0 64.581-28.914 64.581-64.581v-35.615z" fill="url(#SVGID_10_)"/></g><g><path d="m244.419 309h-179.838c-35.667 0-64.581-28.914-64.581-64.581v-179.838c0-35.667 28.914-64.581 64.581-64.581h179.838c35.667 0 64.581 28.914 64.581 64.581v179.838c0 35.667-28.914 64.581-64.581 64.581z" fill="url(#SVGID_11_)"/><path d="m0 208.804v35.615c0 35.667 28.914 64.581 64.581 64.581h179.838c35.667 0 64.581-28.914 64.581-64.581v-35.615z" fill="url(#SVGID_12_)"/></g><path d="m182 46h-46l-68.333 216.667 46.333 46.333h130.419c35.667 0 64.581-28.914 64.581-64.581v-71.419z" fill="url(#SVGID_13_)"/><g><path d="m61.87 251.593c0-.956.319-2.232.639-3.507l59.308-194.506c3.507-11.16 17.856-16.58 32.524-16.58s29.016 5.42 32.524 16.58l59.626 194.506c.319 1.274.639 2.55.639 3.507 0 11.799-18.176 20.407-31.887 20.407-7.971 0-14.349-2.55-16.262-9.247l-10.842-39.858h-67.278l-10.842 39.858c-1.913 6.697-8.291 9.247-16.262 9.247-13.71 0-31.887-8.608-31.887-20.407zm115.748-66.961-23.277-85.455-23.277 85.455z" fill="url(#SVGID_14_)"/></g></g></svg>