<svg id="Capa_1" enable-background="new 0 0 510 510" height="512" viewBox="0 0 510 510" width="512" xmlns="http://www.w3.org/2000/svg" xmlns:xlink="http://www.w3.org/1999/xlink"><linearGradient id="lg1"><stop offset="0" stop-color="#9d66d6"/><stop offset="1" stop-color="#453d81"/></linearGradient><linearGradient id="SVGID_1_" gradientUnits="userSpaceOnUse" x1="220.956" x2="261.955" xlink:href="#lg1" y1="-4.073" y2="94.928"/><linearGradient id="lg2"><stop offset="0" stop-color="#453d81" stop-opacity="0"/><stop offset="1" stop-color="#453d81"/></linearGradient><linearGradient id="SVGID_2_" gradientUnits="userSpaceOnUse" x1="255" x2="255" xlink:href="#lg2" y1="34" y2="64.067"/><linearGradient id="SVGID_3_" gradientUnits="userSpaceOnUse" x1="221.234" x2="306.304" xlink:href="#lg1" y1="416.766" y2="501.837"/><linearGradient id="SVGID_4_" gradientUnits="userSpaceOnUse" x1="255" x2="255" xlink:href="#lg2" y1="466" y2="502.154"/><linearGradient id="SVGID_5_" gradientUnits="userSpaceOnUse" x1="255" x2="255" xlink:href="#lg2" y1="519.5" y2="431.477"/><linearGradient id="lg3"><stop offset="0" stop-color="#5a5a5a"/><stop offset="1" stop-color="#464646"/></linearGradient><linearGradient id="SVGID_6_" gradientUnits="userSpaceOnUse" x1="92.195" x2="413.833" xlink:href="#lg3" y1="92.195" y2="413.833"/><linearGradient id="lg4"><stop offset="0" stop-color="#464646" stop-opacity="0"/><stop offset="1" stop-color="#202020"/></linearGradient><linearGradient id="SVGID_7_" gradientUnits="userSpaceOnUse" x1="255" x2="255" xlink:href="#lg4" y1="353.755" y2="436.886"/><linearGradient id="SVGID_8_" gradientUnits="userSpaceOnUse" x1="384.372" x2="143.351" xlink:href="#lg3" y1="384.372" y2="143.351"/><linearGradient id="SVGID_9_" gradientUnits="userSpaceOnUse" x1="157" x2="277.451" xlink:href="#lg3" y1="157" y2="277.451"/><linearGradient id="SVGID_10_" gradientUnits="userSpaceOnUse" x1="255" x2="255" xlink:href="#lg4" y1="92" y2="399.502"/><linearGradient id="lg5"><stop offset="0" stop-color="#202020" stop-opacity="0"/><stop offset="1" stop-color="#202020"/></linearGradient><linearGradient id="SVGID_11_" gradientUnits="userSpaceOnUse" x1="262.175" x2="260.175" xlink:href="#lg5" y1="262.427" y2="181.927"/><linearGradient id="SVGID_12_" gradientUnits="userSpaceOnUse" x1="279.536" x2="281.536" xlink:href="#lg5" y1="313.74" y2="246.74"/><linearGradient id="SVGID_13_" gradientUnits="userSpaceOnUse" x1="298.203" x2="294.703" xlink:href="#lg5" y1="357.623" y2="310.623"/><linearGradient id="SVGID_14_" gradientUnits="userSpaceOnUse" x1="292.882" x2="276.882" xlink:href="#lg5" y1="367.527" y2="334.527"/><linearGradient id="SVGID_15_" gradientUnits="userSpaceOnUse" x1="247.088" x2="267.41" y1="323.671" y2="343.993"><stop offset="0" stop-color="#bce097"/><stop offset="1" stop-color="#7dc03a"/></linearGradient><linearGradient id="SVGID_16_" gradientUnits="userSpaceOnUse" x1="220.305" x2="274.545" y1="172.545" y2="247.495"><stop offset="0" stop-color="#f7e07d"/><stop offset="1" stop-color="#e69642"/></linearGradient><linearGradient id="SVGID_17_" gradientUnits="userSpaceOnUse" x1="202.615" x2="256.855" y1="185.347" y2="260.297"><stop offset="0" stop-color="#dc4955"/><stop offset="1" stop-color="#c4237c"/></linearGradient><linearGradient id="SVGID_18_" gradientUnits="userSpaceOnUse" x1="185.628" x2="239.868" y1="197.641" y2="272.591"><stop offset="0" stop-color="#76ccf8"/><stop offset=".833" stop-color="#518ef8"/><stop offset="1" stop-color="#4981f8"/></linearGradient><g><path d="m374.333 84.667h-238.666l24.589-72.34c2.504-7.37 9.425-12.327 17.209-12.327h155.07c7.784 0 14.705 4.957 17.21 12.327z" fill="url(#SVGID_1_)"/><path d="m135.667 84.667h238.666l-19.941-58.667h-198.784z" fill="url(#SVGID_2_)"/><path d="m374.333 425.333h-238.666l24.589 72.34c2.505 7.37 9.425 12.327 17.21 12.327h155.07c7.784 0 14.705-4.957 17.21-12.327z" fill="url(#SVGID_3_)"/><path d="m374.333 425.333h-238.666l24.589 72.34c2.505 7.37 9.425 12.327 17.21 12.327h155.07c7.784 0 14.705-4.957 17.21-12.327z" fill="url(#SVGID_4_)"/><path d="m135.667 425.333 4.463 13.13 71.537 71.537h120.868c7.784 0 14.705-4.957 17.21-12.327l24.589-72.34z" fill="url(#SVGID_5_)"/><g><path d="m99.449 378.201v-246.402c0-35.359 28.664-64.024 64.024-64.024h183.055c35.359 0 64.024 28.664 64.024 64.024v246.401c0 35.359-28.664 64.024-64.024 64.024h-183.055c-35.36 0-64.024-28.664-64.024-64.023z" fill="url(#SVGID_6_)"/><path d="m99.449 272.339v105.862c0 35.359 28.664 64.024 64.024 64.024h183.055c35.359 0 64.024-28.664 64.024-64.024v-105.862z" fill="url(#SVGID_7_)"/></g><path d="m120.141 361.812v-213.624c0-30.656 24.851-55.507 55.507-55.507h158.704c30.656 0 55.507 24.851 55.507 55.507v213.624c0 30.656-24.851 55.507-55.507 55.507h-158.704c-30.656 0-55.507-24.852-55.507-55.507z" fill="url(#SVGID_8_)"/><path d="m129.65 354.281v-198.562c0-28.494 23.099-51.593 51.593-51.593h147.514c28.494 0 51.593 23.099 51.593 51.593v198.561c0 28.494-23.099 51.593-51.593 51.593h-147.514c-28.494.001-51.593-23.098-51.593-51.592z" fill="url(#SVGID_9_)"/><path d="m129.65 354.281v-198.562c0-28.494 23.099-51.593 51.593-51.593h147.514c28.494 0 51.593 23.099 51.593 51.593v198.561c0 28.494-23.099 51.593-51.593 51.593h-147.514c-28.494.001-51.593-23.098-51.593-51.592z" fill="url(#SVGID_10_)"/><path d="m380.35 227.088-16.834-16.873c-29.032-28.636-67.482-44.406-108.267-44.406s-79.235 15.771-108.267 44.406c-6.423 6.336-6.494 16.678-.159 23.101l172.558 172.558h9.375c28.494 0 51.593-23.099 51.593-51.593v-127.193z" fill="url(#SVGID_11_)"/><path d="m380.35 354.281v-53.2l-53.897-53.897c-19.135-18.721-44.422-29.031-71.204-29.031s-52.069 10.31-71.204 29.031c-6.449 6.309-6.562 16.652-.252 23.1l135.701 135.59h9.264c28.493 0 51.592-23.099 51.592-51.593z" fill="url(#SVGID_12_)"/><path d="m377.971 369.8-87.253-87.253c-9.617-9.11-22.213-14.127-35.469-14.127s-25.852 5.017-35.469 14.127c-6.375 6.039-6.808 15.994-1.104 22.56l100.832 100.767h9.249c23.086 0 42.626-15.165 49.214-36.074z" fill="url(#SVGID_13_)"/><path d="m346.245 402.828-80.027-80.027c-2.613-3.235-6.607-5.307-11.089-5.307-7.872 0-14.254 6.382-14.254 14.254 0 4.482 2.073 8.476 5.307 11.089l63.038 63.038h19.537c6.139-.001 12.026-1.079 17.488-3.047z" fill="url(#SVGID_14_)"/><g><circle cx="255" cy="331.583" fill="url(#SVGID_15_)" r="14.316"/><g><g><path d="m352.4 236.924c-4.169 0-8.339-1.576-11.542-4.735-23.022-22.708-53.513-35.214-85.857-35.214s-62.835 12.506-85.858 35.214c-6.463 6.375-16.87 6.303-23.245-.16s-6.303-16.87.16-23.245c29.212-28.814 67.903-44.683 108.942-44.683 41.04 0 79.729 15.869 108.943 44.684 6.463 6.375 6.534 16.782.16 23.245-3.216 3.26-7.459 4.894-11.703 4.894z" fill="url(#SVGID_16_)"/><path d="m194.847 274.171c-4.267 0-8.53-1.651-11.75-4.942-6.349-6.489-6.235-16.896.254-23.245 19.255-18.838 44.7-29.213 71.649-29.213s52.395 10.375 71.649 29.213c6.489 6.349 6.602 16.756.254 23.245-6.35 6.489-16.756 6.602-23.245.254-13.075-12.792-30.355-19.837-48.659-19.837-18.303 0-35.584 7.045-48.659 19.837-3.196 3.129-7.346 4.688-11.493 4.688z" fill="url(#SVGID_17_)"/><path d="m279.384 309.939c-4.058 0-8.123-1.493-11.301-4.504-3.545-3.358-8.191-5.207-13.082-5.207s-9.537 1.849-13.082 5.207c-6.591 6.244-16.995 5.962-23.237-.629-6.243-6.59-5.961-16.994.629-23.237 9.677-9.167 22.352-14.216 35.69-14.216s26.013 5.049 35.69 14.216c6.591 6.243 6.872 16.647.629 23.237-3.233 3.412-7.58 5.133-11.936 5.133z" fill="url(#SVGID_18_)"/></g></g></g></g></svg>