<svg id="Capa_1" enable-background="new 0 0 510 510" height="512" viewBox="0 0 510 510" width="512" xmlns="http://www.w3.org/2000/svg" xmlns:xlink="http://www.w3.org/1999/xlink"><linearGradient id="SVGID_1_" gradientUnits="userSpaceOnUse" x1="67.441" x2="438.283" y1="67.441" y2="438.283"><stop offset="0" stop-color="#5a5a5a"/><stop offset="1" stop-color="#464646"/></linearGradient><linearGradient id="lg1"><stop offset="0" stop-color="#464646" stop-opacity="0"/><stop offset=".1772" stop-color="#3d3d3d" stop-opacity=".177"/><stop offset=".6736" stop-color="#282828" stop-opacity=".674"/><stop offset="1" stop-color="#202020"/></linearGradient><linearGradient id="SVGID_2_" gradientUnits="userSpaceOnUse" x1="473.302" x2="367.858" xlink:href="#lg1" y1="318.031" y2="212.587"/><linearGradient id="SVGID_3_" gradientUnits="userSpaceOnUse" x1="321.886" x2="113.72" xlink:href="#lg1" y1="390.114" y2="181.949"/><linearGradient id="SVGID_4_" gradientUnits="userSpaceOnUse" x1="255" x2="255" xlink:href="#lg1" y1="408" y2="510.02"/><linearGradient id="SVGID_5_" gradientUnits="userSpaceOnUse" x1="65.295" x2="445.581" y1="78.584" y2="78.584"><stop offset="0" stop-color="#f7e07d"/><stop offset="1" stop-color="#e69642"/></linearGradient><linearGradient id="lg2"><stop offset="0" stop-color="#d52c1c" stop-opacity="0"/><stop offset=".28" stop-color="#d12c1e" stop-opacity=".28"/><stop offset=".5735" stop-color="#c42c23" stop-opacity=".574"/><stop offset=".8721" stop-color="#af2b2c" stop-opacity=".872"/><stop offset="1" stop-color="#a42b31"/></linearGradient><linearGradient id="SVGID_6_" gradientUnits="userSpaceOnUse" x1="255.438" x2="255.438" xlink:href="#lg2" y1="94" y2="45.884"/><linearGradient id="lg3"><stop offset="0" stop-color="#eef4ff"/><stop offset="1" stop-color="#cfe7fd"/></linearGradient><linearGradient id="SVGID_7_" gradientUnits="userSpaceOnUse" x1="96.758" x2="178.535" xlink:href="#lg3" y1="164.829" y2="246.606"/><linearGradient id="lg4"><stop offset="0" stop-color="#8aaadc" stop-opacity="0"/><stop offset="1" stop-color="#8aaadc"/></linearGradient><linearGradient id="SVGID_8_" gradientUnits="userSpaceOnUse" x1="143.256" x2="143.256" xlink:href="#lg4" y1="225" y2="281.08"/><linearGradient id="SVGID_9_" gradientUnits="userSpaceOnUse" x1="206.59" x2="118.102" xlink:href="#lg4" y1="274.91" y2="186.422"/><linearGradient id="lg5"><stop offset="0" stop-color="#e38523"/><stop offset=".7304" stop-color="#db4735"/><stop offset="1" stop-color="#d82f3c"/></linearGradient><linearGradient id="SVGID_10_" gradientUnits="userSpaceOnUse" x1="127.34" x2="174.292" xlink:href="#lg5" y1="195.66" y2="242.613"/><linearGradient id="SVGID_11_" gradientUnits="userSpaceOnUse" x1="269.719" x2="157.572" xlink:href="#lg1" y1="519.281" y2="407.134"/><linearGradient id="SVGID_12_" gradientUnits="userSpaceOnUse" x1="96.758" x2="178.535" xlink:href="#lg3" y1="346.32" y2="428.097"/><linearGradient id="SVGID_13_" gradientUnits="userSpaceOnUse" x1="143.256" x2="143.256" xlink:href="#lg4" y1="392" y2="446.009"/><linearGradient id="SVGID_14_" gradientUnits="userSpaceOnUse" x1="199.719" x2="141.683" xlink:href="#lg4" y1="449.281" y2="391.246"/><linearGradient id="SVGID_15_" gradientUnits="userSpaceOnUse" x1="109.719" x2="161.221" xlink:href="#lg5" y1="359.281" y2="410.784"/><linearGradient id="SVGID_16_" gradientUnits="userSpaceOnUse" x1="320.247" x2="402.024" xlink:href="#lg3" y1="164.829" y2="246.606"/><linearGradient id="SVGID_17_" gradientUnits="userSpaceOnUse" x1="366.744" x2="366.744" xlink:href="#lg4" y1="206" y2="282.026"/><linearGradient id="SVGID_18_" gradientUnits="userSpaceOnUse" x1="408.045" x2="371.795" xlink:href="#lg4" y1="275.586" y2="202.336"/><linearGradient id="SVGID_19_" gradientUnits="userSpaceOnUse" x1="346.029" x2="379.563" xlink:href="#lg5" y1="190.971" y2="224.505"/><linearGradient id="SVGID_20_" gradientUnits="userSpaceOnUse" x1="491.302" x2="362.678" xlink:href="#lg1" y1="517.364" y2="388.74"/><linearGradient id="SVGID_21_" gradientUnits="userSpaceOnUse" x1="320.247" x2="402.024" xlink:href="#lg5" y1="346.32" y2="428.097"/><linearGradient id="SVGID_22_" gradientUnits="userSpaceOnUse" x1="420.632" x2="377.384" xlink:href="#lg2" y1="458.707" y2="371.317"/><linearGradient id="SVGID_23_" gradientUnits="userSpaceOnUse" x1="404.459" x2="374.889" xlink:href="#lg2" y1="476.162" y2="416.41"/><linearGradient id="SVGID_24_" gradientUnits="userSpaceOnUse" x1="366.744" x2="366.744" y1="401.5" y2="463.002"><stop offset="0" stop-color="#d52c1c" stop-opacity="0"/><stop offset=".2717" stop-color="#cd2c1f" stop-opacity=".272"/><stop offset=".6806" stop-color="#b92b28" stop-opacity=".681"/><stop offset="1" stop-color="#a42b31"/></linearGradient><linearGradient id="SVGID_25_" gradientUnits="userSpaceOnUse" x1="335.783" x2="388.305" xlink:href="#lg3" y1="362.217" y2="414.738"/><g><path d="m403.41 510h-296.82c-58.868 0-106.59-47.722-106.59-106.59v-296.82c0-58.868 47.722-106.59 106.59-106.59h296.82c58.868 0 106.59 47.722 106.59 106.59v296.82c0 58.868-47.722 106.59-106.59 106.59z" fill="url(#SVGID_1_)"/><path d="m510 403.41v-159.944l-84.5-84.5c-14.382-15.51-34.924-25.227-57.744-25.227-43.49 0-78.746 35.256-78.746 78.746 0 22.82 9.717 43.362 25.227 57.744l183.275 183.275c7.967-14.935 12.488-31.985 12.488-50.094z" fill="url(#SVGID_2_)"/><path d="m403.41 510c40.502 0 75.728-22.591 93.765-55.859l-295.175-295.175c-14.382-15.51-34.924-25.227-57.744-25.227-43.49 0-78.746 35.256-78.746 78.746 0 22.82 9.717 43.362 25.227 57.744l239.771 239.771z" fill="url(#SVGID_3_)"/><path d="m0 344.628v58.782c0 58.868 47.722 106.59 106.59 106.59h296.82c58.868 0 106.59-47.722 106.59-106.59v-58.782z" fill="url(#SVGID_4_)"/><path d="m430.614 105.429h-350.353c-8.266 0-14.967-6.701-14.967-14.967v-23.757c0-8.266 6.701-14.967 14.967-14.967h350.353c8.266 0 14.967 6.701 14.967 14.967v23.757c0 8.266-6.701 14.967-14.967 14.967z" fill="url(#SVGID_5_)"/><path d="m430.614 105.429h-350.353c-8.266 0-14.967-6.701-14.967-14.967v-23.757c0-8.266 6.701-14.967 14.967-14.967h350.353c8.266 0 14.967 6.701 14.967 14.967v23.757c0 8.266-6.701 14.967-14.967 14.967z" fill="url(#SVGID_6_)"/><g><circle cx="143.256" cy="211.327" fill="url(#SVGID_7_)" r="78.746"/><circle cx="143.256" cy="211.327" fill="url(#SVGID_8_)" r="78.746"/><path d="m218.477 234.689-62.344-62.344c-2.273-2.954-6.423-5.143-11.768-5.143-7.829 0-13.918 5.22-13.918 10.438v20.877h-21.095c-6.089 0-10.221 6.089-10.221 13.918 0 5.497 1.836 9.731 4.852 11.958l62.261 62.261c24.877-7.582 44.531-27.14 52.233-51.965z" fill="url(#SVGID_9_)"/><path d="m129.447 246.23v-21.094h-21.095c-6.089 0-10.221-5.438-10.221-13.701 0-7.829 4.132-13.918 10.221-13.918h21.095v-20.877c0-5.219 6.089-10.438 13.918-10.438 8.264 0 13.7 5.22 13.7 10.438v20.877h20.877c5.219 0 10.438 6.089 10.438 13.918 0 8.264-5.219 13.701-10.438 13.701h-20.877v21.094c0 6.089-5.437 10.222-13.7 10.222-7.83 0-13.918-4.133-13.918-10.222z" fill="url(#SVGID_10_)"/></g><path d="m371.701 510-169.701-169.701c-14.382-15.51-34.924-25.227-57.744-25.227-43.49 0-78.746 35.256-78.746 78.746 0 22.82 9.717 43.362 25.227 57.744l58.438 58.438z" fill="url(#SVGID_11_)"/><g><circle cx="143.256" cy="392.818" fill="url(#SVGID_12_)" r="78.746"/><circle cx="143.256" cy="392.818" fill="url(#SVGID_13_)" r="78.746"/><path d="m111.424 424.803 45.546 45.546c32.492-5.71 58.107-31.325 63.816-63.816l-45.546-45.546z" fill="url(#SVGID_14_)"/><path d="m108.811 407.734 14.916-14.916-14.916-14.916c-4.305-4.305-3.382-11.072 2.461-16.915 5.536-5.536 12.763-6.92 17.069-2.614l14.916 14.916 14.762-14.762c3.69-3.69 11.687-3.076 17.223 2.46 5.843 5.843 5.997 13.378 2.306 17.069l-14.762 14.762 14.762 14.762c3.691 3.691 3.076 11.687-2.46 17.223-5.843 5.843-13.379 5.998-17.069 2.307l-14.762-14.762-14.916 14.916c-4.305 4.305-11.072 3.384-16.915-2.46-5.538-5.537-6.921-12.765-2.615-17.07z" fill="url(#SVGID_15_)"/></g><g><circle cx="366.744" cy="211.327" fill="url(#SVGID_16_)" r="78.746"/><circle cx="366.744" cy="211.327" fill="url(#SVGID_17_)" r="78.746"/><path d="m440.218 239.656-37.252-37.252c-1.944-2.416-4.5-3.887-7.06-3.887h-56.542c-6.089 0-10.221 6.089-10.221 13.918 0 5.433 1.794 9.632 4.749 11.879l60.682 60.682c20.931-7.91 37.595-24.479 45.644-45.34z" fill="url(#SVGID_18_)"/><path d="m338.365 197.517h56.542c5.219 0 10.438 6.089 10.438 13.918 0 8.264-5.219 13.701-10.438 13.701h-56.542c-6.089 0-10.221-5.438-10.221-13.701 0-7.829 4.132-13.918 10.221-13.918z" fill="url(#SVGID_19_)"/></g><path d="m508.198 422.997-82.698-82.698c-14.382-15.51-34.924-25.227-57.744-25.227-43.49 0-78.746 35.256-78.746 78.746 0 22.82 9.717 43.362 25.227 57.744l58.438 58.438h30.735c52.177 0 95.59-37.492 104.788-87.003z" fill="url(#SVGID_20_)"/><g><circle cx="366.744" cy="392.818" fill="url(#SVGID_21_)" r="78.746"/><path d="m444.72 403.82c-1.63 11.68-5.82 22.55-12.01 32-6.11 9.37-14.17 17.35-23.6 23.38l-57.64-57.64-18.2-18.2c-2.96-2.25-4.75-6.45-4.75-11.88 0-7.83 4.13-13.92 10.22-13.92h56.54c2.56 0 5.12 1.47 7.06 3.89z" fill="url(#SVGID_22_)"/><path d="m432.71 435.82c-6.11 9.37-14.17 17.35-23.6 23.38-9.55 6.11-20.51 10.21-32.28 11.72l-43.56-43.56c-2.96-2.25-4.75-6.45-4.75-11.88 0-7.83 4.13-13.92 10.22-13.92h56.54c2.56 0 5.12 1.47 7.06 3.89z" fill="url(#SVGID_23_)"/><circle cx="366.744" cy="392.818" fill="url(#SVGID_24_)" r="78.746"/><path d="m338.365 356.935h56.542c5.219 0 10.438 6.089 10.438 13.918 0 8.264-5.219 13.7-10.438 13.7h-56.542c-6.089 0-10.221-5.437-10.221-13.7 0-7.829 4.132-13.918 10.221-13.918zm0 44.146h56.542c5.219 0 10.438 6.09 10.438 13.918 0 8.265-5.219 13.701-10.438 13.701h-56.542c-6.089 0-10.221-5.437-10.221-13.701 0-7.828 4.132-13.918 10.221-13.918z" fill="url(#SVGID_25_)"/></g></g></svg>