<svg id="Capa_1" enable-background="new 0 0 510 510" height="512" viewBox="0 0 510 510" width="512" xmlns="http://www.w3.org/2000/svg" xmlns:xlink="http://www.w3.org/1999/xlink"><linearGradient id="SVGID_1_" gradientUnits="userSpaceOnUse" x1="91.292" x2="414.972" y1="140.504" y2="464.184"><stop offset="0" stop-color="#e38523"/><stop offset="1" stop-color="#c4237c"/></linearGradient><linearGradient id="lg1"><stop offset="0" stop-color="#8a1958" stop-opacity="0"/><stop offset="1" stop-color="#8a1958"/></linearGradient><linearGradient id="SVGID_2_" gradientUnits="userSpaceOnUse" x1="380.138" x2="169.697" xlink:href="#lg1" y1="210.528" y2=".087"/><linearGradient id="SVGID_3_" gradientUnits="userSpaceOnUse" x1="487.638" x2="371.004" xlink:href="#lg1" y1="203.028" y2="86.394"/><linearGradient id="SVGID_4_" gradientUnits="userSpaceOnUse" x1="254.998" x2="254.998" xlink:href="#lg1" y1="424.667" y2="498.67"/><linearGradient id="SVGID_5_" gradientUnits="userSpaceOnUse" x1="446.501" x2="221.24" xlink:href="#lg1" y1="493.163" y2="267.902"/><linearGradient id="SVGID_6_" gradientUnits="userSpaceOnUse" x1="158.056" x2="407.701" y1="204.944" y2="454.589"><stop offset="0" stop-color="#f7e07d"/><stop offset="1" stop-color="#e69642"/></linearGradient><linearGradient id="lg2"><stop offset="0" stop-color="#d52c1c" stop-opacity="0"/><stop offset=".28" stop-color="#d12c1e" stop-opacity=".28"/><stop offset=".5735" stop-color="#c42c23" stop-opacity=".574"/><stop offset=".8721" stop-color="#af2b2c" stop-opacity=".872"/><stop offset="1" stop-color="#a42b31"/></linearGradient><linearGradient id="SVGID_7_" gradientUnits="userSpaceOnUse" x1="171.789" x2="223.122" xlink:href="#lg2" y1="344.069" y2="418.069"/><linearGradient id="SVGID_8_" gradientUnits="userSpaceOnUse" x1="316.579" x2="366.579" xlink:href="#lg2" y1="318.121" y2="391.454"/><linearGradient id="SVGID_9_" gradientUnits="userSpaceOnUse" x1="127.498" x2="382.498" y1="68.54" y2="68.54"><stop offset="0" stop-color="#5a5a5a"/><stop offset="1" stop-color="#464646"/></linearGradient><g><path d="m429.559 510h-349.122c-13.721 0-24.844-11.123-24.844-24.844v-361.891c0-13.721 11.123-24.844 24.844-24.844h349.122c13.721 0 24.844 11.123 24.844 24.844v361.891c0 13.721-11.123 24.844-24.844 24.844z" fill="url(#SVGID_1_)"/><path d="m454.408 123.26v333.36l-323.81-323.81v-34.39h298.96c13.72 0 24.85 11.12 24.85 24.84z" fill="url(#SVGID_2_)"/><path d="m454.408 226.62v-103.36c0-13.72-11.13-24.84-24.85-24.84h-68.96v34.39z" fill="url(#SVGID_3_)"/><path d="m454.403 485.156v-100.276h-398.811v100.276c0 13.721 11.123 24.844 24.844 24.844h349.122c13.722 0 24.845-11.123 24.845-24.844z" fill="url(#SVGID_4_)"/><path d="m380.304 184.64c-2.135-2.587-5.577-3.02-9.191-2.352l-163.617 30.257c-4.567.844-6.881 3.828-6.881 8.473v124.117c-14.327-3.044-31.143.224-45.684 10.237-25.04 17.243-33.839 47.923-19.653 68.524l85.688 86.104h208.593c13.721 0 24.844-11.123 24.844-24.844v-225.364z" fill="url(#SVGID_5_)"/><path d="m199.614 221.017v123.117c-14.327-3.044-31.143.224-45.684 10.237-25.04 17.244-33.839 47.923-19.653 68.524 14.187 20.601 45.986 23.323 71.027 6.079 17.44-12.01 26.989-30.535 26.394-47.635h.039v-115.304c0-2.645 1.887-4.913 4.488-5.394l107.669-19.91c3.372-.624 6.482 1.965 6.482 5.394v64.19c-14.327-3.044-31.143.224-45.684 10.237-25.04 17.243-33.839 47.923-19.653 68.524 14.187 20.601 45.986 23.323 71.027 6.079 17.44-12.01 26.989-30.535 26.394-47.635h.039v-156.76c0-6.022-5.463-10.568-11.385-9.473l-163.617 30.256c-4.568.846-7.883 4.829-7.883 9.474z" fill="url(#SVGID_6_)"/><g><path d="m199.614 344.134c-14.327-3.044-31.143.224-45.684 10.237-25.041 17.243-33.839 47.923-19.653 68.524s45.986 23.323 71.026 6.079c17.44-12.01 26.989-30.535 26.394-47.635h.039v-83.753h-32.122z" fill="url(#SVGID_7_)"/><path d="m382.498 297.586h-32.122v12.729c-14.327-3.044-31.143.224-45.684 10.237-25.04 17.243-33.839 47.923-19.653 68.523 14.187 20.601 45.986 23.323 71.026 6.08 17.44-12.01 26.989-30.535 26.394-47.635h.039z" fill="url(#SVGID_8_)"/></g><path d="m369.998 137.08c-6.904 0-12.5-5.596-12.5-12.5v-64.116c0-19.586-15.878-35.464-35.464-35.464h-134.072c-19.586 0-35.464 15.878-35.464 35.464v64.116c0 6.904-5.596 12.5-12.5 12.5-6.904 0-12.5-5.596-12.5-12.5v-64.116c0-33.394 27.07-60.464 60.463-60.464h134.073c33.393 0 60.464 27.071 60.464 60.464v64.116c0 6.903-5.597 12.5-12.5 12.5z" fill="url(#SVGID_9_)"/></g></svg>