<svg id="Capa_1" enable-background="new 0 0 510 510" height="512" viewBox="0 0 510 510" width="512" xmlns="http://www.w3.org/2000/svg" xmlns:xlink="http://www.w3.org/1999/xlink"><linearGradient id="SVGID_1_" gradientUnits="userSpaceOnUse" x1="418.121" x2="502.491" y1="63.544" y2="147.914"><stop offset="0" stop-color="#76ccf8"/><stop offset=".833" stop-color="#518ef8"/><stop offset="1" stop-color="#4981f8"/></linearGradient><linearGradient id="SVGID_2_" gradientUnits="userSpaceOnUse" x1="418.121" x2="502.491" y1="163.544" y2="247.914"><stop offset="0" stop-color="#bce097"/><stop offset="1" stop-color="#7dc03a"/></linearGradient><linearGradient id="SVGID_3_" gradientUnits="userSpaceOnUse" x1="418.121" x2="502.491" y1="263.544" y2="347.914"><stop offset="0" stop-color="#f7e07d"/><stop offset="1" stop-color="#e69642"/></linearGradient><linearGradient id="SVGID_4_" gradientUnits="userSpaceOnUse" x1="419.371" x2="503.741" y1="362.294" y2="446.664"><stop offset="0" stop-color="#dc4955"/><stop offset="1" stop-color="#c4237c"/></linearGradient><linearGradient id="lg1"><stop offset="0" stop-color="#4071f7" stop-opacity="0"/><stop offset="1" stop-color="#30569f"/></linearGradient><linearGradient id="SVGID_5_" gradientUnits="userSpaceOnUse" x1="491.5" x2="437.979" xlink:href="#lg1" y1="105" y2="105"/><linearGradient id="lg2"><stop offset="0" stop-color="#8cc951" stop-opacity="0"/><stop offset="1" stop-color="#3e6e66"/></linearGradient><linearGradient id="SVGID_6_" gradientUnits="userSpaceOnUse" x1="491.5" x2="437.979" xlink:href="#lg2" y1="205" y2="205"/><linearGradient id="lg3"><stop offset="0" stop-color="#8a1958" stop-opacity="0"/><stop offset="1" stop-color="#8a1958"/></linearGradient><linearGradient id="SVGID_7_" gradientUnits="userSpaceOnUse" x1="491.5" x2="437.979" xlink:href="#lg3" y1="405" y2="405"/><linearGradient id="SVGID_8_" gradientUnits="userSpaceOnUse" x1="466" x2="466" xlink:href="#lg3" y1="428.667" y2="451.333"/><linearGradient id="lg4"><stop offset="0" stop-color="#d52c1c" stop-opacity="0"/><stop offset=".28" stop-color="#d12c1e" stop-opacity=".28"/><stop offset=".5735" stop-color="#c42c23" stop-opacity=".574"/><stop offset=".8721" stop-color="#af2b2c" stop-opacity=".872"/><stop offset="1" stop-color="#a42b31"/></linearGradient><linearGradient id="SVGID_9_" gradientUnits="userSpaceOnUse" x1="491.5" x2="437.979" xlink:href="#lg4" y1="305" y2="305"/><linearGradient id="SVGID_10_" gradientUnits="userSpaceOnUse" x1="466" x2="466" xlink:href="#lg4" y1="331.333" y2="360.031"/><linearGradient id="SVGID_11_" gradientUnits="userSpaceOnUse" x1="466" x2="466" xlink:href="#lg2" y1="228.667" y2="251.333"/><linearGradient id="SVGID_12_" gradientUnits="userSpaceOnUse" x1="466" x2="466" xlink:href="#lg1" y1="128.667" y2="151.333"/><linearGradient id="lg5"><stop offset="0" stop-color="#5a5a5a"/><stop offset="1" stop-color="#464646"/></linearGradient><linearGradient id="SVGID_13_" gradientUnits="userSpaceOnUse" x1="-13.797" x2="462.725" xlink:href="#lg5" y1="13.797" y2="490.318"/><linearGradient id="SVGID_14_" gradientUnits="userSpaceOnUse" x1="90" x2="45.989" xlink:href="#lg5" y1="255" y2="255"/><linearGradient id="lg6"><stop offset="0" stop-color="#464646" stop-opacity="0"/><stop offset="1" stop-color="#202020"/></linearGradient><linearGradient id="SVGID_15_" gradientUnits="userSpaceOnUse" x1="227.407" x2="227.407" xlink:href="#lg6" y1="412" y2="504.087"/><linearGradient id="SVGID_16_" gradientUnits="userSpaceOnUse" x1="345.013" x2="146.972" xlink:href="#lg5" y1="290.686" y2="92.645"/><linearGradient id="SVGID_17_" gradientUnits="userSpaceOnUse" x1="376.803" x2="238.803" xlink:href="#lg6" y1="269.381" y2="234.047"/><linearGradient id="lg7"><stop offset="0" stop-color="#eef4ff"/><stop offset="1" stop-color="#cfe7fd"/></linearGradient><linearGradient id="SVGID_18_" gradientUnits="userSpaceOnUse" x1="265.403" x2="265.403" xlink:href="#lg7" y1="393" y2="432.051"/><linearGradient id="SVGID_19_" gradientUnits="userSpaceOnUse" x1="349.535" x2="269.535" xlink:href="#lg6" y1="397.767" y2="225.767"/><linearGradient id="SVGID_20_" gradientUnits="userSpaceOnUse" x1="237.183" x2="280.851" xlink:href="#lg7" y1="135.963" y2="179.631"/><linearGradient id="lg8"><stop offset="0" stop-color="#8aaadc" stop-opacity="0"/><stop offset="1" stop-color="#8aaadc"/></linearGradient><linearGradient id="SVGID_21_" gradientUnits="userSpaceOnUse" x1="265.403" x2="265.403" xlink:href="#lg8" y1="156.743" y2="204.747"/><linearGradient id="SVGID_22_" gradientUnits="userSpaceOnUse" x1="265.403" x2="265.403" xlink:href="#lg7" y1="253.409" y2="301.28"/><linearGradient id="SVGID_23_" gradientUnits="userSpaceOnUse" x1="265.403" x2="265.403" xlink:href="#lg8" y1="274.646" y2="304.151"/><g><g><path d="m486.605 155-54.605 5v-105h54.605c7.398 0 13.395 5.997 13.395 13.395v73.211c0 7.397-5.997 13.394-13.395 13.394z" fill="url(#SVGID_1_)"/><path d="m486.605 255-54.605 5v-105h54.605c7.398 0 13.395 5.997 13.395 13.395v73.211c0 7.397-5.997 13.394-13.395 13.394z" fill="url(#SVGID_2_)"/><path d="m486.605 355-54.605 5v-105h54.605c7.398 0 13.395 5.997 13.395 13.395v73.211c0 7.397-5.997 13.394-13.395 13.394z" fill="url(#SVGID_3_)"/><path d="m486.605 455h-54.605v-100h54.605c7.398 0 13.395 5.997 13.395 13.395v73.211c0 7.397-5.997 13.394-13.395 13.394z" fill="url(#SVGID_4_)"/><path d="m444.333 55h-12.333v100h54.605c7.398 0 13.395-5.997 13.395-13.395v-30.939z" fill="url(#SVGID_5_)"/><path d="m444.333 155h-12.333v100h54.605c7.398 0 13.395-5.997 13.395-13.395v-30.939z" fill="url(#SVGID_6_)"/><path d="m444.333 355h-12.333v100h54.605c7.398 0 13.395-5.997 13.395-13.395v-30.939z" fill="url(#SVGID_7_)"/><path d="m432 410v45h54.605c7.398 0 13.395-5.997 13.395-13.395v-31.605z" fill="url(#SVGID_8_)"/><path d="m444.333 255h-12.333v100h54.605c7.398 0 13.395-5.997 13.395-13.395v-30.939z" fill="url(#SVGID_9_)"/><path d="m432 310v45h54.605c7.398 0 13.395-5.997 13.395-13.395v-31.605z" fill="url(#SVGID_10_)"/><path d="m432 210v45h54.605c7.398 0 13.395-5.997 13.395-13.395v-31.605z" fill="url(#SVGID_11_)"/><path d="m432 110v45h54.605c7.398 0 13.395-5.997 13.395-13.395v-31.605z" fill="url(#SVGID_12_)"/></g><g><path d="m10 475.631v-441.262c0-18.981 15.388-34.369 34.369-34.369h366.075c18.982 0 34.369 15.388 34.369 34.369v441.262c0 18.982-15.388 34.369-34.369 34.369h-366.075c-18.981 0-34.369-15.388-34.369-34.369z" fill="url(#SVGID_13_)"/><path d="m50.02 0h40.02v510h-40.02z" fill="url(#SVGID_14_)"/><path d="m10 321.812v153.818c0 18.982 15.388 34.37 34.369 34.37h366.075c18.982 0 34.369-15.388 34.369-34.369v-153.819z" fill="url(#SVGID_15_)"/></g><g><g><circle cx="265.403" cy="211.076" fill="url(#SVGID_16_)" r="131.993"/><path d="m444.813 272.018-139.665-139.665c-9.317-10.985-23.213-17.965-38.746-17.965-28.053 0-50.795 22.742-50.795 50.795 0 15.532 6.979 29.428 17.964 38.745l211.241 211.241v-143.151z" fill="url(#SVGID_17_)"/><path d="m375.735 430.917h-220.665c-8.266 0-14.967-6.701-14.967-14.967v-23.757c0-8.266 6.701-14.967 14.967-14.967h220.665c8.266 0 14.967 6.701 14.967 14.967v23.757c0 8.267-6.701 14.967-14.967 14.967z" fill="url(#SVGID_18_)"/><path d="m335.123 258.585c-17.789-17.214-42.01-27.816-68.72-27.816s-50.931 10.602-68.72 27.816c-5.748 5.562-8.897 13.286-8.897 21.285 0 9.763 4.682 18.431 11.922 23.887l206.242 206.243h3.494c18.982 0 34.369-15.388 34.369-34.369v-107.355z" fill="url(#SVGID_19_)"/><circle cx="265.403" cy="164.183" fill="url(#SVGID_20_)" r="50.795"/><circle cx="265.403" cy="164.183" fill="url(#SVGID_21_)" r="50.795"/><path d="m217.679 308.764h95.447c16.51 0 29.894-13.384 29.894-29.894 0-7.999-3.149-15.723-8.897-21.285-17.789-17.213-42.01-27.816-68.72-27.816s-50.931 10.602-68.72 27.816c-5.748 5.562-8.897 13.286-8.897 21.285 0 16.51 13.384 29.894 29.893 29.894z" fill="url(#SVGID_22_)"/><path d="m187.786 278.87c0 16.51 13.384 29.894 29.894 29.894h95.447c16.51 0 29.894-13.384 29.894-29.894 0-6.867-2.327-13.526-6.62-18.794h-141.995c-4.294 5.268-6.62 11.928-6.62 18.794z" fill="url(#SVGID_23_)"/></g></g></g></svg>