<svg id="Capa_1" enable-background="new 0 0 510 510" height="512" viewBox="0 0 510 510" width="512" xmlns="http://www.w3.org/2000/svg" xmlns:xlink="http://www.w3.org/1999/xlink"><linearGradient id="lg1"><stop offset="0" stop-color="#76ccf8"/><stop offset=".833" stop-color="#518ef8"/><stop offset="1" stop-color="#4981f8"/></linearGradient><linearGradient id="SVGID_1_" gradientUnits="userSpaceOnUse" x1="-40.419" x2="390.501" xlink:href="#lg1" y1="-40.419" y2="390.501"/><linearGradient id="lg2"><stop offset="0" stop-color="#4071f7" stop-opacity="0"/><stop offset="1" stop-color="#30569f"/></linearGradient><linearGradient id="SVGID_2_" gradientUnits="userSpaceOnUse" x1="228.818" x2="415.993" xlink:href="#lg2" y1="228.818" y2="415.993"/><linearGradient id="SVGID_3_" gradientUnits="userSpaceOnUse" x1="255" x2="255" xlink:href="#lg2" y1="149" y2="21.858"/><linearGradient id="lg3"><stop offset="0" stop-color="#4071f7" stop-opacity="0"/><stop offset=".1605" stop-color="#3d6be4" stop-opacity=".161"/><stop offset=".5236" stop-color="#3660bf" stop-opacity=".524"/><stop offset=".8163" stop-color="#3259a7" stop-opacity=".816"/><stop offset="1" stop-color="#30569f"/></linearGradient><linearGradient id="SVGID_4_" gradientUnits="userSpaceOnUse" x1="255" x2="255" xlink:href="#lg3" y1="258" y2="181.882"/><linearGradient id="SVGID_5_" gradientUnits="userSpaceOnUse" x1="74.688" x2="435.312" xlink:href="#lg1" y1="74.688" y2="435.312"/><linearGradient id="SVGID_6_" gradientUnits="userSpaceOnUse" x1="255" x2="255" xlink:href="#lg2" y1="383.6" y2="503.603"/><linearGradient id="SVGID_7_" gradientUnits="userSpaceOnUse" x1="352.667" x2="228.522" xlink:href="#lg3" y1="352.667" y2="228.522"/><linearGradient id="SVGID_8_" gradientUnits="userSpaceOnUse" x1="374.333" x2="303.95" xlink:href="#lg3" y1="374.333" y2="303.95"/><linearGradient id="SVGID_9_" gradientUnits="userSpaceOnUse" x1="207.916" x2="312.906" y1="207.916" y2="312.906"><stop offset="0" stop-color="#eef4ff"/><stop offset="1" stop-color="#cfe7fd"/></linearGradient><linearGradient id="lg4"><stop offset="0" stop-color="#8aaadc" stop-opacity="0"/><stop offset="1" stop-color="#8aaadc"/></linearGradient><linearGradient id="SVGID_10_" gradientUnits="userSpaceOnUse" x1="318.583" x2="342.366" xlink:href="#lg4" y1="318.583" y2="342.366"/><linearGradient id="SVGID_11_" gradientUnits="userSpaceOnUse" x1="197.321" x2="215.334" xlink:href="#lg4" y1="293.172" y2="311.185"/><linearGradient id="SVGID_12_" gradientUnits="userSpaceOnUse" x1="293.172" x2="311.185" xlink:href="#lg4" y1="197.321" y2="215.333"/><g><circle cx="255" cy="255" fill="url(#SVGID_1_)" r="231.844"/><circle cx="255" cy="255" fill="url(#SVGID_2_)" r="231.844"/><path d="m255 23.16c-128.04 0-231.84 103.8-231.84 231.84s103.8 231.84 231.84 231.84 231.84-103.8 231.84-231.84-103.8-231.84-231.84-231.84zm0 304.46c-126.2 0-228.5-32.51-228.5-72.62s102.3-72.62 228.5-72.62 228.5 32.51 228.5 72.62-102.3 72.62-228.5 72.62z" fill="url(#SVGID_3_)"/><ellipse cx="255" cy="255" fill="url(#SVGID_4_)" rx="228.5" ry="72.625"/><path d="m509.984 256.344c.01-.455.016-.903.016-1.344s-.006-.889-.016-1.344c-.347-67.61-26.825-131.123-74.671-178.969-47.847-47.845-111.359-74.324-178.97-74.671-.454-.01-.903-.016-1.343-.016s-.889.006-1.343.016c-67.611.347-131.123 26.826-178.969 74.672s-74.325 111.358-74.672 178.968c-.01.455-.016.904-.016 1.344s.006.889.016 1.344c.347 67.61 26.825 131.123 74.671 178.969s111.358 74.324 178.969 74.671c.455.01.903.016 1.343.016s.889-.006 1.343-.016c67.611-.347 131.123-26.826 178.969-74.671 47.847-47.847 74.326-111.359 74.673-178.969zm-101.173 38.412c-12.806 4.949-26.993 9.198-42.246 12.698 1.468-17.06 2.225-34.622 2.225-52.453s-.757-35.393-2.225-52.453c15.252 3.5 29.44 7.748 42.246 12.698 35.605 13.763 51.543 29.884 51.543 39.756 0 9.87-15.938 25.991-51.543 39.754zm-153.811 165.598c-9.872 0-25.993-15.938-39.756-51.543-4.949-12.806-9.198-26.993-12.698-42.246 17.06 1.468 34.622 2.225 52.453 2.225s35.393-.757 52.453-2.225c-3.5 15.252-7.748 29.44-12.698 42.246-13.761 35.605-29.882 51.543-39.754 51.543zm0-141.21c-20.946 0-41.389-1.116-60.88-3.264-2.148-19.491-3.264-39.934-3.264-60.88s1.116-41.389 3.264-60.88c19.491-2.148 39.934-3.264 60.88-3.264s41.389 1.116 60.88 3.264c2.148 19.491 3.264 39.934 3.264 60.88s-1.116 41.389-3.264 60.88c-19.491 2.148-39.934 3.264-60.88 3.264zm-205.354-64.144c0-9.872 15.938-25.993 51.543-39.756 12.806-4.949 26.993-9.198 42.246-12.698-1.468 17.06-2.225 34.622-2.225 52.453s.757 35.393 2.225 52.453c-15.252-3.5-29.44-7.748-42.246-12.698-35.605-13.761-51.543-29.882-51.543-39.754zm205.354-205.354c9.872 0 25.993 15.938 39.756 51.543 4.949 12.806 9.198 26.993 12.698 42.246-17.06-1.468-34.622-2.225-52.453-2.225s-35.393.757-52.453 2.225c3.5-15.252 7.748-29.44 12.698-42.246 13.761-35.605 29.882-51.543 39.754-51.543zm190.004 127.173c-5.749-2.755-11.843-5.387-18.296-7.881-19.945-7.709-42.631-13.921-67.149-18.498-4.577-24.518-10.789-47.204-18.498-67.149-2.494-6.453-5.126-12.546-7.881-18.295 24.769 10.191 47.516 25.287 67.026 44.797 19.512 19.51 34.607 42.256 44.798 67.026zm-335.212-67.026c19.51-19.51 42.257-34.606 67.026-44.797-2.755 5.749-5.387 11.843-7.881 18.295-7.709 19.945-13.921 42.631-18.498 67.149-24.518 4.577-47.204 10.789-67.149 18.498-6.453 2.494-12.546 5.126-18.295 7.881 10.192-24.77 25.287-47.516 44.797-67.026zm-44.796 223.388c5.749 2.755 11.843 5.387 18.295 7.881 19.945 7.709 42.631 13.921 67.149 18.498 4.577 24.518 10.789 47.204 18.498 67.148 2.494 6.453 5.126 12.546 7.881 18.295-24.769-10.191-47.516-25.287-67.026-44.797-19.511-19.509-34.606-42.255-44.797-67.025zm268.185 111.823c2.755-5.749 5.387-11.843 7.881-18.295 7.709-19.945 13.921-42.631 18.498-67.148 24.518-4.577 47.204-10.789 67.149-18.498 6.453-2.494 12.546-5.126 18.296-7.881-10.191 24.77-25.287 47.516-44.797 67.026-19.511 19.509-42.257 34.605-67.027 44.796z" fill="url(#SVGID_5_)"/><path d="m10.165 326.603c11.826 40.664 33.745 77.931 64.523 108.71 47.846 47.846 111.358 74.324 178.969 74.671.455.01.903.016 1.343.016s.889-.006 1.343-.016c67.611-.347 131.123-26.826 178.969-74.671 30.778-30.778 52.697-68.045 64.523-108.71zm99.627 73.604c-19.51-19.51-34.606-42.256-44.797-67.026 5.749 2.755 11.843 5.387 18.295 7.881 19.945 7.709 42.631 13.921 67.149 18.498 4.577 24.518 10.789 47.204 18.498 67.148 2.494 6.453 5.126 12.546 7.881 18.295-24.769-10.19-47.515-25.286-67.026-44.796zm184.964 8.604c-13.763 35.605-29.884 51.543-39.756 51.543s-25.993-15.938-39.756-51.543c-4.949-12.806-9.198-26.993-12.698-42.246 17.06 1.468 34.622 2.225 52.453 2.225s35.393-.757 52.453-2.225c-3.499 15.252-7.747 29.44-12.696 42.246zm105.452-8.604c-19.51 19.51-42.257 34.606-67.026 44.797 2.755-5.749 5.387-11.843 7.881-18.295 7.709-19.945 13.921-42.631 18.498-67.148 24.518-4.577 47.204-10.789 67.149-18.498 6.453-2.494 12.546-5.126 18.295-7.881-10.192 24.769-25.287 47.515-44.797 67.025z" fill="url(#SVGID_6_)"/><path d="m435.312 435.312c23.327-23.327 41.559-50.385 54.175-79.82l-169.948-169.949c-2.649-4.156-6.902-7.374-12.435-8.507l-134.75-27.599c-13.649-2.796-25.713 9.268-22.917 22.917l27.599 134.75c1.133 5.532 4.351 9.786 8.507 12.435l169.949 169.949c29.435-12.617 56.493-30.849 79.82-54.176z" fill="url(#SVGID_7_)"/><path d="m346.888 289.836-57.052 57.052 114.703 114.703c10.829-7.868 21.125-16.63 30.773-26.279 9.648-9.648 18.41-19.944 26.279-30.773z" fill="url(#SVGID_8_)"/><g><path d="m356.495 299.443-65.606-65.606 25.05-25.049c10.937-10.937 5.319-29.647-9.833-32.751l-134.75-27.599c-13.649-2.796-25.713 9.268-22.917 22.917l27.599 134.75c3.104 15.152 21.814 20.77 32.75 9.833l25.05-25.049 65.606 65.606c7.3 7.3 19.135 7.3 26.434 0l30.618-30.618c7.298-7.3 7.298-19.135-.001-26.434z" fill="url(#SVGID_9_)"/><path d="m356.495 299.443-65.606-65.606-57.052 57.052 65.606 65.606c7.3 7.3 19.135 7.3 26.434 0l30.618-30.618c7.299-7.3 7.299-19.135 0-26.434z" fill="url(#SVGID_10_)"/><path d="m181.395 238.445 52.445 52.445-25.05 25.05c-10.94 10.93-29.65 5.32-32.75-9.84l-11.952-58.34c-.692-3.378.359-6.877 2.797-9.315 4.007-4.007 10.503-4.007 14.51 0z" fill="url(#SVGID_11_)"/><path d="m315.94 208.79-25.05 25.05-52.445-52.445c-4.007-4.007-4.007-10.504 0-14.511 2.438-2.438 5.937-3.488 9.314-2.796l58.34 11.952c15.161 3.1 20.771 21.81 9.841 32.75z" fill="url(#SVGID_12_)"/></g></g></svg>