<svg id="Capa_1" enable-background="new 0 0 510 510" height="512" viewBox="0 0 510 510" width="512" xmlns="http://www.w3.org/2000/svg" xmlns:xlink="http://www.w3.org/1999/xlink"><linearGradient id="SVGID_1_" gradientUnits="userSpaceOnUse" x1="164.932" x2="333.799" y1="217.068" y2="385.935"><stop offset="0" stop-color="#5a5a5a"/><stop offset="1" stop-color="#464646"/></linearGradient><linearGradient id="lg1"><stop offset="0" stop-color="#464646" stop-opacity="0"/><stop offset="1" stop-color="#202020"/></linearGradient><linearGradient id="SVGID_2_" gradientUnits="userSpaceOnUse" x1="195.468" x2="141.524" xlink:href="#lg1" y1="479.866" y2="425.922"/><linearGradient id="SVGID_3_" gradientUnits="userSpaceOnUse" x1="255" x2="255" xlink:href="#lg1" y1="234" y2="183.96"/><linearGradient id="SVGID_4_" gradientUnits="userSpaceOnUse" x1="203.103" x2="154.176" xlink:href="#lg1" y1="259.813" y2="210.886"/><linearGradient id="SVGID_5_" gradientUnits="userSpaceOnUse" x1="399.989" x2="369.831" xlink:href="#lg1" y1="229.011" y2="198.852"/><linearGradient id="SVGID_6_" gradientUnits="userSpaceOnUse" x1="381.953" x2="234.105" xlink:href="#lg1" y1="397.179" y2="310.091"/><linearGradient id="lg2"><stop offset="0" stop-color="#eef4ff"/><stop offset="1" stop-color="#cfe7fd"/></linearGradient><linearGradient id="SVGID_7_" gradientUnits="userSpaceOnUse" x1="52.12" x2="151.165" xlink:href="#lg2" y1="310.501" y2="310.501"/><linearGradient id="SVGID_8_" gradientUnits="userSpaceOnUse" x1="142.625" x2="63.105" xlink:href="#lg2" y1="310.501" y2="310.501"/><linearGradient id="lg3"><stop offset="0" stop-color="#8aaadc" stop-opacity="0"/><stop offset="1" stop-color="#8aaadc"/></linearGradient><linearGradient id="SVGID_9_" gradientUnits="userSpaceOnUse" x1="101.5" x2="101.5" xlink:href="#lg3" y1="285" y2="176.459"/><linearGradient id="SVGID_10_" gradientUnits="userSpaceOnUse" x1="177.736" x2="152.608" xlink:href="#lg3" y1="248.264" y2="223.136"/><linearGradient id="SVGID_11_" gradientUnits="userSpaceOnUse" x1="83.998" x2="117.63" xlink:href="#lg2" y1="172.788" y2="206.42"/><linearGradient id="SVGID_12_" gradientUnits="userSpaceOnUse" x1="101.5" x2="101.5" xlink:href="#lg3" y1="221.5" y2="174.997"/><linearGradient id="SVGID_13_" gradientUnits="userSpaceOnUse" x1="196.48" x2="154.805" xlink:href="#lg3" y1="248.771" y2="207.096"/><linearGradient id="SVGID_14_" gradientUnits="userSpaceOnUse" x1="88.121" x2="113.673" xlink:href="#lg2" y1="417.332" y2="442.884"/><linearGradient id="SVGID_15_" gradientUnits="userSpaceOnUse" x1="101.5" x2="101.5" xlink:href="#lg3" y1="410" y2="471.522"/><linearGradient id="SVGID_16_" gradientUnits="userSpaceOnUse" x1="182.846" x2="151.37" xlink:href="#lg3" y1="469.154" y2="437.677"/><linearGradient id="SVGID_17_" gradientUnits="userSpaceOnUse" x1="359.12" x2="458.165" xlink:href="#lg2" y1="310.501" y2="310.501"/><linearGradient id="SVGID_18_" gradientUnits="userSpaceOnUse" x1="449.625" x2="370.105" xlink:href="#lg2" y1="310.501" y2="310.501"/><linearGradient id="SVGID_19_" gradientUnits="userSpaceOnUse" x1="419.739" x2="338.977" xlink:href="#lg3" y1="248.761" y2="167.998"/><linearGradient id="SVGID_20_" gradientUnits="userSpaceOnUse" x1="408.5" x2="408.5" xlink:href="#lg3" y1="285" y2="176.459"/><linearGradient id="SVGID_21_" gradientUnits="userSpaceOnUse" x1="390.998" x2="424.63" xlink:href="#lg2" y1="172.788" y2="206.42"/><linearGradient id="SVGID_22_" gradientUnits="userSpaceOnUse" x1="408.5" x2="408.5" xlink:href="#lg3" y1="221.5" y2="174.997"/><linearGradient id="SVGID_23_" gradientUnits="userSpaceOnUse" x1="426.001" x2="373.222" xlink:href="#lg3" y1="248.999" y2="196.22"/><linearGradient id="SVGID_24_" gradientUnits="userSpaceOnUse" x1="395.121" x2="420.673" xlink:href="#lg2" y1="417.332" y2="442.884"/><linearGradient id="SVGID_25_" gradientUnits="userSpaceOnUse" x1="408.5" x2="408.5" xlink:href="#lg3" y1="410" y2="471.522"/><linearGradient id="SVGID_26_" gradientUnits="userSpaceOnUse" x1="420.979" x2="377.386" xlink:href="#lg3" y1="475.021" y2="431.428"/><linearGradient id="SVGID_27_" gradientUnits="userSpaceOnUse" x1="121.036" x2="333.715" xlink:href="#lg2" y1="33.285" y2="245.964"/><linearGradient id="SVGID_28_" gradientUnits="userSpaceOnUse" x1="255" x2="255" xlink:href="#lg3" y1="135.394" y2="193.403"/><linearGradient id="SVGID_29_" gradientUnits="userSpaceOnUse" x1="423.343" x2="393.715" xlink:href="#lg3" y1="215.657" y2="186.03"/><linearGradient id="SVGID_30_" gradientUnits="userSpaceOnUse" x1="255" x2="255" xlink:href="#lg2" y1="158.096" y2="35.984"/><linearGradient id="SVGID_31_" gradientUnits="userSpaceOnUse" x1="78.199" x2="443.443" xlink:href="#lg2" y1="348.119" y2="604.777"/><linearGradient id="SVGID_32_" gradientUnits="userSpaceOnUse" x1="255" x2="255" y1="480.747" y2="548.768"><stop offset="0" stop-color="#4071f7" stop-opacity="0"/><stop offset="1" stop-color="#30569f"/></linearGradient><linearGradient id="lg4"><stop offset="0" stop-color="#f7e07d"/><stop offset="1" stop-color="#e69642"/></linearGradient><linearGradient id="SVGID_33_" gradientUnits="userSpaceOnUse" x1="197.977" x2="299.377" xlink:href="#lg4" y1="252.357" y2="353.757"/><linearGradient id="SVGID_34_" gradientUnits="userSpaceOnUse" x1="255" x2="255" y1="344" y2="424.056"><stop offset="0" stop-color="#d52c1c" stop-opacity="0"/><stop offset=".28" stop-color="#d12c1e" stop-opacity=".28"/><stop offset=".5735" stop-color="#c42c23" stop-opacity=".574"/><stop offset=".8721" stop-color="#af2b2c" stop-opacity=".872"/><stop offset="1" stop-color="#a42b31"/></linearGradient><linearGradient id="SVGID_35_" gradientUnits="userSpaceOnUse" x1="441.025" x2="416.38" xlink:href="#lg3" y1="371.721" y2="302.965"/><linearGradient id="SVGID_36_" gradientUnits="userSpaceOnUse" x1="360.045" x2="468.21" xlink:href="#lg4" y1="290.726" y2="331.288"/><linearGradient id="SVGID_37_" gradientUnits="userSpaceOnUse" x1="128.07" x2="99.066" xlink:href="#lg3" y1="383.535" y2="302.613"/><linearGradient id="SVGID_38_" gradientUnits="userSpaceOnUse" x1="38.045" x2="146.21" xlink:href="#lg4" y1="290.726" y2="331.288"/><linearGradient id="SVGID_39_" gradientUnits="userSpaceOnUse" x1="435.395" x2="362.355" xlink:href="#lg3" y1="492.105" y2="419.064"/><linearGradient id="SVGID_40_" gradientUnits="userSpaceOnUse" x1="313.697" x2="420.3" xlink:href="#lg4" y1="404.874" y2="444.85"/><linearGradient id="SVGID_41_" gradientUnits="userSpaceOnUse" x1="86.009" x2="192.611" xlink:href="#lg4" y1="177.185" y2="217.161"/><linearGradient id="SVGID_42_" gradientUnits="userSpaceOnUse" x1="197.968" x2="132.264" xlink:href="#lg3" y1="482.366" y2="416.662"/><linearGradient id="SVGID_43_" gradientUnits="userSpaceOnUse" x1="101.457" x2="178.197" xlink:href="#lg4" y1="410.667" y2="439.444"/><linearGradient id="SVGID_44_" gradientUnits="userSpaceOnUse" x1="329.145" x2="405.886" xlink:href="#lg4" y1="182.978" y2="211.756"/><g><g><path d="m107.5 155.636h295v303h-295z" fill="url(#SVGID_1_)"/><path d="m165.709 401.001-49.106 49.106 8.529 8.529h98.212z" fill="url(#SVGID_2_)"/><path d="m107.5 155.636h295v91.309h-295z" fill="url(#SVGID_3_)"/><path d="m223.012 256.988-57.303-57.304-22.734 22.734 57.303 57.304z" fill="url(#SVGID_4_)"/><path d="m402.5 182.415-9.103-9.103-49.106 49.106 58.209 58.209z" fill="url(#SVGID_5_)"/><path d="m402.5 315.106-86.148-86.148c-6.393-9.605-23.518-13.538-37.425-14.96-1.001-1.3-10.409-10.313-10.971-11.005-1.9-2.338-5.524-4.053-9.156-4.053-6.096 0-10.53 3.602-10.53 7.482v7.759c-29.373 4.156-55.421 21.06-55.421 56.252 0 16.808 6.726 28.321 16.51 36.822 0 0 38.579 38.667 38.911 39.03v26.122c-20.506-3.602-29.927-19.951-41.566-19.951-10.53 0-18.842 13.855-18.842 23.276 0 6.891 4.114 13.694 11.079 19.508l63.399 63.399h140.16z" fill="url(#SVGID_6_)"/><g><g><g><path d="m51.11 173.001h100.78v275h-100.78z" fill="url(#SVGID_7_)"/><path d="m76.04 173.001h50.92v275h-50.92z" fill="url(#SVGID_8_)"/></g><path d="m51.11 218.441 100.78 100.78v-146.22h-100.78z" fill="url(#SVGID_9_)"/><path d="m151.89 231.334v-17.831l-8.915 8.915z" fill="url(#SVGID_10_)"/><path d="m170.12 173.001v27.21c0 9.825-7.965 17.789-17.789 17.789h-101.662c-9.825 0-17.789-7.965-17.789-17.789v-27.21z" fill="url(#SVGID_11_)"/><path d="m32.88 173.001v12.759l32.24 32.24h87.211c9.825 0 17.789-7.965 17.789-17.789v-27.21z" fill="url(#SVGID_12_)"/><path d="m165.709 199.684-18.316 18.316h4.938c8.615 0 15.798-6.125 17.436-14.258z" fill="url(#SVGID_13_)"/><path d="m170.12 448.001v-27.21c0-9.825-7.965-17.789-17.789-17.789h-101.662c-9.825 0-17.789 7.965-17.789 17.789v27.21z" fill="url(#SVGID_14_)"/><path d="m170.12 448.001v-27.21c0-9.825-7.965-17.789-17.789-17.789h-101.662c-9.825 0-17.789 7.965-17.789 17.789v27.21z" fill="url(#SVGID_15_)"/><path d="m161.277 405.432-42.568 42.568h51.411v-27.21c0-6.558-3.56-12.273-8.843-15.358z" fill="url(#SVGID_16_)"/></g><g><g><path d="m358.11 173.001h100.78v275h-100.78z" fill="url(#SVGID_17_)"/><path d="m383.04 173.001h50.92v275h-50.92z" fill="url(#SVGID_18_)"/><path d="m358.11 236.237 100.78 100.78v-98.212l-65.493-65.493-35.287 35.288z" fill="url(#SVGID_19_)"/></g><path d="m358.11 218.441 100.78 100.78v-146.22h-100.78z" fill="url(#SVGID_20_)"/><path d="m477.12 173.001v27.21c0 9.825-7.965 17.789-17.789 17.789h-101.662c-9.825 0-17.789-7.965-17.789-17.789v-27.21z" fill="url(#SVGID_21_)"/><path d="m339.88 173.001v12.759l32.24 32.24h87.211c9.825 0 17.789-7.965 17.789-17.789v-27.21z" fill="url(#SVGID_22_)"/><path d="m357.669 218h80.416l-44.688-44.688-43.083 43.082c2.244 1.022 4.729 1.606 7.355 1.606z" fill="url(#SVGID_23_)"/><path d="m477.12 448.001v-27.21c0-9.825-7.965-17.789-17.789-17.789h-101.662c-9.825 0-17.789 7.965-17.789 17.789v27.21z" fill="url(#SVGID_24_)"/><path d="m477.12 448.001v-27.21c0-9.825-7.965-17.789-17.789-17.789h-101.662c-9.825 0-17.789 7.965-17.789 17.789v27.21z" fill="url(#SVGID_25_)"/><path d="m414.026 448.001-20.067-20.067-20.067 20.067z" fill="url(#SVGID_26_)"/></g></g><g><path d="m213.756 12.661-205.437 139.252c-15.084 10.224-7.847 33.799 10.375 33.799h472.612c18.223 0 25.459-23.574 10.375-33.799l-205.437-139.252c-24.905-16.881-57.583-16.881-82.488 0z" fill="url(#SVGID_27_)"/><path d="m8.319 151.913c-15.084 10.224-7.847 33.799 10.375 33.799h472.612c18.222 0 25.459-23.574 10.375-33.799l-39.124-26.52h-415.114z" fill="url(#SVGID_28_)"/><path d="m405.797 185.712-12.4-12.4-12.399 12.4z" fill="url(#SVGID_29_)"/><path d="m93.506 135.594 141.55-95.947c12.043-8.163 27.845-8.163 39.888 0l141.55 95.947c8.945 6.063 4.653 20.043-6.153 20.043h-310.682c-10.806-.001-15.098-13.98-6.153-20.043z" fill="url(#SVGID_30_)"/></g><g><path d="m483.967 510h-457.934c-14.378 0-26.033-11.655-26.033-26.033v-23.22c0-14.377 11.655-26.033 26.033-26.033h457.935c14.377 0 26.033 11.655 26.033 26.033v23.22c-.001 14.378-11.656 26.033-26.034 26.033z" fill="url(#SVGID_31_)"/><path d="m0 460.747v23.22c0 14.378 11.655 26.033 26.033 26.033h457.935c14.377 0 26.032-11.655 26.032-26.033v-23.22z" fill="url(#SVGID_32_)"/></g><g><path d="m268.439 289.541v-40.457c18.012 1.386 23.277 10.253 32.42 10.253 12.193 0 17.181-15.241 17.181-22.723 0-19.12-32.422-23.554-49.601-24.108v-6.928c0-3.879-5.265-7.482-10.53-7.482-6.096 0-10.53 3.602-10.53 7.482v7.759c-29.373 4.156-55.421 21.059-55.421 56.252 0 35.469 29.927 47.384 55.421 57.083v44.891c-20.506-3.602-29.927-19.951-41.566-19.951-10.53 0-18.842 13.855-18.842 23.276 0 17.735 27.157 34.915 60.408 36.023v6.927c0 3.88 4.434 7.482 10.53 7.482 5.265 0 10.53-3.602 10.53-7.482v-8.036c32.42-5.265 54.59-26.047 54.59-60.408 0-37.408-29.374-50.432-54.59-59.853zm-18.289-6.65c-10.53-4.434-17.735-9.422-17.735-17.458 0-6.65 5.266-13.023 17.735-15.518zm15.519 88.395v-37.132c9.975 4.711 16.902 10.53 16.902 19.674 0 9.977-7.482 15.241-16.902 17.458z" fill="url(#SVGID_33_)"/><path d="m247.38 326.673v44.891c-20.506-3.602-29.927-19.951-41.567-19.951-10.53 0-18.842 13.855-18.842 23.276 0 17.734 27.157 34.915 60.409 36.023v6.927c0 3.88 4.434 7.482 10.53 7.482 5.265 0 10.53-3.602 10.53-7.482v-8.036c32.421-5.265 54.59-26.047 54.59-60.408 0-15.693-5.18-27.084-13.044-35.729h-91.401c9.008 5.404 19.214 9.362 28.795 13.007zm18.289 7.482c9.975 4.711 16.902 10.53 16.902 19.674 0 9.975-7.482 15.24-16.902 17.457z" fill="url(#SVGID_34_)"/></g></g><g><path d="m458.89 314.14-10.64-10.64h-52.232c-6.499 0-11.768 5.269-11.768 11.768v5.482l74.64 74.64z" fill="url(#SVGID_35_)"/><path d="m434.648 295.634h-37.295c-8.878 0-16.075 7.197-16.075 16.076 0 8.878 7.197 16.076 16.075 16.076h37.295c8.878 0 16.075-7.197 16.075-16.076 0-8.879-7.197-16.076-16.075-16.076z" fill="url(#SVGID_36_)"/><path d="m151.89 329.14-25.64-25.64h-52.232c-6.499 0-11.768 5.269-11.768 11.768v5.482l89.64 89.64z" fill="url(#SVGID_37_)"/><path d="m128.723 311.71c0-8.878-7.197-16.076-16.075-16.076h-37.296c-8.878 0-16.075 7.197-16.075 16.076 0 8.878 7.197 16.076 16.075 16.076h37.295c8.879-.001 16.076-7.198 16.076-16.076z" fill="url(#SVGID_38_)"/><path d="m400.74 434.715h-13.562l-15.953 15.953 59.331 59.332h45.469z" fill="url(#SVGID_39_)"/><path d="m367.025 401.001c-6.278-6.278-16.456-6.278-22.734 0-6.278 6.278-6.278 16.456 0 22.734l26.372 26.372c6.278 6.278 16.456 6.278 22.734 0 6.278-6.278 6.278-16.456 0-22.734z" fill="url(#SVGID_40_)"/><path d="m139.337 173.312c-6.278-6.278-16.456-6.278-22.734 0-6.278 6.278-6.278 16.456 0 22.734l26.372 26.372c6.278 6.278 16.456 6.278 22.734 0 6.278-6.278 6.278-16.456 0-22.734z" fill="url(#SVGID_41_)"/><path d="m199.423 434.715h-67.428l-15.392 15.392 59.893 59.893h98.212z" fill="url(#SVGID_42_)"/><path d="m165.709 401.001c-6.278-6.278-16.456-6.278-22.734 0l-26.372 26.372c-6.278 6.278-6.278 16.456 0 22.734 6.278 6.278 16.456 6.278 22.734 0l26.372-26.372c6.278-6.278 6.278-16.456 0-22.734z" fill="url(#SVGID_43_)"/><path d="m344.291 222.418c6.278 6.278 16.456 6.278 22.734 0l26.372-26.372c6.278-6.278 6.278-16.456 0-22.734-6.278-6.278-16.456-6.278-22.734 0l-26.372 26.372c-6.278 6.278-6.278 16.456 0 22.734z" fill="url(#SVGID_44_)"/></g></g></svg>