<svg id="Capa_1" enable-background="new 0 0 510 510" height="512" viewBox="0 0 510 510" width="512" xmlns="http://www.w3.org/2000/svg" xmlns:xlink="http://www.w3.org/1999/xlink"><linearGradient id="lg1"><stop offset="0" stop-color="#76ccf8"/><stop offset=".833" stop-color="#518ef8"/><stop offset="1" stop-color="#4981f8"/></linearGradient><linearGradient id="SVGID_1_" gradientUnits="userSpaceOnUse" x1="-17.869" x2="187.037" xlink:href="#lg1" y1="42.177" y2="247.083"/><linearGradient id="lg2"><stop offset="0" stop-color="#4071f7" stop-opacity="0"/><stop offset="1" stop-color="#30569f"/></linearGradient><linearGradient id="SVGID_2_" gradientUnits="userSpaceOnUse" x1="164.589" x2="164.589" xlink:href="#lg2" y1="287.263" y2="432.949"/><linearGradient id="lg3"><stop offset="0" stop-color="#eef4ff"/><stop offset="1" stop-color="#cfe7fd"/></linearGradient><linearGradient id="SVGID_3_" gradientUnits="userSpaceOnUse" x1="14.964" x2="435.32" xlink:href="#lg3" y1="75.993" y2="496.348"/><linearGradient id="lg4"><stop offset="0" stop-color="#8aaadc" stop-opacity="0"/><stop offset="1" stop-color="#8aaadc"/></linearGradient><linearGradient id="SVGID_4_" gradientUnits="userSpaceOnUse" x1="319.254" x2="319.254" xlink:href="#lg4" y1="391" y2="249.414"/><linearGradient id="SVGID_5_" gradientUnits="userSpaceOnUse" x1="119.377" x2="225.276" xlink:href="#lg4" y1="134.183" y2="240.081"/><linearGradient id="SVGID_6_" gradientUnits="userSpaceOnUse" x1="79.319" x2="216.996" xlink:href="#lg4" y1="193.303" y2="330.98"/><linearGradient id="SVGID_7_" gradientUnits="userSpaceOnUse" x1="219.008" x2="219.008" xlink:href="#lg4" y1="393.789" y2="519.819"/><linearGradient id="SVGID_8_" gradientUnits="userSpaceOnUse" x1="258.166" x2="258.166" xlink:href="#lg3" y1="410.068" y2="507.32"/><linearGradient id="SVGID_9_" gradientUnits="userSpaceOnUse" x1="258.166" x2="258.166" xlink:href="#lg4" y1="456" y2="525.116"/><linearGradient id="lg5"><stop offset="0" stop-color="#f4dabc"/><stop offset=".0028" stop-color="#f4dabc"/><stop offset="1" stop-color="#e9a6ae"/></linearGradient><linearGradient id="SVGID_10_" gradientUnits="userSpaceOnUse" x1="357.289" x2="407.824" xlink:href="#lg5" y1="54.435" y2="54.435"/><linearGradient id="SVGID_11_" gradientUnits="userSpaceOnUse" x1="312.495" x2="475.146" xlink:href="#lg5" y1="110.127" y2="272.779"/><linearGradient id="lg6"><stop offset="0" stop-color="#e487a4" stop-opacity="0"/><stop offset="1" stop-color="#e487a4"/></linearGradient><linearGradient id="SVGID_12_" gradientUnits="userSpaceOnUse" x1="364.622" x2="243.889" xlink:href="#lg6" y1="198.528" y2="198.528"/><linearGradient id="SVGID_13_" gradientUnits="userSpaceOnUse" x1="374.941" x2="374.941" xlink:href="#lg6" y1="234.667" y2="327.372"/><linearGradient id="SVGID_14_" gradientUnits="userSpaceOnUse" x1="483.425" x2="346.39" xlink:href="#lg6" y1="171.841" y2="242.186"/><linearGradient id="SVGID_15_" gradientTransform="matrix(0 -1 -1 0 477.497 -1376.831)" gradientUnits="userSpaceOnUse" x1="-1564.594" x2="-1564.594" y1="191.61" y2="216.659"><stop offset="0" stop-color="#e9a6ae" stop-opacity="0"/><stop offset="1" stop-color="#e09380"/></linearGradient><linearGradient id="SVGID_16_" gradientUnits="userSpaceOnUse" x1="223.3" x2="315.706" xlink:href="#lg1" y1="132.7" y2="225.107"/><linearGradient id="SVGID_17_" gradientUnits="userSpaceOnUse" x1="276.743" x2="276.743" xlink:href="#lg2" y1="227.333" y2="269.339"/><g><path d="m312.126 0h-295.073c-9.393 0-17.008 7.615-17.008 17.008v411.485c0 14.418 11.688 26.106 26.106 26.106h232.578c38.884 0 70.406-31.522 70.406-70.406v-367.185c-.001-9.393-7.616-17.008-17.009-17.008z" fill="url(#SVGID_1_)"/><path d="m.045 263.505v164.988c0 14.418 11.688 26.106 26.106 26.106h232.578c38.884 0 70.406-31.522 70.406-70.406v-120.688z" fill="url(#SVGID_2_)"/><path d="m313.146 510h-232.577c-14.418 0-26.106-11.688-26.106-26.106v-411.484c0-9.393 7.615-17.008 17.008-17.008h295.073c9.393 0 17.008 7.615 17.008 17.008v367.184c.001 38.884-31.521 70.406-70.406 70.406z" fill="url(#SVGID_3_)"/><path d="m329.34 379.352h-220.664c-8.266 0-14.967-6.701-14.967-14.967v-23.757c0-8.266 6.701-14.967 14.967-14.967h220.664c8.266 0 14.967 6.701 14.967 14.967v23.757c0 8.267-6.701 14.967-14.967 14.967z" fill="#fff"/><path d="m383.553 242h-128.598v30.5l128.598 128.597z" fill="url(#SVGID_4_)"/><path d="m208.989 294.946h-100.313c-8.266 0-14.967-6.701-14.967-14.967v-171.37c0-8.266 6.701-14.967 14.967-14.967h100.313c8.266 0 14.967 6.701 14.967 14.967v171.37c-.001 8.266-6.702 14.967-14.967 14.967z" fill="#fff"/><circle cx="158.832" cy="173.637" fill="url(#SVGID_5_)" r="42.619"/><path d="m208.989 294.946c8.266 0 14.967-6.701 14.967-14.967v-19.72c-15.195-19.234-38.709-31.592-65.123-31.592s-49.928 12.359-65.123 31.592v19.72c0 8.266 6.701 14.967 14.967 14.967z" fill="url(#SVGID_6_)"/><path d="m54.463 388.701v95.193c0 14.418 11.688 26.106 26.106 26.106h232.578c38.884 0 70.406-31.522 70.406-70.406v-50.893z" fill="url(#SVGID_7_)"/><path d="m106.674 427.076v56.818c0 14.418-11.688 26.106-26.106 26.106h284.789c38.884 0 70.406-31.522 70.406-70.406v-12.518c0-9.393-7.615-17.008-17.008-17.008h-295.072c-9.394 0-17.009 7.615-17.009 17.008z" fill="url(#SVGID_8_)"/><path d="m106.674 427.076v56.818c0 14.418-11.688 26.106-26.106 26.106h284.789c38.884 0 70.406-31.522 70.406-70.406v-12.518c0-9.393-7.615-17.008-17.008-17.008h-295.072c-9.394 0-17.009 7.615-17.009 17.008z" fill="url(#SVGID_9_)"/><g><g><path d="m324.908 104.929c12.234-6.742 19.832-19.605 19.832-33.573v-52.608c0-8.178 6.63-14.808 14.808-14.808 18.14 0 32.845 14.705 32.845 32.845v68.144z" fill="url(#SVGID_10_)"/><g><path d="m503.241 115.692c.3 12.303-10.092 22.57-22.397 22.806l-12.598 1.528 20.009 1.261c12.07.296 21.701 10.165 21.701 22.239v.654c0 12.074-9.631 21.943-21.701 22.239l-25.184 1.388 12.503 1.227c12.039.336 21.625 10.193 21.625 22.237v.802c0 12.044-9.585 21.901-21.625 22.237l-12.833 1.237v.147l3.979 1.096c12.012.372 21.558 10.217 21.558 22.235v.255c0 12.286-9.96 22.245-22.245 22.245h-101.288c-13.122 0-26.03-3.325-37.519-9.666l-12.359-6.82c-11.489-6.34-24.397-9.666-37.519-9.666h-5.53c-10.568 0-19.135-8.567-19.135-19.135v-96.952c0-10.568 8.567-19.135 19.135-19.135h5.53c13.122 0 26.03-3.325 37.519-9.666l17.916-9.887c7.844-4.328 16.656-6.598 25.614-6.598h122.604c12.102 0 21.946 9.662 22.24 21.692z" fill="url(#SVGID_11_)"/><path d="m271.819 255.374h5.53c13.122 0 26.03 3.325 37.519 9.666l12.359 6.82c11.488 6.34 24.397 9.666 37.519 9.666h101.287c1.168 0 2.315-.091 3.434-.265l-165.73-165.73c-8.433 3.047-17.359 4.621-26.387 4.621h-5.53c-10.568 0-19.135 8.567-19.135 19.135v96.952c-.002 10.568 8.565 19.135 19.134 19.135z" fill="url(#SVGID_12_)"/><path d="m252.683 236.238c0 10.568 8.567 19.135 19.135 19.135h5.53c13.122 0 26.03 3.325 37.519 9.666l12.359 6.82c11.488 6.34 24.397 9.666 37.519 9.666h101.287c12.286 0 22.246-9.96 22.246-22.245v-.255c0-12.018-9.545-21.863-21.558-22.235l-3.979-1.096v-.147l12.833-1.237c12.039-.336 21.625-10.193 21.625-22.237v-.802c0-.204-.025-.402-.03-.604h-244.486z" fill="url(#SVGID_13_)"/><path d="m481.008 94h-47.608l15.461 15.461c6.174 6.174 6.174 16.188 0 22.375-3.087 3.087-4.643 7.131-4.643 11.175 0 4.057 1.556 8.101 4.643 11.188 3.087 3.1 4.631 7.144 4.631 11.188 0 4.057-1.544 8.101-4.631 11.188s-4.643 7.131-4.643 11.188 1.556 8.101 4.643 11.188 4.631 7.131 4.631 11.188c0 4.044-1.544 8.088-4.631 11.188-3.087 3.087-4.643 7.131-4.643 11.188 0 4.044 1.556 8.088 4.643 11.175s4.631 7.144 4.631 11.188c0 4.057-1.544 8.101-4.631 11.188l-15.461 15.459h32.632c12.285 0 22.248-9.963 22.248-22.248v-.255c0-12.017-9.542-21.865-21.559-22.235l-3.98-1.097v-.14l12.833-1.237c12.042-.344 21.623-10.193 21.623-22.235v-.804c0-12.042-9.58-21.903-21.623-22.235l-12.502-1.237 25.182-1.378c12.068-.306 21.699-10.167 21.699-22.248v-.651c0-12.068-9.631-21.942-21.699-22.235l-20.003-1.263 12.59-1.531c12.31-.23 22.694-10.499 22.401-22.809-.292-12.03-10.141-21.687-22.234-21.687z" fill="url(#SVGID_14_)"/><path d="m310.935 263.02c-10.466-5.021-21.94-7.646-33.586-7.646h-5.53c-10.568 0-19.135-8.567-19.135-19.135v-96.952c0-10.568 8.567-19.135 19.135-19.135h5.53c11.646 0 23.12-2.625 33.586-7.646z" fill="url(#SVGID_15_)"/></g></g><path d="m286.176 277.936h-18.867c-9.86 0-17.854-7.993-17.854-17.854v-147.878c0-9.86 7.993-17.854 17.854-17.854h18.867c9.86 0 17.854 7.993 17.854 17.854v147.878c0 9.861-7.994 17.854-17.854 17.854z" fill="url(#SVGID_16_)"/><path d="m249.455 206.667v53.416c0 9.86 7.993 17.854 17.854 17.854h18.867c9.86 0 17.854-7.993 17.854-17.854v-53.416z" fill="url(#SVGID_17_)"/></g></g></svg>