<svg id="Capa_1" enable-background="new 0 0 510 510" height="512" viewBox="0 0 510 510" width="512" xmlns="http://www.w3.org/2000/svg" xmlns:xlink="http://www.w3.org/1999/xlink"><linearGradient id="lg1"><stop offset="0" stop-color="#eef4ff"/><stop offset="1" stop-color="#cfe7fd"/></linearGradient><linearGradient id="SVGID_1_" gradientUnits="userSpaceOnUse" x1="284.796" x2="284.796" xlink:href="#lg1" y1="356.888" y2="445.174"/><linearGradient id="lg2"><stop offset="0" stop-color="#8aaadc" stop-opacity="0"/><stop offset="1" stop-color="#8aaadc"/></linearGradient><linearGradient id="SVGID_2_" gradientUnits="userSpaceOnUse" x1="284.796" x2="284.796" xlink:href="#lg2" y1="384.706" y2="526.103"/><linearGradient id="lg3"><stop offset="0" stop-color="#76ccf8"/><stop offset=".833" stop-color="#518ef8"/><stop offset="1" stop-color="#4981f8"/></linearGradient><linearGradient id="SVGID_3_" gradientUnits="userSpaceOnUse" x1="135.392" x2="452.074" xlink:href="#lg3" y1="187.189" y2="503.871"/><linearGradient id="lg4"><stop offset="0" stop-color="#4071f7" stop-opacity="0"/><stop offset="1" stop-color="#30569f"/></linearGradient><linearGradient id="SVGID_4_" gradientUnits="userSpaceOnUse" x1="253.606" x2="253.606" xlink:href="#lg4" y1="223" y2="135.333"/><linearGradient id="SVGID_5_" gradientUnits="userSpaceOnUse" x1="199.418" x2="-46.274" xlink:href="#lg4" y1="373.256" y2="259.282"/><linearGradient id="SVGID_6_" gradientUnits="userSpaceOnUse" x1="413.744" x2="349.591" xlink:href="#lg4" y1="475.731" y2="347.425"/><linearGradient id="lg5"><stop offset="0" stop-color="#5a5a5a"/><stop offset="1" stop-color="#464646"/></linearGradient><linearGradient id="SVGID_7_" gradientUnits="userSpaceOnUse" x1="142.21" x2="162.979" xlink:href="#lg5" y1="172.172" y2="192.94"/><linearGradient id="lg6"><stop offset="0" stop-color="#f7e07d"/><stop offset="1" stop-color="#e69642"/></linearGradient><linearGradient id="SVGID_8_" gradientUnits="userSpaceOnUse" x1="85.674" x2="87.948" xlink:href="#lg6" y1="331.533" y2="300.594"/><linearGradient id="SVGID_9_" gradientUnits="userSpaceOnUse" x1="36.302" x2="116.605" xlink:href="#lg6" y1="235.976" y2="316.279"/><linearGradient id="SVGID_10_" gradientUnits="userSpaceOnUse" x1="337.884" x2="337.884" xlink:href="#lg4" y1="437.335" y2="508.025"/><linearGradient id="SVGID_11_" gradientUnits="userSpaceOnUse" x1="291.797" x2="291.797" xlink:href="#lg1" y1="1.214" y2="174.233"/><linearGradient id="SVGID_12_" gradientUnits="userSpaceOnUse" x1="258.577" x2="321.239" xlink:href="#lg5" y1="46.559" y2="109.221"/><linearGradient id="SVGID_13_" gradientUnits="userSpaceOnUse" x1="291.788" x2="291.788" xlink:href="#lg2" y1="112.208" y2="172.224"/><linearGradient id="SVGID_14_" gradientUnits="userSpaceOnUse" x1="211.903" x2="449.721" xlink:href="#lg3" y1="165.732" y2="403.55"/><linearGradient id="SVGID_15_" gradientUnits="userSpaceOnUse" x1="369.586" x2="310.339" xlink:href="#lg4" y1="323.611" y2="256.607"/><linearGradient id="SVGID_16_" gradientUnits="userSpaceOnUse" x1="348.814" x2="348.814" xlink:href="#lg4" y1="387.672" y2="291.441"/><g><g><g><path d="m282.518 218.161c0-56.912-46.136-103.048-103.048-103.048-56.912 0-103.048 46.136-103.048 103.048v86.256c.001 113.54 92.043 205.583 205.584 205.583 81.575 0 155.433-48.232 188.233-122.923l21.794-49.63c3.851-8.769-2.572-18.604-12.149-18.604h-96.684c-55.605 0-100.682-45.077-100.682-100.682z" fill="url(#SVGID_1_)"/><path d="m282.518 218.161c0-56.912-46.136-103.048-103.048-103.048-56.912 0-103.048 46.136-103.048 103.048v86.256c.001 113.54 92.043 205.583 205.584 205.583 81.575 0 155.433-48.232 188.233-122.923l21.794-49.63c3.851-8.769-2.572-18.604-12.149-18.604h-96.684c-55.605 0-100.682-45.077-100.682-100.682z" fill="url(#SVGID_2_)"/><path d="m479.884 318.843h-96.684c-55.605 0-100.682-45.077-100.682-100.682 0-56.912-46.136-103.048-103.048-103.048-56.912 0-103.048 46.136-103.048 103.048v86.256c0 16.431 1.939 32.407 5.58 47.723 6.242-.831 12.608-1.267 19.077-1.267 79.102 0 143.227 64.125 143.227 143.227 0 4.157-.188 8.269-.535 12.336 12.39 2.331 25.167 3.564 38.234 3.564 81.575 0 155.433-48.232 188.233-122.923l21.794-49.63c3.852-8.768-2.571-18.604-12.148-18.604z" fill="url(#SVGID_3_)"/><path d="m282.518 218.161c0-27.271-10.598-52.063-27.894-70.495h-13.406c-9.693 0-17.551 7.858-17.551 17.551v7.449l59.879 59.879c-.673-4.698-1.028-9.499-1.028-14.384z" fill="url(#SVGID_4_)"/><path d="m82.003 352.14c6.242-.831 12.608-1.267 19.077-1.267 79.102 0 143.227 64.125 143.227 143.227 0 4.157-.188 8.269-.535 12.336 12.39 2.331 25.167 3.564 38.234 3.564 34.639 0 67.885-8.701 97.189-24.428.114-.066.215-.144.333-.208l-263.307-263.306h-39.798v82.359c0 16.431 1.939 32.407 5.58 47.723z" fill="url(#SVGID_5_)"/><path d="m327.139 504.989c62.855-14.14 116.491-57.316 143.101-117.911l21.794-49.63c3.851-8.769-2.572-18.604-12.149-18.604h-63.963c-20.762 48.812-69.156 83.039-125.547 83.039h-66.343z" fill="url(#SVGID_6_)"/><circle cx="160.811" cy="190.773" fill="url(#SVGID_7_)" r="25.747"/><g><path d="m130.752 277.319v8.948c0 15.863-12.859 28.722-28.722 28.722h-4.029c-8.302 0-16.258-3.325-22.091-9.233l-28.079-28.437z" fill="url(#SVGID_8_)"/><path d="m130.752 255.909c0-39.849-46.654-61.718-77.077-35.981-.223.188-.445.378-.666.569-24.196 20.822-36.379 50.164-36.174 79.54.156 22.388 26.741 33.746 43.194 18.563.119-.11.239-.22.358-.329 16.565-15.144 36.705-23.911 57.405-26.44 7.375-.901 12.96-7.082 12.96-14.512z" fill="url(#SVGID_9_)"/></g></g><path d="m222.764 418.539c13.649 21.935 21.542 47.824 21.542 75.561 0 4.157-.188 8.269-.535 12.336 12.39 2.331 25.167 3.564 38.234 3.564 69.456 0 133.31-34.97 170.998-91.461z" fill="url(#SVGID_10_)"/></g><g><path d="m270.99 0h41.615c44.817 0 81.149 36.332 81.149 81.149 0 44.817-36.332 81.149-81.149 81.149h-41.615c-4.719 0-9.337-.426-13.835-1.199l-24.506 12.173c-6.092 3.026-13.105-1.938-12.275-8.69l2.247-18.274c-19.891-14.79-32.781-38.467-32.781-65.159 0-44.817 36.332-81.149 81.15-81.149z" fill="url(#SVGID_11_)"/><g><path d="m292.126 42.434-2.759 14.583h13.531l3.416-17.867c.525-2.628 4.598-4.204 8.539-4.204 4.598 0 9.196 1.97 9.328 7.488l-2.89 14.583h9.196c2.89 0 5.649 3.284 5.649 7.488 0 4.467-2.89 7.62-5.781 7.62h-11.823l-2.89 14.188h9.196c2.89 0 5.78 3.284 5.78 7.488 0 4.598-3.021 7.62-5.912 7.62h-11.955l-3.678 19.049c-.526 2.496-4.598 4.467-7.883 4.467-4.335 0-10.116-2.496-10.116-7.488l3.022-16.028h-13.269l-3.678 19.049c-.526 2.496-4.73 4.467-7.883 4.467-4.335 0-9.984-2.496-9.984-7.488l2.89-16.028h-9.196c-3.285 0-5.518-2.89-5.518-7.357 0-4.335 2.365-7.751 5.649-7.751h12.086l2.759-14.188h-9.327c-3.416 0-5.518-2.891-5.518-7.357 0-4.336 2.233-7.751 5.649-7.751h12.218l3.416-17.867c.525-2.628 4.598-4.204 8.539-4.204 4.598 0 9.197 1.97 9.197 7.488zm-8.408 43.879h13.4l2.759-14.188h-13.4z" fill="url(#SVGID_12_)"/></g><path d="m192.136 100.383c4.539 18.667 15.533 34.808 30.485 45.925l-2.247 18.274c-.83 6.752 6.182 11.716 12.275 8.69l24.506-12.173c4.499.773 9.116 1.199 13.835 1.199h41.615c38.188 0 70.197-26.385 78.836-61.916h-199.305z" fill="url(#SVGID_13_)"/></g><g><path d="m438.155 291.052c-4.386-1.676-8.945-2.185-13.344-1.722 14.03-20.922 24.237-44.666 27.751-71.331 2.048-15.541-9.049-29.626-24.784-31.461-10.498-1.224-20.385 3.332-26.427 11.102 3.694-20.798 3.728-40.819.029-59.843-2.983-15.334-18.035-25.231-33.62-22.107-15.588 3.123-25.802 18.087-22.82 33.422 9.528 48.99-21.899 103.442-49.94 140.494-32.221 42.576-67.085 72.026-67.433 72.318-12.154 10.204-13.736 28.095-3.533 39.96 4.443 5.167 10.39 8.333 16.691 9.425.032.006.062.016.094.021.012.002.044.007.06.01.021.004.042.007.063.011 2.704.454 41.515 6.733 85.439 1.186 18.634-2.353 34.737-6.341 48.643-11.485 46.915-17.356 68.882-47.888 79.154-73.364 5.887-14.602-1.287-31.004-16.023-36.636z" fill="url(#SVGID_14_)"/><path d="m452.56 217.995c-15.806 119.939-166.811 180.898-193.565 190.794-.996.369-1.815.669-2.457.887 2.825-1.147 5.514-2.73 7.971-4.791 1.624-1.365 40.28-34.001 76.397-81.734 21.662-28.623 38.014-56.878 48.593-83.986 5.528-14.168 9.5-28.064 11.902-41.631 6.033-7.712 15.915-12.216 26.371-11.002 15.738 1.843 26.836 15.929 24.788 31.463z" fill="url(#SVGID_15_)"/><path d="m454.184 327.682c-10.278 25.484-32.24 56.018-79.168 73.366-13.895 5.146-30.002 9.132-48.633 11.493-42.218 5.323-79.741-.273-84.996-1.119 4.477.682 9.2.314 13.8-1.269.519-.177 1.815-.628 3.808-1.365 20.802-7.698 116.772-46.286 165.842-119.475 4.395-.464 8.941.068 13.322 1.733 14.729 5.638 21.908 22.045 16.025 36.636z" fill="url(#SVGID_16_)"/></g></g></svg>