<svg id="Capa_1" enable-background="new 0 0 510 510" height="512" viewBox="0 0 510 510" width="512" xmlns="http://www.w3.org/2000/svg" xmlns:xlink="http://www.w3.org/1999/xlink"><linearGradient id="SVGID_1_" gradientUnits="userSpaceOnUse" x1="125.381" x2="428.382" y1="196.62" y2="499.621"><stop offset="0" stop-color="#bce097"/><stop offset="1" stop-color="#7dc03a"/></linearGradient><linearGradient id="lg1"><stop offset="0" stop-color="#8cc951" stop-opacity="0"/><stop offset="1" stop-color="#3e6e66"/></linearGradient><linearGradient id="SVGID_2_" gradientTransform="matrix(-1 0 0 1 510 0)" gradientUnits="userSpaceOnUse" x1="254.991" x2="254.991" xlink:href="#lg1" y1="390" y2="506"/><linearGradient id="SVGID_3_" gradientUnits="userSpaceOnUse" x1="369.887" x2="297.22" y1="481.687" y2="251.02"><stop offset="0" stop-color="#3e6e66" stop-opacity="0"/><stop offset="1" stop-color="#3e6e66"/></linearGradient><linearGradient id="SVGID_4_" gradientUnits="userSpaceOnUse" x1="374.352" x2="138.352" xlink:href="#lg1" y1="228.345" y2="155.011"/><linearGradient id="SVGID_5_" gradientUnits="userSpaceOnUse" x1="242.711" x2="242.711" y1="76" y2="331.018"><stop offset="0" stop-color="#eef4ff"/><stop offset="1" stop-color="#cfe7fd"/></linearGradient><linearGradient id="lg2"><stop offset="0" stop-color="#8aaadc" stop-opacity="0"/><stop offset="1" stop-color="#8aaadc"/></linearGradient><linearGradient id="SVGID_6_" gradientUnits="userSpaceOnUse" x1="265.204" x2="243.871" xlink:href="#lg2" y1="307.941" y2="385.275"/><linearGradient id="SVGID_7_" gradientUnits="userSpaceOnUse" x1="318.993" x2="359.024" xlink:href="#lg2" y1="335.044" y2="293.075"/><linearGradient id="SVGID_8_" gradientUnits="userSpaceOnUse" x1="114.409" x2="157.106" xlink:href="#lg2" y1="119.829" y2="93.784"/><linearGradient id="lg3"><stop offset="0" stop-color="#f7e07d"/><stop offset="1" stop-color="#e69642"/></linearGradient><linearGradient id="SVGID_9_" gradientUnits="userSpaceOnUse" x1="109.751" x2="212.733" xlink:href="#lg3" y1="18.434" y2="121.416"/><linearGradient id="lg4"><stop offset="0" stop-color="#d52c1c" stop-opacity="0"/><stop offset=".28" stop-color="#d12c1e" stop-opacity=".28"/><stop offset=".5735" stop-color="#c42c23" stop-opacity=".574"/><stop offset=".8721" stop-color="#af2b2c" stop-opacity=".872"/><stop offset="1" stop-color="#a42b31"/></linearGradient><linearGradient id="SVGID_10_" gradientUnits="userSpaceOnUse" x1="157.723" x2="121.136" xlink:href="#lg4" y1="76.025" y2="104.483"/><linearGradient id="SVGID_11_" gradientUnits="userSpaceOnUse" x1="324.99" x2="432.132" xlink:href="#lg3" y1="233.673" y2="340.815"/><linearGradient id="SVGID_12_" gradientUnits="userSpaceOnUse" x1="375.843" x2="348.343" xlink:href="#lg4" y1="289.304" y2="325.304"/><g><g><path d="m207.832 115.157h94.336c101.595 0 183.955 82.359 183.955 183.955v.001c0 101.595-82.359 183.954-183.954 183.954h-94.336c-10.698 0-21.165-.965-31.363-2.717l-55.551 27.594c-13.811 6.86-29.707-4.394-27.825-19.699l5.094-41.425c-45.09-33.526-74.31-87.201-74.31-147.707-.001-101.596 82.359-183.956 183.954-183.956z" fill="url(#SVGID_1_)"/><path d="m36.442 366.005h437.134c-26.76 68.519-93.412 117.062-171.407 117.062h-94.336c-10.698 0-21.165-.965-31.363-2.718l-55.551 27.594c-13.811 6.86-29.707-4.394-27.825-19.699l5.094-41.425c-27.502-20.448-49.081-48.399-61.746-80.814z" fill="url(#SVGID_2_)"/></g><path d="m155.333 312 169.658 169.658c80.407-9.951 144.724-71.788 158.422-150.974l-44.958-44.958-14.455 26.274z" fill="url(#SVGID_3_)"/><path d="m486.12 299.11c0 10.77-.93 21.32-2.7 31.58l-38.36-38.36-6.6-6.6-81.94-53.4c-12.01-8.37-24.53-5.42-32.9 6.59l-10.06 14.43c-3.42 4.91-4.95 10.59-4.74 16.15-20.04 22.81-60.6 26.69-85.19 8.07-9.03-6.84-47.32-45.13-54.16-54.16-17.99-23.76-11.98-64.81 8.81-85.1 7.06 1.65 14.77.41 21.18-4.06l14.43-10.06c3.48-2.43 6.2-5.54 8.11-9.03h80.17c101.59 0 183.95 82.36 183.95 183.95z" fill="url(#SVGID_4_)"/><g><path d="m349.574 256.953c-13.073-9.413-31.269-6.669-40.985 6.181-19.489 25.775-56.199 30.943-81.96 11.436-9.033-6.839-47.322-45.128-54.161-54.161-19.507-25.762-14.34-62.472 11.436-81.96 12.85-9.716 15.594-27.912 6.181-40.985l-45.6-63.334c-11.08-15.389-33.561-16.563-46.193-2.42-.284.318-.567.635-.848.951-33.363 37.514-45.514 89.468-31.571 137.696 4.825 16.691 11.469 32.662 18.855 47.38 31.325 62.418 82.155 113.248 144.573 144.573 14.718 7.386 30.69 14.03 47.38 18.855 48.228 13.943 100.182 1.792 137.696-31.571.316-.281.633-.564.951-.848 14.143-12.632 12.97-35.113-2.42-46.193z" fill="url(#SVGID_5_)"/><path d="m308.589 263.134c-19.489 25.775-56.199 30.943-81.96 11.436-2.643-2.001-7.798-6.704-13.93-12.57h-101.124c30.458 42.212 70.819 76.769 117.726 100.31 14.718 7.386 30.69 14.03 47.38 18.855 48.228 13.943 100.182 1.792 137.696-31.571.316-.281.633-.564.951-.848 14.143-12.632 12.969-35.113-2.42-46.193l-56.324-40.553h-47.092c-.308.369-.61.747-.903 1.134z" fill="url(#SVGID_6_)"/><g><path d="m412.909 302.553-63.334-45.6c-13.073-9.413-31.269-6.669-40.985 6.181-12.749 16.862-32.868 24.9-52.47 22.985l96.292 96.293c22.64-5.702 43.967-16.81 61.965-32.817.316-.281.633-.564.951-.848 14.143-12.633 12.97-35.114-2.419-46.194z" fill="url(#SVGID_7_)"/><path d="m160.919 190.919c-1.915-19.602 6.123-39.721 22.985-52.47 12.85-9.716 15.594-27.912 6.181-40.985l-45.6-63.334c-11.08-15.389-33.561-16.562-46.193-2.42-.284.318-.567.635-.848.951-16.007 17.999-27.116 39.325-32.818 61.965z" fill="url(#SVGID_8_)"/></g><g><path d="m213.89 129.194-14.427 10.053c-12.012 8.37-28.535 5.418-36.905-6.593l-56.398-80.933c-8.37-12.012-5.418-28.535 6.593-36.905l14.427-10.054c12.012-8.37 28.535-5.418 36.905 6.593l56.398 80.934c8.371 12.012 5.419 28.535-6.593 36.905z" fill="url(#SVGID_9_)"/><path d="m120.717 9.266-7.964 5.549c-12.012 8.37-14.964 24.893-6.593 36.905l56.398 80.933c8.371 12.012 24.894 14.964 36.905 6.593l6.763-4.713z" fill="url(#SVGID_10_)"/><path d="m320.618 235.921-10.053 14.427c-8.37 12.012-5.418 28.535 6.593 36.905l80.934 56.398c12.012 8.37 28.535 5.418 36.905-6.593l10.053-14.427c8.37-12.012 5.418-28.535-6.593-36.905l-80.934-56.398c-12.012-8.37-28.535-5.418-36.905 6.593z" fill="url(#SVGID_11_)"/><path d="m434.996 337.059 8.244-11.83-126.14-84.26-6.536 9.379c-8.37 12.012-5.418 28.535 6.593 36.905l80.934 56.398c12.012 8.371 28.535 5.419 36.905-6.592z" fill="url(#SVGID_12_)"/></g></g></g></svg>