<svg id="Capa_1" enable-background="new 0 0 510 510" height="512" viewBox="0 0 510 510" width="512" xmlns="http://www.w3.org/2000/svg" xmlns:xlink="http://www.w3.org/1999/xlink"><linearGradient id="lg1"><stop offset="0" stop-color="#cce8b0"/><stop offset="1" stop-color="#7dc03a"/></linearGradient><linearGradient id="SVGID_1_" gradientUnits="userSpaceOnUse" x1="203.95" x2="283.759" xlink:href="#lg1" y1="12.425" y2="122.706"/><linearGradient id="SVGID_2_" gradientUnits="userSpaceOnUse" x1="177.921" x2="257.73" xlink:href="#lg1" y1="31.261" y2="141.543"/><linearGradient id="SVGID_3_" gradientUnits="userSpaceOnUse" x1="152.926" x2="232.734" xlink:href="#lg1" y1="49.35" y2="159.631"/><linearGradient id="lg2"><stop offset="0" stop-color="#5a5a5a"/><stop offset="1" stop-color="#464646"/></linearGradient><linearGradient id="SVGID_4_" gradientUnits="userSpaceOnUse" x1="471.368" x2="500.368" xlink:href="#lg2" y1="349.628" y2="378.628"/><linearGradient id="lg3"><stop offset="0" stop-color="#f7e07d"/><stop offset="1" stop-color="#e69642"/></linearGradient><linearGradient id="SVGID_5_" gradientUnits="userSpaceOnUse" x1="100.544" x2="406.724" xlink:href="#lg3" y1="216.126" y2="522.306"/><linearGradient id="SVGID_6_" gradientUnits="userSpaceOnUse" x1="-17.472" x2="92.789" y1="313.466" y2="423.726"><stop offset="0" stop-color="#dc4955"/><stop offset="1" stop-color="#c4237c"/></linearGradient><linearGradient id="lg4"><stop offset="0" stop-color="#d52c1c" stop-opacity="0"/><stop offset=".28" stop-color="#d12c1e" stop-opacity=".28"/><stop offset=".5735" stop-color="#c42c23" stop-opacity=".574"/><stop offset=".8721" stop-color="#af2b2c" stop-opacity=".872"/><stop offset="1" stop-color="#a42b31"/></linearGradient><linearGradient id="SVGID_7_" gradientUnits="userSpaceOnUse" x1="251.5" x2="251.5" xlink:href="#lg4" y1="409.639" y2="525.505"/><linearGradient id="SVGID_8_" gradientUnits="userSpaceOnUse" x1="309.299" x2="176.632" xlink:href="#lg4" y1="434.242" y2="376.242"/><linearGradient id="lg5"><stop offset="0" stop-color="#eef4ff"/><stop offset="1" stop-color="#cfe7fd"/></linearGradient><linearGradient id="SVGID_9_" gradientUnits="userSpaceOnUse" x1="201.378" x2="230.378" xlink:href="#lg5" y1="349.628" y2="378.628"/><linearGradient id="SVGID_10_" gradientUnits="userSpaceOnUse" x1="220" x2="220" y1="390.006" y2="410.53"><stop offset="0" stop-color="#8aaadc" stop-opacity="0"/><stop offset="1" stop-color="#8aaadc"/></linearGradient><linearGradient id="SVGID_11_" gradientUnits="userSpaceOnUse" x1="448.333" x2="497" xlink:href="#lg5" y1="368.206" y2="368.206"/><linearGradient id="SVGID_12_" gradientUnits="userSpaceOnUse" x1="439.42" x2="439.42" xlink:href="#lg3" y1="264.006" y2="459.375"/><linearGradient id="SVGID_13_" gradientUnits="userSpaceOnUse" x1="318.472" x2="376.255" xlink:href="#lg2" y1="318.534" y2="376.317"/><linearGradient id="lg6"><stop offset="0" stop-color="#464646" stop-opacity="0"/><stop offset="1" stop-color="#202020"/></linearGradient><linearGradient id="SVGID_14_" gradientUnits="userSpaceOnUse" x1="370.456" x2="355.123" xlink:href="#lg6" y1="405.774" y2="453.107"/><linearGradient id="SVGID_15_" gradientUnits="userSpaceOnUse" x1="110.134" x2="208.29" xlink:href="#lg2" y1="256.348" y2="256.348"/><linearGradient id="SVGID_16_" gradientUnits="userSpaceOnUse" x1="233.31" x2="331.466" xlink:href="#lg2" y1="257.116" y2="257.116"/><linearGradient id="SVGID_17_" gradientUnits="userSpaceOnUse" x1="109.632" x2="208.29" xlink:href="#lg2" y1="481.324" y2="481.324"/><linearGradient id="SVGID_18_" gradientUnits="userSpaceOnUse" x1="233.31" x2="331.47" xlink:href="#lg2" y1="480.679" y2="480.679"/><linearGradient id="SVGID_19_" gradientUnits="userSpaceOnUse" x1="158.961" x2="158.961" xlink:href="#lg6" y1="463.673" y2="491.673"/><linearGradient id="SVGID_20_" gradientUnits="userSpaceOnUse" x1="282.39" x2="282.39" xlink:href="#lg6" y1="463.673" y2="491.673"/><linearGradient id="SVGID_21_" gradientUnits="userSpaceOnUse" x1="22.937" x2="65.692" xlink:href="#lg2" y1="318.617" y2="361.372"/><linearGradient id="SVGID_22_" gradientUnits="userSpaceOnUse" x1="313.296" x2="346.751" xlink:href="#lg2" y1="235.71" y2="269.165"/><linearGradient id="SVGID_23_" gradientUnits="userSpaceOnUse" x1="305.455" x2="330.075" xlink:href="#lg2" y1="477.551" y2="502.171"/><g><g><g><g><path d="m398.314 107.152c-6.134 0-12.27-2.318-16.983-6.967-33.875-33.413-78.74-51.814-126.331-51.814-47.59 0-92.455 18.401-126.331 51.814-9.509 9.38-24.823 9.274-34.203-.235-9.38-9.51-9.275-24.822.235-34.203 42.985-42.397 99.914-65.747 160.299-65.747 60.386 0 117.314 23.35 160.298 65.747 9.51 9.38 9.615 24.693.235 34.203-4.732 4.797-10.975 7.202-17.219 7.202z" fill="url(#SVGID_1_)"/><path d="m166.492 161.957c-6.279 0-12.551-2.429-17.289-7.272-9.342-9.548-9.174-24.86.374-34.202 28.331-27.718 65.771-42.983 105.423-42.983 39.653 0 77.094 15.265 105.424 42.983 9.548 9.342 9.715 24.654.374 34.202-9.343 9.548-24.654 9.715-34.202.374-19.238-18.822-44.664-29.188-71.596-29.188-26.931 0-52.358 10.366-71.596 29.188-4.705 4.603-10.812 6.898-16.912 6.898z" fill="url(#SVGID_2_)"/><path d="m290.878 214.585c-5.971 0-11.952-2.197-16.629-6.627-5.216-4.941-12.052-7.662-19.249-7.662s-14.033 2.721-19.249 7.662c-9.698 9.187-25.006 8.772-34.191-.926-9.186-9.697-8.772-25.005.925-34.191 14.239-13.488 32.889-20.917 52.515-20.917s38.276 7.429 52.514 20.917c9.698 9.186 10.112 24.494.926 34.191-4.756 5.02-11.153 7.553-17.562 7.553z" fill="url(#SVGID_3_)"/></g></g></g><g><path d="m502.19 322.25h-24.401c-4.313 0-7.81 3.496-7.81 7.81v76.381c0 4.313 3.496 7.81 7.81 7.81h24.401c4.313 0 7.81-3.496 7.81-7.81v-76.381c0-4.314-3.496-7.81-7.81-7.81z" fill="url(#SVGID_4_)"/><path d="m503 305.493c0-30.234-23.736-55.143-53.935-56.6l-84.143-4.398c-16.497 0-32.78-3.414-48.018-9.734-26.56-11.016-151.245-11.016-177.805 0-15.238 6.32-31.522 9.734-48.018 9.734h-23.035c-37.581 0-68.046 30.465-68.046 68.046v111.417c0 37.581 30.465 68.046 68.046 68.046h23.035c16.496 0 32.78 3.414 48.018 9.734 26.56 11.016 151.245 11.016 177.804 0 15.238-6.32 31.522-9.734 48.018-9.734l84.143-4.398c30.199-1.457 53.935-26.366 53.935-56.6v-125.513z" fill="url(#SVGID_5_)"/><path d="m13.779 444.916h-5.417c-2.519 0-4.228 2.561-3.271 4.891 6.344 15.45 18.22 28.049 33.158 35.341 2.345 1.145 5.082-.576 5.082-3.185v-6.802c0-1.255-.691-2.395-1.779-3.02-10.545-6.058-19.141-14.871-24.672-25.382-.603-1.146-1.809-1.843-3.101-1.843zm-5.418-153.33h5.417c1.293 0 2.499-.697 3.101-1.842 5.531-10.512 14.127-19.325 24.672-25.383 1.089-.625 1.779-1.765 1.779-3.02v-6.806c0-2.608-2.736-4.329-5.08-3.186-14.945 7.287-26.817 19.893-33.16 35.346-.956 2.331.753 4.891 3.271 4.891z" fill="url(#SVGID_6_)"/><path d="m0 391.638v32.32c0 37.581 30.465 68.046 68.046 68.046h23.035c16.496 0 32.78 3.414 48.018 9.734 26.56 11.016 151.245 11.016 177.804 0 15.238-6.32 31.522-9.734 48.018-9.734l84.143-4.398c30.199-1.457 53.935-26.366 53.935-56.6v-39.368z" fill="url(#SVGID_7_)"/><path d="m316.904 501.738c15.238-6.32 31.522-9.734 48.018-9.734l37.888-1.828-162.653-162.652c-1.291-2.534-3.918-4.274-6.957-4.274h-24.4c-4.313 0-7.81 3.496-7.81 7.81v76.381c0 3.039 1.74 5.666 4.274 6.957l93.815 93.815c6.1-1.929 12.054-4.082 17.825-6.475z" fill="url(#SVGID_8_)"/><g><path d="m232.201 322.25h-24.401c-4.313 0-7.81 3.496-7.81 7.81v76.381c0 4.313 3.496 7.81 7.81 7.81h24.401c4.313 0 7.81-3.496 7.81-7.81v-76.381c-.001-4.314-3.497-7.81-7.81-7.81z" fill="url(#SVGID_9_)"/><path d="m199.99 369.006v37.434c0 4.313 3.496 7.809 7.81 7.809h24.4c4.313 0 7.81-3.496 7.81-7.809v-37.434z" fill="url(#SVGID_10_)"/></g><path d="m455.831 476.873c-4.141 0-7.497-3.357-7.497-7.497v-202.339c0-4.141 3.357-7.497 7.497-7.497 22.737 0 41.169 18.432 41.169 41.169v134.995c0 22.737-18.432 41.169-41.169 41.169z" fill="url(#SVGID_11_)"/><path d="m498 317.056v102.38c0 24.67-19.36 44.98-43.99 46.17l-67.35 3.59c-1.38 0-2.76.03-4.14.09 3.58-1.06 6.76-3.48 8.73-7 15.43-27.47 24.22-59.1 24.22-92.76 0-34.87-9.43-67.56-25.9-95.71-1.99-3.41-5.17-5.71-8.73-6.69 1.93.12 3.88.18 5.82.18l67.35 3.59c24.63 1.18 43.99 21.5 43.99 46.16z" fill="url(#SVGID_12_)"/><path d="m371.524 468.303c7.121 3.635 15.813.959 19.727-6.013 15.427-27.474 24.221-59.101 24.221-92.764 0-34.872-9.432-67.562-25.902-95.711-3.946-6.744-12.529-9.161-19.489-5.609l-39.119 19.966c-1.094.558-1.636 1.778-1.404 2.984.001.007.003.014.004.021 9.807 51.454 9.983 102.382.534 153.825-.215 1.169.358 2.341 1.417 2.881z" fill="url(#SVGID_13_)"/><path d="m336.982 376.339c-.382 22.846-2.669 45.703-6.886 68.662-.215 1.169.358 2.341 1.417 2.881l40.011 20.421c7.121 3.635 15.813.959 19.727-6.013 14.382-25.612 22.991-54.835 24.093-85.951z" fill="url(#SVGID_14_)"/><path d="m139.1 252.489c19.96-7.176 42.006-12.015 65.354-13.98 2.065-.174 3.836 1.419 3.836 3.423v26.818c0 1.879-1.563 3.401-3.507 3.424-14.632.176-29.273.783-43.913 1.812-7.95.561-15.95.029-23.73-1.653l-24.13-5.973c-3.99-.986-3.77-6.563.3-7.22 8.82-1.412 17.46-3.655 25.79-6.651z" fill="url(#SVGID_15_)"/><path d="m328.63 265.209-16.07 7.926c-5.63 2.774-11.98 3.905-18.26 3.238-19.192-2.043-38.367-3.346-57.548-3.917-1.918-.057-3.442-1.568-3.442-3.423v-27.927c0-1.93 1.647-3.494 3.643-3.432 28.765.898 55.871 6.161 79.947 14.814 3.54 1.276 7.14 2.416 10.78 3.412 4.55 1.238 5.16 7.231.95 9.309z" fill="url(#SVGID_16_)"/><path d="m151.05 464.943c17.911 1.497 35.823 2.347 53.734 2.565 1.943.024 3.506 1.545 3.506 3.423v23.639c0 2.004-1.771 3.597-3.836 3.423-23.348-1.965-45.394-6.804-65.354-13.98-8.49-3.054-17.3-5.326-26.29-6.737-4.05-.638-4.3-6.196-.34-7.211l13.83-3.557c8.12-1.759 16.47-2.261 24.75-1.565z" fill="url(#SVGID_17_)"/><path d="m327.69 480.601c-3.65 1.005-7.25 2.136-10.79 3.412-24.076 8.654-51.182 13.916-79.947 14.814-1.996.062-3.643-1.501-3.643-3.432v-24.759c0-1.853 1.523-3.364 3.439-3.421 20.844-.627 41.688-2.122 62.541-4.476 6.37-.715 12.81.396 18.52 3.219l10.82 5.335c4.21 2.078 3.61 8.071-.94 9.308z" fill="url(#SVGID_18_)"/><path d="m151.05 464.943c17.911 1.497 35.823 2.347 53.734 2.565 1.943.024 3.506 1.545 3.506 3.423v23.639c0 2.004-1.771 3.597-3.836 3.423-23.348-1.965-45.394-6.804-65.354-13.98-8.49-3.054-17.3-5.326-26.29-6.737-4.05-.638-4.3-6.196-.34-7.211l13.83-3.557c8.12-1.759 16.47-2.261 24.75-1.565z" fill="url(#SVGID_19_)"/><path d="m327.69 480.601c-3.65 1.005-7.25 2.136-10.79 3.412-24.076 8.654-51.182 13.916-79.947 14.814-1.996.062-3.643-1.501-3.643-3.432v-24.759c0-1.853 1.523-3.364 3.439-3.421 20.844-.627 41.688-2.122 62.541-4.476 6.37-.715 12.81.396 18.52 3.219l10.82 5.335c4.21 2.078 3.61 8.071-.94 9.308z" fill="url(#SVGID_20_)"/><path d="m98.56 448.082c-9.992-52.421-9.99-104.289 0-156.701.191-1 .453-1.97.778-2.906.42-1.21-.325-2.51-1.575-2.79l-31.714-7.088c-7.3-1.631-14.801 1.938-18.057 8.672-12.075 24.969-18.844 52.931-18.844 82.462 0 28.277 6.201 55.119 17.327 79.27 3.169 6.879 10.771 10.553 18.162 8.901l32.289-7.216c1.165-.26 1.863-1.409 1.637-2.582-.001-.008-.002-.015-.003-.022z" fill="url(#SVGID_21_)"/><path d="m301.033 244.687 18.684 18.684c3.27 3.27 8.572 3.27 11.842 0l2.122-2.122c7.289-7.289 7.289-19.106 0-26.395l-2.009-2.009c-8.461-8.461-22.178-8.461-30.639 0-3.27 3.27-3.27 8.572 0 11.842z" fill="url(#SVGID_22_)"/><path d="m301.033 491.812 18.684-18.684c3.27-3.27 8.572-3.27 11.842 0l2.122 2.122c7.289 7.289 7.289 19.106 0 26.395l-2.009 2.009c-8.461 8.461-22.178 8.461-30.639 0-3.27-3.27-3.27-8.571 0-11.842z" fill="url(#SVGID_23_)"/></g></g></svg>