<svg id="Capa_1" enable-background="new 0 0 510 510" height="512" viewBox="0 0 510 510" width="512" xmlns="http://www.w3.org/2000/svg" xmlns:xlink="http://www.w3.org/1999/xlink"><linearGradient id="lg1"><stop offset="0" stop-color="#5a5a5a"/><stop offset="1" stop-color="#464646"/></linearGradient><linearGradient id="SVGID_1_" gradientUnits="userSpaceOnUse" x1="184.906" x2="315.044" xlink:href="#lg1" y1="377.093" y2="507.232"/><linearGradient id="lg2"><stop offset="0" stop-color="#464646" stop-opacity="0"/><stop offset="1" stop-color="#202020"/></linearGradient><linearGradient id="SVGID_2_" gradientUnits="userSpaceOnUse" x1="255" x2="255" xlink:href="#lg2" y1="455.999" y2="492.055"/><linearGradient id="SVGID_3_" gradientUnits="userSpaceOnUse" x1="288.859" x2="288.859" xlink:href="#lg2" y1="495.999" y2="404.95"/><linearGradient id="SVGID_4_" gradientUnits="userSpaceOnUse" x1="71.487" x2="313.714" xlink:href="#lg1" y1="32.299" y2="274.527"/><linearGradient id="SVGID_5_" gradientUnits="userSpaceOnUse" x1="255" x2="255" xlink:href="#lg2" y1="340.528" y2="409.643"/><linearGradient id="SVGID_6_" gradientUnits="userSpaceOnUse" x1="255" x2="255" xlink:href="#lg1" y1="397.626" y2="44.307"/><linearGradient id="SVGID_7_" gradientUnits="userSpaceOnUse" x1="423.772" x2="444.094" y1="369.088" y2="389.41"><stop offset="0" stop-color="#bce097"/><stop offset="1" stop-color="#7dc03a"/></linearGradient><linearGradient id="SVGID_8_" gradientUnits="userSpaceOnUse" x1="125.661" x2="397.861" y1="86.474" y2="358.674"><stop offset="0" stop-color="#dc4955"/><stop offset="1" stop-color="#c4237c"/></linearGradient><linearGradient id="lg3"><stop offset="0" stop-color="#8a1958" stop-opacity="0"/><stop offset="1" stop-color="#8a1958"/></linearGradient><linearGradient id="SVGID_9_" gradientUnits="userSpaceOnUse" x1="255" x2="255" xlink:href="#lg3" y1="265.339" y2="347.027"/><linearGradient id="SVGID_10_" gradientUnits="userSpaceOnUse" x1="369.254" x2="310.577" xlink:href="#lg3" y1="381.849" y2="286.33"/><linearGradient id="SVGID_11_" gradientUnits="userSpaceOnUse" x1="202.611" x2="295.42" y1="179.549" y2="272.358"><stop offset="0" stop-color="#eef4ff"/><stop offset="1" stop-color="#cfe7fd"/></linearGradient><linearGradient id="SVGID_12_" gradientUnits="userSpaceOnUse" x1="271.198" x2="290.232" y1="248.911" y2="284.051"><stop offset="0" stop-color="#8aaadc" stop-opacity="0"/><stop offset="1" stop-color="#8aaadc"/></linearGradient><g><g><path d="m378.339 469.992-26.57-12.891c-22.21-10.776-36.312-33.293-36.312-57.98v-59.469h-120.914v59.469c0 24.686-14.102 47.203-36.312 57.98l-26.57 12.892c-11.067 5.369-7.243 22.009 5.057 22.009h236.562c12.301-.001 16.125-16.641 5.059-22.01z" fill="url(#SVGID_1_)"/><path d="m158.231 457.1-26.57 12.891c-11.067 5.37-7.243 22.009 5.057 22.009h236.562c12.301 0 16.124-16.64 5.057-22.009l-26.568-12.891c-5.537-2.687-10.57-6.104-15.006-10.101h-163.526c-4.436 3.998-9.469 7.415-15.006 10.101z" fill="url(#SVGID_2_)"/><path d="m378.339 469.992-26.57-12.892c-22.21-10.776-36.312-33.293-36.312-57.98v-59.469h-120.914v59.469c0 5.022-.593 9.951-1.71 14.712l78.168 78.168h102.279c12.302.001 16.125-16.639 5.059-22.008z" fill="url(#SVGID_3_)"/></g><g><g><path d="m475.631 413.626h-441.262c-18.981 0-34.369-15.388-34.369-34.369v-326.889c0-18.982 15.388-34.369 34.369-34.369h441.262c18.982 0 34.369 15.388 34.369 34.369v326.888c0 18.982-15.388 34.37-34.369 34.37z" fill="url(#SVGID_4_)"/><path d="m0 311.132v68.125c0 18.981 15.388 34.369 34.369 34.369h441.262c18.982 0 34.369-15.387 34.369-34.369v-68.125z" fill="url(#SVGID_5_)"/></g><path d="m442.506 373.973h-375.012c-14.667 0-26.556-11.89-26.556-26.556v-263.209c0-14.667 11.89-26.556 26.556-26.556h375.013c14.667 0 26.556 11.89 26.556 26.556v263.21c-.001 14.666-11.89 26.555-26.557 26.555z" fill="url(#SVGID_6_)"/><circle cx="431.684" cy="377" fill="url(#SVGID_7_)" r="14.316"/><path d="m422.981 348.999h-335.962c-12.713 0-23.019-10.306-23.019-23.019v-220.335c0-12.713 10.306-23.019 23.019-23.019h335.961c12.713 0 23.019 10.306 23.019 23.019v220.335c.001 12.713-10.305 23.019-23.018 23.019z" fill="url(#SVGID_8_)"/><path d="m64 258.602v68.034c0 12.351 10.609 22.363 23.695 22.363h334.61c13.086 0 23.695-10.012 23.695-22.363v-68.034z" fill="url(#SVGID_9_)"/><path d="m358.877 190.172c-3.171-3.856-7.116-7.263-11.844-9.992l-108.917-62.882c-28.721-16.582-64.623 4.146-64.623 37.31v125.764c0 13.795 6.214 25.434 15.537 33.135l35.492 35.492h198.458c12.713 0 23.019-10.306 23.019-23.019v-48.684z" fill="url(#SVGID_10_)"/><g><path d="m346.301 178.502-108.916-62.882c-28.721-16.582-64.623 4.146-64.623 37.31v125.764c0 33.164 35.901 53.892 64.623 37.31l108.917-62.882c28.721-16.582 28.721-58.038-.001-74.62z" fill="url(#SVGID_11_)"/><path d="m346.301 178.502-108.916-62.882c-28.721-16.582-64.623 4.146-64.623 37.31v125.764c0 33.164 35.901 53.892 64.623 37.31l108.917-62.882c28.721-16.582 28.721-58.038-.001-74.62z" fill="url(#SVGID_12_)"/></g></g></g></svg>