<svg id="Capa_1" enable-background="new 0 0 510 510" height="512" viewBox="0 0 510 510" width="512" xmlns="http://www.w3.org/2000/svg" xmlns:xlink="http://www.w3.org/1999/xlink"><linearGradient id="SVGID_1_" gradientUnits="userSpaceOnUse" x1="162.402" x2="185.424" y1="322.098" y2="345.12"><stop offset="0" stop-color="#5a5a5a"/><stop offset="1" stop-color="#464646"/></linearGradient><linearGradient id="SVGID_2_" gradientUnits="userSpaceOnUse" x1="170.333" x2="185.393" y1="339.667" y2="324.608"><stop offset="0" stop-color="#464646" stop-opacity="0"/><stop offset="1" stop-color="#202020"/></linearGradient><linearGradient id="SVGID_3_" gradientUnits="userSpaceOnUse" x1="312.839" x2="506.527" y1="180.576" y2="374.264"><stop offset="0" stop-color="#8aaadc" stop-opacity="0"/><stop offset="1" stop-color="#8aaadc"/></linearGradient><linearGradient id="lg1"><stop offset="0" stop-color="#bce097"/><stop offset="1" stop-color="#7dc03a"/></linearGradient><linearGradient id="SVGID_4_" gradientUnits="userSpaceOnUse" x1="209.598" x2="443.394" xlink:href="#lg1" y1="77.335" y2="311.131"/><linearGradient id="SVGID_5_" gradientTransform="matrix(-1 0 0 -1 -754 510)" gradientUnits="userSpaceOnUse" x1="-1173.231" x2="-979.26" xlink:href="#lg1" y1="223.032" y2="417.003"/><linearGradient id="SVGID_6_" gradientUnits="userSpaceOnUse" x1="321.132" x2="321.132" y1="253" y2="389.059"><stop offset="0" stop-color="#8cc951" stop-opacity="0"/><stop offset="1" stop-color="#3e6e66"/></linearGradient><linearGradient id="SVGID_7_" gradientUnits="userSpaceOnUse" x1="58.497" x2="148.507" y1="382.169" y2="472.179"><stop offset="0" stop-color="#e38523"/><stop offset=".7304" stop-color="#db4735"/><stop offset="1" stop-color="#d82f3c"/></linearGradient><linearGradient id="lg2"><stop offset="0" stop-color="#d52c1c" stop-opacity="0"/><stop offset=".28" stop-color="#d12c1e" stop-opacity=".28"/><stop offset=".5735" stop-color="#c42c23" stop-opacity=".574"/><stop offset=".8721" stop-color="#af2b2c" stop-opacity=".872"/><stop offset="1" stop-color="#a42b31"/></linearGradient><linearGradient id="SVGID_8_" gradientUnits="userSpaceOnUse" x1="101.618" x2="132.18" xlink:href="#lg2" y1="410.118" y2="379.556"/><linearGradient id="SVGID_9_" gradientUnits="userSpaceOnUse" x1="103.553" x2="133.887" xlink:href="#lg2" y1="426.077" y2="452.077"/><linearGradient id="SVGID_10_" gradientUnits="userSpaceOnUse" x1="52.618" x2="111.478" xlink:href="#lg2" y1="461.618" y2="402.758"/><linearGradient id="SVGID_11_" gradientUnits="userSpaceOnUse" x1="71" x2="23.942" xlink:href="#lg2" y1="439" y2="486.058"/><linearGradient id="lg3"><stop offset="0" stop-color="#f7e07d"/><stop offset="1" stop-color="#e69642"/></linearGradient><linearGradient id="SVGID_12_" gradientTransform="matrix(.707 .707 -.707 .707 -166.883 -280.374)" gradientUnits="userSpaceOnUse" x1="676.883" x2="676.883" xlink:href="#lg3" y1="238.729" y2="257.731"/><linearGradient id="SVGID_13_" gradientTransform="matrix(.707 .707 -.707 .707 -166.883 -280.374)" gradientUnits="userSpaceOnUse" x1="676.883" x2="676.883" xlink:href="#lg3" y1="278.327" y2="297.33"/><g><path d="m239.598 298.7-28.298-28.298-86.445 86.445c-7.814 7.814-7.814 20.484 0 28.298 7.814 7.814 20.484 7.814 28.298 0z" fill="url(#SVGID_1_)"/><path d="m239.598 298.7-28.298-28.298-86.445 86.445c-7.814 7.814-7.814 20.484 0 28.298 7.814 7.814 20.484 7.814 28.298 0z" fill="url(#SVGID_2_)"/><g><circle cx="321.132" cy="188.868" fill="url(#SVGID_3_)" r="132.767"/><path d="m321.132 377.737c-104.142 0-188.868-84.726-188.868-188.868s84.725-188.869 188.868-188.869 188.868 84.726 188.868 188.868-84.726 188.869-188.868 188.869zm0-330.32c-77.997 0-141.452 63.455-141.452 141.452s63.455 141.451 141.452 141.451 141.452-63.455 141.452-141.452-63.456-141.451-141.452-141.451z" fill="url(#SVGID_4_)"/><path d="m321.132 23.283c91.304 0 165.585 74.281 165.585 165.585s-74.281 165.585-165.585 165.585-165.585-74.281-165.585-165.585 74.281-165.585 165.585-165.585zm0 289.599c68.382 0 124.014-55.632 124.014-124.014s-55.633-124.014-124.014-124.014-124.014 55.632-124.014 124.014 55.632 124.014 124.014 124.014z" fill="url(#SVGID_5_)"/><path d="m443.165 211c-10.466 57.859-61.204 101.882-122.034 101.882s-111.567-44.023-122.033-101.882h-65.531c10.993 93.751 90.91 166.737 187.565 166.737s176.571-72.986 187.564-166.737z" fill="url(#SVGID_6_)"/></g><g><path d="m19.532 490.468c-27.202-27.201-24.859-65.162 0-81.375l97.702-81.56c10.458-8.73 25.85-8.039 35.483 1.594l28.156 28.156c9.633 9.633 10.325 25.025 1.594 35.483l-81.56 97.702c-16.212 24.858-54.173 27.201-81.375 0z" fill="url(#SVGID_7_)"/><path d="m170.205 407.455-67.66-67.66-10.045 8.385v38.57l51.771 51.771z" fill="url(#SVGID_8_)"/><path d="m180.874 357.283-11.411-11.411-147.195 147.194c26.956 24.419 62.964 21.438 78.64-2.598l81.56-97.702c8.73-10.459 8.039-25.85-1.594-35.483z" fill="url(#SVGID_9_)"/><path d="m72.705 364.705-9.705 8.101v137.174c15.442.099 29.56-6.713 37.908-19.512l44.387-53.172z" fill="url(#SVGID_10_)"/><path d="m47.957 385.364-28.424 23.728c-24.859 16.213-27.201 54.174 0 81.375 27.201 27.201 65.162 24.859 81.375 0l23.728-28.424z" fill="url(#SVGID_11_)"/></g><path d="m177.719 398.034-65.753-65.753c-4.884-4.884-12.802-4.884-17.685 0-4.884 4.884-4.884 12.802 0 17.685l65.753 65.753c4.884 4.884 12.802 4.884 17.685 0 4.884-4.883 4.884-12.801 0-17.685z" fill="url(#SVGID_12_)"/><path d="m149.719 426.034-65.753-65.753c-4.884-4.884-12.802-4.884-17.685 0-4.884 4.884-4.884 12.802 0 17.685l65.753 65.753c4.884 4.884 12.802 4.884 17.685 0 4.884-4.883 4.884-12.801 0-17.685z" fill="url(#SVGID_13_)"/></g></svg>