<svg id="Capa_1" enable-background="new 0 0 510 510" height="512" viewBox="0 0 510 510" width="512" xmlns="http://www.w3.org/2000/svg" xmlns:xlink="http://www.w3.org/1999/xlink"><linearGradient id="SVGID_1_" gradientUnits="userSpaceOnUse" x1="37.687" x2="377.642" y1="37.687" y2="377.642"><stop offset="0" stop-color="#dc4955"/><stop offset="1" stop-color="#c4237c"/></linearGradient><linearGradient id="lg1"><stop offset="0" stop-color="#8a1958" stop-opacity="0"/><stop offset="1" stop-color="#8a1958"/></linearGradient><linearGradient id="SVGID_2_" gradientUnits="userSpaceOnUse" x1="255" x2="255" xlink:href="#lg1" y1="257" y2="185.551"/><linearGradient id="SVGID_3_" gradientUnits="userSpaceOnUse" x1="484.384" x2="243.115" xlink:href="#lg1" y1="484.384" y2="243.115"/><linearGradient id="lg2"><stop offset="0" stop-color="#9d66d6"/><stop offset="1" stop-color="#453d81"/></linearGradient><linearGradient id="SVGID_4_" gradientUnits="userSpaceOnUse" x1="255" x2="255" xlink:href="#lg2" y1="42" y2="184.79"/><linearGradient id="lg3"><stop offset="0" stop-color="#453d81" stop-opacity="0"/><stop offset="1" stop-color="#453d81"/></linearGradient><linearGradient id="SVGID_5_" gradientUnits="userSpaceOnUse" x1="499.95" x2="311.444" xlink:href="#lg3" y1="420.05" y2="231.544"/><linearGradient id="SVGID_6_" gradientUnits="userSpaceOnUse" x1="255" x2="255" xlink:href="#lg3" y1="377" y2="538.003"/><linearGradient id="SVGID_7_" gradientUnits="userSpaceOnUse" x1="196.277" x2="327.151" y1="196.277" y2="327.151"><stop offset="0" stop-color="#5a5a5a"/><stop offset="1" stop-color="#464646"/></linearGradient><linearGradient id="lg4"><stop offset="0" stop-color="#464646" stop-opacity="0"/><stop offset="1" stop-color="#202020"/></linearGradient><linearGradient id="SVGID_8_" gradientUnits="userSpaceOnUse" x1="255" x2="255" xlink:href="#lg4" y1="204.667" y2="128.655"/><linearGradient id="SVGID_9_" gradientUnits="userSpaceOnUse" x1="255" x2="255" xlink:href="#lg4" y1="289" y2="375"/><linearGradient id="SVGID_10_" gradientUnits="userSpaceOnUse" x1="219.385" x2="357.461" xlink:href="#lg4" y1="219.387" y2="357.463"/><linearGradient id="SVGID_11_" gradientTransform="matrix(-1 0 0 -1 510 510)" gradientUnits="userSpaceOnUse" x1="241.385" x2="379.461" xlink:href="#lg4" y1="241.387" y2="379.463"/><linearGradient id="SVGID_12_" gradientUnits="userSpaceOnUse" x1="182.001" x2="276.134" xlink:href="#lg4" y1="181.999" y2="276.132"/><linearGradient id="lg5"><stop offset="0" stop-color="#eef4ff"/><stop offset="1" stop-color="#cfe7fd"/></linearGradient><linearGradient id="SVGID_13_" gradientUnits="userSpaceOnUse" x1="149.151" x2="371.031" xlink:href="#lg5" y1="149.151" y2="371.031"/><linearGradient id="SVGID_14_" gradientTransform="matrix(-1 0 0 -1 510 510)" gradientUnits="userSpaceOnUse" x1="161.9" x2="345.985" xlink:href="#lg5" y1="161.9" y2="345.985"/><linearGradient id="SVGID_15_" gradientUnits="userSpaceOnUse" x1="255" x2="255" y1="329" y2="421.005"><stop offset="0" stop-color="#8aaadc" stop-opacity="0"/><stop offset="1" stop-color="#8aaadc"/></linearGradient><linearGradient id="SVGID_16_" gradientUnits="userSpaceOnUse" x1="498.5" x2="363.984" xlink:href="#lg2" y1="148.5" y2="13.984"/><linearGradient id="SVGID_17_" gradientUnits="userSpaceOnUse" x1="424.754" x2="452.249" y1="74.755" y2="102.249"><stop offset="0" stop-color="#f7e07d"/><stop offset="1" stop-color="#e69642"/></linearGradient><g><path d="m403.41 510h-296.82c-58.868 0-106.59-47.722-106.59-106.59v-296.82c0-58.868 47.722-106.59 106.59-106.59h296.82c58.868 0 106.59 47.722 106.59 106.59v296.82c0 58.868-47.722 106.59-106.59 106.59z" fill="url(#SVGID_1_)"/><path d="m0 144h510v153h-510z" fill="url(#SVGID_2_)"/><path d="m510 403.41v-146.501l-120.553-120.553c-32.805-35.983-80.034-58.598-132.447-58.598-98.834 0-179.242 80.408-179.242 179.242 0 52.414 22.616 99.643 58.599 132.448l120.552 120.552h146.501c58.868 0 106.59-47.722 106.59-106.59z" fill="url(#SVGID_3_)"/><path d="m403.41 0h-296.82c-58.868 0-106.59 47.722-106.59 106.59v79.41h510v-79.41c0-58.868-47.722-106.59-106.59-106.59z" fill="url(#SVGID_4_)"/><path d="m439.091 186-49.644-49.644c-32.805-35.983-80.034-58.598-132.447-58.598-73.624 0-137.013 44.625-164.566 108.242z" fill="url(#SVGID_5_)"/><path d="m0 344.628v58.782c0 58.868 47.722 106.59 106.59 106.59h296.82c58.868 0 106.59-47.722 106.59-106.59v-58.782z" fill="url(#SVGID_6_)"/><circle cx="255" cy="255" fill="url(#SVGID_7_)" r="126"/><circle cx="255" cy="255" fill="url(#SVGID_8_)" r="126"/><path d="m131.871 281.764c12.305 56.663 62.835 99.236 123.129 99.236s110.824-42.573 123.129-99.236z" fill="url(#SVGID_9_)"/><path d="m320.288 189.712c-16.707-16.711-39.793-27.046-65.288-27.046s-48.581 10.335-65.288 27.046c-16.711 16.707-27.046 39.793-27.046 65.288 0 50.994 41.34 92.333 92.333 92.333 25.495 0 48.581-10.335 65.288-27.046 16.711-16.707 27.046-39.793 27.046-65.288s-10.335-48.58-27.045-65.287z" fill="url(#SVGID_10_)"/><path d="m189.712 320.288c16.707 16.711 39.793 27.046 65.288 27.046s48.581-10.335 65.288-27.046c16.711-16.707 27.046-39.793 27.046-65.288 0-50.994-41.34-92.333-92.333-92.333-25.495 0-48.581 10.335-65.288 27.046-16.711 16.707-27.046 39.793-27.046 65.288s10.335 48.58 27.045 65.287z" fill="url(#SVGID_11_)"/><path d="m206.918 303.082c12.304 12.307 29.306 19.918 48.082 19.918s35.778-7.611 48.082-19.918c12.307-12.304 19.918-29.306 19.918-48.082 0-37.555-30.445-68-68-68-18.776 0-35.778 7.611-48.082 19.918-12.307 12.304-19.918 29.306-19.918 48.082s7.611 35.778 19.918 48.082z" fill="url(#SVGID_12_)"/><path d="m255 434.242c-98.834 0-179.242-80.408-179.242-179.242s80.408-179.242 179.242-179.242 179.242 80.408 179.242 179.242-80.408 179.242-179.242 179.242zm0-313.484c-74.021 0-134.242 60.221-134.242 134.242s60.221 134.242 134.242 134.242 134.242-60.221 134.242-134.242-60.221-134.242-134.242-134.242z" fill="url(#SVGID_13_)"/><path d="m255 97.854c86.65 0 157.146 70.495 157.146 157.146s-70.496 157.146-157.146 157.146-157.146-70.496-157.146-157.146 70.496-157.146 157.146-157.146zm0 274.839c64.896 0 117.693-52.797 117.693-117.693s-52.797-117.693-117.693-117.693-117.693 52.797-117.693 117.693 52.797 117.693 117.693 117.693z" fill="url(#SVGID_14_)"/><path d="m372.681 256c-.541 64.437-53.119 116.693-117.681 116.693s-117.14-52.256-117.681-116.693h-61.548c.541 98.375 80.729 178.242 179.229 178.242s178.688-79.867 179.229-178.242z" fill="url(#SVGID_15_)"/><circle cx="430" cy="80" fill="url(#SVGID_16_)" r="61"/><circle cx="430" cy="80" fill="url(#SVGID_17_)" r="42.619"/></g></svg>