<svg id="Capa_1" enable-background="new 0 0 510 510" height="512" viewBox="0 0 510 510" width="512" xmlns="http://www.w3.org/2000/svg" xmlns:xlink="http://www.w3.org/1999/xlink"><linearGradient id="lg1"><stop offset="0" stop-color="#bce097"/><stop offset="1" stop-color="#7dc03a"/></linearGradient><linearGradient id="SVGID_1_" gradientUnits="userSpaceOnUse" x1="128.209" x2="436.86" xlink:href="#lg1" y1="174.478" y2="483.129"/><linearGradient id="SVGID_2_" gradientTransform="matrix(-1 0 0 1 510 0)" gradientUnits="userSpaceOnUse" x1="80.909" x2="159.234" xlink:href="#lg1" y1="347.93" y2="347.93"/><linearGradient id="SVGID_3_" gradientTransform="matrix(-1 0 0 1 510 0)" gradientUnits="userSpaceOnUse" x1="350.766" x2="429.091" xlink:href="#lg1" y1="347.93" y2="347.93"/><linearGradient id="SVGID_4_" gradientTransform="matrix(-1 0 0 1 510 0)" gradientUnits="userSpaceOnUse" x1="182.352" x2="239.783" xlink:href="#lg1" y1="347.93" y2="347.93"/><linearGradient id="SVGID_5_" gradientTransform="matrix(-1 0 0 1 510 0)" gradientUnits="userSpaceOnUse" x1="270.217" x2="327.648" xlink:href="#lg1" y1="347.93" y2="347.93"/><linearGradient id="lg2"><stop offset="0" stop-color="#8cc951" stop-opacity="0"/><stop offset="1" stop-color="#3e6e66"/></linearGradient><linearGradient id="SVGID_6_" gradientUnits="userSpaceOnUse" x1="255" x2="255" xlink:href="#lg2" y1="424.756" y2="510.026"/><linearGradient id="SVGID_7_" gradientUnits="userSpaceOnUse" x1="255" x2="255" xlink:href="#lg2" y1="337" y2="157.989"/><linearGradient id="SVGID_8_" gradientUnits="userSpaceOnUse" x1="412.853" x2="375.353" xlink:href="#lg2" y1="324.386" y2="177.886"/><linearGradient id="SVGID_9_" gradientUnits="userSpaceOnUse" x1="255" x2="255" y1="142" y2="218.026"><stop offset="0" stop-color="#e38523"/><stop offset=".7304" stop-color="#db4735"/><stop offset="1" stop-color="#d82f3c"/></linearGradient><linearGradient id="SVGID_10_" gradientUnits="userSpaceOnUse" x1="369.69" x2="323.471" y1="157.31" y2="111.09"><stop offset="0" stop-color="#d52c1c" stop-opacity="0"/><stop offset=".3372" stop-color="#c82c21" stop-opacity=".337"/><stop offset=".9563" stop-color="#a72b30" stop-opacity=".956"/><stop offset="1" stop-color="#a42b31"/></linearGradient><linearGradient id="SVGID_11_" gradientTransform="matrix(.707 .707 -.707 .707 192.28 -131.604)" gradientUnits="userSpaceOnUse" x1="251.372" x2="272.244" y1="61.325" y2="61.325"><stop offset="0" stop-color="#f6df7d"/><stop offset="1" stop-color="#eab044"/></linearGradient><g><path d="m375.7 510h-241.4c-30.862 0-57.486-21.663-63.761-51.88l-56.539-272.26h482l-56.539 272.26c-6.275 30.217-32.899 51.88-63.761 51.88z" fill="url(#SVGID_1_)"/><path d="m374.477 486.145c11.669 0 21.829-8.626 23.435-20.51l30.962-229.066c1.752-12.96-7.334-24.886-20.294-26.637-12.954-1.754-24.886 7.334-26.637 20.294l-30.962 229.066c-1.752 12.96 7.334 24.886 20.294 26.637 1.077.145 2.146.216 3.202.216z" fill="url(#SVGID_2_)"/><path d="m135.523 486.145c1.057 0 2.125-.07 3.201-.216 12.96-1.752 22.046-13.678 20.294-26.637l-30.962-229.066c-1.75-12.959-13.677-22.043-26.637-20.294-12.96 1.752-22.046 13.678-20.294 26.637l30.962 229.066c1.605 11.883 11.768 20.51 23.436 20.51z" fill="url(#SVGID_3_)"/><path d="m293.914 486.143c12.599 0 23.08-9.928 23.639-22.639l10.072-229.066c.574-13.065-9.552-24.122-22.616-24.696-13.076-.59-24.122 9.551-24.697 22.616l-10.072 229.065c-.574 13.065 9.552 24.122 22.616 24.696.354.016.708.024 1.058.024z" fill="url(#SVGID_4_)"/><path d="m216.086 486.143c.351 0 .703-.008 1.058-.024 13.065-.574 23.191-11.631 22.616-24.696l-10.072-229.066c-.574-13.065-11.642-23.195-24.696-22.616-13.065.574-23.191 11.631-22.616 24.696l10.072 229.066c.558 12.71 11.04 22.64 23.638 22.64z" fill="url(#SVGID_5_)"/><path d="m59.275 403.879 11.264 54.241c6.275 30.217 32.899 51.88 63.761 51.88h241.4c30.862 0 57.486-21.663 63.761-51.88l11.264-54.241z" fill="url(#SVGID_6_)"/><path d="m14 185.86 1.871 9.011 315.129 315.129h44.7c30.862 0 57.486-21.663 63.761-51.88l56.539-272.26z" fill="url(#SVGID_7_)"/><path d="m496 185.86h-234.55v10.4l192.429 192.43z" fill="url(#SVGID_8_)"/><path d="m485.963 136.346h-461.926c-13.275 0-24.037 10.762-24.037 24.037v11.834c0 13.275 10.762 24.037 24.037 24.037h461.925c13.275 0 24.037-10.762 24.037-24.037v-11.834c.001-13.275-10.761-24.037-24.036-24.037z" fill="url(#SVGID_9_)"/><path d="m510 160.38v11.84c0 13.27-10.76 24.04-24.04 24.04h-224.51l-18.43-18.43 41.48-41.48h201.46c13.28 0 24.04 10.76 24.04 24.03z" fill="url(#SVGID_10_)"/><path d="m414.984 5.861c-7.814-7.814-20.484-7.814-28.298 0l-143.668 143.667c-7.814 7.814-7.814 20.484 0 28.298 7.814 7.814 20.484 7.814 28.298 0l143.668-143.667c7.814-7.814 7.814-20.484 0-28.298z" fill="url(#SVGID_11_)"/></g></svg>