<svg id="Capa_1" enable-background="new 0 0 510 510" height="512" viewBox="0 0 510 510" width="512" xmlns="http://www.w3.org/2000/svg" xmlns:xlink="http://www.w3.org/1999/xlink"><linearGradient id="lg1"><stop offset="0" stop-color="#dc4955"/><stop offset="1" stop-color="#c4237c"/></linearGradient><linearGradient id="SVGID_1_" gradientUnits="userSpaceOnUse" x1="-17.913" x2="186.993" xlink:href="#lg1" y1="42.177" y2="247.083"/><linearGradient id="lg2"><stop offset="0" stop-color="#8a1958" stop-opacity="0"/><stop offset="1" stop-color="#8a1958"/></linearGradient><linearGradient id="SVGID_2_" gradientUnits="userSpaceOnUse" x1="164.545" x2="164.545" xlink:href="#lg2" y1="287.263" y2="432.949"/><linearGradient id="lg3"><stop offset="0" stop-color="#eef4ff"/><stop offset="1" stop-color="#cfe7fd"/></linearGradient><linearGradient id="SVGID_3_" gradientUnits="userSpaceOnUse" x1="15.099" x2="435.454" xlink:href="#lg3" y1="75.993" y2="496.348"/><linearGradient id="lg4"><stop offset="0" stop-color="#8aaadc" stop-opacity="0"/><stop offset="1" stop-color="#8aaadc"/></linearGradient><linearGradient id="SVGID_4_" gradientUnits="userSpaceOnUse" x1="386.832" x2="301.832" xlink:href="#lg4" y1="360.149" y2="230.149"/><linearGradient id="SVGID_5_" gradientUnits="userSpaceOnUse" x1="283.01" x2="320.557" xlink:href="#lg1" y1="329.657" y2="367.204"/><linearGradient id="SVGID_6_" gradientUnits="userSpaceOnUse" x1="333.343" x2="272.32" xlink:href="#lg2" y1="379.99" y2="318.967"/><linearGradient id="SVGID_7_" gradientUnits="userSpaceOnUse" x1="219.142" x2="219.142" xlink:href="#lg4" y1="393.789" y2="519.819"/><linearGradient id="SVGID_8_" gradientUnits="userSpaceOnUse" x1="258.3" x2="258.3" xlink:href="#lg3" y1="410.068" y2="507.32"/><linearGradient id="SVGID_9_" gradientUnits="userSpaceOnUse" x1="258.3" x2="258.3" xlink:href="#lg4" y1="456" y2="525.116"/><linearGradient id="SVGID_10_" gradientUnits="userSpaceOnUse" x1="275.505" x2="297.848" y1="217.927" y2="240.27"><stop offset="0" stop-color="#5a5a5a"/><stop offset="1" stop-color="#464646"/></linearGradient><linearGradient id="SVGID_11_" gradientUnits="userSpaceOnUse" x1="255.504" x2="391.472" xlink:href="#lg1" y1="92.302" y2="228.27"/><linearGradient id="SVGID_12_" gradientUnits="userSpaceOnUse" x1="253.203" x2="349.445" xlink:href="#lg2" y1="164.402" y2="164.402"/><linearGradient id="SVGID_13_" gradientUnits="userSpaceOnUse" x1="328.633" x2="462.074" xlink:href="#lg1" y1="46.387" y2="179.828"/><linearGradient id="SVGID_14_" gradientUnits="userSpaceOnUse" x1="365.621" x2="482.369" xlink:href="#lg2" y1="83.376" y2="200.123"/><g><path d="m312.081 0h-295.073c-9.393 0-17.008 7.615-17.008 17.008v411.485c0 14.418 11.688 26.106 26.106 26.106h232.578c38.884 0 70.406-31.522 70.406-70.406v-367.185c-.001-9.393-7.615-17.008-17.009-17.008z" fill="url(#SVGID_1_)"/><path d="m0 263.505v164.988c0 14.418 11.688 26.106 26.106 26.106h232.578c38.884 0 70.406-31.522 70.406-70.406v-120.688z" fill="url(#SVGID_2_)"/><path d="m313.281 510h-232.578c-14.418 0-26.106-11.688-26.106-26.106v-411.484c0-9.393 7.615-17.008 17.008-17.008h295.073c9.393 0 17.008 7.615 17.008 17.008v367.184c.001 38.884-31.521 70.406-70.405 70.406z" fill="url(#SVGID_3_)"/><path d="m329.474 294.946h-220.664c-8.266 0-14.967-6.701-14.967-14.967v-171.37c0-8.266 6.701-14.967 14.967-14.967h220.665c8.266 0 14.967 6.701 14.967 14.967v171.37c-.001 8.266-6.702 14.967-14.968 14.967z" fill="#fff"/><path d="m329.474 379.352h-220.664c-8.266 0-14.967-6.701-14.967-14.967v-23.757c0-8.266 6.701-14.967 14.967-14.967h220.665c8.266 0 14.967 6.701 14.967 14.967v23.757c-.001 8.267-6.702 14.967-14.968 14.967z" fill="#fff"/><path d="m202.333 307.333 170.226 170.226c7.032-10.957 11.127-23.979 11.127-37.966v-313.613z" fill="url(#SVGID_4_)"/><path d="m329.474 379.352h-47.229c-8.266 0-14.967-6.701-14.967-14.967v-23.757c0-8.266 6.701-14.967 14.967-14.967h47.229c8.266 0 14.967 6.701 14.967 14.967v23.757c0 8.267-6.701 14.967-14.967 14.967z" fill="url(#SVGID_5_)"/><path d="m329.474 379.352h-47.229c-8.266 0-14.967-6.701-14.967-14.967v-23.757c0-8.266 6.701-14.967 14.967-14.967h47.229c8.266 0 14.967 6.701 14.967 14.967v23.757c0 8.267-6.701 14.967-14.967 14.967z" fill="url(#SVGID_6_)"/><path d="m54.597 388.701v95.193c0 14.418 11.688 26.106 26.106 26.106h232.578c38.884 0 70.406-31.522 70.406-70.406v-50.893z" fill="url(#SVGID_7_)"/><path d="m106.809 427.076v56.818c0 14.418-11.688 26.106-26.106 26.106h284.789c38.884 0 70.406-31.522 70.406-70.406v-12.518c0-9.393-7.615-17.008-17.008-17.008h-295.073c-9.394 0-17.008 7.615-17.008 17.008z" fill="url(#SVGID_8_)"/><path d="m106.809 427.076v56.818c0 14.418-11.688 26.106-26.106 26.106h284.789c38.884 0 70.406-31.522 70.406-70.406v-12.518c0-9.393-7.615-17.008-17.008-17.008h-295.073c-9.394 0-17.008 7.615-17.008 17.008z" fill="url(#SVGID_9_)"/><path d="m224.873 308.388 163.564-140.158-46.667-46.667-140.158 163.564c-13.252 15.465 7.796 36.513 23.261 23.261z" fill="url(#SVGID_10_)"/><g><path d="m269.44 240.56c-42.348-42.348-38.701-101.448 0-126.689l85.918-56.036 96.807 96.807-56.036 85.918c-25.241 38.7-84.34 42.348-126.689 0z" fill="url(#SVGID_11_)"/><path d="m269.44 240.56c-42.348-42.348-38.701-101.448 0-126.689l85.918-56.036 96.807 96.807-56.036 85.918c-25.241 38.7-84.34 42.348-126.689 0z" fill="url(#SVGID_12_)"/></g><g><circle cx="396.123" cy="113.877" fill="url(#SVGID_13_)" r="113.877"/><circle cx="396.123" cy="113.877" fill="url(#SVGID_14_)" r="113.877"/></g></g></svg>