<svg id="Capa_1" enable-background="new 0 0 510 510" height="512" viewBox="0 0 510 510" width="512" xmlns="http://www.w3.org/2000/svg" xmlns:xlink="http://www.w3.org/1999/xlink"><linearGradient id="SVGID_1_" gradientUnits="userSpaceOnUse" x1="67.441" x2="438.283" y1="67.441" y2="438.283"><stop offset="0" stop-color="#5a5a5a"/><stop offset="1" stop-color="#464646"/></linearGradient><linearGradient id="lg1"><stop offset="0" stop-color="#464646" stop-opacity="0"/><stop offset=".1772" stop-color="#3d3d3d" stop-opacity=".177"/><stop offset=".6736" stop-color="#282828" stop-opacity=".674"/><stop offset="1" stop-color="#202020"/></linearGradient><linearGradient id="SVGID_2_" gradientUnits="userSpaceOnUse" x1="499.347" x2="236.86" xlink:href="#lg1" y1="400.103" y2="247.11"/><linearGradient id="SVGID_3_" gradientUnits="userSpaceOnUse" x1="255" x2="255" xlink:href="#lg1" y1="408" y2="510.02"/><linearGradient id="SVGID_4_" gradientUnits="userSpaceOnUse" x1="156.053" x2="323.89" y1="141.214" y2="309.051"><stop offset="0" stop-color="#76ccf8"/><stop offset=".833" stop-color="#518ef8"/><stop offset="1" stop-color="#4981f8"/></linearGradient><linearGradient id="SVGID_5_" gradientUnits="userSpaceOnUse" x1="186.104" x2="353.941" y1="171.265" y2="339.102"><stop offset="0" stop-color="#dc4955"/><stop offset="1" stop-color="#c4237c"/></linearGradient><linearGradient id="SVGID_6_" gradientUnits="userSpaceOnUse" x1="317.186" x2="243.407" y1="276.92" y2="254.985"><stop offset="0" stop-color="#8a1958" stop-opacity="0"/><stop offset="1" stop-color="#8a1958"/></linearGradient><linearGradient id="SVGID_7_" gradientUnits="userSpaceOnUse" x1="163.029" x2="339.96" y1="155.236" y2="332.167"><stop offset="0" stop-color="#eef4ff"/><stop offset="1" stop-color="#cfe7fd"/></linearGradient><linearGradient id="SVGID_8_" gradientUnits="userSpaceOnUse" x1="275.712" x2="319.712" y1="283.401" y2="367.401"><stop offset="0" stop-color="#8aaadc" stop-opacity="0"/><stop offset="1" stop-color="#8aaadc"/></linearGradient><g><path d="m403.41 510h-296.82c-58.868 0-106.59-47.722-106.59-106.59v-296.82c0-58.868 47.722-106.59 106.59-106.59h296.82c58.868 0 106.59 47.722 106.59 106.59v296.82c0 58.868-47.722 106.59-106.59 106.59z" fill="url(#SVGID_1_)"/><path d="m397.242 58.561c-4.405-6.894-12.706-8.964-21.473-7.343l-151.4 27.99c-8.216 1.525-12.166 6.681-12.166 15.045v166.76c-25.79-5.463-57.048.402-83.219 18.421-45.037 31.041-59.876 84.242-34.361 121.297 3.265 4.74 5.052 8.948 9.262 12.627l96.572 96.642h202.953c58.868 0 106.59-47.722 106.59-106.59v-232.423z" fill="url(#SVGID_2_)"/><path d="m0 344.628v58.782c0 58.868 47.722 106.59 106.59 106.59h296.82c58.868 0 106.59-47.722 106.59-106.59v-58.782z" fill="url(#SVGID_3_)"/><path d="m400.517 69.809c0 3.154-.168 6.275-.497 9.352-4.067 38.04-32.674 67.505-71.011 74.596l-52.932 9.79c-4.679.868-10.089 6.954-10.089 11.719v150.701h-.063c1.08 30.766-14.114 62.094-45.494 83.713-33.662 23.174-74.107 28.306-103.061 12.949-9.803-5.199-18.288-12.518-24.747-21.896-25.515-37.055-9.677-92.256 35.361-123.297 26.171-18.019 56.429-23.885 82.219-18.421v-164.761c0-8.364 5.95-15.521 14.166-17.045l151.401-27.991c12.871-2.38 24.747 7.501 24.747 20.591z" fill="url(#SVGID_4_)"/><path d="m429.568 98.86c0 42.142-30.07 78.283-71.508 85.948l-52.932 9.79c-4.679.868-8.089 4.954-8.089 9.719v150.701h-.063c1.08 30.766-16.114 64.094-47.494 85.713-45.059 31.02-102.271 26.129-127.807-10.947-25.515-37.055-9.677-89.256 35.361-120.297 26.171-18.019 58.429-23.885 84.219-18.421v-167.76c0-8.364 3.95-13.521 12.166-15.045l151.399-29.992c12.872-2.38 24.748 7.501 24.748 20.591z" fill="url(#SVGID_5_)"/><path d="m429.568 98.86c0 42.142-30.07 78.283-71.508 85.948l-52.932 9.79c-4.679.868-8.089 4.954-8.089 9.719v150.701h-.063c1.08 30.766-16.114 64.094-47.494 85.713-45.059 31.02-102.271 26.129-127.807-10.947-1.595-2.316-3.028-4.703-4.302-7.15-19.119-36.71-1.559-85.046 40.663-114.147 26.171-18.019 57.429-22.885 83.219-17.421v-167.76c0-8.364 3.95-13.521 12.166-15.045l146.578-29.101 4.821-.891c12.872-2.38 24.748 7.501 24.748 20.591z" fill="url(#SVGID_6_)"/><g><path d="m399.999 79.16-146.579 27.099c-8.216 1.525-14.166 8.681-14.166 17.045v164.76c-25.79-5.463-56.048.402-82.219 18.421-42.215 29.096-58.776 79.418-39.673 116.127 28.954 15.365 69.402 12.244 103.069-10.934 31.38-21.619 48.574-54.947 47.494-85.713h.063v-150.699c0-4.764 3.409-8.851 8.089-9.719l52.932-9.791c38.335-7.09 66.921-38.558 70.99-76.596z" fill="url(#SVGID_7_)"/><path d="m399.999 79.16-146.579 27.099c-8.216 1.525-14.166 8.681-14.166 17.045v164.76c-25.79-5.463-56.048.402-82.219 18.421-42.215 29.096-58.776 79.418-39.673 116.127 28.954 15.365 69.402 12.244 103.069-10.934 31.38-21.619 48.574-54.947 47.494-85.713h.063v-150.699c0-4.764 3.409-8.851 8.089-9.719l52.932-9.791c38.335-7.09 66.921-38.558 70.99-76.596z" fill="url(#SVGID_8_)"/></g></g></svg>