<svg id="Capa_1" enable-background="new 0 0 510 510" height="512" viewBox="0 0 510 510" width="512" xmlns="http://www.w3.org/2000/svg" xmlns:xlink="http://www.w3.org/1999/xlink"><linearGradient id="SVGID_1_" gradientUnits="userSpaceOnUse" x1="219.33" x2="362.453" y1="211.97" y2="561.623"><stop offset="0" stop-color="#76ccf8"/><stop offset=".833" stop-color="#518ef8"/><stop offset="1" stop-color="#4981f8"/></linearGradient><linearGradient id="lg1"><stop offset="0" stop-color="#4071f7" stop-opacity="0"/><stop offset="1" stop-color="#30569f"/></linearGradient><linearGradient id="SVGID_2_" gradientUnits="userSpaceOnUse" x1="390.836" x2="215.836" xlink:href="#lg1" y1="323.885" y2="277.885"/><linearGradient id="SVGID_3_" gradientUnits="userSpaceOnUse" x1="396.806" x2="282.806" xlink:href="#lg1" y1="388.857" y2="305.857"/><linearGradient id="SVGID_4_" gradientUnits="userSpaceOnUse" x1="200.721" x2="200.721" xlink:href="#lg1" y1="310.5" y2="238.498"/><linearGradient id="SVGID_5_" gradientUnits="userSpaceOnUse" x1="254.991" x2="254.991" xlink:href="#lg1" y1="390" y2="506"/><linearGradient id="SVGID_6_" gradientUnits="userSpaceOnUse" x1="135.438" x2="341.351" y1="88.562" y2="294.475"><stop offset="0" stop-color="#f7e07d"/><stop offset="1" stop-color="#e69642"/></linearGradient><linearGradient id="lg2"><stop offset="0" stop-color="#d52c1c" stop-opacity="0"/><stop offset=".28" stop-color="#d12c1e" stop-opacity=".28"/><stop offset=".5735" stop-color="#c42c23" stop-opacity=".574"/><stop offset=".8721" stop-color="#af2b2c" stop-opacity=".872"/><stop offset="1" stop-color="#a42b31"/></linearGradient><linearGradient id="SVGID_7_" gradientUnits="userSpaceOnUse" x1="202.745" x2="202.745" xlink:href="#lg2" y1="195.333" y2="270.961"/><linearGradient id="SVGID_8_" gradientUnits="userSpaceOnUse" x1="257.138" x2="314.138" xlink:href="#lg2" y1="274.227" y2="323.227"/><g><path d="m302.168 115.157h-94.336c-101.595 0-183.955 82.359-183.955 183.955v.001c0 101.595 82.359 183.954 183.954 183.954h94.336c10.698 0 21.165-.965 31.363-2.717l55.551 27.594c13.811 6.86 29.707-4.394 27.825-19.699l-5.094-41.425c45.09-33.526 74.31-87.201 74.31-147.707.001-101.596-82.359-183.956-183.954-183.956z" fill="url(#SVGID_1_)"/><path d="m389.082 507.944c13.811 6.86 29.707-4.394 27.825-19.699l-5.094-41.425c45.09-33.526 74.31-87.201 74.31-147.707 0-101.595-82.359-183.955-183.955-183.955h-22.648l-17.203 48.66 14.183 14.182-81.833 232.667 72.4 72.4h35.101c10.698 0 21.165-.965 31.363-2.718z" fill="url(#SVGID_2_)"/><path d="m361.985 174.835h-88.65l3.165 3.165-81.833 232.667 72.4 72.4h35.101c10.698 0 21.165-.965 31.363-2.718l55.551 27.594c13.811 6.86 29.707-4.394 27.825-19.699l-5.094-41.425c45.09-33.526 74.31-87.201 74.31-147.707 0-.047-.002-.094-.002-.141z" fill="url(#SVGID_3_)"/><path d="m146.443 239.609 80.474 80.474 28.083-80.474z" fill="url(#SVGID_4_)"/><path d="m473.558 366.005h-437.134c26.76 68.519 93.412 117.062 171.407 117.062h94.336c10.698 0 21.165-.965 31.363-2.718l55.551 27.594c13.811 6.86 29.707-4.394 27.825-19.699l-5.094-41.425c27.502-20.448 49.081-48.399 61.746-80.814z" fill="url(#SVGID_5_)"/><g><path d="m270.913 162.136s31.598-91.672 47.679-138.548c6.408-18.677-17.92-32.258-30.456-17.003l-143.329 174.417c-23.927 29.117-3.214 72.948 34.473 72.948h59.773s-31.624 91.757-47.71 138.647c-6.407 18.677 17.922 32.257 30.457 17.001l143.394-174.516c23.924-29.117 3.211-72.946-34.474-72.946z" fill="url(#SVGID_6_)"/><path d="m160.311 162.136-15.504 18.866c-23.927 29.117-3.214 72.948 34.473 72.948h59.773l31.86-91.814z" fill="url(#SVGID_7_)"/><path d="m221.801 409.597 143.394-174.516c23.924-29.117 3.211-72.946-34.474-72.946h-59.807l-31.86 91.814s-31.625 91.757-47.71 138.647c-6.408 18.678 17.921 32.257 30.457 17.001z" fill="url(#SVGID_8_)"/></g></g></svg>