<svg id="Capa_1" enable-background="new 0 0 510 510" height="512" viewBox="0 0 510 510" width="512" xmlns="http://www.w3.org/2000/svg" xmlns:xlink="http://www.w3.org/1999/xlink"><linearGradient id="lg1"><stop offset="0" stop-color="#f7e07d"/><stop offset="1" stop-color="#e69642"/></linearGradient><linearGradient id="SVGID_1_" gradientUnits="userSpaceOnUse" x1="-17.824" x2="187.082" xlink:href="#lg1" y1="42.177" y2="247.083"/><linearGradient id="SVGID_2_" gradientUnits="userSpaceOnUse" x1="164.634" x2="164.634" y1="287.263" y2="432.949"><stop offset="0" stop-color="#d52c1c" stop-opacity="0"/><stop offset=".28" stop-color="#d12c1e" stop-opacity=".28"/><stop offset=".5735" stop-color="#c42c23" stop-opacity=".574"/><stop offset=".8721" stop-color="#af2b2c" stop-opacity=".872"/><stop offset="1" stop-color="#a42b31"/></linearGradient><linearGradient id="lg2"><stop offset="0" stop-color="#eef4ff"/><stop offset="1" stop-color="#cfe7fd"/></linearGradient><linearGradient id="SVGID_3_" gradientUnits="userSpaceOnUse" x1="15.009" x2="435.364" xlink:href="#lg2" y1="75.993" y2="496.348"/><linearGradient id="lg3"><stop offset="0" stop-color="#dc4955"/><stop offset="1" stop-color="#c4237c"/></linearGradient><linearGradient id="SVGID_4_" gradientUnits="userSpaceOnUse" x1="142.05" x2="199.364" xlink:href="#lg3" y1="144.188" y2="201.502"/><linearGradient id="lg4"><stop offset="0" stop-color="#8aaadc" stop-opacity="0"/><stop offset="1" stop-color="#8aaadc"/></linearGradient><linearGradient id="SVGID_5_" gradientUnits="userSpaceOnUse" x1="413.421" x2="292.398" xlink:href="#lg4" y1="359.157" y2="238.134"/><linearGradient id="SVGID_6_" gradientUnits="userSpaceOnUse" x1="219.053" x2="219.053" xlink:href="#lg4" y1="393.789" y2="519.819"/><linearGradient id="SVGID_7_" gradientUnits="userSpaceOnUse" x1="258.211" x2="258.211" xlink:href="#lg2" y1="410.068" y2="507.32"/><linearGradient id="SVGID_8_" gradientUnits="userSpaceOnUse" x1="258.211" x2="258.211" xlink:href="#lg4" y1="456" y2="525.116"/><linearGradient id="SVGID_9_" gradientTransform="matrix(.707 .707 -.707 .707 465.117 -542.157)" gradientUnits="userSpaceOnUse" x1="364.647" x2="488.114" y1="627.934" y2="627.934"><stop offset="0" stop-color="#f4dabc"/><stop offset="1" stop-color="#e9a6ae"/></linearGradient><linearGradient id="SVGID_10_" gradientTransform="matrix(.707 .707 -.707 .707 465.117 -542.157)" gradientUnits="userSpaceOnUse" x1="364.647" x2="488.115" xlink:href="#lg1" y1="594.269" y2="594.269"/><linearGradient id="SVGID_11_" gradientTransform="matrix(.707 .707 -.707 .707 465.117 -542.157)" gradientUnits="userSpaceOnUse" x1="456.157" x2="376.647" xlink:href="#lg1" y1="594.053" y2="594.053"/><linearGradient id="SVGID_12_" gradientTransform="matrix(.707 .707 -.707 .707 465.117 -542.157)" gradientUnits="userSpaceOnUse" x1="410.037" x2="425.374" y1="804.217" y2="804.217"><stop offset="0" stop-color="#5a5a5a"/><stop offset="1" stop-color="#464646"/></linearGradient><linearGradient id="SVGID_13_" gradientTransform="matrix(.707 .707 -.707 .707 465.117 -542.157)" gradientUnits="userSpaceOnUse" x1="415.037" x2="415.037" xlink:href="#lg2" y1="447.443" y2="479.861"/><linearGradient id="SVGID_14_" gradientTransform="matrix(.707 .707 -.707 .707 465.117 -542.157)" gradientUnits="userSpaceOnUse" x1="387.537" x2="447.172" xlink:href="#lg3" y1="403.268" y2="403.268"/><linearGradient id="SVGID_15_" gradientTransform="matrix(.707 .707 -.707 .707 465.117 -542.157)" gradientUnits="userSpaceOnUse" x1="415.037" x2="415.037" xlink:href="#lg2" y1="481.85" y2="500.853"/><linearGradient id="SVGID_16_" gradientTransform="matrix(.707 .707 -.707 .707 465.117 -542.157)" gradientUnits="userSpaceOnUse" x1="415.037" x2="415.037" xlink:href="#lg2" y1="431.517" y2="450.52"/><g><path d="m312.171 0h-295.073c-9.394 0-17.009 7.615-17.009 17.008v411.485c0 14.418 11.688 26.106 26.106 26.106h232.578c38.884 0 70.406-31.522 70.406-70.406v-367.185c0-9.393-7.615-17.008-17.008-17.008z" fill="url(#SVGID_1_)"/><path d="m.089 263.505v164.988c0 14.418 11.688 26.106 26.106 26.106h232.578c38.884 0 70.406-31.522 70.406-70.406v-120.688z" fill="url(#SVGID_2_)"/><path d="m313.191 510h-232.578c-14.418 0-26.106-11.688-26.106-26.106v-411.484c0-9.393 7.615-17.008 17.008-17.008h295.073c9.393 0 17.008 7.615 17.008 17.008v367.184c.001 38.884-31.521 70.406-70.405 70.406z" fill="url(#SVGID_3_)"/><path d="m329.385 379.352h-220.665c-8.266 0-14.967-6.701-14.967-14.967v-23.757c0-8.266 6.701-14.967 14.967-14.967h220.665c8.266 0 14.967 6.701 14.967 14.967v23.757c0 8.267-6.701 14.967-14.967 14.967z" fill="#fff"/><path d="m329.385 294.946h-220.665c-8.266 0-14.967-6.701-14.967-14.967v-171.37c0-8.266 6.701-14.967 14.967-14.967h220.665c8.266 0 14.967 6.701 14.967 14.967v171.37c0 8.266-6.701 14.967-14.967 14.967z" fill="#fff"/><path d="m168.624 110.939 12.482 25.292c.684 1.386 2.007 2.347 3.537 2.57l27.912 4.056c3.933.572 5.504 5.405 2.658 8.179l-20.197 19.687c-1.107 1.079-1.612 2.634-1.351 4.158l4.768 27.799c.672 3.917-3.44 6.905-6.958 5.055l-24.965-13.125c-1.369-.719-3.003-.719-4.372 0l-24.965 13.125c-3.518 1.85-7.63-1.138-6.958-5.055l4.768-27.799c.261-1.524-.244-3.079-1.351-4.158l-20.197-19.687c-2.846-2.774-1.276-7.608 2.658-8.179l27.912-4.056c1.53-.222 2.853-1.183 3.537-2.57l12.482-25.292c1.759-3.564 6.841-3.564 8.6 0z" fill="url(#SVGID_4_)"/><path d="m179.911 329.333 170.206 170.206c20.088-12.4 33.481-34.605 33.481-59.946v-313.946z" fill="url(#SVGID_5_)"/><path d="m54.508 388.701v95.193c0 14.418 11.688 26.106 26.106 26.106h232.578c38.884 0 70.406-31.522 70.406-70.406v-50.893z" fill="url(#SVGID_6_)"/><path d="m106.719 427.076v56.818c0 14.418-11.688 26.106-26.106 26.106h284.789c38.884 0 70.406-31.522 70.406-70.406v-12.518c0-9.393-7.615-17.008-17.008-17.008h-295.073c-9.393 0-17.008 7.615-17.008 17.008z" fill="url(#SVGID_7_)"/><path d="m106.719 427.076v56.818c0 14.418-11.688 26.106-26.106 26.106h284.789c38.884 0 70.406-31.522 70.406-70.406v-12.518c0-9.393-7.615-17.008-17.008-17.008h-295.073c-9.393 0-17.008 7.615-17.008 17.008z" fill="url(#SVGID_8_)"/><g><path d="m473.526 85.609-49.225-49.225c-6.085-6.086-15.952-6.086-22.038 0l-208.421 208.423c-4.737 4.737-7.754 10.924-8.569 17.574l-7.405 60.412c-.657 5.357 3.893 9.907 9.25 9.25l60.412-7.405c6.65-.815 12.836-3.831 17.574-8.569l208.422-208.422c6.085-6.086 6.085-15.952 0-22.038z" fill="url(#SVGID_9_)"/><path d="m473.525 107.648-202.971 202.971c-5.393-3.912-11.645-6.094-18.003-6.554-3.796-.275-6.836-3.205-7.1-7.002-.568-8.159-3.971-16.154-10.21-22.393s-14.234-9.642-22.393-10.21c-3.797-.264-6.727-3.304-7.002-7.1-.46-6.358-2.642-12.61-6.554-18.003l202.971-202.971c6.088-6.088 15.952-6.081 22.034 0l49.229 49.229c6.083 6.084 6.083 15.948-.001 22.033z" fill="url(#SVGID_10_)"/><path d="m466.911 79.001-36.001-36.002-220.755 220.755c.823.392 1.73.639 2.693.706 8.159.568 16.154 3.971 22.393 10.21s9.642 14.234 10.21 22.393c.067.964.314 1.87.706 2.693z" fill="url(#SVGID_11_)"/><path d="m199.613 310.298c-5.369-5.369-12.057-8.608-19.02-9.736l-2.725 22.231c-.657 5.357 3.893 9.907 9.25 9.25l22.231-2.725c-1.128-6.963-4.367-13.651-9.736-19.02z" fill="url(#SVGID_12_)"/><path d="m451.834 131.184-73.108-73.107 30.17-30.17 73.108 73.107z" fill="url(#SVGID_13_)"/><path d="m488.661 94.357-73.108-73.108 6.108-6.108c20.188-20.188 52.92-20.188 73.108 0 20.188 20.188 20.188 52.92 0 73.108z" fill="url(#SVGID_14_)"/><path d="m452.653 123.01-65.753-65.753c-4.884-4.884-12.802-4.884-17.685 0-4.884 4.884-4.884 12.802 0 17.685l65.753 65.753c4.884 4.884 12.802 4.884 17.685 0 4.884-4.883 4.884-12.801 0-17.685z" fill="url(#SVGID_15_)"/><path d="m488.244 87.419-65.753-65.753c-4.884-4.884-12.802-4.884-17.685 0-4.884 4.884-4.884 12.802 0 17.685l65.753 65.753c4.884 4.884 12.802 4.884 17.685 0 4.884-4.883 4.884-12.801 0-17.685z" fill="url(#SVGID_16_)"/></g></g></svg>