<svg id="Capa_1" enable-background="new 0 0 510 510" height="512" viewBox="0 0 510 510" width="512" xmlns="http://www.w3.org/2000/svg" xmlns:xlink="http://www.w3.org/1999/xlink"><linearGradient id="SVGID_1_" gradientUnits="userSpaceOnUse" x1="76.631" x2="347.763" y1="72.37" y2="343.501"><stop offset="0" stop-color="#eef4ff"/><stop offset="1" stop-color="#cfe7fd"/></linearGradient><linearGradient id="lg1"><stop offset="0" stop-color="#8aaadc" stop-opacity="0"/><stop offset="1" stop-color="#8aaadc"/></linearGradient><linearGradient id="SVGID_2_" gradientUnits="userSpaceOnUse" x1="340" x2="444.307" xlink:href="#lg1" y1="139.785" y2="139.785"/><linearGradient id="SVGID_3_" gradientUnits="userSpaceOnUse" x1="234.018" x2="334.018" xlink:href="#lg1" y1="98.22" y2="-.781"/><linearGradient id="SVGID_4_" gradientUnits="userSpaceOnUse" x1="255" x2="255" xlink:href="#lg1" y1="288" y2="373.357"/><linearGradient id="SVGID_5_" gradientUnits="userSpaceOnUse" x1="397.682" x2="178.348" xlink:href="#lg1" y1="394.985" y2="175.652"/><linearGradient id="SVGID_6_" gradientUnits="userSpaceOnUse" x1="255" x2="255" y1="101.333" y2="290.668"><stop offset="0" stop-color="#cce8b0"/><stop offset="1" stop-color="#7dc03a"/></linearGradient><linearGradient id="lg2"><stop offset="0" stop-color="#8cc951" stop-opacity="0"/><stop offset="1" stop-color="#3e6e66"/></linearGradient><linearGradient id="SVGID_7_" gradientUnits="userSpaceOnUse" x1="255" x2="255" xlink:href="#lg2" y1="260" y2="310.737"/><linearGradient id="SVGID_8_" gradientTransform="matrix(.707 .707 -.707 .707 255 -105.625)" gradientUnits="userSpaceOnUse" x1="186.714" x2="204.727" xlink:href="#lg2" y1="282.565" y2="300.578"/><linearGradient id="SVGID_9_" gradientTransform="matrix(.707 .707 -.707 .707 255 -105.625)" gradientUnits="userSpaceOnUse" x1="282.565" x2="300.578" xlink:href="#lg2" y1="186.714" y2="204.727"/><linearGradient id="SVGID_10_" gradientUnits="userSpaceOnUse" x1="447.178" x2="400.803" xlink:href="#lg1" y1="384.572" y2="338.197"/><linearGradient id="SVGID_11_" gradientUnits="userSpaceOnUse" x1="138.458" x2="315.712" y1="290.3" y2="467.554"><stop offset="0" stop-color="#f7e07d"/><stop offset="1" stop-color="#e69642"/></linearGradient><linearGradient id="SVGID_12_" gradientUnits="userSpaceOnUse" x1="255" x2="255" y1="436.319" y2="512.331"><stop offset="0" stop-color="#d52c1c" stop-opacity="0"/><stop offset=".28" stop-color="#d12c1e" stop-opacity=".28"/><stop offset=".5735" stop-color="#c42c23" stop-opacity=".574"/><stop offset=".8721" stop-color="#af2b2c" stop-opacity=".872"/><stop offset="1" stop-color="#a42b31"/></linearGradient><g><g><g><path d="m417.255 162.99c2.257-6.851 3.495-14.165 3.495-21.772 0-38.418-31.144-69.562-69.562-69.562-11.218 0-21.806 2.671-31.189 7.388-21.079-46.611-67.986-79.044-122.469-79.044-74.195 0-134.342 60.147-134.342 134.342 0 11.438 1.434 22.541 4.124 33.142-39.041 12.48-67.312 49.053-67.312 92.235 0 53.472 43.348 96.82 96.82 96.82h316.359s96.821-43.348 96.821-96.82c0-52.107-41.163-94.592-92.745-96.729z" fill="url(#SVGID_1_)"/><path d="m420.75 141.22c0 7.6-1.22 14.92-3.48 21.77-1.35-.06-2.72-.09-4.09-.09-34.41 0-64.63 17.96-81.79 45.01-28.77-8.52-49.76-35.15-49.76-66.69 0-38.42 31.14-69.56 69.56-69.56s69.56 31.14 69.56 69.56z" fill="url(#SVGID_2_)"/><path d="m314.55 200.36c-23.05 40.79-66.82 68.32-117.02 68.32-74.19 0-134.34-60.14-134.34-134.34 0-74.19 60.15-134.34 134.34-134.34 54.48 0 101.39 32.43 122.47 79.03-22.76 11.43-38.37 34.99-38.37 62.19 0 24.97 13.16 46.87 32.92 59.14z" fill="url(#SVGID_3_)"/><path d="m0 259.719c0 53.472 43.348 96.82 96.82 96.82h316.359s96.821-43.348 96.821-96.82c0-10.369-1.635-20.354-4.653-29.719h-500.682c-3.019 9.366-4.665 19.349-4.665 29.719z" fill="url(#SVGID_4_)"/></g></g><path d="m271.958 106.153c-7.785-11.27-24.568-11.159-32.163.349l-75.767 114.798c-6.218 9.421-2.961 21.121 5.262 26.76 0 0 13.824 13.912 26.377 26.557v81.922h24.658 9.342 183.513c29.879 0 56.594-13.538 74.354-34.811z" fill="url(#SVGID_5_)"/><g><path d="m295.342 343.193v-92.782h35.425c15.467 0 24.725-17.203 16.205-30.112l-75.767-114.798c-7.675-11.628-24.735-11.628-32.41 0l-75.767 114.799c-8.52 12.909.738 30.111 16.205 30.111h35.425v92.782c0 10.323 8.369 18.692 18.692 18.692h43.3c10.324 0 18.692-8.368 18.692-18.692z" fill="url(#SVGID_6_)"/><path d="m295.342 343.193v-92.782h-80.684v92.782c0 10.323 8.369 18.692 18.692 18.692h43.3c10.324 0 18.692-8.368 18.692-18.692z" fill="url(#SVGID_7_)"/><path d="m214.66 176.248v74.168h-35.426c-15.464-.007-24.727-17.204-16.2-30.116l32.802-49.704c1.899-2.878 5.116-4.609 8.564-4.609 5.666 0 10.26 4.594 10.26 10.261z" fill="url(#SVGID_8_)"/><path d="m330.767 250.416h-35.426v-74.168c0-5.667 4.594-10.261 10.261-10.261 3.448 0 6.665 1.731 8.564 4.609l32.802 49.704c8.526 12.912-.737 30.109-16.201 30.116z" fill="url(#SVGID_9_)"/></g><path d="m436.462 353.712-37.462-37.462v40.289h14.18c8.027 0 15.823-.985 23.282-2.827z" fill="url(#SVGID_10_)"/><g><path d="m205.264 292.447c0-14.26-11.56-25.82-25.82-25.82h-51.624c-14.26 0-25.82 11.56-25.82 25.82v180.77c0 20.315 16.469 36.783 36.784 36.783h232.433c20.315 0 36.783-16.468 36.783-36.783v-132.75c0-20.315-16.469-36.784-36.784-36.784h-154.716c-6.205.001-11.236-5.03-11.236-11.236z" fill="url(#SVGID_11_)"/><path d="m102 432.541v40.675c0 20.316 16.469 36.784 36.784 36.784h232.433c20.315 0 36.783-16.468 36.783-36.783v-40.675h-306z" fill="url(#SVGID_12_)"/></g></g></svg>