<svg id="Capa_1" enable-background="new 0 0 510.001 510.001" height="512" viewBox="0 0 510.001 510.001" width="512" xmlns="http://www.w3.org/2000/svg" xmlns:xlink="http://www.w3.org/1999/xlink"><linearGradient id="SVGID_1_" gradientUnits="userSpaceOnUse" x1="48.927" x2="400.764" y1="159.637" y2="511.473"><stop offset="0" stop-color="#f7e07d"/><stop offset="1" stop-color="#e69642"/></linearGradient><linearGradient id="lg1"><stop offset="0" stop-color="#d52c1c" stop-opacity="0"/><stop offset=".2684" stop-color="#ce2c1f" stop-opacity=".268"/><stop offset=".6596" stop-color="#ba2b27" stop-opacity=".66"/><stop offset="1" stop-color="#a42b31"/></linearGradient><linearGradient id="SVGID_2_" gradientUnits="userSpaceOnUse" x1="234.91" x2="534.895" xlink:href="#lg1" y1="267.679" y2="198.682"/><linearGradient id="lg2"><stop offset="0" stop-color="#d52c1c" stop-opacity="0"/><stop offset=".28" stop-color="#d12c1e" stop-opacity=".28"/><stop offset=".5735" stop-color="#c42c23" stop-opacity=".574"/><stop offset=".8721" stop-color="#af2b2c" stop-opacity=".872"/><stop offset="1" stop-color="#a42b31"/></linearGradient><linearGradient id="SVGID_3_" gradientUnits="userSpaceOnUse" x1="187.384" x2="-46.617" xlink:href="#lg2" y1="338.449" y2="221.115"/><linearGradient id="lg3"><stop offset="0" stop-color="#eef4ff"/><stop offset="1" stop-color="#cfe7fd"/></linearGradient><linearGradient id="SVGID_4_" gradientUnits="userSpaceOnUse" x1="93.36" x2="120.854" xlink:href="#lg3" y1="140.392" y2="167.886"/><linearGradient id="SVGID_5_" gradientUnits="userSpaceOnUse" x1="234.381" x2="261.876" xlink:href="#lg3" y1="140.392" y2="167.886"/><linearGradient id="SVGID_6_" gradientUnits="userSpaceOnUse" x1="207.564" x2="207.564" xlink:href="#lg2" y1="394" y2="524.015"/><linearGradient id="SVGID_7_" gradientUnits="userSpaceOnUse" x1="291.611" x2="160.679" xlink:href="#lg1" y1="348.705" y2="281.057"/><linearGradient id="SVGID_8_" gradientUnits="userSpaceOnUse" x1="263.408" x2="222.877" xlink:href="#lg2" y1="236.245" y2="450.276"/><linearGradient id="SVGID_9_" gradientUnits="userSpaceOnUse" x1="155.055" x2="175.967" y1="192.696" y2="213.608"><stop offset="0" stop-color="#dc4955"/><stop offset="1" stop-color="#c4237c"/></linearGradient><linearGradient id="SVGID_10_" gradientUnits="userSpaceOnUse" x1="408.043" x2="408.043" xlink:href="#lg3" y1="1.214" y2="174.233"/><linearGradient id="lg4"><stop offset="0" stop-color="#5a5a5a"/><stop offset="1" stop-color="#464646"/></linearGradient><linearGradient id="SVGID_11_" gradientUnits="userSpaceOnUse" x1="360.244" x2="380.567" xlink:href="#lg4" y1="70.565" y2="90.887"/><linearGradient id="SVGID_12_" gradientUnits="userSpaceOnUse" x1="400.131" x2="420.453" xlink:href="#lg4" y1="70.565" y2="90.887"/><linearGradient id="SVGID_13_" gradientUnits="userSpaceOnUse" x1="440.018" x2="460.34" xlink:href="#lg4" y1="70.565" y2="90.887"/><linearGradient id="SVGID_14_" gradientUnits="userSpaceOnUse" x1="408.035" x2="408.035" y1="112.208" y2="172.224"><stop offset="0" stop-color="#8aaadc" stop-opacity="0"/><stop offset="1" stop-color="#8aaadc"/></linearGradient><g><g><path d="m409.65 474.256c-27-27-42.168-63.62-42.168-101.804v-212.534c0-88.32-71.598-159.918-159.918-159.918-88.321 0-159.918 71.598-159.918 159.918l-.239 73.089s-.014.02-.036.049c-18.144 11.864-30.142 32.347-30.142 55.644v19.437c0 17.496 13.349 31.87 30.417 33.504v30.813c0 38.184-15.168 74.803-42.168 101.803l-.001.001c-7.302 7.302-7.302 19.14 0 26.441 12.401 12.401 32.507 12.401 44.908 0 5.969-5.969 13.724-9.065 21.546-9.288 8.427-.24 16.931 2.856 23.363 9.288 5.562 5.562 12.674 8.629 19.945 9.202 8.941.704 18.124-2.363 24.963-9.202 6.2-6.201 14.327-9.301 22.454-9.301s16.253 3.1 22.454 9.301c4.65 4.65 10.384 7.557 16.389 8.719 10.008 1.938 20.768-.969 28.519-8.719 6.051-6.051 13.936-9.149 21.865-9.295 8.322-.153 16.692 2.945 23.042 9.295 6.163 6.163 14.228 9.263 22.305 9.3 8.176.038 16.365-3.062 22.603-9.3 6.2-6.201 14.327-9.301 22.454-9.301s16.254 3.1 22.454 9.301c12.401 12.401 32.507 12.401 44.908 0 7.303-7.302 7.303-19.141.001-26.443z" fill="url(#SVGID_1_)"/><path d="m409.65 474.256c-27-27-42.168-63.62-42.168-101.804v-212.534c0-88.32-71.598-159.918-159.918-159.918-88.321 0-159.918 71.598-159.918 159.918l-.239 73.089s-.014.02-.036.049c-18.144 11.864-30.142 32.347-30.142 55.644v19.437c0 17.496 13.349 31.87 30.417 33.504v30.813c0 38.184-15.168 74.803-42.168 101.803l-.001.001c-7.302 7.302-7.302 19.14 0 26.441 12.401 12.401 32.507 12.401 44.908 0 5.969-5.969 13.724-9.065 21.546-9.288 8.427-.24 16.931 2.856 23.363 9.288 5.562 5.562 12.674 8.629 19.945 9.202 8.941.704 18.124-2.363 24.963-9.202 6.2-6.201 14.327-9.301 22.454-9.301s16.253 3.1 22.454 9.301c4.65 4.65 10.384 7.557 16.389 8.719 10.008 1.938 20.768-.969 28.519-8.719 6.051-6.051 13.936-9.149 21.865-9.295 8.322-.153 16.692 2.945 23.042 9.295 6.163 6.163 14.228 9.263 22.305 9.3 8.176.038 16.365-3.062 22.603-9.3 6.2-6.201 14.327-9.301 22.454-9.301s16.254 3.1 22.454 9.301c12.401 12.401 32.507 12.401 44.908 0 7.303-7.302 7.303-19.141.001-26.443z" fill="url(#SVGID_2_)"/><path d="m409.87 500.48c-6.22 6.35-14.45 9.52-22.67 9.52-8.13 0-16.26-3.1-22.46-9.3s-14.33-9.3-22.46-9.3c-4.06 0-8.12.78-11.94 2.32-3.83 1.56-7.41 3.88-10.51 6.98-6.24 6.24-14.43 9.34-22.6 9.3-4.04-.02-8.08-.8-11.87-2.36-3.8-1.54-7.36-3.86-10.44-6.94-6.35-6.35-14.72-9.45-23.04-9.3-3.96.08-7.92.89-11.64 2.44s-7.2 3.84-10.23 6.86c-4.27 4.27-9.45 7.07-14.91 8.4l-167.45-167.45c1.07.1 2.15.15 3.24.15 9.29 0 17.71-3.77 23.8-9.86s9.86-14.5 9.86-23.8c0-9.98 4.05-19.02 10.59-25.56s15.57-10.58 25.55-10.58h56.87c-1.48 5.52-2.26 11.32-2.26 17.31v18.83c0 18.59 15.07 33.66 33.66 33.66 9.3 0 17.71-3.77 23.8-9.86s9.86-14.5 9.86-23.8v-.47c0-19.7 15.97-35.67 35.68-35.67h89.18v100.45c0 38.16 15.15 74.76 42.11 101.75 7.2 7.2 7.41 19.01.28 26.28z" fill="url(#SVGID_3_)"/><g><circle cx="98.605" cy="145.638" fill="url(#SVGID_4_)" r="42.619"/><circle cx="239.627" cy="145.638" fill="url(#SVGID_5_)" r="42.619"/></g><path d="m47.646 358.309v14.145c0 38.184-15.168 74.803-42.168 101.803l-.001.001c-7.302 7.302-7.302 19.14 0 26.441 12.401 12.401 32.507 12.401 44.908 0 5.969-5.969 13.724-9.065 21.546-9.288 8.427-.24 16.931 2.856 23.363 9.288 5.562 5.562 12.674 8.629 19.945 9.202 8.941.704 18.124-2.363 24.963-9.202 6.2-6.201 14.327-9.301 22.454-9.301s16.253 3.1 22.454 9.301c4.65 4.65 10.384 7.557 16.389 8.719 10.008 1.938 20.768-.969 28.519-8.719 6.051-6.051 13.936-9.149 21.865-9.295 8.322-.153 16.692 2.945 23.042 9.295 6.163 6.163 14.228 9.263 22.305 9.3 8.176.038 16.365-3.062 22.603-9.3 6.2-6.201 14.327-9.301 22.454-9.301s16.254 3.1 22.454 9.301c12.401 12.401 32.507 12.401 44.908 0 7.302-7.302 7.302-19.141 0-26.443-27-27-42.168-63.62-42.168-101.804v-14.144h-319.835z" fill="url(#SVGID_6_)"/><path d="m409.874 500.48c-6.23 6.35-14.45 9.52-22.67 9.52-8.13 0-16.26-3.1-22.46-9.3-5.57-5.57-12.7-8.63-19.99-9.2l-158.86-158.86c6.02 5.68 14.13 9.16 23.07 9.16 9.3 0 17.71-3.77 23.8-9.86s9.86-14.5 9.86-23.8v-.47c0-19.7 15.97-35.67 35.68-35.67h89.18v100.45c0 38.16 15.15 74.76 42.11 101.75 7.19 7.2 7.41 19.01.28 26.28z" fill="url(#SVGID_7_)"/><path d="m242.364 222.25c-37.04 0-67.06 30.02-67.06 67.06v18.83c0 18.59 15.07 33.66 33.66 33.66 9.3 0 17.71-3.77 23.8-9.86s9.86-14.5 9.86-23.8v-.47c0-19.7 15.97-35.67 35.68-35.67h57.593v-49.75z" fill="url(#SVGID_8_)"/><ellipse cx="164.484" cy="202.125" fill="url(#SVGID_9_)" rx="10.82" ry="20.125"/></g><g><path d="m387.236 0h41.615c44.818 0 81.149 36.332 81.149 81.149 0 44.817-36.332 81.149-81.149 81.149h-41.615c-4.719 0-9.337-.426-13.835-1.199l-24.506 12.173c-6.092 3.026-13.105-1.938-12.275-8.69l2.247-18.274c-19.891-14.79-32.781-38.467-32.781-65.159.001-44.817 36.332-81.149 81.15-81.149z" fill="url(#SVGID_10_)"/><g><circle cx="368.157" cy="78.477" fill="url(#SVGID_11_)" r="14.316"/><circle cx="408.043" cy="78.477" fill="url(#SVGID_12_)" r="14.316"/><circle cx="447.93" cy="78.477" fill="url(#SVGID_13_)" r="14.316"/></g></g><path d="m308.382 100.383c4.539 18.667 15.533 34.808 30.485 45.925l-2.247 18.274c-.83 6.752 6.182 11.716 12.275 8.69l24.506-12.173c4.499.773 9.116 1.199 13.835 1.199h41.615c38.188 0 70.197-26.385 78.836-61.916h-199.305z" fill="url(#SVGID_14_)"/></g></svg>