<svg id="Capa_1" enable-background="new 0 0 510 510" height="512" viewBox="0 0 510 510" width="512" xmlns="http://www.w3.org/2000/svg" xmlns:xlink="http://www.w3.org/1999/xlink"><linearGradient id="lg1"><stop offset="0" stop-color="#5a5a5a"/><stop offset="1" stop-color="#464646"/></linearGradient><linearGradient id="SVGID_1_" gradientUnits="userSpaceOnUse" x1="164.025" x2="219.134" xlink:href="#lg1" y1="17.976" y2="73.084"/><linearGradient id="lg2"><stop offset="0" stop-color="#eef4ff"/><stop offset="1" stop-color="#cfe7fd"/></linearGradient><linearGradient id="SVGID_2_" gradientUnits="userSpaceOnUse" x1="408.043" x2="408.043" xlink:href="#lg2" y1="336" y2="461.036"/><linearGradient id="lg3"><stop offset="0" stop-color="#8aaadc" stop-opacity="0"/><stop offset="1" stop-color="#8aaadc"/></linearGradient><linearGradient id="SVGID_3_" gradientUnits="userSpaceOnUse" x1="442.755" x2="388.862" xlink:href="#lg3" y1="427.245" y2="373.352"/><linearGradient id="lg4"><stop offset="0" stop-color="#e38523"/><stop offset=".7304" stop-color="#db4735"/><stop offset="1" stop-color="#d82f3c"/></linearGradient><linearGradient id="SVGID_4_" gradientUnits="userSpaceOnUse" x1="68.029" x2="168.489" xlink:href="#lg4" y1="130.102" y2="230.562"/><linearGradient id="SVGID_5_" gradientUnits="userSpaceOnUse" x1="364.883" x2="465.343" xlink:href="#lg4" y1="130.102" y2="230.562"/><linearGradient id="SVGID_6_" gradientUnits="userSpaceOnUse" x1="170.686" x2="390.438" xlink:href="#lg4" y1="195.472" y2="415.224"/><linearGradient id="SVGID_7_" gradientUnits="userSpaceOnUse" x1="255" x2="255" y1="331" y2="436.005"><stop offset="0" stop-color="#d52c1c" stop-opacity="0"/><stop offset=".3372" stop-color="#c82c21" stop-opacity=".337"/><stop offset=".9563" stop-color="#a72b30" stop-opacity=".956"/><stop offset="1" stop-color="#a42b31"/></linearGradient><linearGradient id="SVGID_8_" gradientUnits="userSpaceOnUse" x1="155.831" x2="191.822" xlink:href="#lg2" y1="246.987" y2="282.979"/><linearGradient id="SVGID_9_" gradientUnits="userSpaceOnUse" x1="340.436" x2="376.427" xlink:href="#lg2" y1="246.987" y2="282.979"/><linearGradient id="SVGID_10_" gradientUnits="userSpaceOnUse" x1="210.081" x2="292.882" y1="-.599" y2="82.202"><stop offset="0" stop-color="#dc4955"/><stop offset="1" stop-color="#c4237c"/></linearGradient><linearGradient id="SVGID_11_" gradientUnits="userSpaceOnUse" x1="210.081" x2="292.882" y1="-.599" y2="82.202"><stop offset="0" stop-color="#8a1958" stop-opacity="0"/><stop offset="1" stop-color="#8a1958"/></linearGradient><linearGradient id="SVGID_12_" gradientUnits="userSpaceOnUse" x1="273" x2="167.981" y1="392.827" y2="392.827"><stop offset="0" stop-color="#d52c1c" stop-opacity="0"/><stop offset=".28" stop-color="#d12c1e" stop-opacity=".28"/><stop offset=".5735" stop-color="#c42c23" stop-opacity=".574"/><stop offset=".8721" stop-color="#af2b2c" stop-opacity=".872"/><stop offset="1" stop-color="#a42b31"/></linearGradient><linearGradient id="SVGID_13_" gradientUnits="userSpaceOnUse" x1="101.957" x2="101.957" xlink:href="#lg2" y1="344.705" y2="517.203"/><linearGradient id="SVGID_14_" gradientUnits="userSpaceOnUse" x1="101.957" x2="101.957" xlink:href="#lg3" y1="461.298" y2="506.398"/><linearGradient id="SVGID_15_" gradientUnits="userSpaceOnUse" x1="54.158" x2="74.48" xlink:href="#lg1" y1="423.61" y2="443.933"/><linearGradient id="SVGID_16_" gradientUnits="userSpaceOnUse" x1="94.045" x2="114.367" xlink:href="#lg1" y1="423.61" y2="443.933"/><linearGradient id="SVGID_17_" gradientUnits="userSpaceOnUse" x1="133.931" x2="154.254" xlink:href="#lg1" y1="423.61" y2="443.933"/><linearGradient id="SVGID_18_" gradientUnits="userSpaceOnUse" x1="408.043" x2="408.043" xlink:href="#lg3" y1="423" y2="469.011"/><g><path d="m246.459 172.814-88.886-88.885c-8.042-8.042-10.334-19.566-5.982-30.073 4.353-10.508 14.122-17.036 25.495-17.036h78.187v15h-78.187c-5.27 0-9.62 2.907-11.637 7.776s-.996 10 2.73 13.727l88.886 88.885z" fill="url(#SVGID_1_)"/><path d="m387.236 473.683h41.615c44.818 0 81.149-36.332 81.149-81.149 0-44.817-36.332-81.149-81.149-81.149h-41.615c-4.719 0-9.337.426-13.835 1.199l-24.506-12.173c-6.092-3.026-13.105 1.938-12.275 8.69l2.247 18.274c-19.891 14.79-32.781 38.467-32.781 65.159 0 44.817 36.332 81.149 81.15 81.149z" fill="url(#SVGID_2_)"/><path d="m387.236 473.683h41.615c44.818 0 81.149-36.332 81.149-81.149 0-44.817-36.332-81.149-81.149-81.149h-41.615c-4.719 0-9.337.426-13.835 1.199l-24.506-12.173c-6.092-3.026-13.105 1.938-12.275 8.69l2.247 18.274c-19.891 14.79-32.781 38.467-32.781 65.159 0 44.817 36.332 81.149 81.15 81.149z" fill="url(#SVGID_3_)"/><g><circle cx="106.573" cy="168.646" fill="url(#SVGID_4_)" r="85.208"/><circle cx="403.427" cy="168.646" fill="url(#SVGID_5_)" r="85.208"/><ellipse cx="255" cy="279.785" fill="url(#SVGID_6_)" rx="202.868" ry="168.293"/><path d="m55.317 309.644c16.986 78.702 99.925 138.435 199.683 138.435s182.697-59.732 199.683-138.435z" fill="url(#SVGID_7_)"/><g><circle cx="162.698" cy="253.854" fill="url(#SVGID_8_)" r="55.79"/><circle cx="347.302" cy="253.854" fill="url(#SVGID_9_)" r="55.79"/></g></g><g><circle cx="255" cy="44.32" fill="url(#SVGID_10_)" r="44.32"/></g><circle cx="255" cy="44.32" fill="url(#SVGID_11_)" r="44.32"/><path d="m255 448.079c8.244 0 16.369-.419 24.355-1.211l-109.291-109.292v95.075c25.839 9.897 54.607 15.428 84.936 15.428z" fill="url(#SVGID_12_)"/><g><path d="m122.764 510h-41.615c-44.817 0-81.149-36.332-81.149-81.149 0-44.817 36.332-81.149 81.149-81.149h41.615c4.719 0 9.337.426 13.835 1.199l24.506-12.173c6.092-3.026 13.105 1.938 12.275 8.69l-2.247 18.274c19.891 14.79 32.781 38.467 32.781 65.159 0 44.817-36.332 81.149-81.15 81.149z" fill="url(#SVGID_13_)"/><path d="m1.444 444.059c7.122 37.545 40.088 65.941 79.705 65.941h41.615c39.617 0 72.584-28.396 79.705-65.941z" fill="url(#SVGID_14_)"/><g><circle cx="62.07" cy="431.523" fill="url(#SVGID_15_)" r="14.316"/><circle cx="101.957" cy="431.523" fill="url(#SVGID_16_)" r="14.316"/><circle cx="141.844" cy="431.523" fill="url(#SVGID_17_)" r="14.316"/></g></g><path d="m306.174 396c1.818 43.208 37.407 77.683 81.062 77.683h41.615c43.655 0 79.244-34.475 81.062-77.683z" fill="url(#SVGID_18_)"/></g></svg>