<svg id="Capa_1" enable-background="new 0 0 510 510" height="512" viewBox="0 0 510 510" width="512" xmlns="http://www.w3.org/2000/svg" xmlns:xlink="http://www.w3.org/1999/xlink"><linearGradient id="SVGID_1_" gradientUnits="userSpaceOnUse" x1="112.66" x2="468.066" y1="143.078" y2="498.484"><stop offset="0" stop-color="#9d66d6"/><stop offset="1" stop-color="#453d81"/></linearGradient><linearGradient id="lg1"><stop offset="0" stop-color="#453d81" stop-opacity="0"/><stop offset="1" stop-color="#453d81"/></linearGradient><linearGradient id="SVGID_2_" gradientUnits="userSpaceOnUse" x1="339.733" x2="214.733" xlink:href="#lg1" y1="260.351" y2="179.351"/><linearGradient id="SVGID_3_" gradientUnits="userSpaceOnUse" x1="255" x2="255" xlink:href="#lg1" y1="344.022" y2="470.022"/><linearGradient id="SVGID_4_" gradientUnits="userSpaceOnUse" x1="337.465" x2="163.465" xlink:href="#lg1" y1="295.42" y2="235.419"/><linearGradient id="lg2"><stop offset="0" stop-color="#eef4ff"/><stop offset="1" stop-color="#cfe7fd"/></linearGradient><linearGradient id="SVGID_5_" gradientUnits="userSpaceOnUse" x1="101.542" x2="243.525" xlink:href="#lg2" y1="201.737" y2="343.72"/><linearGradient id="SVGID_6_" gradientUnits="userSpaceOnUse" x1="201.236" x2="144.783" xlink:href="#lg2" y1="301.431" y2="244.978"/><linearGradient id="SVGID_7_" gradientUnits="userSpaceOnUse" x1="258.041" x2="177.041" y1="279.158" y2="262.158"><stop offset="0" stop-color="#8aaadc" stop-opacity="0"/><stop offset="1" stop-color="#8aaadc"/></linearGradient><linearGradient id="SVGID_8_" gradientUnits="userSpaceOnUse" x1="171.335" x2="192.206" y1="222.248" y2="222.248"><stop offset="0" stop-color="#5a5a5a"/><stop offset="1" stop-color="#464646"/></linearGradient><linearGradient id="SVGID_9_" gradientUnits="userSpaceOnUse" x1="123.494" x2="224.621" y1="35.154" y2="136.281"><stop offset="0" stop-color="#dc4955"/><stop offset="1" stop-color="#c4237c"/></linearGradient><linearGradient id="SVGID_10_" gradientUnits="userSpaceOnUse" x1="136.18" x2="224.656" y1="47.84" y2="136.316"><stop offset="0" stop-color="#8a1958" stop-opacity="0"/><stop offset="1" stop-color="#8a1958"/></linearGradient><linearGradient id="SVGID_11_" gradientUnits="userSpaceOnUse" x1="426.82" x2="325.028" xlink:href="#lg1" y1="306.96" y2="205.168"/><linearGradient id="SVGID_12_" gradientUnits="userSpaceOnUse" x1="485.662" x2="399.569" xlink:href="#lg1" y1="365.839" y2="279.746"/><linearGradient id="SVGID_13_" gradientUnits="userSpaceOnUse" x1="383.875" x2="429.349" y1="264.073" y2="309.547"><stop offset="0" stop-color="#bce097"/><stop offset="1" stop-color="#7dc03a"/></linearGradient><linearGradient id="SVGID_14_" gradientUnits="userSpaceOnUse" x1="311.122" x2="356.595" y1="191.32" y2="236.793"><stop offset="0" stop-color="#f7e07d"/><stop offset=".2892" stop-color="#f3cf6f"/><stop offset=".862" stop-color="#e9a24b"/><stop offset="1" stop-color="#e69642"/></linearGradient><g><g><path d="m414.544 126.062h-319.088c-37.373 0-67.669 30.297-67.669 67.669v175.085c0 37.373 30.297 67.669 67.669 67.669h23.933v50.794c0 20.201 24.424 30.318 38.709 16.034l56.45-56.45c6.645-6.645 15.657-10.378 25.054-10.378h174.944c37.373 0 67.669-30.297 67.669-67.669v-175.085c-.001-37.372-30.298-67.669-67.671-67.669z" fill="url(#SVGID_1_)"/><path d="m482.21 193.73v175.09c0 16.3-5.76 31.26-15.37 42.94-12.41 15.1-31.23 24.73-52.3 24.73h-105.06l-148.66-148.65v-161.78h253.72c37.38 0 67.67 30.3 67.67 67.67z" fill="url(#SVGID_2_)"/><path d="m27.786 318.031v50.785c0 37.373 30.297 67.669 67.669 67.669h23.933v50.794c0 20.201 24.424 30.318 38.709 16.034l56.45-56.45c6.645-6.645 15.657-10.378 25.054-10.378h174.944c37.373 0 67.669-30.297 67.669-67.669v-50.785z" fill="url(#SVGID_3_)"/><path d="m414.54 126.06h-253.72v203.35h-72.706l121.943 121.943 4.49-4.49c6.645-6.645 15.657-10.378 25.054-10.378l174.939.004c21.07 0 39.89-9.63 52.3-24.73 9.61-11.68 15.37-26.64 15.37-42.94v-175.089c0-37.37-30.29-67.67-67.67-67.67z" fill="url(#SVGID_4_)"/></g><ellipse cx="174.64" cy="274.835" fill="url(#SVGID_5_)" rx="107" ry="92.771"/><ellipse cx="174.64" cy="274.835" fill="url(#SVGID_6_)" rx="62.945" ry="54.575"/><path d="m174.64 182.064c-4.683 0-9.296.263-13.82.769v105.007l67.344 67.34c31.968-16.044 53.476-46.016 53.476-80.345 0-51.236-47.905-92.771-107-92.771z" fill="url(#SVGID_7_)"/><path d="m194.65 151.117h-40.02v122.252c0 11.051 8.959 20.01 20.01 20.01 11.051 0 20.01-8.959 20.01-20.01z" fill="url(#SVGID_8_)"/><g><circle cx="174.64" cy="86.301" fill="url(#SVGID_9_)" r="86.301"/><circle cx="174.64" cy="86.301" fill="url(#SVGID_10_)" r="86.301"/></g><g><g><path d="m482.214 368.816v-57.639l-115.163-115.023c-6.664-8.57-59.665 44.43-51.095 51.094l156.529 156.538c6.173-10.205 9.729-22.172 9.729-34.97z" fill="url(#SVGID_11_)"/><path d="m482.214 368.816v-57.566l-47.862-47.795c-6.664-8.57-59.665 44.43-51.095 51.094l89.23 89.235c6.172-10.205 9.727-22.171 9.727-34.968z" fill="url(#SVGID_12_)"/></g><circle cx="411.041" cy="291.239" fill="url(#SVGID_13_)" r="36.422"/><circle cx="338.288" cy="218.486" fill="url(#SVGID_14_)" r="36.422"/></g></g></svg>