<svg id="Capa_1" enable-background="new 0 0 510 510" height="512" viewBox="0 0 510 510" width="512" xmlns="http://www.w3.org/2000/svg" xmlns:xlink="http://www.w3.org/1999/xlink"><linearGradient id="SVGID_1_" gradientUnits="userSpaceOnUse" x1="103.875" x2="402.679" y1="103.876" y2="402.68"><stop offset="0" stop-color="#5a5a5a"/><stop offset="1" stop-color="#464646"/></linearGradient><linearGradient id="lg1"><stop offset="0" stop-color="#464646" stop-opacity="0"/><stop offset="1" stop-color="#202020"/></linearGradient><linearGradient id="SVGID_2_" gradientUnits="userSpaceOnUse" x1="402.683" x2="41.79" xlink:href="#lg1" y1="402.687" y2="41.793"/><linearGradient id="SVGID_3_" gradientUnits="userSpaceOnUse" x1="329.496" x2="460.209" xlink:href="#lg1" y1="329.5" y2="460.213"/><linearGradient id="SVGID_4_" gradientTransform="matrix(-1 0 0 -1 510 510)" gradientUnits="userSpaceOnUse" x1="288.131" x2="-18.242" xlink:href="#lg1" y1="288.129" y2="-18.243"/><linearGradient id="SVGID_5_" gradientUnits="userSpaceOnUse" x1="268.927" x2="104.55" xlink:href="#lg1" y1="268.926" y2="104.548"/><linearGradient id="lg2"><stop offset="0" stop-color="#464646" stop-opacity="0"/><stop offset=".1772" stop-color="#3d3d3d" stop-opacity=".177"/><stop offset=".6736" stop-color="#282828" stop-opacity=".674"/><stop offset="1" stop-color="#202020"/></linearGradient><linearGradient id="SVGID_6_" gradientUnits="userSpaceOnUse" x1="539.282" x2="343.949" xlink:href="#lg2" y1="224.407" y2="191.074"/><linearGradient id="SVGID_7_" gradientUnits="userSpaceOnUse" x1="197.501" x2="68.001" xlink:href="#lg1" y1="294.854" y2="240.854"/><linearGradient id="lg3"><stop offset="0" stop-color="#bce097"/><stop offset="1" stop-color="#7dc03a"/></linearGradient><linearGradient id="SVGID_8_" gradientUnits="userSpaceOnUse" x1="155.998" x2="362.527" xlink:href="#lg3" y1="156.003" y2="362.532"/><linearGradient id="lg4"><stop offset="0" stop-color="#8cc951" stop-opacity="0"/><stop offset="1" stop-color="#3e6e66"/></linearGradient><linearGradient id="SVGID_9_" gradientUnits="userSpaceOnUse" x1="255" x2="255" xlink:href="#lg4" y1="314" y2="391.104"/><linearGradient id="SVGID_10_" gradientUnits="userSpaceOnUse" x1="213.453" x2="90.453" xlink:href="#lg4" y1="268.65" y2="209.65"/><linearGradient id="SVGID_11_" gradientUnits="userSpaceOnUse" x1="436.637" x2="337.243" xlink:href="#lg4" y1="293.363" y2="193.969"/><linearGradient id="SVGID_12_" gradientUnits="userSpaceOnUse" x1="527.767" x2="455.251" xlink:href="#lg2" y1="235.984" y2="163.468"/><linearGradient id="SVGID_13_" gradientUnits="userSpaceOnUse" x1="319.272" x2="531.417" xlink:href="#lg3" y1="20.242" y2="232.387"/><linearGradient id="SVGID_14_" gradientUnits="userSpaceOnUse" x1="330.942" x2="374.564" xlink:href="#lg4" y1="138.468" y2="201.353"/><linearGradient id="SVGID_15_" gradientUnits="userSpaceOnUse" x1="453.983" x2="496.472" xlink:href="#lg4" y1="116.418" y2="178.736"/><linearGradient id="SVGID_16_" gradientUnits="userSpaceOnUse" x1="255" x2="255" xlink:href="#lg1" y1="402" y2="528.194"/><linearGradient id="SVGID_17_" gradientUnits="userSpaceOnUse" x1="46.34" x2="155.841" xlink:href="#lg3" y1="129.346" y2="238.847"/><linearGradient id="SVGID_18_" gradientUnits="userSpaceOnUse" x1="64.932" x2="99.46" xlink:href="#lg4" y1="201.019" y2="250.793"/><g><g><path d="m435.31 74.69c-46.15-46.15-109.89-74.69-180.31-74.69s-134.16 28.54-180.31 74.69-74.69 109.89-74.69 180.31c0 140.83 114.17 255 255 255 70.42 0 134.16-28.54 180.31-74.69s74.69-109.89 74.69-180.31-28.54-134.16-74.69-180.31zm-137.177 223.443c-11.038 11.038-26.297 17.867-43.133 17.867-33.685 0-61-27.315-61-61 0-16.836 6.829-32.095 17.867-43.133s26.297-17.867 43.133-17.867 32.095 6.829 43.133 17.867 17.867 26.297 17.867 43.133-6.829 32.095-17.867 43.133z" fill="url(#SVGID_1_)"/><path d="m414.13 95.87c-40.72-40.73-96.99-65.92-159.13-65.92s-118.41 25.19-159.13 65.92c-40.73 40.72-65.92 96.99-65.92 159.13 0 124.29 100.76 225.05 225.05 225.05 62.14 0 118.41-25.19 159.13-65.92 40.73-40.72 65.92-96.99 65.92-159.13s-25.19-118.41-65.92-159.13zm-115.997 202.263c-11.038 11.038-26.297 17.867-43.133 17.867-33.685 0-61-27.315-61-61 0-16.836 6.829-32.095 17.867-43.133s26.297-17.867 43.133-17.867 32.095 6.829 43.133 17.867 17.867 26.297 17.867 43.133-6.829 32.095-17.867 43.133z" fill="url(#SVGID_2_)"/><path d="m414.13 95.87c-40.72-40.73-96.99-65.92-159.13-65.92s-118.41 25.19-159.13 65.92c-40.73 40.72-65.92 96.99-65.92 159.13 0 124.29 100.76 225.05 225.05 225.05 62.14 0 118.41-25.19 159.13-65.92 40.73-40.72 65.92-96.99 65.92-159.13s-25.19-118.41-65.92-159.13zm-115.997 202.263c-11.038 11.038-26.297 17.867-43.133 17.867-33.685 0-61-27.315-61-61 0-16.836 6.829-32.095 17.867-43.133s26.297-17.867 43.133-17.867 32.095 6.829 43.133 17.867 17.867 26.297 17.867 43.133-6.829 32.095-17.867 43.133z" fill="url(#SVGID_3_)"/><path d="m255 446.05c52.76 0 100.52-21.39 135.09-55.96s55.96-82.33 55.96-135.09-21.39-100.52-55.96-135.09-82.33-55.96-135.09-55.96-100.52 21.39-135.09 55.96-55.96 82.33-55.96 135.09c0 105.51 85.54 191.05 191.05 191.05zm-43.133-234.183c11.037-11.038 26.297-17.867 43.133-17.867 33.685 0 61 27.315 61 61 0 16.836-6.829 32.095-17.867 43.133s-26.297 17.867-43.133 17.867-32.096-6.829-43.133-17.867c-11.038-11.038-17.867-26.297-17.867-43.133s6.829-32.095 17.867-43.133z" fill="url(#SVGID_4_)"/><path d="m255 63.95c-52.76 0-100.52 21.39-135.09 55.96s-55.96 82.33-55.96 135.09 21.39 100.52 55.96 135.09 82.33 55.96 135.09 55.96 100.52-21.39 135.09-55.96 55.96-82.33 55.96-135.09c0-105.51-85.54-191.05-191.05-191.05zm43.133 234.183c-11.038 11.038-26.297 17.867-43.133 17.867-33.685 0-61-27.315-61-61 0-16.836 6.829-32.095 17.867-43.133s26.297-17.867 43.133-17.867 32.095 6.829 43.133 17.867 17.867 26.297 17.867 43.133-6.829 32.095-17.867 43.133z" fill="url(#SVGID_5_)"/></g><path d="m510 255c0-70.42-28.54-134.16-74.69-180.31-19.77-19.77-42.776-36.295-68.144-48.742l-4.881.903c-3.881.718-6.698 4.103-6.698 8.05v104.624c-12.175-2.587-26.465.19-38.822 8.699-21.279 14.653-28.756 40.724-16.701 58.231 1.778 2.582 3.888 4.823 6.25 6.739l169.467 169.467c21.758-37.545 34.219-81.143 34.219-127.661z" fill="url(#SVGID_6_)"/><path d="m435.31 435.31c7.824-7.824 15.128-16.165 21.887-24.948-33.545-33.76-303.004-305.016-303.366-305.425-1.742-1.973-4.449-3.046-7.29-2.521l-56.595 10.463c-3.071.57-5.295 3.245-5.295 6.372v82.809c-9.641-2.042-20.951.15-30.735 6.886-16.836 11.604-22.756 32.239-13.218 46.09l252.188 252.159c55.251-8.23 104.712-34.173 142.424-71.885z" fill="url(#SVGID_7_)"/><g><path d="m351.84 158.16c-24.78-24.79-59.02-40.12-96.84-40.12s-72.06 15.33-96.84 40.12c-24.79 24.78-40.12 59.02-40.12 96.84 0 75.64 61.32 136.96 136.96 136.96 37.82 0 72.06-15.33 96.84-40.12 24.79-24.78 40.12-59.02 40.12-96.84s-15.33-72.06-40.12-96.84zm-63.606 130.074c-8.505 8.504-20.262 13.766-33.234 13.766-25.954 0-47-21.046-47-47 0-12.972 5.262-24.729 13.766-33.234s20.262-13.766 33.234-13.766 24.729 5.262 33.234 13.766c8.504 8.505 13.766 20.262 13.766 33.234s-5.262 24.729-13.766 33.234z" fill="url(#SVGID_8_)"/><path d="m264.664 301c-3.12.653-6.352 1-9.664 1-3.314 0-6.546-.347-9.666-1h-119.367c18.901 53.011 69.532 90.96 129.033 90.96 37.82 0 72.06-15.33 96.84-40.12 14.211-14.206 25.305-31.524 32.193-50.84z" fill="url(#SVGID_9_)"/><path d="m372.606 325.212c-22.114-22.262-46.457-46.768-70.628-71.101.006.297.023.591.023.89 0 12.972-5.262 24.729-13.766 33.234s-20.263 13.765-33.235 13.765c-25.954 0-47-21.046-47-47 0-12.972 5.262-24.729 13.766-33.234 8.505-8.505 20.262-13.766 33.234-13.766.405 0 .804.02 1.206.031-27.335-27.52-52.228-52.583-70.623-71.107-10.029 5.91-19.244 13.054-27.423 21.236-24.79 24.78-40.12 59.02-40.12 96.84 0 75.64 61.32 136.96 136.96 136.96 37.82 0 72.06-15.33 96.84-40.12 7.966-7.963 14.948-16.907 20.766-26.628z" fill="url(#SVGID_10_)"/></g><path d="m391.96 255c0-37.82-15.33-72.06-40.12-96.84-6.332-6.334-13.284-12.046-20.753-17.047-4.902 1.598-9.744 3.958-14.321 7.11-21.279 14.653-28.756 40.724-16.701 58.231 1.778 2.582 3.888 4.823 6.25 6.739l80.186 80.186c3.549-12.179 5.459-25.055 5.459-38.379z" fill="url(#SVGID_11_)"/><path d="m430.5 181 79.436 79.436c.038-1.808.064-3.619.064-5.436 0-35.112-7.098-68.562-19.934-99h-34.566c-13.807 0-25 11.193-25 25z" fill="url(#SVGID_12_)"/><g><path d="m354.588 33.9v104.624c-12.175-2.587-26.465.19-38.822 8.699-21.279 14.653-28.756 40.724-16.701 58.231 12.056 17.507 39.079 19.82 60.358 5.166 14.82-10.206 22.935-25.948 22.429-40.48h.033v-97.983c0-2.247 1.604-4.175 3.814-4.583l91.496-16.92c2.865-.53 5.509 1.67 5.509 4.583v54.548c-12.175-2.587-26.465.19-38.822 8.699-21.279 14.653-28.756 40.724-16.701 58.231 12.056 17.507 39.079 19.82 60.358 5.166 14.82-10.206 22.935-25.948 22.429-40.48h.032v-133.212c0-5.117-4.643-8.98-9.675-8.05l-139.04 25.711c-3.881.718-6.697 4.103-6.697 8.05z" fill="url(#SVGID_13_)"/><g><path d="m354.587 138.524c-12.175-2.587-26.465.19-38.822 8.699-21.279 14.653-28.756 40.724-16.701 58.231s39.078 19.819 60.358 5.166c14.82-10.206 22.935-25.948 22.429-40.48h.033v-71.172h-27.297z" fill="url(#SVGID_14_)"/><path d="m510 98.968h-27.297v10.817c-12.175-2.587-26.465.19-38.822 8.7-21.279 14.653-28.756 40.724-16.701 58.231 12.056 17.507 39.078 19.82 60.358 5.166 14.82-10.206 22.935-25.948 22.429-40.48h.033z" fill="url(#SVGID_15_)"/></g></g><path d="m39.873 391.96c45.278 70.97 124.705 118.04 215.127 118.04 70.42 0 134.16-28.54 180.31-74.69 13.112-13.112 24.798-27.648 34.816-43.35z" fill="url(#SVGID_16_)"/><g><path d="m154.793 109.113c0 15.753-11.24 29.263-26.731 32.128l-19.787 3.66c-1.749.324-3.024 1.852-3.024 3.633v77.553h-.024c.404 11.501-6.023 23.959-17.754 32.041-16.844 11.596-38.23 9.767-47.776-4.092-9.538-13.852-3.617-34.486 13.218-46.09 9.783-6.736 21.094-8.928 30.735-6.886v-82.809c0-3.127 2.224-5.802 5.295-6.372l56.595-10.463c4.813-.889 9.253 2.804 9.253 7.697z" fill="url(#SVGID_17_)"/><path d="m83.648 201.063c-9.637-2.047-20.947.15-30.728 6.886-16.843 11.598-22.761 32.234-13.219 46.091s30.931 15.687 47.774 4.089c11.73-8.078 18.153-20.539 17.753-32.04h.026v-56.334h-21.606z" fill="url(#SVGID_18_)"/></g></g></svg>