<svg id="Capa_1" enable-background="new 0 0 510 510" height="512" viewBox="0 0 510 510" width="512" xmlns="http://www.w3.org/2000/svg" xmlns:xlink="http://www.w3.org/1999/xlink"><linearGradient id="lg1"><stop offset="0" stop-color="#eef4ff"/><stop offset="1" stop-color="#cfe7fd"/></linearGradient><linearGradient id="SVGID_1_" gradientUnits="userSpaceOnUse" x1="362.59" x2="376.293" xlink:href="#lg1" y1="285.743" y2="299.447"/><linearGradient id="lg2"><stop offset="0" stop-color="#8aaadc" stop-opacity="0"/><stop offset="1" stop-color="#8aaadc"/></linearGradient><linearGradient id="SVGID_2_" gradientUnits="userSpaceOnUse" x1="284.933" x2="303.27" xlink:href="#lg2" y1="402.933" y2="384.597"/><linearGradient id="lg3"><stop offset="0" stop-color="#9d66d6"/><stop offset="1" stop-color="#453d81"/></linearGradient><linearGradient id="SVGID_3_" gradientUnits="userSpaceOnUse" x1="169.099" x2="297.145" xlink:href="#lg3" y1="385.568" y2="513.614"/><linearGradient id="SVGID_4_" gradientUnits="userSpaceOnUse" x1="79" x2="311.31" y1="4.098" y2="236.408"><stop offset="0" stop-color="#5a5a5a"/><stop offset="1" stop-color="#464646"/></linearGradient><linearGradient id="lg4"><stop offset="0" stop-color="#464646" stop-opacity="0"/><stop offset="1" stop-color="#202020"/></linearGradient><linearGradient id="SVGID_5_" gradientUnits="userSpaceOnUse" x1="255" x2="255" xlink:href="#lg4" y1="293.333" y2="345.44"/><linearGradient id="SVGID_6_" gradientUnits="userSpaceOnUse" x1="355.356" x2="316.465" xlink:href="#lg4" y1="234.543" y2="330.476"/><linearGradient id="SVGID_7_" gradientUnits="userSpaceOnUse" x1="169.074" x2="233.074" xlink:href="#lg4" y1="272.885" y2="267.552"/><linearGradient id="SVGID_8_" gradientUnits="userSpaceOnUse" x1="108.854" x2="413.765" xlink:href="#lg1" y1="180.095" y2="180.095"/><linearGradient id="SVGID_9_" gradientUnits="userSpaceOnUse" x1="291.972" x2="270.639" xlink:href="#lg2" y1="202.414" y2="269.747"/><linearGradient id="SVGID_10_" gradientUnits="userSpaceOnUse" x1="169.183" x2="227.849" xlink:href="#lg2" y1="222.636" y2="223.969"/><linearGradient id="SVGID_11_" gradientUnits="userSpaceOnUse" x1="-4.168" x2="96.327" xlink:href="#lg1" y1="180.095" y2="180.095"/><linearGradient id="SVGID_12_" gradientUnits="userSpaceOnUse" x1="417.832" x2="518.327" xlink:href="#lg1" y1="180.095" y2="180.095"/><linearGradient id="SVGID_13_" gradientUnits="userSpaceOnUse" x1="241.368" x2="357.368" xlink:href="#lg1" y1="284.48" y2="320.48"/><linearGradient id="SVGID_14_" gradientUnits="userSpaceOnUse" x1="337.325" x2="337.325" xlink:href="#lg2" y1="364.333" y2="398.026"/><linearGradient id="SVGID_15_" gradientUnits="userSpaceOnUse" x1="375.001" x2="490.163" xlink:href="#lg3" y1="391.666" y2="506.827"/><linearGradient id="lg5"><stop offset="0" stop-color="#453d81" stop-opacity="0"/><stop offset="1" stop-color="#453d81"/></linearGradient><linearGradient id="SVGID_16_" gradientUnits="userSpaceOnUse" x1="221.035" x2="221.035" xlink:href="#lg5" y1="454" y2="493.529"/><linearGradient id="SVGID_17_" gradientUnits="userSpaceOnUse" x1="426.302" x2="426.302" xlink:href="#lg5" y1="454" y2="493.529"/><linearGradient id="SVGID_18_" gradientUnits="userSpaceOnUse" x1="352.143" x2="299.121" y1="387.357" y2="334.336"><stop offset="0" stop-color="#4071f7" stop-opacity="0"/><stop offset="1" stop-color="#30569f"/></linearGradient><linearGradient id="SVGID_19_" gradientUnits="userSpaceOnUse" x1="299.477" x2="329.916" y1="334.726" y2="365.165"><stop offset="0" stop-color="#f7e07d"/><stop offset="1" stop-color="#e69642"/></linearGradient><g><path d="m244.69 386.241 210.738-210.738c8.928-8.928 23.314 2.056 17.053 13.021l-109.342 191.502c-5.71 10-16.251 16.268-27.764 16.51l-31.371.659c-2.799.139-5.447 1.313-7.428 3.295l-18.819 18.819z" fill="url(#SVGID_1_)"/><path d="m244.69 386.241 210.738-210.738c8.928-8.928 23.314 2.056 17.053 13.021l-109.342 191.502c-5.71 10-16.251 16.268-27.764 16.51l-31.371.659c-2.799.139-5.447 1.313-7.428 3.295l-18.819 18.819z" fill="url(#SVGID_2_)"/><path d="m173.069 492.174c24.327 23.679 63.468 23.784 87.919.222 6.826-6.579 11.842-14.307 15.061-22.573l20.158-46.443c2.44-5.615 1.192-12.151-3.138-16.482l-35.96-35.966c-4.33-4.33-10.866-5.572-16.488-3.132l-46.443 20.151c-7.913 3.083-15.339 7.815-21.733 14.208-24.89 24.897-24.686 65.385.624 90.015zm18.94-70.45c13.881-13.887 36.386-13.887 50.273 0 13.881 13.881 13.881 36.392 0 50.273-13.887 13.881-36.392 13.881-50.273 0-13.887-13.88-13.887-36.392 0-50.273z" fill="url(#SVGID_3_)"/><path d="m475.631 0h-441.262c-18.981 0-34.369 15.388-34.369 34.369v56.651l35.5 84.369-35.5 93.781v56.658c0 18.982 15.388 34.369 34.369 34.369h441.262c18.981 0 34.369-15.387 34.369-34.369v-56.658l-16.608-96.943 16.608-81.207v-56.651c0-18.981-15.388-34.369-34.369-34.369zm-387.631 328.312c0 3.796-3.077 6.873-6.873 6.873h-27.254c-3.796 0-6.873-3.077-6.873-6.873v-27.254c0-3.796 3.077-6.873 6.873-6.873h27.254c3.796 0 6.873 3.077 6.873 6.873zm0-269.174c0 3.796-3.077 6.873-6.873 6.873h-27.254c-3.796 0-6.873-3.077-6.873-6.873v-27.254c0-3.796 3.077-6.873 6.873-6.873h27.254c3.796 0 6.873 3.077 6.873 6.873zm75 269.174c0 3.796-3.077 6.873-6.873 6.873h-27.254c-3.796 0-6.873-3.077-6.873-6.873v-27.254c0-3.796 3.077-6.873 6.873-6.873h27.254c3.796 0 6.873 3.077 6.873 6.873zm0-269.174c0 3.796-3.077 6.873-6.873 6.873h-27.254c-3.796 0-6.873-3.077-6.873-6.873v-27.254c0-3.796 3.077-6.873 6.873-6.873h27.254c3.796 0 6.873 3.077 6.873 6.873zm75 269.174c0 3.796-3.077 6.873-6.873 6.873h-27.254c-3.796 0-6.873-3.077-6.873-6.873v-27.254c0-3.796 3.077-6.873 6.873-6.873h27.254c3.796 0 6.873 3.077 6.873 6.873zm0-269.174c0 3.796-3.077 6.873-6.873 6.873h-27.254c-3.796 0-6.873-3.077-6.873-6.873v-27.254c0-3.796 3.077-6.873 6.873-6.873h27.254c3.796 0 6.873 3.077 6.873 6.873zm75 269.174c0 3.796-3.077 6.873-6.873 6.873h-27.254c-3.796 0-6.873-3.077-6.873-6.873v-27.254c0-3.796 3.077-6.873 6.873-6.873h27.254c3.796 0 6.873 3.077 6.873 6.873zm0-269.174c0 3.796-3.077 6.873-6.873 6.873h-27.254c-3.796 0-6.873-3.077-6.873-6.873v-27.254c0-3.796 3.077-6.873 6.873-6.873h27.254c3.796 0 6.873 3.077 6.873 6.873zm75 269.174c0 3.796-3.077 6.873-6.873 6.873h-27.254c-3.796 0-6.873-3.077-6.873-6.873v-27.254c0-3.796 3.077-6.873 6.873-6.873h27.254c3.796 0 6.873 3.077 6.873 6.873zm0-269.174c0 3.796-3.077 6.873-6.873 6.873h-27.254c-3.796 0-6.873-3.077-6.873-6.873v-27.254c0-3.796 3.077-6.873 6.873-6.873h27.254c3.796 0 6.873 3.077 6.873 6.873zm75 269.174c0 3.796-3.077 6.873-6.873 6.873h-27.254c-3.796 0-6.873-3.077-6.873-6.873v-27.254c0-3.796 3.077-6.873 6.873-6.873h27.254c3.796 0 6.873 3.077 6.873 6.873zm0-269.174c0 3.796-3.077 6.873-6.873 6.873h-27.254c-3.796 0-6.873-3.077-6.873-6.873v-27.254c0-3.796 3.077-6.873 6.873-6.873h27.254c3.796 0 6.873 3.077 6.873 6.873z" fill="url(#SVGID_4_)"/><path d="m11.75 238.26-11.75 30.91v56.658c0 18.982 15.388 34.369 34.369 34.369h441.262c18.981 0 34.369-15.387 34.369-34.369v-56.658l-5.723-30.909h-492.527zm76.25 90.052c0 3.796-3.077 6.873-6.873 6.873h-27.254c-3.796 0-6.873-3.077-6.873-6.873v-27.254c0-3.796 3.077-6.873 6.873-6.873h27.254c3.796 0 6.873 3.077 6.873 6.873zm75 0c0 3.796-3.077 6.873-6.873 6.873h-27.254c-3.796 0-6.873-3.077-6.873-6.873v-27.254c0-3.796 3.077-6.873 6.873-6.873h27.254c3.796 0 6.873 3.077 6.873 6.873zm75 0c0 3.796-3.077 6.873-6.873 6.873h-27.254c-3.796 0-6.873-3.077-6.873-6.873v-27.254c0-3.796 3.077-6.873 6.873-6.873h27.254c3.796 0 6.873 3.077 6.873 6.873zm75 0c0 3.796-3.077 6.873-6.873 6.873h-27.254c-3.796 0-6.873-3.077-6.873-6.873v-27.254c0-3.796 3.077-6.873 6.873-6.873h27.254c3.796 0 6.873 3.077 6.873 6.873zm75 0c0 3.796-3.077 6.873-6.873 6.873h-27.254c-3.796 0-6.873-3.077-6.873-6.873v-27.254c0-3.796 3.077-6.873 6.873-6.873h27.254c3.796 0 6.873 3.077 6.873 6.873zm75 0c0 3.796-3.077 6.873-6.873 6.873h-27.254c-3.796 0-6.873-3.077-6.873-6.873v-27.254c0-3.796 3.077-6.873 6.873-6.873h27.254c3.796 0 6.873 3.077 6.873 6.873z" fill="url(#SVGID_5_)"/><path d="m493.392 172.227h-307.15l187.97 187.97h101.418c18.981 0 34.369-15.387 34.369-34.369v-56.658zm-105.392 156.085c0 3.796-3.077 6.873-6.873 6.873h-27.254c-3.796 0-6.873-3.077-6.873-6.873v-27.254c0-3.796 3.077-6.873 6.873-6.873h27.254c3.796 0 6.873 3.077 6.873 6.873zm75 0c0 3.796-3.077 6.873-6.873 6.873h-27.254c-3.796 0-6.873-3.077-6.873-6.873v-27.254c0-3.796 3.077-6.873 6.873-6.873h27.254c3.796 0 6.873 3.077 6.873 6.873z" fill="url(#SVGID_6_)"/><path d="m176.721 175.389-118.796 118.797h23.202c3.796 0 6.873 3.077 6.873 6.873v27.254c0 3.796-3.077 6.873-6.873 6.873h-27.254c-3.796 0-6.873-3.077-6.873-6.873v-23.203l-40.633 40.633c6.231 8.745 16.446 14.453 28.002 14.453h249.273zm-13.721 152.923c0 3.796-3.077 6.873-6.873 6.873h-27.254c-3.796 0-6.873-3.077-6.873-6.873v-27.254c0-3.796 3.077-6.873 6.873-6.873h27.254c3.796 0 6.873 3.077 6.873 6.873zm68.127 6.874h-27.254c-3.796 0-6.873-3.077-6.873-6.873v-27.254c0-3.796 3.077-6.873 6.873-6.873h27.254c3.796 0 6.873 3.077 6.873 6.873v27.254c0 3.795-3.077 6.873-6.873 6.873z" fill="url(#SVGID_7_)"/><g><path d="m130.412 269.17h249.176c4.922 0 8.912-3.99 8.912-8.912v-160.326c0-4.922-3.99-8.912-8.912-8.912h-249.176c-4.922 0-8.912 3.99-8.912 8.912v160.326c0 4.922 3.99 8.912 8.912 8.912z" fill="url(#SVGID_8_)"/><path d="m283.186 269.17h96.403c4.922 0 8.912-3.99 8.912-8.912v-88.031h-202.259z" fill="url(#SVGID_9_)"/><path d="m121.5 230.61v29.648c0 4.922 3.99 8.912 8.912 8.912h100.566l-54.257-93.781z" fill="url(#SVGID_10_)"/><path d="m0 269.17h79.088c4.922 0 8.912-3.99 8.912-8.912v-160.326c0-4.922-3.99-8.912-8.912-8.912h-79.088z" fill="url(#SVGID_11_)"/><path d="m422 99.932v160.326c0 4.922 3.99 8.912 8.912 8.912h79.088v-178.15h-79.088c-4.922 0-8.912 3.99-8.912 8.912z" fill="url(#SVGID_12_)"/></g><path d="m402.647 386.241-210.738-210.738c-8.928-8.928-23.314 2.056-17.053 13.021l109.343 191.502c5.71 10 16.251 16.268 27.764 16.51l31.371.659c2.799.139 5.447 1.313 7.428 3.295l18.819 18.819z" fill="url(#SVGID_13_)"/><path d="m284.199 380.026c5.71 10 16.25 16.269 27.763 16.51l31.371.658c2.799.139 5.447 1.313 7.428 3.295l18.819 18.819 33.067-33.067-27.574-27.574h-103.07z" fill="url(#SVGID_14_)"/><path d="m474.893 402.16c-6.394-6.394-13.819-11.126-21.733-14.208l-46.443-20.152c-5.621-2.44-12.157-1.198-16.488 3.132l-35.96 35.966c-4.33 4.33-5.578 10.866-3.138 16.482l20.158 46.443c3.219 8.266 8.235 15.994 15.061 22.573 24.451 23.561 63.592 23.456 87.919-.222 25.309-24.63 25.513-65.118.624-90.014zm-19.565 69.838c-13.881 13.881-36.386 13.881-50.273 0-13.881-13.881-13.881-36.392 0-50.273 13.887-13.887 36.392-13.887 50.273 0 13.888 13.88 13.888 36.392 0 50.273z" fill="url(#SVGID_15_)"/><path d="m252.356 441.999c1.461 10.642-1.894 21.818-10.074 29.999-13.887 13.881-36.392 13.881-50.273 0-8.184-8.18-11.54-19.357-10.078-29.999h-27.799c-1.383 18.027 4.919 36.533 18.937 50.175 24.327 23.679 63.469 23.784 87.919.222 6.826-6.579 11.842-14.307 15.061-22.573l12.076-27.824z" fill="url(#SVGID_16_)"/><path d="m455.328 471.998c-13.881 13.881-36.386 13.881-50.273 0-8.18-8.18-11.535-19.357-10.074-29.999h-35.769l12.076 27.824c3.219 8.266 8.235 15.994 15.061 22.573 24.451 23.561 63.592 23.456 87.919-.222 14.018-13.642 20.32-32.147 18.937-50.175h-27.799c1.462 10.642-1.894 21.818-10.078 29.999z" fill="url(#SVGID_17_)"/><g><path d="m343.333 397.195c2.799.139 5.447 1.313 7.428 3.295l18.819 18.819 24.383-24.383-60.698-60.613c-4.461-5.737-39.938 29.74-34.202 34.201l28.345 28.347z" fill="url(#SVGID_18_)"/><circle cx="317.662" cy="352.911" fill="url(#SVGID_19_)" r="24.38"/></g></g></svg>