<svg id="Capa_1" enable-background="new 0 0 510 510" height="512" viewBox="0 0 510 510" width="512" xmlns="http://www.w3.org/2000/svg" xmlns:xlink="http://www.w3.org/1999/xlink"><linearGradient id="lg1"><stop offset="0" stop-color="#5a5a5a"/><stop offset="1" stop-color="#464646"/></linearGradient><linearGradient id="SVGID_1_" gradientUnits="userSpaceOnUse" x1="79" x2="311.31" xlink:href="#lg1" y1="72.099" y2="304.409"/><linearGradient id="lg2"><stop offset="0" stop-color="#464646" stop-opacity="0"/><stop offset="1" stop-color="#202020"/></linearGradient><linearGradient id="SVGID_2_" gradientUnits="userSpaceOnUse" x1="255" x2="255" xlink:href="#lg2" y1="355.099" y2="424.215"/><linearGradient id="lg3"><stop offset="0" stop-color="#eef4ff"/><stop offset="1" stop-color="#cfe7fd"/></linearGradient><linearGradient id="SVGID_3_" gradientUnits="userSpaceOnUse" x1="255" x2="255" xlink:href="#lg3" y1="319.099" y2="259.964"/><linearGradient id="SVGID_4_" gradientUnits="userSpaceOnUse" x1="72.759" x2="136.859" xlink:href="#lg3" y1="317.767" y2="381.867"/><linearGradient id="SVGID_5_" gradientUnits="userSpaceOnUse" x1="145.957" x2="211.6" xlink:href="#lg3" y1="315.546" y2="381.188"/><linearGradient id="SVGID_6_" gradientUnits="userSpaceOnUse" x1="222.127" x2="287.769" xlink:href="#lg3" y1="314.796" y2="380.438"/><linearGradient id="SVGID_7_" gradientUnits="userSpaceOnUse" x1="295.633" x2="362.083" xlink:href="#lg3" y1="314.381" y2="380.832"/><linearGradient id="SVGID_8_" gradientUnits="userSpaceOnUse" x1="370.785" x2="436.427" xlink:href="#lg3" y1="316.977" y2="382.619"/><linearGradient id="lg4"><stop offset="0" stop-color="#8aaadc" stop-opacity="0"/><stop offset="1" stop-color="#8aaadc"/></linearGradient><linearGradient id="SVGID_9_" gradientUnits="userSpaceOnUse" x1="189.202" x2="158.738" xlink:href="#lg4" y1="374.536" y2="344.072"/><linearGradient id="SVGID_10_" gradientUnits="userSpaceOnUse" x1="177.58" x2="177.58" xlink:href="#lg4" y1="319.099" y2="259.964"/><linearGradient id="SVGID_11_" gradientUnits="userSpaceOnUse" x1="214.831" x2="153.073" xlink:href="#lg4" y1="357.826" y2="328.103"/><linearGradient id="SVGID_12_" gradientUnits="userSpaceOnUse" x1="264.622" x2="234.158" xlink:href="#lg4" y1="374.536" y2="344.072"/><linearGradient id="SVGID_13_" gradientUnits="userSpaceOnUse" x1="252.5" x2="252.5" xlink:href="#lg4" y1="319.099" y2="259.964"/><linearGradient id="SVGID_14_" gradientUnits="userSpaceOnUse" x1="290.837" x2="229.079" xlink:href="#lg4" y1="356.608" y2="326.885"/><linearGradient id="SVGID_15_" gradientUnits="userSpaceOnUse" x1="415.462" x2="384.998" xlink:href="#lg4" y1="374.536" y2="344.072"/><linearGradient id="SVGID_16_" gradientUnits="userSpaceOnUse" x1="403.34" x2="403.34" xlink:href="#lg4" y1="319.099" y2="259.964"/><linearGradient id="SVGID_17_" gradientUnits="userSpaceOnUse" x1="440.604" x2="378.846" xlink:href="#lg4" y1="358.837" y2="329.114"/><linearGradient id="SVGID_18_" gradientUnits="userSpaceOnUse" x1="104.16" x2="104.16" xlink:href="#lg4" y1="426.433" y2="445.289"/><linearGradient id="SVGID_19_" gradientUnits="userSpaceOnUse" x1="179.58" x2="179.58" xlink:href="#lg4" y1="426.433" y2="445.289"/><linearGradient id="SVGID_20_" gradientUnits="userSpaceOnUse" x1="255" x2="255" xlink:href="#lg4" y1="426.433" y2="445.289"/><linearGradient id="SVGID_21_" gradientUnits="userSpaceOnUse" x1="330.42" x2="330.42" xlink:href="#lg4" y1="426.433" y2="445.289"/><linearGradient id="SVGID_22_" gradientUnits="userSpaceOnUse" x1="405.84" x2="405.84" xlink:href="#lg4" y1="426.433" y2="445.289"/><linearGradient id="SVGID_23_" gradientUnits="userSpaceOnUse" x1="138.565" x2="159.436" xlink:href="#lg1" y1="319.083" y2="319.083"/><linearGradient id="SVGID_24_" gradientUnits="userSpaceOnUse" x1="213.247" x2="234.119" xlink:href="#lg1" y1="319.083" y2="319.083"/><linearGradient id="SVGID_25_" gradientUnits="userSpaceOnUse" x1="364.824" x2="385.696" xlink:href="#lg1" y1="319.083" y2="319.083"/><linearGradient id="SVGID_26_" gradientUnits="userSpaceOnUse" x1="141.87" x2="141.87" xlink:href="#lg2" y1="285.099" y2="258.433"/><linearGradient id="SVGID_27_" gradientUnits="userSpaceOnUse" x1="216.553" x2="216.553" xlink:href="#lg2" y1="285.099" y2="258.433"/><linearGradient id="SVGID_28_" gradientUnits="userSpaceOnUse" x1="368.13" x2="368.13" xlink:href="#lg2" y1="285.099" y2="258.433"/><linearGradient id="SVGID_29_" gradientUnits="userSpaceOnUse" x1="179.58" x2="179.58" xlink:href="#lg1" y1="231.099" y2="100.095"/><linearGradient id="lg5"><stop offset="0" stop-color="#f7e07d"/><stop offset="1" stop-color="#e69642"/></linearGradient><linearGradient id="SVGID_30_" gradientUnits="userSpaceOnUse" x1="179.58" x2="179.58" xlink:href="#lg5" y1="143.337" y2="213.642"/><linearGradient id="lg6"><stop offset="0" stop-color="#dc4955"/><stop offset="1" stop-color="#c4237c"/></linearGradient><linearGradient id="SVGID_31_" gradientUnits="userSpaceOnUse" x1="341.548" x2="361.87" xlink:href="#lg6" y1="206.306" y2="226.628"/><linearGradient id="SVGID_32_" gradientUnits="userSpaceOnUse" x1="381.435" x2="401.757" xlink:href="#lg6" y1="206.306" y2="226.628"/><linearGradient id="SVGID_33_" gradientUnits="userSpaceOnUse" x1="421.321" x2="441.644" xlink:href="#lg6" y1="206.306" y2="226.628"/><linearGradient id="SVGID_34_" gradientUnits="userSpaceOnUse" x1="341.548" x2="361.87" y1="107.938" y2="128.26"><stop offset="0" stop-color="#7dc03a"/><stop offset="1" stop-color="#3e6e66"/></linearGradient><linearGradient id="SVGID_35_" gradientTransform="matrix(-1 0 0 -1 778.694 245.501)" gradientUnits="userSpaceOnUse" x1="381.435" x2="401.757" xlink:href="#lg1" y1="121.739" y2="142.062"/><linearGradient id="SVGID_36_" gradientTransform="matrix(-1 0 0 -1 858.467 245.501)" gradientUnits="userSpaceOnUse" x1="421.321" x2="441.644" xlink:href="#lg1" y1="121.739" y2="142.062"/><linearGradient id="SVGID_37_" gradientUnits="userSpaceOnUse" x1="341.548" x2="361.87" xlink:href="#lg5" y1="157.122" y2="177.444"/><linearGradient id="SVGID_38_" gradientTransform="matrix(-1 0 0 -1 778.694 343.87)" gradientUnits="userSpaceOnUse" x1="381.435" x2="401.757" xlink:href="#lg1" y1="170.923" y2="191.246"/><linearGradient id="SVGID_39_" gradientUnits="userSpaceOnUse" x1="421.321" x2="441.644" xlink:href="#lg5" y1="157.122" y2="177.444"/><g><path d="m475.631 428.197h-441.262c-18.981 0-34.369-15.387-34.369-34.369v-291.458c0-18.982 15.388-34.369 34.369-34.369h441.262c18.982 0 34.369 15.388 34.369 34.369v291.458c0 18.982-15.388 34.369-34.369 34.369z" fill="url(#SVGID_1_)"/><path d="m0 325.704v68.125c0 18.981 15.388 34.369 34.369 34.369h441.262c18.982 0 34.369-15.387 34.369-34.369v-68.125z" fill="url(#SVGID_2_)"/><g><path d="m428.653 262.067h-40.513l-22.233 2.667-17.788-2.667h-55.41-.002-56.145l-21.577 2.667-18.444-2.667h-34.661l-21.828 2.728-18.192-2.728h-40.513c-8.227 0-14.896 6.669-14.896 14.896v150.135c0 8.227 6.669 14.896 14.896 14.896h45.627c8.227 0 14.896-6.669 14.896-14.896 0 8.227 6.669 14.896 14.896 14.896h45.627c8.227 0 14.896-6.669 14.896-14.896 0 8.227 6.669 14.896 14.896 14.896h45.627c8.227 0 14.896-6.669 14.896-14.896 0 8.227 6.669 14.896 14.896 14.896h45.627c8.227 0 14.896-6.669 14.896-14.896 0 8.227 6.669 14.896 14.896 14.896h45.627c8.227 0 14.896-6.669 14.896-14.896v-150.134c.003-8.227-6.666-14.897-14.893-14.897z" fill="url(#SVGID_3_)"/><path d="m126.974 441.995h-45.627c-8.227 0-14.896-6.669-14.896-14.896v-150.135c0-8.227 6.669-14.896 14.896-14.896h40.513l20.01 3v162.032c0 8.226-6.669 14.895-14.896 14.895z" fill="url(#SVGID_4_)"/><path d="m202.394 441.995h-45.627c-8.227 0-14.896-6.669-14.896-14.896v-162.032l20.01-3h34.662l20.748 3v162.032c-.001 8.227-6.67 14.896-14.897 14.896z" fill="url(#SVGID_5_)"/><path d="m277.814 441.995h-45.627c-8.227 0-14.896-6.669-14.896-14.896v-162.032l19.273-3h56.147v165.032c-.001 8.227-6.67 14.896-14.897 14.896z" fill="url(#SVGID_6_)"/><path d="m353.233 441.995h-45.627c-8.227 0-14.896-6.669-14.896-14.896v-165.032h55.41l20.01 3v162.032c0 8.227-6.67 14.896-14.897 14.896z" fill="url(#SVGID_7_)"/><path d="m428.653 441.995h-45.627c-8.227 0-14.896-6.669-14.896-14.896v-162.032l20.01-3h40.513c8.227 0 14.896 6.669 14.896 14.896v150.136c0 8.227-6.669 14.896-14.896 14.896z" fill="url(#SVGID_8_)"/></g><g><path d="m125.68 373.15 16.19 16.19v-124.273h-16.19z" fill="url(#SVGID_9_)"/><path d="m202.394 441.995h-45.627c-8.227 0-14.896-6.669-14.896-14.896l-4-162.032 24.01-3h34.662l20.748 3v162.032c-.001 8.227-6.67 14.896-14.897 14.896z" fill="url(#SVGID_10_)"/><path d="m141.87 389.34 52.655 52.655h7.869c8.227 0 14.896-6.669 14.896-14.896v-162.032l-20.748-3h-34.662l-20.01 3z" fill="url(#SVGID_11_)"/><g><path d="m201.1 373.15 16.19 16.19v-124.273h-16.19z" fill="url(#SVGID_12_)"/></g><path d="m277.814 441.995h-45.627c-8.227 0-14.896-6.669-14.896-14.896l-5-162.032 24.273-3h56.147v165.032c-.001 8.227-6.67 14.896-14.897 14.896z" fill="url(#SVGID_13_)"/><path d="m217.29 389.34 52.655 52.655h7.869c8.227 0 14.896-6.669 14.896-14.896v-165.032h-56.147l-19.273 3z" fill="url(#SVGID_14_)"/><g><path d="m351.94 373.15 16.19 16.19v-124.273h-16.19z" fill="url(#SVGID_15_)"/></g><path d="m428.653 441.995h-45.627c-8.227 0-14.896-6.669-14.896-14.896l-5-162.032 25.01-3h40.513c8.227 0 14.896 6.669 14.896 14.896v150.136c0 8.227-6.669 14.896-14.896 14.896z" fill="url(#SVGID_16_)"/><path d="m368.13 389.34 52.655 52.655h7.869c8.227 0 14.896-6.669 14.896-14.896v-150.242c0-8.168-6.622-14.79-14.79-14.79h-40.62l-20.01 3z" fill="url(#SVGID_17_)"/></g><path d="m141.87 397.769v29.33c0 8.23-6.67 14.9-14.9 14.9h-45.62c-8.23 0-14.9-6.67-14.9-14.9v-29.33z" fill="url(#SVGID_18_)"/><path d="m217.29 397.769v29.33c0 8.23-6.67 14.9-14.9 14.9h-45.62c-8.23 0-14.9-6.67-14.9-14.9v-29.33z" fill="url(#SVGID_19_)"/><path d="m292.71 397.769v29.33c0 8.23-6.67 14.9-14.9 14.9h-45.62c-8.23 0-14.9-6.67-14.9-14.9v-29.33z" fill="url(#SVGID_20_)"/><path d="m368.13 397.769v29.33c0 8.23-6.67 14.9-14.9 14.9h-45.62c-8.23 0-14.9-6.67-14.9-14.9v-29.33z" fill="url(#SVGID_21_)"/><path d="m443.55 397.769v29.33c0 8.23-6.67 14.9-14.9 14.9h-45.62c-8.23 0-14.9-6.67-14.9-14.9v-29.33z" fill="url(#SVGID_22_)"/><g><path d="m121.86 364.615c0 6.342 5.141 11.484 11.484 11.484h17.052c6.342 0 11.484-5.142 11.484-11.484v-102.548h-40.02z" fill="url(#SVGID_23_)"/><path d="m196.542 364.615c0 6.342 5.142 11.484 11.484 11.484h17.052c6.342 0 11.484-5.142 11.484-11.484v-102.548h-40.02z" fill="url(#SVGID_24_)"/><path d="m348.12 262.067v102.548c0 6.342 5.142 11.484 11.484 11.484h17.052c6.342 0 11.484-5.142 11.484-11.484v-102.548z" fill="url(#SVGID_25_)"/></g><g><path d="m121.86 364.615c0 6.342 5.141 11.484 11.484 11.484h17.052c6.342 0 11.484-5.142 11.484-11.484v-102.548h-40.02z" fill="url(#SVGID_26_)"/><path d="m196.542 364.615c0 6.342 5.142 11.484 11.484 11.484h17.052c6.342 0 11.484-5.142 11.484-11.484v-102.548h-40.02z" fill="url(#SVGID_27_)"/><path d="m348.12 262.067v102.548c0 6.342 5.142 11.484 11.484 11.484h17.052c6.342 0 11.484-5.142 11.484-11.484v-102.548z" fill="url(#SVGID_28_)"/></g><path d="m280.75 101.534h-202.34c-6.605 0-11.96 5.355-11.96 11.96v103.08c0 6.605 5.355 11.96 11.96 11.96h202.34c6.605 0 11.96-5.355 11.96-11.96v-103.08c0-6.605-5.355-11.96-11.96-11.96z" fill="url(#SVGID_29_)"/><path d="m81.45 205.282v-80.495c0-4.558 3.695-8.253 8.253-8.253h179.754c4.558 0 8.253 3.695 8.253 8.253v80.495c0 4.558-3.695 8.253-8.253 8.253h-179.754c-4.558-.001-8.253-3.696-8.253-8.253z" fill="url(#SVGID_30_)"/><g><circle cx="349.46" cy="214.218" fill="url(#SVGID_31_)" r="14.316"/><circle cx="389.347" cy="214.218" fill="url(#SVGID_32_)" r="14.316"/><circle cx="429.234" cy="214.218" fill="url(#SVGID_33_)" r="14.316"/></g><g><circle cx="349.46" cy="115.85" fill="url(#SVGID_34_)" r="14.316"/><circle cx="389.347" cy="115.85" fill="url(#SVGID_35_)" r="14.316"/><circle cx="429.234" cy="115.85" fill="url(#SVGID_36_)" r="14.316"/></g><g><circle cx="349.46" cy="165.034" fill="url(#SVGID_37_)" r="14.316"/><circle cx="389.347" cy="165.034" fill="url(#SVGID_38_)" r="14.316"/><circle cx="429.234" cy="165.034" fill="url(#SVGID_39_)" r="14.316"/></g></g></svg>