<svg id="Capa_1" enable-background="new 0 0 510 510" height="512" viewBox="0 0 510 510" width="512" xmlns="http://www.w3.org/2000/svg" xmlns:xlink="http://www.w3.org/1999/xlink"><linearGradient id="SVGID_1_" gradientUnits="userSpaceOnUse" x1="408.043" x2="408.043" y1="126.316" y2="296.019"><stop offset="0" stop-color="#bce097"/><stop offset="1" stop-color="#7dc03a"/></linearGradient><linearGradient id="lg1"><stop offset="0" stop-color="#8cc951" stop-opacity="0"/><stop offset="1" stop-color="#3e6e66"/></linearGradient><linearGradient id="SVGID_2_" gradientUnits="userSpaceOnUse" x1="402.625" x2="306.125" xlink:href="#lg1" y1="236.468" y2="195.968"/><linearGradient id="SVGID_3_" gradientUnits="userSpaceOnUse" x1="431.113" x2="431.113" xlink:href="#lg1" y1="257.333" y2="293.334"/><linearGradient id="SVGID_4_" gradientUnits="userSpaceOnUse" x1="143.737" x2="248.99" y1="71.196" y2="328.333"><stop offset="0" stop-color="#76ccf8"/><stop offset=".833" stop-color="#518ef8"/><stop offset="1" stop-color="#4981f8"/></linearGradient><linearGradient id="SVGID_5_" gradientUnits="userSpaceOnUse" x1="136.348" x2="136.348" y1="248" y2="279.065"><stop offset="0" stop-color="#4071f7" stop-opacity="0"/><stop offset="1" stop-color="#30569f"/></linearGradient><linearGradient id="SVGID_6_" gradientUnits="userSpaceOnUse" x1="383.284" x2="383.284" y1="310.732" y2="557.491"><stop offset="0" stop-color="#f7e07d"/><stop offset=".2892" stop-color="#f3cf6f"/><stop offset=".862" stop-color="#e9a24b"/><stop offset="1" stop-color="#e69642"/></linearGradient><linearGradient id="lg2"><stop offset="0" stop-color="#d52c1c" stop-opacity="0"/><stop offset=".28" stop-color="#d12c1e" stop-opacity=".28"/><stop offset=".5735" stop-color="#c42c23" stop-opacity=".574"/><stop offset=".8721" stop-color="#af2b2c" stop-opacity=".872"/><stop offset="1" stop-color="#a42b31"/></linearGradient><linearGradient id="SVGID_7_" gradientUnits="userSpaceOnUse" x1="383.284" x2="383.284" xlink:href="#lg2" y1="449" y2="511.29"/><linearGradient id="SVGID_8_" gradientUnits="userSpaceOnUse" x1="411.07" x2="248.07" xlink:href="#lg2" y1="454.757" y2="407.757"/><linearGradient id="SVGID_9_" gradientUnits="userSpaceOnUse" x1="192.64" x2="192.64" y1="302.407" y2="474.905"><stop offset="0" stop-color="#dc4955"/><stop offset="1" stop-color="#c4237c"/></linearGradient><linearGradient id="SVGID_10_" gradientUnits="userSpaceOnUse" x1="192.64" x2="192.64" y1="419" y2="464.1"><stop offset="0" stop-color="#8a1958" stop-opacity="0"/><stop offset="1" stop-color="#8a1958"/></linearGradient><linearGradient id="lg3"><stop offset="0" stop-color="#eef4ff"/><stop offset="1" stop-color="#cfe7fd"/></linearGradient><linearGradient id="SVGID_11_" gradientUnits="userSpaceOnUse" x1="144.841" x2="165.164" xlink:href="#lg3" y1="381.313" y2="401.635"/><linearGradient id="SVGID_12_" gradientUnits="userSpaceOnUse" x1="184.728" x2="205.05" xlink:href="#lg3" y1="381.313" y2="401.635"/><linearGradient id="SVGID_13_" gradientUnits="userSpaceOnUse" x1="224.615" x2="244.937" xlink:href="#lg3" y1="381.313" y2="401.635"/><linearGradient id="SVGID_14_" gradientUnits="userSpaceOnUse" x1="81.701" x2="119.23" xlink:href="#lg3" y1="128.014" y2="165.542"/><linearGradient id="SVGID_15_" gradientUnits="userSpaceOnUse" x1="155.358" x2="192.886" xlink:href="#lg3" y1="128.014" y2="165.542"/><linearGradient id="SVGID_16_" gradientUnits="userSpaceOnUse" x1="229.014" x2="266.542" xlink:href="#lg3" y1="128.014" y2="165.542"/><linearGradient id="SVGID_17_" gradientUnits="userSpaceOnUse" x1="318.329" x2="345.946" xlink:href="#lg3" y1="391.009" y2="418.625"/><linearGradient id="SVGID_18_" gradientUnits="userSpaceOnUse" x1="372.532" x2="400.148" xlink:href="#lg3" y1="391.009" y2="418.625"/><linearGradient id="SVGID_19_" gradientUnits="userSpaceOnUse" x1="426.734" x2="454.351" xlink:href="#lg3" y1="391.009" y2="418.625"/><linearGradient id="lg4"><stop offset="0" stop-color="#8aaadc" stop-opacity="0"/><stop offset="1" stop-color="#8aaadc"/></linearGradient><linearGradient id="SVGID_20_" gradientUnits="userSpaceOnUse" x1="349.968" x2="295.968" xlink:href="#lg4" y1="430.532" y2="376.532"/><linearGradient id="SVGID_21_" gradientUnits="userSpaceOnUse" x1="360.244" x2="380.567" xlink:href="#lg3" y1="188.661" y2="208.983"/><linearGradient id="SVGID_22_" gradientUnits="userSpaceOnUse" x1="409.792" x2="345.003" xlink:href="#lg4" y1="238.208" y2="173.42"/><linearGradient id="SVGID_23_" gradientUnits="userSpaceOnUse" x1="400.131" x2="420.453" xlink:href="#lg3" y1="188.661" y2="208.983"/><linearGradient id="SVGID_24_" gradientUnits="userSpaceOnUse" x1="440.017" x2="460.34" xlink:href="#lg3" y1="188.661" y2="208.983"/><linearGradient id="SVGID_25_" gradientUnits="userSpaceOnUse" x1="423.942" x2="382.21" xlink:href="#lg4" y1="224.058" y2="182.326"/><g><path d="m387.236 116.19h41.615c44.817 0 81.149 36.332 81.149 81.149 0 44.817-36.332 81.149-81.149 81.149h-41.615c-4.719 0-9.337-.426-13.835-1.199l-24.506 12.173c-6.092 3.026-13.105-1.938-12.275-8.69l2.247-18.274c-19.891-14.79-32.781-38.467-32.781-65.159 0-44.818 36.332-81.149 81.15-81.149z" fill="url(#SVGID_1_)"/><path d="m339.952 131.408c-20.5 14.729-33.866 38.761-33.866 65.931 0 26.692 12.89 50.369 32.781 65.159l-2.247 18.274c-.83 6.752 6.182 11.716 12.275 8.69l24.506-12.173c4.499.773 9.116 1.199 13.835 1.199h41.615c16.535 0 31.906-4.957 44.732-13.449z" fill="url(#SVGID_2_)"/><path d="m488.825 252h-66.466l-48.959 25.289c4.498.773 9.116 1.199 13.835 1.199h41.615c23.761 0 45.134-10.214 59.975-26.488z" fill="url(#SVGID_3_)"/><path d="m204.656 0h-69.375c-74.714 0-135.281 60.567-135.281 135.281 0 74.714 60.567 135.281 135.281 135.281h69.375c7.867 0 15.565-.709 23.064-1.998l40.852 20.293c10.156 5.045 21.847-3.231 20.463-14.487l-3.746-30.464c33.16-24.655 54.648-64.128 54.648-108.624.001-74.714-60.567-135.282-135.281-135.282z" fill="url(#SVGID_4_)"/><path d="m44.976 236c23.948 21.487 55.598 34.562 90.305 34.562h69.375c7.867 0 15.565-.709 23.064-1.998l-49.395-32.564z" fill="url(#SVGID_5_)"/><path d="m357.424 510h51.721c55.7 0 100.855-45.155 100.855-100.855 0-55.701-45.154-100.855-100.855-100.855h-51.721c-5.865 0-11.604.529-17.195 1.49l-30.456-15.129c-7.572-3.761-16.287 2.409-15.255 10.8l2.793 22.712c-24.721 18.381-40.741 47.809-40.741 80.982-.002 55.7 45.153 100.855 100.854 100.855z" fill="url(#SVGID_6_)"/><path d="m259.847 434.732c11.325 43.309 50.717 75.268 97.577 75.268h51.721c46.859 0 86.251-31.959 97.577-75.268z" fill="url(#SVGID_7_)"/><path d="m281.659 342.595c-15.614 17.759-25.091 41.043-25.091 66.549 0 55.701 45.155 100.855 100.856 100.855h51.721c11.942 0 23.397-2.081 34.028-5.891z" fill="url(#SVGID_8_)"/><path d="m213.448 467.702h-41.615c-44.817 0-81.149-36.332-81.149-81.149 0-44.817 36.332-81.149 81.149-81.149h41.615c4.719 0 9.337.426 13.835 1.199l24.506-12.173c6.092-3.026 13.105 1.938 12.275 8.69l-2.247 18.274c19.891 14.79 32.781 38.467 32.781 65.159-.001 44.818-36.333 81.149-81.15 81.149z" fill="url(#SVGID_9_)"/><path d="m92.127 401.761c7.122 37.545 40.088 65.941 79.705 65.941h41.615c39.617 0 72.584-28.396 79.705-65.941z" fill="url(#SVGID_10_)"/><g><circle cx="152.754" cy="389.225" fill="url(#SVGID_11_)" r="14.316"/><circle cx="192.64" cy="389.225" fill="url(#SVGID_12_)" r="14.316"/><circle cx="232.527" cy="389.225" fill="url(#SVGID_13_)" r="14.316"/></g><g><circle cx="96.313" cy="142.625" fill="url(#SVGID_14_)" r="26.436"/><circle cx="169.969" cy="142.625" fill="url(#SVGID_15_)" r="26.436"/><circle cx="243.625" cy="142.625" fill="url(#SVGID_16_)" r="26.436"/></g><g><circle cx="329.082" cy="401.761" fill="url(#SVGID_17_)" r="19.454"/><circle cx="383.284" cy="401.761" fill="url(#SVGID_18_)" r="19.454"/><circle cx="437.486" cy="401.761" fill="url(#SVGID_19_)" r="19.454"/></g><path d="m322.528 383.464c-7.514 2.693-12.9 9.857-12.9 18.298 0 10.744 8.71 19.454 19.454 19.454 8.441 0 15.605-5.385 18.298-12.9z" fill="url(#SVGID_20_)"/><g><circle cx="368.156" cy="196.573" fill="url(#SVGID_21_)" r="14.316"/><circle cx="368.156" cy="196.573" fill="url(#SVGID_22_)" r="14.316"/><circle cx="408.043" cy="196.573" fill="url(#SVGID_23_)" r="14.316"/><circle cx="447.93" cy="196.573" fill="url(#SVGID_24_)" r="14.316"/></g><path d="m396.575 188.031c-1.78 2.386-2.847 5.336-2.847 8.542 0 7.906 6.409 14.316 14.316 14.316 3.206 0 6.156-1.067 8.542-2.847z" fill="url(#SVGID_25_)"/></g></svg>