<svg id="Capa_1" enable-background="new 0 0 510 510" height="512" viewBox="0 0 510 510" width="512" xmlns="http://www.w3.org/2000/svg" xmlns:xlink="http://www.w3.org/1999/xlink"><linearGradient id="lg1"><stop offset="0" stop-color="#76ccf8"/><stop offset=".833" stop-color="#518ef8"/><stop offset="1" stop-color="#4981f8"/></linearGradient><linearGradient id="SVGID_1_" gradientUnits="userSpaceOnUse" x1="23.923" x2="302.526" xlink:href="#lg1" y1="404.688" y2="404.688"/><linearGradient id="lg2"><stop offset="0" stop-color="#4071f7" stop-opacity="0"/><stop offset="1" stop-color="#30569f"/></linearGradient><linearGradient id="SVGID_2_" gradientUnits="userSpaceOnUse" x1="232.375" x2="271.042" xlink:href="#lg2" y1="413.276" y2="387.276"/><linearGradient id="SVGID_3_" gradientUnits="userSpaceOnUse" x1="23.923" x2="302.526" xlink:href="#lg1" y1="334.771" y2="334.771"/><linearGradient id="SVGID_4_" gradientUnits="userSpaceOnUse" x1="118" x2="171.338" xlink:href="#lg2" y1="334.771" y2="334.771"/><linearGradient id="SVGID_5_" gradientUnits="userSpaceOnUse" x1="23.923" x2="302.526" xlink:href="#lg1" y1="264.853" y2="264.853"/><linearGradient id="SVGID_6_" gradientUnits="userSpaceOnUse" x1="96.094" x2="144.094" xlink:href="#lg2" y1="275.351" y2="220.684"/><linearGradient id="lg3"><stop offset="0" stop-color="#eef4ff"/><stop offset="1" stop-color="#cfe7fd"/></linearGradient><linearGradient id="SVGID_7_" gradientUnits="userSpaceOnUse" x1="262.492" x2="286.258" xlink:href="#lg3" y1="224.631" y2="247.756"/><linearGradient id="lg4"><stop offset="0" stop-color="#8aaadc" stop-opacity="0"/><stop offset="1" stop-color="#8aaadc"/></linearGradient><linearGradient id="SVGID_8_" gradientUnits="userSpaceOnUse" x1="221.044" x2="299.615" xlink:href="#lg4" y1="183.053" y2="261.625"/><linearGradient id="SVGID_9_" gradientUnits="userSpaceOnUse" x1="311.623" x2="270.934" xlink:href="#lg4" y1="230.21" y2="165.301"/><linearGradient id="SVGID_10_" gradientUnits="userSpaceOnUse" x1="152.287" x2="496.715" xlink:href="#lg3" y1="-23.382" y2="321.046"/><linearGradient id="SVGID_11_" gradientUnits="userSpaceOnUse" x1="324" x2="281.132" xlink:href="#lg4" y1="379.692" y2="411.537"/><linearGradient id="SVGID_12_" gradientUnits="userSpaceOnUse" x1="159.752" x2="135.734" xlink:href="#lg4" y1="200.648" y2="244.203"/><g><g><path d="m342.744 307.09c-10.284-10.284-26.96-10.285-37.245.001l-157.95 157.95c-10.285 10.285-10.285 26.96.001 37.245 5.142 5.142 11.882 7.714 18.622 7.714s13.48-2.571 18.623-7.714l157.95-157.95c10.285-10.285 10.285-26.961-.001-37.246z" fill="url(#SVGID_1_)"/><path d="m342.744 307.09c-10.284-10.284-26.96-10.285-37.245.001l-157.95 157.95c-10.285 10.285-10.285 26.96.001 37.245 5.142 5.142 11.882 7.714 18.622 7.714s13.48-2.571 18.623-7.714l157.95-157.95c10.285-10.285 10.285-26.961-.001-37.246z" fill="url(#SVGID_2_)"/><path d="m272.827 237.173c-10.284-10.285-26.96-10.285-37.245 0l-157.95 157.95c-10.285 10.286-10.285 26.961 0 37.246 5.142 5.143 11.882 7.714 18.622 7.714s13.48-2.572 18.623-7.714l157.95-157.95c10.286-10.286 10.286-26.961 0-37.246z" fill="url(#SVGID_3_)"/><path d="m272.827 237.173c-10.284-10.285-26.96-10.285-37.245 0l-157.95 157.95c-10.285 10.286-10.285 26.961 0 37.246 5.142 5.143 11.882 7.714 18.622 7.714s13.48-2.572 18.623-7.714l157.95-157.95c10.286-10.286 10.286-26.961 0-37.246z" fill="url(#SVGID_4_)"/><path d="m202.91 167.256c-10.285-10.285-26.961-10.285-37.245 0l-157.951 157.949c-10.285 10.285-10.285 26.961-.001 37.246 5.143 5.143 11.882 7.714 18.623 7.714 6.74 0 13.481-2.572 18.622-7.713l157.951-157.95c10.286-10.286 10.286-26.961.001-37.246z" fill="url(#SVGID_5_)"/><path d="m202.91 167.256c-10.285-10.285-26.961-10.285-37.245 0l-157.951 157.949c-10.285 10.285-10.285 26.961-.001 37.246 5.143 5.143 11.882 7.714 18.623 7.714 6.74 0 13.481-2.572 18.622-7.713l157.951-157.95c10.286-10.286 10.286-26.961.001-37.246z" fill="url(#SVGID_6_)"/></g><g><path d="m151.277 228.004v140.919c0 9.966 12.05 14.958 19.097 7.91l209.727-202.232v-92.793z" fill="url(#SVGID_7_)"/><path d="m151.277 228.004v140.919c0 9.966 12.05 14.958 19.097 7.91l209.727-202.232v-92.793z" fill="url(#SVGID_8_)"/><path d="m151.277 228.004v4.056l83.078 83.079 145.746-140.538v-92.793z" fill="url(#SVGID_9_)"/></g><g><path d="m483.512.739-473.49 126.875c-11.668 3.127-13.688 18.822-3.192 24.801l131.703 75.195c11.174 6.38 24.896 6.346 36.039-.088l172.828-99.8c18.616-10.75 37.386 13.728 22.175 28.918l-131.96 131.773c-8.985 8.972-10.321 23.064-3.184 33.566l123.154 181.191c5.979 10.497 21.675 8.477 24.801-3.192l126.875-473.49c4.189-15.633-10.116-29.938-25.749-25.749z" fill="url(#SVGID_10_)"/></g><g><path d="m281.669 274.741c-6.936-10.204-5.847-23.785 2.462-32.778l-46.515 46.449c-8.985 8.972-10.321 23.064-3.184 33.566l123.153 181.192c5.979 10.497 21.675 8.477 24.801-3.192l14.809-55.267z" fill="url(#SVGID_11_)"/><path d="m341.292 184.815 46.165-46.1c19.718-19.69-4.614-51.421-28.745-37.486l-136.902 79.055c-11.143 6.435-24.865 6.468-36.039.088l-119.028-67.957-56.721 15.199c-11.668 3.127-13.688 18.822-3.192 24.801l131.703 75.195c11.174 6.38 24.896 6.346 36.039-.088l136.902-79.054c23.673-13.671 47.533 16.603 29.818 36.347z" fill="url(#SVGID_12_)"/></g></g></svg>