<svg id="Capa_1" enable-background="new 0 0 510 510" height="512" viewBox="0 0 510 510" width="512" xmlns="http://www.w3.org/2000/svg" xmlns:xlink="http://www.w3.org/1999/xlink"><linearGradient id="lg1"><stop offset="0" stop-color="#76ccf8"/><stop offset=".833" stop-color="#518ef8"/><stop offset="1" stop-color="#4981f8"/></linearGradient><linearGradient id="SVGID_1_" gradientUnits="userSpaceOnUse" x1="-37.37" x2="265.18" xlink:href="#lg1" y1="-14.63" y2="287.92"/><linearGradient id="SVGID_2_" gradientUnits="userSpaceOnUse" x1="201.894" x2="201.894" y1="199.551" y2="430.174"><stop offset="0" stop-color="#4071f7" stop-opacity="0"/><stop offset="1" stop-color="#30569f"/></linearGradient><linearGradient id="lg2"><stop offset="0" stop-color="#eef4ff"/><stop offset="1" stop-color="#cfe7fd"/></linearGradient><linearGradient id="SVGID_3_" gradientUnits="userSpaceOnUse" x1="51.851" x2="472.206" xlink:href="#lg2" y1="75.993" y2="496.348"/><linearGradient id="lg3"><stop offset="0" stop-color="#8aaadc" stop-opacity="0"/><stop offset="1" stop-color="#8aaadc"/></linearGradient><linearGradient id="SVGID_4_" gradientUnits="userSpaceOnUse" x1="385.965" x2="359.965" xlink:href="#lg3" y1="192.282" y2="129.282"/><linearGradient id="SVGID_5_" gradientUnits="userSpaceOnUse" x1="255.894" x2="255.894" xlink:href="#lg3" y1="386.789" y2="512.819"/><linearGradient id="SVGID_6_" gradientUnits="userSpaceOnUse" x1="295.053" x2="295.053" xlink:href="#lg2" y1="410.068" y2="507.32"/><linearGradient id="SVGID_7_" gradientUnits="userSpaceOnUse" x1="295.053" x2="295.053" xlink:href="#lg3" y1="456" y2="525.116"/><linearGradient id="SVGID_8_" gradientUnits="userSpaceOnUse" x1="365.54" x2="365.54" xlink:href="#lg3" y1="281.667" y2="152.665"/><linearGradient id="SVGID_9_" gradientUnits="userSpaceOnUse" x1="322.602" x2="437.155" y1="78.748" y2="193.301"><stop offset="0" stop-color="#f7e07d"/><stop offset="1" stop-color="#e69642"/></linearGradient><linearGradient id="lg4"><stop offset="0" stop-color="#5a5a5a"/><stop offset="1" stop-color="#464646"/></linearGradient><linearGradient id="SVGID_10_" gradientUnits="userSpaceOnUse" x1="168.597" x2="468.898" xlink:href="#lg4" y1="234.168" y2="534.468"/><linearGradient id="SVGID_11_" gradientUnits="userSpaceOnUse" x1="168.597" x2="468.898" xlink:href="#lg4" y1="198.235" y2="498.536"/><linearGradient id="SVGID_12_" gradientUnits="userSpaceOnUse" x1="287.654" x2="425.249" xlink:href="#lg4" y1="213.246" y2="350.841"/><linearGradient id="SVGID_13_" gradientUnits="userSpaceOnUse" x1="145.055" x2="200.055" xlink:href="#lg1" y1="146.396" y2="247.396"/><linearGradient id="SVGID_14_" gradientUnits="userSpaceOnUse" x1="202.837" x2="257.837" xlink:href="#lg1" y1="114.93" y2="215.93"/><linearGradient id="SVGID_15_" gradientUnits="userSpaceOnUse" x1="130.333" x2="187.552" xlink:href="#lg1" y1="67.667" y2="124.885"/><linearGradient id="SVGID_16_" gradientUnits="userSpaceOnUse" x1="341.043" x2="374.273" xlink:href="#lg3" y1="351.64" y2="384.87"/><linearGradient id="SVGID_17_" gradientUnits="userSpaceOnUse" x1="276.238" x2="308.273" xlink:href="#lg3" y1="354.779" y2="386.814"/><linearGradient id="SVGID_18_" gradientUnits="userSpaceOnUse" x1="210.456" x2="247.932" xlink:href="#lg3" y1="355.789" y2="393.265"/><g><path d="m296.033 454.599h-232.578c-14.418 0-26.106-11.688-26.106-26.106v-411.485c.001-9.393 7.615-17.008 17.009-17.008h295.073c9.393 0 17.008 7.615 17.008 17.008v367.184c0 38.885-31.522 70.407-70.406 70.407z" fill="url(#SVGID_1_)"/><path d="m37.35 153v275.493c0 14.418 11.688 26.106 26.106 26.106h232.578c38.884 0 70.406-31.522 70.406-70.406v-231.193z" fill="url(#SVGID_2_)"/><path d="m350.033 510h-232.578c-14.418 0-26.106-11.688-26.106-26.106v-411.484c0-9.393 7.615-17.008 17.008-17.008h295.073c9.393 0 17.008 7.615 17.008 17.008v367.184c.001 38.884-31.521 70.406-70.405 70.406z" fill="url(#SVGID_3_)"/><path d="m420.439 144.462-26.631-29.962h-51.271c-15.844 0-28.687 12.844-28.687 28.687 0 15.844 12.844 28.687 28.687 28.687h77.902z" fill="url(#SVGID_4_)"/><g><path d="m366.734 133.863h-220.664c-8.266 0-14.967-6.701-14.967-14.967v-23.757c0-8.266 6.701-14.967 14.967-14.967h220.665c8.266 0 14.967 6.701 14.967 14.967v23.757c-.001 8.266-6.702 14.967-14.968 14.967z" fill="#fff"/></g><path d="m91.35 388.701v95.193c0 14.418 11.688 26.106 26.106 26.106h232.578c38.884 0 70.406-31.522 70.406-70.406v-50.893z" fill="url(#SVGID_5_)"/><path d="m143.561 427.076v56.818c0 14.418-11.688 26.106-26.106 26.106h284.789c38.884 0 70.406-31.522 70.406-70.406v-12.518c0-9.393-7.615-17.008-17.008-17.008h-295.073c-9.393 0-17.008 7.615-17.008 17.008z" fill="url(#SVGID_6_)"/><path d="m143.561 427.076v56.818c0 14.418-11.688 26.106-26.106 26.106h284.789c38.884 0 70.406-31.522 70.406-70.406v-12.518c0-9.393-7.615-17.008-17.008-17.008h-295.073c-9.393 0-17.008 7.615-17.008 17.008z" fill="url(#SVGID_7_)"/><path d="m420.439 165h-109.798v7.708l109.798 110.048z" fill="url(#SVGID_8_)"/><path d="m393.575 183.402h-56.921c-20.48 0-37.14-16.66-37.14-37.14 0-10.818 4.649-20.571 12.053-27.365 6.613-6.068 15.425-9.775 25.086-9.775h46.861c6.91 0 12.5 5.6 12.5 12.5s-5.59 12.5-12.5 12.5h-46.861c-6.7 0-12.14 5.45-12.14 12.14s5.44 12.14 12.14 12.14h56.921c.83 0 1.65-.03 2.46-.1 10.07-.75 18.89-6.05 24.4-13.84 3.77-5.35 6-11.88 6-18.92 0-7.03-2.23-13.56-6-18.91v-32.32c18.42 9.69 31 29.02 31 51.23 0 22.22-12.58 41.55-31 51.23-7.35 3.87-15.62 6.2-24.4 6.57-.809.04-1.629.06-2.459.06z" fill="url(#SVGID_9_)"/><g><path d="m374.974 317.471h-224.704c-3.521 0-6.375 2.854-6.375 6.375v8.694c0 3.521 2.854 6.375 6.375 6.375h224.704c3.521 0 6.375-2.854 6.375-6.375v-8.694c.001-3.521-2.854-6.375-6.375-6.375z" fill="url(#SVGID_10_)"/><path d="m374.974 281.539h-224.704c-3.521 0-6.375 2.854-6.375 6.375v8.693c0 3.521 2.854 6.375 6.375 6.375h224.704c3.521 0 6.375-2.854 6.375-6.375v-8.693c.001-3.521-2.854-6.375-6.375-6.375z" fill="url(#SVGID_11_)"/><path d="m374.974 245.606h-88.478c-3.521 0-6.375 2.854-6.375 6.375v8.693c0 3.521 2.854 6.375 6.375 6.375h88.478c3.521 0 6.375-2.854 6.375-6.375v-8.693c.001-3.521-2.854-6.375-6.375-6.375z" fill="url(#SVGID_12_)"/></g><g><path d="m186.222 191.292 9.366-20.227c1.124-2.249 1.497-4.121 1.497-5.993 0-9.366-10.863-14.609-18.729-14.609-4.121 0-8.989 1.499-11.238 6.742-22.1 51.318-23.223 55.439-23.223 59.934 0 15.358 13.11 28.468 28.843 28.468s28.468-13.11 28.468-28.843c0-10.863-5.993-20.229-14.984-25.472z" fill="url(#SVGID_13_)"/><path d="m261.14 191.292 9.364-20.227c1.124-2.249 1.499-4.121 1.499-5.993 0-9.366-10.863-14.609-18.729-14.609-4.121 0-8.991 1.499-11.238 6.742-22.101 51.318-23.225 55.439-23.225 59.934 0 15.358 13.11 28.468 28.843 28.468s28.468-13.11 28.468-28.843c0-10.863-5.993-20.229-14.982-25.472z" fill="url(#SVGID_14_)"/></g><path d="m193.299 133.863h-47.229c-8.266 0-14.967-6.701-14.967-14.967v-23.757c0-8.266 6.701-14.967 14.967-14.967h47.229c8.266 0 14.967 6.701 14.967 14.967v23.757c-.001 8.266-6.702 14.967-14.967 14.967z" fill="url(#SVGID_15_)"/><g><path d="m169.9 113.74c0 2.505.864 3.369 3.542 3.369h3.715c3.887 0 5.701 2.851 5.701 5.615 0 2.85-1.814 5.615-5.701 5.615h-3.715c-10.971 0-16.931-4.406-16.931-14.599v-23.984c0-2.419 3.542-4.06 6.652-4.06 3.369 0 6.738 1.641 6.738 4.06v6.748h5.087c2.16 0 3.283 2.419 3.283 4.751 0 2.419-1.123 4.751-3.283 4.751h-5.088z" fill="#fff"/></g><g><path d="m359.35 392.816c-.799 0-1.598-.189-2.313-.547-2.16-1.081-6.378-3.399-10.356-6.778-5.176-4.396-8.244-9.114-9.118-14.023-.679-3.814.291-7.707 2.661-10.682 2.196-2.755 5.307-4.365 8.761-4.533.203-.01.409-.015.611-.015 3.236 0 6.291 1.247 8.602 3.512.417.409.802.843 1.153 1.299.351-.456.736-.89 1.153-1.299 2.311-2.264 5.366-3.511 8.602-3.511.203 0 .408.005.611.015 3.454.168 6.565 1.778 8.761 4.533 2.371 2.975 3.341 6.868 2.661 10.682-.875 4.909-3.942 9.628-9.118 14.023-3.979 3.379-8.196 5.697-10.356 6.778-.717.357-1.517.546-2.315.546z" fill="url(#SVGID_16_)"/><path d="m297.252 356.238c9.412 0 17.041 7.63 17.041 17.041 0 9.412-7.63 17.041-17.041 17.041-.991 0-1.961-.089-2.905-.252l-5.146 2.556c-1.279.636-2.752-.407-2.578-1.825l.472-3.838c-4.177-3.106-6.884-8.078-6.884-13.683-.001-9.41 7.629-17.04 17.041-17.04z" fill="url(#SVGID_17_)"/><path d="m240.793 392.816c-4.12 0-8.239-1.379-11.599-4.136-7.18 5.893-17.833 5.489-24.537-1.215-3.456-3.456-5.359-8.051-5.359-12.938 0-4.888 1.903-9.482 5.359-12.938 6.703-6.704 17.357-7.108 24.537-1.215 7.18-5.893 17.833-5.489 24.537 1.215 3.456 3.456 5.359 8.051 5.359 12.938 0 4.888-1.903 9.482-5.359 12.938-3.567 3.567-8.253 5.351-12.938 5.351zm-6.47-18.289 3.235 3.235c.864.864 2.013 1.34 3.234 1.34s2.37-.476 3.234-1.34c.865-.864 1.34-2.013 1.34-3.235s-.475-2.37-1.34-3.235c-.864-.864-2.013-1.34-3.234-1.34s-2.37.476-3.234 1.34zm-16.728-4.575c-1.221 0-2.37.476-3.234 1.34-.865.864-1.34 2.013-1.34 3.235s.475 2.37 1.34 3.235c.864.864 2.013 1.34 3.234 1.34s2.37-.476 3.234-1.34l3.235-3.235-3.235-3.235c-.863-.864-2.012-1.34-3.234-1.34z" fill="url(#SVGID_18_)"/></g></g></svg>