<svg id="Capa_1" enable-background="new 0 0 510 510" height="512" viewBox="0 0 510 510" width="512" xmlns="http://www.w3.org/2000/svg" xmlns:xlink="http://www.w3.org/1999/xlink"><linearGradient id="SVGID_1_" gradientUnits="userSpaceOnUse" x1="210.356" x2="489.444" y1="65.185" y2="344.272"><stop offset="0" stop-color="#76ccf8"/><stop offset=".833" stop-color="#518ef8"/><stop offset="1" stop-color="#4981f8"/></linearGradient><linearGradient id="lg1"><stop offset="0" stop-color="#4071f7" stop-opacity="0"/><stop offset="1" stop-color="#30569f"/></linearGradient><linearGradient id="SVGID_2_" gradientUnits="userSpaceOnUse" x1="350.961" x2="350.961" xlink:href="#lg1" y1="313.58" y2="411.707"/><linearGradient id="SVGID_3_" gradientUnits="userSpaceOnUse" x1="507.961" x2="390.961" xlink:href="#lg1" y1="234.94" y2="234.94"/><linearGradient id="SVGID_4_" gradientUnits="userSpaceOnUse" x1="85.186" x2="387.877" y1="85.186" y2="387.877"><stop offset="0" stop-color="#f7e07d"/><stop offset="1" stop-color="#e69642"/></linearGradient><linearGradient id="lg2"><stop offset="0" stop-color="#d52c1c" stop-opacity="0"/><stop offset=".28" stop-color="#d12c1e" stop-opacity=".28"/><stop offset=".5735" stop-color="#c42c23" stop-opacity=".574"/><stop offset=".8721" stop-color="#af2b2c" stop-opacity=".872"/><stop offset="1" stop-color="#a42b31"/></linearGradient><linearGradient id="SVGID_5_" gradientUnits="userSpaceOnUse" x1="255" x2="255" xlink:href="#lg2" y1="362.79" y2="460.917"/><linearGradient id="SVGID_6_" gradientUnits="userSpaceOnUse" x1="412" x2="295" xlink:href="#lg2" y1="284.15" y2="284.15"/><linearGradient id="SVGID_7_" gradientUnits="userSpaceOnUse" x1="18.434" x2="297.522" y1="163.605" y2="442.693"><stop offset="0" stop-color="#eef4ff"/><stop offset="1" stop-color="#cfe7fd"/></linearGradient><linearGradient id="lg3"><stop offset="0" stop-color="#8aaadc" stop-opacity="0"/><stop offset="1" stop-color="#8aaadc"/></linearGradient><linearGradient id="SVGID_8_" gradientUnits="userSpaceOnUse" x1="159.039" x2="159.039" xlink:href="#lg3" y1="412" y2="510.128"/><linearGradient id="lg4"><stop offset="0" stop-color="#5a5a5a"/><stop offset="1" stop-color="#464646"/></linearGradient><linearGradient id="SVGID_9_" gradientUnits="userSpaceOnUse" x1="41.216" x2="276.861" xlink:href="#lg4" y1="358.203" y2="358.203"/><linearGradient id="SVGID_10_" gradientUnits="userSpaceOnUse" x1="41.216" x2="276.861" xlink:href="#lg4" y1="404.135" y2="404.135"/><linearGradient id="SVGID_11_" gradientUnits="userSpaceOnUse" x1="41.216" x2="220.065" xlink:href="#lg4" y1="450.068" y2="450.068"/><linearGradient id="SVGID_12_" gradientUnits="userSpaceOnUse" x1="19.891" x2="106.361" y1="163.907" y2="250.376"><stop offset="0" stop-color="#9d66d6"/><stop offset="1" stop-color="#453d81"/></linearGradient><linearGradient id="SVGID_13_" gradientUnits="userSpaceOnUse" x1="82.378" x2="276.163" xlink:href="#lg3" y1="106.622" y2="300.407"/><g><g><path d="m485.156 411.579h-268.389c-13.721 0-24.844-11.123-24.844-24.844v-361.891c-.001-13.721 11.123-24.844 24.844-24.844h268.389c13.721 0 24.844 11.123 24.844 24.844v361.891c0 13.721-11.123 24.844-24.844 24.844z" fill="url(#SVGID_1_)"/><path d="m510 386.735v-100.276h-318.078v100.276c0 13.721 11.123 24.844 24.844 24.844h268.389c13.722 0 24.845-11.123 24.845-24.844z" fill="url(#SVGID_2_)"/><path d="m408.403 58.299v353.28h76.752c13.721 0 24.844-11.123 24.844-24.844v-226.839z" fill="url(#SVGID_3_)"/></g><g><path d="m389.194 460.79h-268.388c-13.721 0-24.844-11.123-24.844-24.844v-361.891c0-13.721 11.123-24.844 24.844-24.844h268.389c13.721 0 24.844 11.123 24.844 24.844v361.891c0 13.721-11.123 24.844-24.845 24.844z" fill="url(#SVGID_4_)"/><path d="m414.039 435.945v-100.276h-318.078v100.276c0 13.721 11.123 24.844 24.844 24.844h268.389c13.722.001 24.845-11.123 24.845-24.844z" fill="url(#SVGID_5_)"/><path d="m312.442 107.51v353.28h76.752c13.721 0 24.844-11.123 24.844-24.844v-226.84z" fill="url(#SVGID_6_)"/></g><g><g><path d="m293.233 510h-268.389c-13.721 0-24.844-11.123-24.844-24.844v-361.891c0-13.721 11.123-24.844 24.844-24.844h268.389c13.721 0 24.844 11.123 24.844 24.844v361.891c.001 13.721-11.123 24.844-24.844 24.844z" fill="url(#SVGID_7_)"/><path d="m318.078 485.156v-100.276h-318.078v100.276c0 13.721 11.123 24.844 24.844 24.844h268.389c13.721 0 24.845-11.123 24.845-24.844z" fill="url(#SVGID_8_)"/></g><g><path d="m270.486 368.924h-222.894c-3.521 0-6.375-2.854-6.375-6.375v-8.693c0-3.521 2.854-6.375 6.375-6.375h222.895c3.521 0 6.375 2.854 6.375 6.375v8.693c-.001 3.521-2.855 6.375-6.376 6.375z" fill="url(#SVGID_9_)"/><path d="m270.486 414.857h-222.894c-3.521 0-6.375-2.854-6.375-6.375v-8.693c0-3.521 2.854-6.375 6.375-6.375h222.895c3.521 0 6.375 2.854 6.375 6.375v8.693c-.001 3.521-2.855 6.375-6.376 6.375z" fill="url(#SVGID_10_)"/><path d="m213.689 460.79h-166.097c-3.521 0-6.375-2.854-6.375-6.375v-8.693c0-3.521 2.854-6.375 6.375-6.375h166.098c3.521 0 6.375 2.854 6.375 6.375v8.693c-.001 3.52-2.855 6.375-6.376 6.375z" fill="url(#SVGID_11_)"/></g><g><path d="m63.616 183.08-6.307 3.914c-1.957 1.305-3.915 1.74-5.437 1.74-6.307 0-10.656-6.742-10.656-13.483 0-4.566 1.958-8.916 6.307-11.525l28.706-17.397c1.74-1.088 3.914-1.522 6.306-1.522 6.959 0 15.005 4.132 15.005 10.656v138.31c0 6.959-8.481 10.438-16.962 10.438s-16.962-3.479-16.962-10.438z" fill="url(#SVGID_12_)"/></g><path d="m265.467 304.21h-130.406c-6.293 0-11.394-5.101-11.394-11.394v-136.616c0-6.293 5.101-11.394 11.394-11.394h130.405c6.293 0 11.394 5.101 11.394 11.394v136.616c.001 6.293-5.1 11.394-11.393 11.394z" fill="url(#SVGID_13_)"/></g></g></svg>