<svg id="Capa_1" enable-background="new 0 0 510 510" height="512" viewBox="0 0 510 510" width="512" xmlns="http://www.w3.org/2000/svg" xmlns:xlink="http://www.w3.org/1999/xlink"><linearGradient id="lg1"><stop offset="0" stop-color="#eef4ff"/><stop offset="1" stop-color="#cfe7fd"/></linearGradient><linearGradient id="SVGID_1_" gradientUnits="userSpaceOnUse" x1="192.32" x2="320.511" xlink:href="#lg1" y1="33.68" y2="161.871"/><linearGradient id="lg2"><stop offset="0" stop-color="#8aaadc" stop-opacity="0"/><stop offset="1" stop-color="#8aaadc"/></linearGradient><linearGradient id="SVGID_2_" gradientUnits="userSpaceOnUse" x1="258.285" x2="258.285" xlink:href="#lg2" y1="132" y2="162"/><linearGradient id="lg3"><stop offset="0" stop-color="#5a5a5a"/><stop offset="1" stop-color="#464646"/></linearGradient><linearGradient id="SVGID_3_" gradientUnits="userSpaceOnUse" x1="192.766" x2="313.545" xlink:href="#lg3" y1="34.126" y2="154.904"/><linearGradient id="lg4"><stop offset="0" stop-color="#464646" stop-opacity="0"/><stop offset="1" stop-color="#202020"/></linearGradient><linearGradient id="SVGID_4_" gradientUnits="userSpaceOnUse" x1="192.766" x2="313.545" xlink:href="#lg4" y1="34.126" y2="154.904"/><linearGradient id="SVGID_5_" gradientUnits="userSpaceOnUse" x1="22.172" x2="128.474" xlink:href="#lg1" y1="62.828" y2="169.129"/><linearGradient id="SVGID_6_" gradientUnits="userSpaceOnUse" x1="79.32" x2="79.32" xlink:href="#lg2" y1="129" y2="163.015"/><linearGradient id="SVGID_7_" gradientUnits="userSpaceOnUse" x1="34.401" x2="117.202" xlink:href="#lg3" y1="75.056" y2="157.857"/><linearGradient id="SVGID_8_" gradientUnits="userSpaceOnUse" x1="34.401" x2="117.202" xlink:href="#lg4" y1="75.056" y2="157.857"/><linearGradient id="lg5"><stop offset="0" stop-color="#9d66d6"/><stop offset="1" stop-color="#453d81"/></linearGradient><linearGradient id="SVGID_9_" gradientUnits="userSpaceOnUse" x1="314.599" x2="538.906" xlink:href="#lg5" y1="211.279" y2="435.586"/><linearGradient id="lg6"><stop offset="0" stop-color="#453d81" stop-opacity="0"/><stop offset="1" stop-color="#453d81"/></linearGradient><linearGradient id="SVGID_10_" gradientUnits="userSpaceOnUse" x1="461" x2="536.71" xlink:href="#lg6" y1="332.964" y2="332.964"/><linearGradient id="SVGID_11_" gradientUnits="userSpaceOnUse" x1="470.363" x2="352.363" xlink:href="#lg6" y1="381.246" y2="344.746"/><linearGradient id="SVGID_12_" gradientUnits="userSpaceOnUse" x1="18.39" x2="357.96" xlink:href="#lg5" y1="174.318" y2="513.889"/><linearGradient id="SVGID_13_" gradientUnits="userSpaceOnUse" x1="177.036" x2="177.036" xlink:href="#lg6" y1="446.685" y2="510.466"/><linearGradient id="SVGID_14_" gradientUnits="userSpaceOnUse" x1="416.842" x2="181.354" xlink:href="#lg6" y1="544.019" y2="370.028"/><linearGradient id="SVGID_15_" gradientUnits="userSpaceOnUse" x1="81.52" x2="252.579" y1="259.48" y2="430.538"><stop offset="0" stop-color="#f7e07d"/><stop offset="1" stop-color="#e69642"/></linearGradient><linearGradient id="lg7"><stop offset="0" stop-color="#d52c1c" stop-opacity="0"/><stop offset=".28" stop-color="#d12c1e" stop-opacity=".28"/><stop offset=".5735" stop-color="#c42c23" stop-opacity=".574"/><stop offset=".8721" stop-color="#af2b2c" stop-opacity=".872"/><stop offset="1" stop-color="#a42b31"/></linearGradient><linearGradient id="SVGID_16_" gradientUnits="userSpaceOnUse" x1="234.047" x2="44.187" xlink:href="#lg7" y1="318.185" y2="508.046"/><linearGradient id="SVGID_17_" gradientUnits="userSpaceOnUse" x1="208.616" x2="123.03" xlink:href="#lg7" y1="343.616" y2="429.202"/><g><g><g><circle cx="258.288" cy="99.648" fill="url(#SVGID_1_)" r="99.648"/><path d="m355.86 119.98c-9.39 45.28-49.51 79.32-97.57 79.32-48.07 0-88.19-34.04-97.58-79.32z" fill="url(#SVGID_2_)"/><circle cx="258.288" cy="99.648" fill="url(#SVGID_3_)" r="64.648"/><circle cx="258.288" cy="99.648" fill="url(#SVGID_4_)" r="64.648"/></g><g><circle cx="79.32" cy="119.975" fill="url(#SVGID_5_)" r="79.32"/><path d="m158.64 119.98c0 43.8-35.51 79.32-79.32 79.32s-79.32-35.52-79.32-79.32z" fill="url(#SVGID_6_)"/><circle cx="79.32" cy="119.975" fill="url(#SVGID_7_)" r="44.32"/><circle cx="79.32" cy="119.975" fill="url(#SVGID_8_)" r="44.32"/></g></g><g><path d="m308.208 372.343 133.587 77.125c30.314 17.501 68.205-4.376 68.205-39.378v-154.251c0-35.003-37.891-56.879-68.205-39.378l-133.587 77.125c-30.313 17.501-30.313 61.255 0 78.757z" fill="url(#SVGID_9_)"/><path d="m308.208 372.343 133.587 77.125c30.314 17.501 68.205-4.376 68.205-39.378v-154.251c0-35.003-37.891-56.879-68.205-39.378l-133.587 77.125c-30.313 17.501-30.313 61.255 0 78.757z" fill="url(#SVGID_10_)"/><path d="m354.205 267.031-45.997 26.556c-30.314 17.501-30.314 61.255 0 78.757l133.587 77.125c26.882 15.52 59.72.07 66.81-28.037z" fill="url(#SVGID_11_)"/><g><path d="m289.897 510h-225.723c-35.442 0-64.174-28.732-64.174-64.174v-225.723c0-35.442 28.732-64.174 64.174-64.174h225.723c35.442 0 64.174 28.732 64.174 64.174v225.723c0 35.442-28.732 64.174-64.174 64.174z" fill="url(#SVGID_12_)"/><path d="m0 384.452v61.374c0 35.442 28.732 64.174 64.174 64.174h225.723c35.442 0 64.174-28.732 64.174-64.174v-61.374z" fill="url(#SVGID_13_)"/><path d="m354.071 445.826v-109.574l-37.135-37.135c-1.653-3.879-5.161-6.988-10.007-7.692l-37.316-5.422-80.996-80.536c-4.737-9.599-17.424-8.599-22.162 1l-33.617 67.115c-1.843 3.734-6.405 7.322-10.526 7.921l-75.169 10.923c-10.593 1.539-13.822 13.557-6.157 21.028l57.178 56.108c.946 2.211 1.272 5.672.854 8.11l-12.84 74.866c-1.092 6.368 1.512 11.818 6.622 14.047l43.416 43.415h153.681c35.442 0 64.174-28.732 64.174-64.174z" fill="url(#SVGID_14_)"/></g></g><g><path d="m188.616 205.465 33.617 68.115c1.843 3.734 5.405 6.322 9.526 6.921l75.169 10.923c10.593 1.539 14.822 14.557 7.157 22.028l-54.393 53.02c-2.982 2.906-4.342 7.094-3.638 11.198l12.84 74.866c1.809 10.55-9.264 18.595-18.738 13.614l-67.234-35.347c-3.686-1.938-8.089-1.938-11.774 0l-67.234 35.347c-9.474 4.981-20.548-3.064-18.738-13.614l12.84-74.866c.704-4.104-.657-8.292-3.638-11.198l-54.393-53.02c-7.665-7.471-3.435-20.489 7.157-22.028l75.169-10.923c4.121-.599 7.683-3.187 9.526-6.921l33.617-68.115c4.738-9.598 18.425-9.598 23.162 0z" fill="url(#SVGID_15_)"/><path d="m259.69 366.47c-2.98 2.91-4.34 7.1-3.64 11.2l12.84 74.87c1.81 10.55-9.26 18.59-18.73 13.61l-67.24-35.35c-3.68-1.93-8.09-1.93-11.77 0l-67.24 35.35c-9.47 4.98-20.54-3.06-18.73-13.61l12.84-74.87c.35-2.04.19-4.1-.43-6.01l23.482-11.438c34.241-16.679 55.968-51.429 55.968-89.516v-72.436c4.6 0 9.21 2.4 11.58 7.2l33.61 68.11c1.85 3.73 5.41 6.32 9.53 6.92l75.17 10.92c10.59 1.54 14.82 14.56 7.16 22.03z" fill="url(#SVGID_16_)"/><path d="m306.928 291.424-75.169-10.923c-4.121-.599-7.683-3.187-9.526-6.921l-33.617-68.115c-2.367-4.797-6.97-7.196-11.574-7.199l-.002.003v231.081c2.021.001 4.041.485 5.883 1.453l67.234 35.347c9.474 4.981 20.548-3.064 18.738-13.614l-12.841-74.866c-.704-4.104.657-8.292 3.638-11.198l54.393-53.02c7.666-7.471 3.436-20.489-7.157-22.028z" fill="url(#SVGID_17_)"/></g></g></svg>