<svg id="Capa_1" enable-background="new 0 0 510 510" height="512" viewBox="0 0 510 510" width="512" xmlns="http://www.w3.org/2000/svg" xmlns:xlink="http://www.w3.org/1999/xlink"><linearGradient id="lg1"><stop offset="0" stop-color="#e38523"/><stop offset=".7304" stop-color="#db4735"/><stop offset="1" stop-color="#d82f3c"/></linearGradient><linearGradient id="SVGID_1_" gradientUnits="userSpaceOnUse" x1="-17.735" x2="187.171" xlink:href="#lg1" y1="42.177" y2="247.083"/><linearGradient id="SVGID_2_" gradientUnits="userSpaceOnUse" x1="164.724" x2="164.724" y1="287.263" y2="432.949"><stop offset="0" stop-color="#8a1958" stop-opacity="0"/><stop offset="1" stop-color="#8a1958"/></linearGradient><linearGradient id="lg2"><stop offset="0" stop-color="#eef4ff"/><stop offset="1" stop-color="#cfe7fd"/></linearGradient><linearGradient id="SVGID_3_" gradientUnits="userSpaceOnUse" x1="15.099" x2="435.454" xlink:href="#lg2" y1="75.993" y2="496.348"/><linearGradient id="lg3"><stop offset="0" stop-color="#8aaadc" stop-opacity="0"/><stop offset="1" stop-color="#8aaadc"/></linearGradient><linearGradient id="SVGID_4_" gradientUnits="userSpaceOnUse" x1="421.917" x2="326.405" xlink:href="#lg3" y1="324.186" y2="228.675"/><linearGradient id="SVGID_5_" gradientUnits="userSpaceOnUse" x1="219.142" x2="219.142" xlink:href="#lg3" y1="393.789" y2="519.819"/><linearGradient id="SVGID_6_" gradientUnits="userSpaceOnUse" x1="258.3" x2="258.3" xlink:href="#lg2" y1="410.068" y2="507.32"/><linearGradient id="SVGID_7_" gradientUnits="userSpaceOnUse" x1="258.3" x2="258.3" xlink:href="#lg3" y1="456" y2="525.116"/><linearGradient id="lg4"><stop offset="0" stop-color="#5a5a5a"/><stop offset="1" stop-color="#464646"/></linearGradient><linearGradient id="SVGID_8_" gradientUnits="userSpaceOnUse" x1="107.143" x2="342.787" xlink:href="#lg4" y1="270.093" y2="270.093"/><linearGradient id="SVGID_9_" gradientUnits="userSpaceOnUse" x1="107.143" x2="342.787" xlink:href="#lg4" y1="316.025" y2="316.025"/><linearGradient id="SVGID_10_" gradientUnits="userSpaceOnUse" x1="107.143" x2="285.991" xlink:href="#lg4" y1="361.958" y2="361.958"/><linearGradient id="SVGID_11_" gradientUnits="userSpaceOnUse" x1="107.548" x2="239.727" y1="104.726" y2="236.905"><stop offset="0" stop-color="#76ccf8"/><stop offset=".833" stop-color="#518ef8"/><stop offset="1" stop-color="#4981f8"/></linearGradient><linearGradient id="lg5"><stop offset="0" stop-color="#464646" stop-opacity="0"/><stop offset="1" stop-color="#202020"/></linearGradient><linearGradient id="SVGID_12_" gradientUnits="userSpaceOnUse" x1="329.987" x2="295.263" xlink:href="#lg5" y1="333.116" y2="298.392"/><linearGradient id="SVGID_13_" gradientUnits="userSpaceOnUse" x1="310.035" x2="275.311" xlink:href="#lg5" y1="353.069" y2="318.344"/><linearGradient id="SVGID_14_" gradientUnits="userSpaceOnUse" x1="284.482" x2="249.758" xlink:href="#lg5" y1="378.621" y2="343.897"/><linearGradient id="SVGID_15_" gradientTransform="matrix(.707 .707 -.707 .707 203.64 -126.898)" gradientUnits="userSpaceOnUse" x1="302.928" x2="323.799" y1="-71.019" y2="-71.019"><stop offset="0" stop-color="#f7e07d"/><stop offset="1" stop-color="#e69642"/></linearGradient><linearGradient id="SVGID_16_" gradientUnits="userSpaceOnUse" x1="482.238" x2="456.737" y1="73.866" y2="48.365"><stop offset="0" stop-color="#d52c1c" stop-opacity="0"/><stop offset=".28" stop-color="#d12c1e" stop-opacity=".28"/><stop offset=".5735" stop-color="#c42c23" stop-opacity=".574"/><stop offset=".8721" stop-color="#af2b2c" stop-opacity=".872"/><stop offset="1" stop-color="#a42b31"/></linearGradient><linearGradient id="SVGID_17_" gradientTransform="matrix(.707 .707 -.707 .707 203.64 -126.898)" gradientUnits="userSpaceOnUse" x1="262.51" x2="349.957" xlink:href="#lg2" y1="128.525" y2="128.525"/><linearGradient id="SVGID_18_" gradientTransform="matrix(.707 .707 -.707 .707 203.64 -126.898)" gradientUnits="userSpaceOnUse" x1="262.51" x2="349.957" xlink:href="#lg3" y1="272.818" y2="272.818"/><linearGradient id="SVGID_19_" gradientTransform="matrix(.707 .707 2.007 -2.007 -426.051 502.793)" gradientUnits="userSpaceOnUse" x1="262.51" x2="349.957" xlink:href="#lg1" y1="297.743" y2="297.743"/><linearGradient id="SVGID_20_" gradientUnits="userSpaceOnUse" x1="467.417" x2="419.082" y1="143.02" y2="94.686"><stop offset="0" stop-color="#d52c1c" stop-opacity="0"/><stop offset="1" stop-color="#a42b31"/></linearGradient><linearGradient id="SVGID_21_" gradientTransform="matrix(.707 .707 -.707 .707 203.64 -126.898)" gradientUnits="userSpaceOnUse" x1="262.51" x2="349.957" xlink:href="#lg4" y1="188.768" y2="188.768"/><linearGradient id="SVGID_22_" gradientUnits="userSpaceOnUse" x1="414.562" x2="427.6" xlink:href="#lg2" y1="77.938" y2="90.976"/><g><path d="m312.26 0h-295.073c-9.393 0-17.008 7.615-17.008 17.008v411.485c0 14.418 11.688 26.106 26.106 26.106h232.578c38.884 0 70.406-31.522 70.406-70.406v-367.185c-.001-9.393-7.616-17.008-17.009-17.008z" fill="url(#SVGID_1_)"/><path d="m.179 263.505v164.988c0 14.418 11.688 26.106 26.106 26.106h232.578c38.884 0 70.406-31.522 70.406-70.406v-120.688z" fill="url(#SVGID_2_)"/><path d="m313.281 510h-232.578c-14.418 0-26.106-11.688-26.106-26.106v-411.484c0-9.393 7.615-17.008 17.008-17.008h295.073c9.393 0 17.008 7.615 17.008 17.008v367.184c.001 38.884-31.521 70.406-70.405 70.406z" fill="url(#SVGID_3_)"/><path d="m193.555 288.962-1.717 14.008c-.786 6.415 2.307 12.226 7.239 15.399l167.362 167.361c10.735-12.358 17.249-28.482 17.249-46.137v-367.183c0-1.617-.24-3.175-.662-4.657l-159.268 159.266c-16.698 16.699-27.33 38.503-30.203 61.943z" fill="url(#SVGID_4_)"/><path d="m54.597 388.701v95.193c0 14.418 11.688 26.106 26.106 26.106h232.578c38.884 0 70.406-31.522 70.406-70.406v-50.893z" fill="url(#SVGID_5_)"/><path d="m106.809 427.076v56.818c0 14.418-11.688 26.106-26.106 26.106h284.789c38.884 0 70.406-31.522 70.406-70.406v-12.518c0-9.393-7.615-17.008-17.008-17.008h-295.073c-9.394 0-17.008 7.615-17.008 17.008z" fill="url(#SVGID_6_)"/><path d="m106.809 427.076v56.818c0 14.418-11.688 26.106-26.106 26.106h284.789c38.884 0 70.406-31.522 70.406-70.406v-12.518c0-9.393-7.615-17.008-17.008-17.008h-295.073c-9.394 0-17.008 7.615-17.008 17.008z" fill="url(#SVGID_7_)"/><g><g><path d="m336.412 280.815h-222.894c-3.521 0-6.375-2.854-6.375-6.375v-8.693c0-3.521 2.854-6.375 6.375-6.375h222.895c3.521 0 6.375 2.854 6.375 6.375v8.693c-.001 3.52-2.855 6.375-6.376 6.375z" fill="url(#SVGID_8_)"/><path d="m336.412 326.747h-222.894c-3.521 0-6.375-2.854-6.375-6.375v-8.693c0-3.521 2.854-6.375 6.375-6.375h222.895c3.521 0 6.375 2.854 6.375 6.375v8.693c-.001 3.521-2.855 6.375-6.376 6.375z" fill="url(#SVGID_9_)"/><path d="m279.615 372.68h-166.097c-3.521 0-6.375-2.854-6.375-6.375v-8.693c0-3.521 2.854-6.375 6.375-6.375h166.098c3.521 0 6.375 2.854 6.375 6.375v8.693c0 3.521-2.855 6.375-6.376 6.375z" fill="url(#SVGID_10_)"/></g><path d="m215.312 104.32h-91.287c-9.324 0-16.883 7.559-16.883 16.883v91.287c0 9.324 7.559 16.883 16.883 16.883h91.287c9.324 0 16.883-7.559 16.883-16.883v-91.287c0-9.324-7.559-16.883-16.883-16.883z" fill="url(#SVGID_11_)"/></g><g><path d="m336.413 259.37h-134.75c-3.01 6.86-5.29 14.05-6.79 21.44h141.54c3.52 0 6.37-2.85 6.37-6.37v-8.69c0-3.52-2.849-6.38-6.37-6.38z" fill="url(#SVGID_12_)"/><path d="m336.413 305.3h-144.69c.12 5.47 3.02 10.29 7.35 13.07l8.38 8.38h128.96c3.52 0 6.37-2.86 6.37-6.38v-8.69c0-3.52-2.849-6.38-6.37-6.38z" fill="url(#SVGID_13_)"/><path d="m279.613 351.24h-47.67l21.44 21.44h26.23c3.52 0 6.38-2.85 6.38-6.38v-8.69c0-3.52-2.859-6.37-6.38-6.37z" fill="url(#SVGID_14_)"/></g><g><path d="m504.693 8.664-3.535-3.535c-6.838-6.838-17.925-6.838-24.764 0l-52.672 52.672 28.298 28.298 52.672-52.672c6.839-6.838 6.839-17.925.001-24.763z" fill="url(#SVGID_15_)"/><path d="m437.871 71.95 14.149 14.149 42.451-42.45-14.149-14.149z" fill="url(#SVGID_16_)"/><g><path d="m222.255 317.662-14.008 1.717c-10.311 1.264-19.068-7.493-17.804-17.804l1.717-14.008c2.873-23.44 13.505-45.244 30.204-61.943l6.274-6.274 198.978-187.979c5.28-5.28 13.842-5.28 19.122 0l33.712 31.712c5.28 5.28 5.28 13.842 0 19.122l-189.872 198.872-6.381 6.381c-16.698 16.699-38.503 27.331-61.942 30.204z" fill="url(#SVGID_17_)"/><path d="m222.255 317.662-14.008 1.717c-10.311 1.264-19.068-7.493-17.804-17.804l1.717-14.008c2.873-23.44 13.505-45.244 30.204-61.943l6.253-6.253 31.624 31.624 30.211 30.211-6.253 6.253c-16.7 16.698-38.505 27.33-61.944 30.203z" fill="url(#SVGID_18_)"/><path d="m489.45 63.083-42.712-42.712c-5.28-5.28-13.842-5.28-19.122 0l-150.463 150.463 61.835 61.834 150.462-150.463c5.281-5.28 5.281-13.841 0-19.122z" fill="url(#SVGID_19_)"/><path d="m489.45 63.083-21.356-21.356-101.97 101.97 30.917 30.917 92.409-92.409c5.281-5.28 5.281-13.841 0-19.122z" fill="url(#SVGID_20_)"/><path d="m290.451 281.205-61.835-61.835 54.335-54.334 61.835 61.834z" fill="url(#SVGID_21_)"/></g><path d="m462.636 29.5-96.512 96.512c-4.884 4.884-4.884 12.802 0 17.685 4.884 4.884 12.802 4.884 17.685 0l96.512-96.512c4.884-4.884 4.884-12.802 0-17.685-4.883-4.884-12.801-4.884-17.685 0z" fill="url(#SVGID_22_)"/></g></g></svg>