<svg id="Capa_1" enable-background="new 0 0 510 510" height="512" viewBox="0 0 510 510" width="512" xmlns="http://www.w3.org/2000/svg" xmlns:xlink="http://www.w3.org/1999/xlink"><linearGradient id="SVGID_1_" gradientUnits="userSpaceOnUse" x1="23.302" x2="369.269" y1="46.042" y2="392.01"><stop offset="0" stop-color="#7dc03a"/><stop offset="1" stop-color="#3e6e66"/></linearGradient><linearGradient id="SVGID_2_" gradientUnits="userSpaceOnUse" x1="201.894" x2="201.894" y1="287.263" y2="432.949"><stop offset="0" stop-color="#8cc951" stop-opacity="0"/><stop offset="1" stop-color="#3e6e66"/></linearGradient><linearGradient id="lg1"><stop offset="0" stop-color="#eef4ff"/><stop offset="1" stop-color="#cfe7fd"/></linearGradient><linearGradient id="SVGID_3_" gradientUnits="userSpaceOnUse" x1="51.851" x2="472.206" xlink:href="#lg1" y1="75.993" y2="496.348"/><linearGradient id="lg2"><stop offset="0" stop-color="#8aaadc" stop-opacity="0"/><stop offset="1" stop-color="#8aaadc"/></linearGradient><linearGradient id="SVGID_4_" gradientUnits="userSpaceOnUse" x1="219.749" x2="139.749" xlink:href="#lg2" y1="365.251" y2="285.251"/><linearGradient id="SVGID_5_" gradientUnits="userSpaceOnUse" x1="255.894" x2="255.894" xlink:href="#lg2" y1="386.789" y2="512.819"/><linearGradient id="SVGID_6_" gradientUnits="userSpaceOnUse" x1="311.666" x2="229.278" xlink:href="#lg2" y1="353.334" y2="270.946"/><linearGradient id="SVGID_7_" gradientUnits="userSpaceOnUse" x1="414.62" x2="313.278" xlink:href="#lg2" y1="352.38" y2="251.038"/><linearGradient id="SVGID_8_" gradientUnits="userSpaceOnUse" x1="295.053" x2="295.053" xlink:href="#lg1" y1="410.068" y2="507.32"/><linearGradient id="SVGID_9_" gradientUnits="userSpaceOnUse" x1="295.053" x2="295.053" xlink:href="#lg2" y1="456" y2="525.116"/><linearGradient id="lg3"><stop offset="0" stop-color="#5a5a5a"/><stop offset="1" stop-color="#464646"/></linearGradient><linearGradient id="SVGID_10_" gradientUnits="userSpaceOnUse" x1="143.895" x2="281.414" xlink:href="#lg3" y1="109.142" y2="109.142"/><linearGradient id="SVGID_11_" gradientUnits="userSpaceOnUse" x1="143.895" x2="281.414" xlink:href="#lg3" y1="145.075" y2="145.075"/><linearGradient id="SVGID_12_" gradientUnits="userSpaceOnUse" x1="143.895" x2="211.703" xlink:href="#lg3" y1="181.008" y2="181.008"/><linearGradient id="SVGID_13_" gradientUnits="userSpaceOnUse" x1="121.26" x2="218.585" y1="266.74" y2="364.064"><stop offset="0" stop-color="#76ccf8"/><stop offset=".833" stop-color="#518ef8"/><stop offset="1" stop-color="#4981f8"/></linearGradient><linearGradient id="SVGID_14_" gradientUnits="userSpaceOnUse" x1="208.654" x2="291.434" y1="250.346" y2="333.126"><stop offset="0" stop-color="#f7e07d"/><stop offset="1" stop-color="#e69642"/></linearGradient><linearGradient id="SVGID_15_" gradientUnits="userSpaceOnUse" x1="284.617" x2="372.437" y1="222.384" y2="310.204"><stop offset="0" stop-color="#e38523"/><stop offset=".7304" stop-color="#db4735"/><stop offset="1" stop-color="#d82f3c"/></linearGradient><g><path d="m296.033 454.599h-232.578c-14.418 0-26.106-11.688-26.106-26.106v-411.485c.001-9.393 7.615-17.008 17.009-17.008h295.073c9.393 0 17.008 7.615 17.008 17.008v367.184c0 38.885-31.522 70.407-70.406 70.407z" fill="url(#SVGID_1_)"/><path d="m37.35 263.505v164.988c0 14.418 11.688 26.106 26.106 26.106h232.578c38.884 0 70.406-31.522 70.406-70.406v-120.688z" fill="url(#SVGID_2_)"/><g><path d="m350.033 510h-232.578c-14.418 0-26.106-11.688-26.106-26.106v-411.484c0-9.393 7.615-17.008 17.008-17.008h295.073c9.393 0 17.008 7.615 17.008 17.008v367.184c.001 38.884-31.521 70.406-70.405 70.406z" fill="url(#SVGID_3_)"/><path d="m407.941 479.625-214.479-216.208c-1.077-1.151-2.609-.871-4.311-.871h-39.22c-3.264 0-4.91 1.646-4.91 4.91v95.188c0 1.5-.44 2.87.481 3.911l145.055 143.445h59.476c24.009 0 45.2-12.027 57.908-30.375z" fill="url(#SVGID_4_)"/><path d="m91.35 388.701v95.193c0 14.418 11.688 26.106 26.106 26.106h232.578c38.884 0 70.406-31.522 70.406-70.406v-50.893z" fill="url(#SVGID_5_)"/><path d="m279.962 228.75c-1.077-1.151-2.609-.871-4.311-.871h-39.22c-3.264 0-4.91 1.646-4.91 4.91v129.854c0 1.5-.44 2.87.481 3.911l140.936 139.615c27.635-9.507 47.501-35.713 47.501-66.575v-68.992z" fill="url(#SVGID_6_)"/><path d="m366.295 193.6c-1.077-1.151-2.61-.871-4.311-.871h-39.22c-3.264 0-4.91 1.646-4.91 4.91v165.004c0 1.5-.44 2.87.481 3.911l98.098 96.459c2.585-7.328 4.005-15.206 4.005-23.419v-191.001z" fill="url(#SVGID_7_)"/><path d="m143.561 427.076v56.818c0 14.418-11.688 26.106-26.106 26.106h284.789c38.884 0 70.406-31.522 70.406-70.406v-12.518c0-9.393-7.615-17.008-17.008-17.008h-295.073c-9.393 0-17.008 7.615-17.008 17.008z" fill="url(#SVGID_8_)"/><path d="m143.561 427.076v56.818c0 14.418-11.688 26.106-26.106 26.106h284.789c38.884 0 70.406-31.522 70.406-70.406v-12.518c0-9.393-7.615-17.008-17.008-17.008h-295.073c-9.393 0-17.008 7.615-17.008 17.008z" fill="url(#SVGID_9_)"/></g><g><path d="m275.039 119.864h-124.769c-3.521 0-6.375-2.854-6.375-6.375v-8.693c0-3.521 2.854-6.375 6.375-6.375h124.769c3.521 0 6.375 2.854 6.375 6.375v8.693c0 3.521-2.854 6.375-6.375 6.375z" fill="url(#SVGID_10_)"/><path d="m275.039 155.797h-124.769c-3.521 0-6.375-2.854-6.375-6.375v-8.693c0-3.521 2.854-6.375 6.375-6.375h124.769c3.521 0 6.375 2.854 6.375 6.375v8.693c0 3.521-2.854 6.375-6.375 6.375z" fill="url(#SVGID_11_)"/><path d="m205.328 191.729h-55.058c-3.521 0-6.375-2.854-6.375-6.375v-8.693c0-3.521 2.854-6.375 6.375-6.375h55.058c3.521 0 6.375 2.854 6.375 6.375v8.693c0 3.521-2.854 6.375-6.375 6.375z" fill="url(#SVGID_12_)"/></g><g><path d="m189.025 261.235h-39.22c-3.264 0-5.91 2.646-5.91 5.91v95.498c0 3.264 2.646 5.91 5.91 5.91h39.22c3.264 0 5.91-2.646 5.91-5.91v-95.498c0-3.264-2.646-5.91-5.91-5.91z" fill="url(#SVGID_13_)"/><path d="m275.505 226.62h-39.22c-3.264 0-5.91 2.646-5.91 5.91v130.113c0 3.264 2.646 5.91 5.91 5.91h39.22c3.264 0 5.91-2.646 5.91-5.91v-130.113c-.001-3.264-2.647-5.91-5.91-5.91z" fill="url(#SVGID_14_)"/><path d="m361.984 191.729h-39.22c-3.264 0-5.91 2.646-5.91 5.91v165.004c0 3.264 2.646 5.91 5.91 5.91h39.22c3.264 0 5.91-2.646 5.91-5.91v-165.004c0-3.264-2.646-5.91-5.91-5.91z" fill="url(#SVGID_15_)"/></g></g></svg>