<svg id="Capa_1" enable-background="new 0 0 510 510" height="512" viewBox="0 0 510 510" width="512" xmlns="http://www.w3.org/2000/svg" xmlns:xlink="http://www.w3.org/1999/xlink"><linearGradient id="lg1"><stop offset="0" stop-color="#5a5a5a"/><stop offset="1" stop-color="#464646"/></linearGradient><linearGradient id="SVGID_1_" gradientUnits="userSpaceOnUse" x1="227.061" x2="355.411" xlink:href="#lg1" y1="181.776" y2="403.47"/><linearGradient id="lg2"><stop offset="0" stop-color="#464646" stop-opacity="0"/><stop offset="1" stop-color="#202020"/></linearGradient><linearGradient id="SVGID_2_" gradientUnits="userSpaceOnUse" x1="255" x2="255" xlink:href="#lg2" y1="314.215" y2="400.527"/><linearGradient id="SVGID_3_" gradientUnits="userSpaceOnUse" x1="217.862" x2="135.862" xlink:href="#lg2" y1="249.633" y2="241.633"/><linearGradient id="lg3"><stop offset="0" stop-color="#464646" stop-opacity="0"/><stop offset=".0267" stop-color="#454545" stop-opacity=".027"/><stop offset=".6388" stop-color="#2a2a2a" stop-opacity=".639"/><stop offset="1" stop-color="#202020"/></linearGradient><linearGradient id="SVGID_4_" gradientUnits="userSpaceOnUse" x1="255" x2="255" xlink:href="#lg3" y1="403.048" y2="192.261"/><linearGradient id="SVGID_5_" gradientUnits="userSpaceOnUse" x1="232.581" x2="326.126" xlink:href="#lg1" y1="122.974" y2="284.553"/><linearGradient id="SVGID_6_" gradientUnits="userSpaceOnUse" x1="166.178" x2="140.447" xlink:href="#lg2" y1="206.983" y2="267.942"/><linearGradient id="SVGID_7_" gradientTransform="matrix(-1 0 0 1 200.993 0)" gradientUnits="userSpaceOnUse" x1="-142.83" x2="-168.561" xlink:href="#lg2" y1="206.983" y2="267.942"/><linearGradient id="SVGID_8_" gradientUnits="userSpaceOnUse" x1="259.824" x2="206.324" xlink:href="#lg3" y1="272.667" y2="195.667"/><linearGradient id="lg4"><stop offset="0" stop-color="#f7e07d"/><stop offset="1" stop-color="#e69642"/></linearGradient><linearGradient id="SVGID_9_" gradientUnits="userSpaceOnUse" x1="81" x2="254.442" xlink:href="#lg4" y1="251.297" y2="251.297"/><linearGradient id="SVGID_10_" gradientUnits="userSpaceOnUse" x1="91.333" x2="139.231" xlink:href="#lg4" y1="432.548" y2="432.548"/><linearGradient id="lg5"><stop offset="0" stop-color="#d52c1c" stop-opacity="0"/><stop offset=".28" stop-color="#d12c1e" stop-opacity=".28"/><stop offset=".5735" stop-color="#c42c23" stop-opacity=".574"/><stop offset=".8721" stop-color="#af2b2c" stop-opacity=".872"/><stop offset="1" stop-color="#a42b31"/></linearGradient><linearGradient id="SVGID_11_" gradientUnits="userSpaceOnUse" x1="114" x2="114" xlink:href="#lg5" y1="454.798" y2="402.462"/><linearGradient id="SVGID_12_" gradientUnits="userSpaceOnUse" x1="92.84" x2="133.947" xlink:href="#lg4" y1="356.708" y2="397.815"/><linearGradient id="SVGID_13_" gradientUnits="userSpaceOnUse" x1="134.226" x2="93.255" xlink:href="#lg4" y1="395.822" y2="354.851"/><linearGradient id="SVGID_14_" gradientUnits="userSpaceOnUse" x1="114" x2="114" xlink:href="#lg5" y1="388.048" y2="426.707"/><g><path d="m64 130.07v188.513c0 16.602 9.673 31.746 24.819 38.543 107.185 48.104 225.176 48.104 332.362 0 15.146-6.797 24.819-21.941 24.819-38.543v-188.513z" fill="url(#SVGID_1_)"/><path d="m64 299.548v19.035c0 16.602 9.673 31.746 24.819 38.543 107.185 48.104 225.176 48.104 332.362 0 15.146-6.798 24.819-21.941 24.819-38.543v-19.035z" fill="url(#SVGID_2_)"/><path d="m122 370.359c98.011 34.36 202.95 29.955 299.181-13.233 15.146-6.798 24.819-21.941 24.819-38.543v-188.513h-324z" fill="url(#SVGID_3_)"/><path d="m64 130.07v71.978l191.155 191.155c56.242-.022 112.482-12.047 166.026-36.077 15.146-6.798 24.819-21.941 24.819-38.543v-188.513z" fill="url(#SVGID_4_)"/><g><path d="m221.93 50.826-211.082 94.156c-14.464 6.452-14.464 26.983 0 33.435l211.081 94.155c21.047 9.388 45.093 9.388 66.141 0l211.081-94.155c14.464-6.452 14.464-26.983 0-33.435l-211.08-94.156c-21.048-9.388-45.094-9.388-66.141 0z" fill="url(#SVGID_5_)"/><path d="m334.042 252.065-45.967 20.51c-21.049 9.383-45.102 9.383-66.151 0l-211.069-94.16c-14.472-6.449-14.472-26.988 0-33.437l41.502-18.512c-.001 0 280.678 125.173 281.685 125.599z" fill="url(#SVGID_6_)"/><path d="m175.958 252.065 45.967 20.51c21.049 9.383 45.102 9.383 66.151 0l211.069-94.16c14.472-6.449 14.472-26.988 0-33.437l-41.502-18.512c.001 0-280.678 125.173-281.685 125.599z" fill="url(#SVGID_7_)"/></g><path d="m266.416 156.956-154.041 66.747 109.555 48.868c21.047 9.388 45.093 9.388 66.141 0l64.977-28.984z" fill="url(#SVGID_8_)"/><g><path d="m114.549 353.048c-6.903 0-12.5-5.596-12.5-12.5v-98.415c0-15.519 9.158-29.631 23.33-35.953l124.529-55.547c6.304-2.812 13.695.018 16.508 6.324 2.812 6.305-.02 13.696-6.324 16.508l-124.528 55.547c-5.172 2.307-8.515 7.458-8.515 13.122v98.415c0 6.903-5.597 12.499-12.5 12.499z" fill="url(#SVGID_9_)"/><path d="m119.363 466.215h-10.727c-8.084 0-14.637-6.553-14.637-14.637v-52.697h40v52.697c.001 8.084-6.552 14.637-14.636 14.637z" fill="url(#SVGID_10_)"/><path d="m134 451.578v-52.697h-40v18.167l39.219 39.219c.499-1.474.781-3.047.781-4.689z" fill="url(#SVGID_11_)"/><circle cx="114" cy="377.868" fill="url(#SVGID_12_)" r="44.32"/><path d="m138.5 354.206c0 6.451-4.603 11.984-10.947 13.157l-8.103 1.499c-.716.133-1.238.758-1.238 1.488v18.141h-.01c.165 4.71-2.467 9.812-7.271 13.121-6.898 4.749-15.656 4-19.565-1.676-3.906-5.673-1.481-14.123 5.413-18.875 4.006-2.758 8.638-3.656 12.587-2.82v-20.293c0-1.28.911-2.376 2.169-2.609l23.177-4.285c1.97-.364 3.788 1.149 3.788 3.152z" fill="url(#SVGID_13_)"/><path d="m70.315 385.298c3.546 20.912 21.779 36.89 43.685 36.89s40.139-15.979 43.685-36.89z" fill="url(#SVGID_14_)"/></g></g></svg>