<svg id="Capa_1" enable-background="new 0 0 510 510" height="512" viewBox="0 0 510 510" width="512" xmlns="http://www.w3.org/2000/svg" xmlns:xlink="http://www.w3.org/1999/xlink"><linearGradient id="lg1"><stop offset="0" stop-color="#5a5a5a"/><stop offset="1" stop-color="#464646"/></linearGradient><linearGradient id="SVGID_1_" gradientUnits="userSpaceOnUse" x1="308.274" x2="308.274" xlink:href="#lg1" y1="273.521" y2="342.534"/><linearGradient id="lg2"><stop offset="0" stop-color="#eef4ff"/><stop offset="1" stop-color="#cfe7fd"/></linearGradient><linearGradient id="SVGID_2_" gradientUnits="userSpaceOnUse" x1="254.387" x2="343.911" xlink:href="#lg2" y1="244.887" y2="334.411"/><linearGradient id="lg3"><stop offset="0" stop-color="#8aaadc" stop-opacity="0"/><stop offset="1" stop-color="#8aaadc"/></linearGradient><linearGradient id="SVGID_3_" gradientUnits="userSpaceOnUse" x1="274.854" x2="246.188" xlink:href="#lg3" y1="286.176" y2="266.176"/><linearGradient id="SVGID_4_" gradientUnits="userSpaceOnUse" x1="308.274" x2="308.274" xlink:href="#lg3" y1="281" y2="325.102"/><linearGradient id="SVGID_5_" gradientUnits="userSpaceOnUse" x1="264.886" x2="333.911" xlink:href="#lg1" y1="262.388" y2="331.414"/><linearGradient id="lg4"><stop offset="0" stop-color="#464646" stop-opacity="0"/><stop offset=".0267" stop-color="#454545" stop-opacity=".027"/><stop offset=".6388" stop-color="#2a2a2a" stop-opacity=".639"/><stop offset="1" stop-color="#202020"/></linearGradient><linearGradient id="SVGID_6_" gradientUnits="userSpaceOnUse" x1="308.274" x2="308.274" xlink:href="#lg4" y1="274" y2="329.145"/><linearGradient id="SVGID_7_" gradientUnits="userSpaceOnUse" x1="290.441" x2="242.441" xlink:href="#lg4" y1="299.071" y2="259.071"/><linearGradient id="SVGID_8_" gradientUnits="userSpaceOnUse" x1="158.225" x2="195.888" xlink:href="#lg1" y1="457.549" y2="495.212"/><linearGradient id="SVGID_9_" gradientUnits="userSpaceOnUse" x1="417.225" x2="454.888" xlink:href="#lg1" y1="457.549" y2="495.212"/><linearGradient id="SVGID_10_" gradientUnits="userSpaceOnUse" x1="308.274" x2="308.274" xlink:href="#lg2" y1="324.195" y2="471.554"/><linearGradient id="SVGID_11_" gradientUnits="userSpaceOnUse" x1="308.274" x2="308.274" xlink:href="#lg3" y1="405.324" y2="357.745"/><linearGradient id="SVGID_12_" gradientUnits="userSpaceOnUse" x1="308.274" x2="308.274" xlink:href="#lg2" y1="324.61" y2="360.37"/><linearGradient id="SVGID_13_" gradientUnits="userSpaceOnUse" x1="308.274" x2="308.274" xlink:href="#lg3" y1="426" y2="474.685"/><linearGradient id="SVGID_14_" gradientUnits="userSpaceOnUse" x1="208.795" x2="165.795" xlink:href="#lg3" y1="385.522" y2="347.522"/><linearGradient id="SVGID_15_" gradientUnits="userSpaceOnUse" x1="219.003" x2="153.749" xlink:href="#lg3" y1="451.771" y2="386.517"/><linearGradient id="SVGID_16_" gradientUnits="userSpaceOnUse" x1="523.078" x2="474.575" xlink:href="#lg3" y1="452.697" y2="404.194"/><linearGradient id="lg5"><stop offset="0" stop-color="#f7e07d"/><stop offset="1" stop-color="#e69642"/></linearGradient><linearGradient id="SVGID_17_" gradientUnits="userSpaceOnUse" x1="131.864" x2="172.971" xlink:href="#lg5" y1="364.708" y2="405.815"/><linearGradient id="lg6"><stop offset="0" stop-color="#d52c1c" stop-opacity="0"/><stop offset=".28" stop-color="#d12c1e" stop-opacity=".28"/><stop offset=".5735" stop-color="#c42c23" stop-opacity=".574"/><stop offset=".8721" stop-color="#af2b2c" stop-opacity=".872"/><stop offset="1" stop-color="#a42b31"/></linearGradient><linearGradient id="SVGID_18_" gradientUnits="userSpaceOnUse" x1="153.024" x2="153.024" xlink:href="#lg6" y1="396.048" y2="434.707"/><linearGradient id="SVGID_19_" gradientUnits="userSpaceOnUse" x1="442.364" x2="483.471" xlink:href="#lg5" y1="364.708" y2="405.815"/><linearGradient id="SVGID_20_" gradientUnits="userSpaceOnUse" x1="463.524" x2="463.524" xlink:href="#lg6" y1="396.048" y2="434.707"/><linearGradient id="SVGID_21_" gradientUnits="userSpaceOnUse" x1="34.517" x2="268.932" y1="36.877" y2="271.292"><stop offset="0" stop-color="#76ccf8"/><stop offset=".833" stop-color="#518ef8"/><stop offset="1" stop-color="#4981f8"/></linearGradient><linearGradient id="lg7"><stop offset="0" stop-color="#4071f7" stop-opacity="0"/><stop offset="1" stop-color="#30569f"/></linearGradient><linearGradient id="SVGID_22_" gradientUnits="userSpaceOnUse" x1="227.609" x2="65.456" xlink:href="#lg7" y1="227.437" y2="65.283"/><linearGradient id="SVGID_23_" gradientUnits="userSpaceOnUse" x1="150.261" x2="150.261" xlink:href="#lg7" y1="228.593" y2="331.867"/><linearGradient id="SVGID_24_" gradientUnits="userSpaceOnUse" x1="150.249" x2="150.249" xlink:href="#lg2" y1="84.338" y2="230.75"/><linearGradient id="SVGID_25_" gradientUnits="userSpaceOnUse" x1="150.259" x2="150.259" xlink:href="#lg3" y1="175.337" y2="262.22"/><linearGradient id="SVGID_26_" gradientUnits="userSpaceOnUse" x1="87.958" x2="212.563" xlink:href="#lg1" y1="114.003" y2="114.003"/><linearGradient id="SVGID_27_" gradientUnits="userSpaceOnUse" x1="87.958" x2="212.563" xlink:href="#lg1" y1="149.936" y2="149.936"/><linearGradient id="SVGID_28_" gradientUnits="userSpaceOnUse" x1="87.958" x2="155.766" xlink:href="#lg1" y1="185.869" y2="185.869"/><g><path d="m445.756 339.474h-274.964c-13.279 0-24.044-10.765-24.044-24.044v-15.139c0-13.279 10.765-24.044 24.044-24.044h274.963c13.279 0 24.044 10.765 24.044 24.044v15.139c0 13.279-10.764 24.044-24.043 24.044z" fill="url(#SVGID_1_)"/><g><path d="m457.124 343.099h-297.7l27.151-108.106c4.281-17.043 19.603-28.993 37.175-28.993h169.047c17.573 0 32.895 11.95 37.175 28.993z" fill="url(#SVGID_2_)"/><path d="m356.957 206h-133.207c-17.573 0-32.895 11.95-37.175 28.993l-27.151 108.106h197.533z" fill="url(#SVGID_3_)"/><path d="m159.424 343.099h297.7l-20.117-80.099h-257.466z" fill="url(#SVGID_4_)"/><path d="m420.274 339.128h-224l20.429-81.342c3.221-12.824 14.75-21.815 27.972-21.815h127.197c13.222 0 24.751 8.991 27.972 21.815z" fill="url(#SVGID_5_)"/><path d="m420.274 339.128h-224l20.429-81.342c3.221-12.824 14.75-21.815 27.972-21.815h127.197c13.222 0 24.751 8.991 27.972 21.815z" fill="url(#SVGID_6_)"/><path d="m356.957 339.128v-103.158h-112.281c-13.222 0-24.751 8.991-27.972 21.815l-20.429 81.343z" fill="url(#SVGID_7_)"/><g><g><path d="m200.208 510h-42.867c-13.015 0-23.566-10.551-23.566-23.566v-26.434h90v26.434c-.001 13.015-10.552 23.566-23.567 23.566z" fill="url(#SVGID_8_)"/><path d="m459.208 510h-42.867c-13.015 0-23.566-10.551-23.566-23.566v-26.434h90v26.434c-.001 13.015-10.552 23.566-23.567 23.566z" fill="url(#SVGID_9_)"/></g><g><path d="m465.061 471.285h-313.574c-29.736 0-51.264-28.377-43.251-57.014l6.016-21.501c13.065-46.694 55.621-78.978 104.108-78.978h179.829c48.487 0 91.043 32.284 104.108 78.978l6.016 21.501c8.012 28.637-13.515 57.014-43.252 57.014z" fill="url(#SVGID_10_)"/><path d="m365.097 358.667h-113.646c-10.777 0-18.579 6.727-15.675 13.515l2.18 5.097c4.735 11.068 20.158 18.721 37.731 18.721h65.174c17.573 0 32.996-7.653 37.731-18.722l2.18-5.097c2.904-6.788-4.897-13.514-15.675-13.514z" fill="url(#SVGID_11_)"/><path d="m398.189 313.793h-179.829c-23.906 0-46.361 7.859-64.56 21.413 18.198 13.553 40.654 30.794 64.56 30.794h179.829c23.906 0 46.361-17.241 64.56-30.794-18.199-13.553-40.655-21.413-64.56-21.413z" fill="url(#SVGID_12_)"/><path d="m108.236 414.271c-8.012 28.637 13.515 57.014 43.251 57.014h313.574c29.736 0 51.264-28.377 43.251-57.014l-5.299-18.938h-389.478z" fill="url(#SVGID_13_)"/><path d="m299 313.793h-80.64c-48.487 0-91.043 32.283-104.108 78.977l-6.016 21.501c-8.012 28.637 13.515 57.014 43.251 57.014h147.513z" fill="url(#SVGID_14_)"/><path d="m127.274 422 49.286 49.285h123.916l-112.785-112.785z" fill="url(#SVGID_15_)"/><path d="m502.297 392.771c-2.623-9.375-6.452-18.156-11.262-26.224l-52.761 55.453 45.311 45.311c19.378-8.777 30.943-30.825 24.728-53.039z" fill="url(#SVGID_16_)"/><g><g><circle cx="153.024" cy="385.868" fill="url(#SVGID_17_)" r="44.32"/><path d="m109.339 393.298c3.546 20.912 21.779 36.89 43.685 36.89s40.139-15.979 43.685-36.89z" fill="url(#SVGID_18_)"/></g><g><circle cx="463.524" cy="385.868" fill="url(#SVGID_19_)" r="44.32"/><path d="m419.839 393.298c3.546 20.912 21.779 36.89 43.685 36.89s40.139-15.979 43.685-36.89z" fill="url(#SVGID_20_)"/></g></g></g></g></g><g><g><path d="m300.521 150.261c0 82.987-135.216 206.53-150.261 206.53s-150.26-123.544-150.26-206.53 67.274-150.261 150.261-150.261 150.26 67.274 150.26 150.261z" fill="url(#SVGID_21_)"/><circle cx="150.261" cy="150.088" fill="url(#SVGID_22_)" r="112.944"/><path d="m18.156 211.561c37.391 71.707 120.499 145.229 132.105 145.229s94.714-73.522 132.105-145.229z" fill="url(#SVGID_23_)"/></g><g><path d="m150.249 58.203c-48.591 0-87.982 39.391-87.982 87.982 0 48.591 39.391 87.982 87.982 87.982 5.117 0 10.123-.461 15-1.3l26.569 13.198c6.605 3.281 14.208-2.102 13.308-9.422l-2.436-19.813c21.566-16.035 35.541-41.706 35.541-70.646.001-48.59-39.39-87.981-87.982-87.981z" fill="url(#SVGID_24_)"/><path d="m237.486 157.627h-174.454c5.612 43.181 42.507 76.54 87.217 76.54 5.117 0 10.123-.461 15-1.3l26.569 13.198c6.605 3.281 14.208-2.101 13.308-9.422l-2.436-19.813c18.676-13.885 31.651-35 34.796-59.203z" fill="url(#SVGID_25_)"/></g></g><g><path d="m206.188 124.725h-111.855c-3.521 0-6.375-2.854-6.375-6.375v-8.693c0-3.521 2.854-6.375 6.375-6.375h111.855c3.521 0 6.375 2.854 6.375 6.375v8.693c0 3.521-2.854 6.375-6.375 6.375z" fill="url(#SVGID_26_)"/><path d="m206.188 160.658h-111.855c-3.521 0-6.375-2.854-6.375-6.375v-8.693c0-3.521 2.854-6.375 6.375-6.375h111.855c3.521 0 6.375 2.854 6.375 6.375v8.693c0 3.521-2.854 6.375-6.375 6.375z" fill="url(#SVGID_27_)"/><path d="m149.391 196.59h-55.058c-3.521 0-6.375-2.854-6.375-6.375v-8.693c0-3.521 2.854-6.375 6.375-6.375h55.058c3.521 0 6.375 2.854 6.375 6.375v8.693c0 3.521-2.854 6.375-6.375 6.375z" fill="url(#SVGID_28_)"/></g></g></svg>