<svg id="Capa_1" enable-background="new 0 0 510 510" height="512" viewBox="0 0 510 510" width="512" xmlns="http://www.w3.org/2000/svg" xmlns:xlink="http://www.w3.org/1999/xlink"><linearGradient id="SVGID_1_" gradientUnits="userSpaceOnUse" x1="127.5" x2="382.5" y1="85.731" y2="85.731"><stop offset="0" stop-color="#5a5a5a"/><stop offset="1" stop-color="#464646"/></linearGradient><linearGradient id="lg1"><stop offset="0" stop-color="#f7e07d"/><stop offset="1" stop-color="#e69642"/></linearGradient><linearGradient id="SVGID_2_" gradientUnits="userSpaceOnUse" x1="140" x2="140" xlink:href="#lg1" y1="100.12" y2="137.133"/><linearGradient id="SVGID_3_" gradientUnits="userSpaceOnUse" x1="370" x2="370" xlink:href="#lg1" y1="100.12" y2="137.133"/><linearGradient id="lg2"><stop offset="0" stop-color="#76ccf8"/><stop offset=".833" stop-color="#518ef8"/><stop offset="1" stop-color="#4981f8"/></linearGradient><linearGradient id="SVGID_4_" gradientUnits="userSpaceOnUse" x1="13.222" x2="512.697" xlink:href="#lg2" y1="133.222" y2="484.204"/><linearGradient id="lg3"><stop offset="0" stop-color="#4071f7" stop-opacity="0"/><stop offset="1" stop-color="#30569f"/></linearGradient><linearGradient id="SVGID_5_" gradientUnits="userSpaceOnUse" x1="257.91" x2="257.91" xlink:href="#lg3" y1="475.407" y2="131.917"/><linearGradient id="SVGID_6_" gradientUnits="userSpaceOnUse" x1="394.609" x2="334.612" y1="394.603" y2="142.616"><stop offset="0" stop-color="#4071f7" stop-opacity="0"/><stop offset=".098" stop-color="#3e6eec" stop-opacity=".098"/><stop offset=".4974" stop-color="#3661c2" stop-opacity=".497"/><stop offset=".8117" stop-color="#3259a8" stop-opacity=".812"/><stop offset="1" stop-color="#30569f"/></linearGradient><linearGradient id="lg4"><stop offset="0" stop-color="#eef4ff"/><stop offset="1" stop-color="#cfe7fd"/></linearGradient><linearGradient id="SVGID_7_" gradientUnits="userSpaceOnUse" x1="373.188" x2="451.501" xlink:href="#lg4" y1="219.813" y2="298.126"/><linearGradient id="lg5"><stop offset="0" stop-color="#8aaadc" stop-opacity="0"/><stop offset="1" stop-color="#8aaadc"/></linearGradient><linearGradient id="SVGID_8_" gradientUnits="userSpaceOnUse" x1="415.955" x2="400.344" xlink:href="#lg5" y1="307.602" y2="262.33"/><linearGradient id="SVGID_9_" gradientUnits="userSpaceOnUse" x1="469.685" x2="436.003" xlink:href="#lg5" y1="283.982" y2="250.301"/><linearGradient id="SVGID_10_" gradientUnits="userSpaceOnUse" x1="413.272" x2="441.343" xlink:href="#lg4" y1="228.062" y2="256.133"/><linearGradient id="SVGID_11_" gradientUnits="userSpaceOnUse" x1="436.666" x2="419.958" xlink:href="#lg5" y1="279.78" y2="240.348"/><linearGradient id="SVGID_12_" gradientUnits="userSpaceOnUse" x1="255" x2="255" xlink:href="#lg2" y1="125.925" y2="316.793"/><linearGradient id="SVGID_13_" gradientUnits="userSpaceOnUse" x1="282.945" x2="299.945" xlink:href="#lg3" y1="252.019" y2="300.019"/><linearGradient id="SVGID_14_" gradientTransform="matrix(-1 0 0 1 510 0)" gradientUnits="userSpaceOnUse" x1="285.922" x2="302.922" xlink:href="#lg3" y1="260.424" y2="308.424"/><linearGradient id="SVGID_15_" gradientUnits="userSpaceOnUse" x1="255" x2="255" xlink:href="#lg3" y1="400.12" y2="504.197"/><linearGradient id="SVGID_16_" gradientUnits="userSpaceOnUse" x1="255" x2="255" xlink:href="#lg1" y1="270.114" y2="339.127"/><linearGradient id="SVGID_17_" gradientUnits="userSpaceOnUse" x1="255" x2="255" y1="25.854" y2="94.867"><stop offset="0" stop-color="#e38523"/><stop offset=".7304" stop-color="#db4735"/><stop offset="1" stop-color="#d82f3c"/></linearGradient><g><path d="m382.5 124.82h-25v-17.714c0-19.555-15.909-35.464-35.464-35.464h-134.072c-19.555 0-35.464 15.909-35.464 35.464v17.714h-25v-17.714c0-33.34 27.124-60.464 60.464-60.464h134.072c33.34 0 60.464 27.124 60.464 60.464z" fill="url(#SVGID_1_)"/><g><path d="m108.387 137.12v-13.311c0-13.877 11.25-25.127 25.127-25.127h12.973c13.877 0 25.127 11.25 25.127 25.127v13.311z" fill="url(#SVGID_2_)"/><path d="m338.387 137.12v-13.311c0-13.877 11.25-25.127 25.127-25.127h12.973c13.877 0 25.127 11.25 25.127 25.127v13.311z" fill="url(#SVGID_3_)"/></g><path d="m483.967 481.42h-457.934c-14.378 0-26.033-11.655-26.033-26.033v-304.535c0-14.377 11.655-26.033 26.033-26.033h457.935c14.377 0 26.033 11.655 26.033 26.033v304.535c-.001 14.378-11.656 26.033-26.034 26.033z" fill="url(#SVGID_4_)"/><path d="m510 455.387v-304.535c0-6.851-2.65-13.08-6.977-17.728-1.346-1.295-2.356-2.234-2.783-2.575 3.61 4.46 5.76 10.12 5.76 16.3v44.51c0 11.15-7.05 21.07-17.57 24.75l-237.43 83.011-237.43-83.01c-2.87-1-5.48-2.47-7.75-4.3 1.436 1.786 209.584 209.299 270.087 269.61h208.06c14.378 0 26.033-11.655 26.033-26.033z" fill="url(#SVGID_5_)"/><path d="m483.967 481.42c14.377 0 26.033-11.655 26.033-26.033v-304.535c0-6.851-2.65-13.08-6.977-17.728-1.346-1.295-2.356-2.234-2.783-2.575 3.61 4.46 5.76 10.12 5.76 16.3v44.51c0 11.15-7.05 21.07-17.57 24.75l-237.43 83.011-46.489-16.253v44.791l153.762 153.762z" fill="url(#SVGID_6_)"/><path d="m495.81 202.54-49.95 114.27c-5.49 12.57-20.14 18.31-32.71 12.81l-124.44-54.39 203.72-71.23c1.17-.41 2.3-.9 3.38-1.46z" fill="url(#SVGID_7_)"/><path d="m495.81 202.54-49.95 114.27c-5.49 12.57-20.14 18.31-32.71 12.81l-124.44-54.39 203.72-71.23c1.17-.41 2.3-.9 3.38-1.46z" fill="url(#SVGID_8_)"/><path d="m458.026 216.029-82.859 81.003 28.398 28.398 9.584 4.189c12.57 5.5 27.22-.24 32.71-12.81l49.95-114.27c-1.08.56-2.21 1.05-3.38 1.46z" fill="url(#SVGID_9_)"/><path d="m495.92 202.48-90.66 90.66c-9.7 9.7-25.43 9.7-35.14 0l-34.36-34.36 156.67-54.78c1.21-.42 2.38-.93 3.49-1.52z" fill="url(#SVGID_10_)"/><path d="m495.92 202.48-90.66 90.66c-9.7 9.7-25.43 9.7-35.14 0l-34.36-34.36 156.67-54.78c1.21-.42 2.38-.93 3.49-1.52z" fill="url(#SVGID_11_)"/><path d="m492.435 220.111-237.435 83.009-237.435-83.009c-10.52-3.678-17.565-13.605-17.565-24.749v-44.51c0-14.377 11.655-26.033 26.033-26.033h457.935c14.377 0 26.033 11.655 26.033 26.033v44.51c-.001 11.144-7.046 21.071-17.566 24.749z" fill="url(#SVGID_12_)"/><path d="m492.435 220.111-237.435 83.009-237.435-83.009c-10.52-3.678-17.565-13.605-17.565-24.749v-44.51c0-14.377 11.655-26.033 26.033-26.033h457.935c14.377 0 26.033 11.655 26.033 26.033v44.51c-.001 11.144-7.046 21.071-17.566 24.749z" fill="url(#SVGID_13_)"/><path d="m17.565 220.111 237.435 83.009 237.435-83.009c10.52-3.678 17.565-13.604 17.565-24.748v-44.51c0-14.377-11.655-26.033-26.033-26.033h-457.934c-14.378 0-26.033 11.655-26.033 26.032v44.51c0 11.144 7.045 21.071 17.565 24.749z" fill="url(#SVGID_14_)"/><path d="m0 356.299v99.088c0 14.377 11.655 26.033 26.033 26.033h457.935c14.377 0 26.033-11.655 26.033-26.033v-99.088z" fill="url(#SVGID_15_)"/><path d="m286.736 336.067h-63.473c-13.877 0-25.127-11.25-25.127-25.127v-12.973c0-13.877 11.25-25.127 25.127-25.127h63.473c13.877 0 25.127 11.25 25.127 25.127v12.973c0 13.877-11.249 25.127-25.127 25.127z" fill="url(#SVGID_16_)"/><path d="m298.895 91.807h-87.79c-13.877 0-25.127-11.25-25.127-25.127v-12.973c0-13.877 11.25-25.127 25.127-25.127h87.79c13.877 0 25.127 11.25 25.127 25.127v12.973c0 13.877-11.25 25.127-25.127 25.127z" fill="url(#SVGID_17_)"/></g></svg>