<svg id="Capa_1" enable-background="new 0 0 510 510" height="512" viewBox="0 0 510 510" width="512" xmlns="http://www.w3.org/2000/svg" xmlns:xlink="http://www.w3.org/1999/xlink"><linearGradient id="lg1"><stop offset="0" stop-color="#eef4ff"/><stop offset="1" stop-color="#cfe7fd"/></linearGradient><linearGradient id="SVGID_1_" gradientUnits="userSpaceOnUse" x1="255" x2="255" xlink:href="#lg1" y1="187.573" y2="488.07"/><linearGradient id="lg2"><stop offset="0" stop-color="#8aaadc" stop-opacity="0"/><stop offset="1" stop-color="#8aaadc"/></linearGradient><linearGradient id="SVGID_3_" gradientUnits="userSpaceOnUse" x1="373.52" x2="232.451" xlink:href="#lg2" y1="361.814" y2="220.745"/><linearGradient id="lg3"><stop offset="0" stop-color="#fff" stop-opacity="0"/><stop offset=".2702" stop-color="#dce6f5" stop-opacity=".27"/><stop offset=".7636" stop-color="#a1bbe3" stop-opacity=".764"/><stop offset="1" stop-color="#8aaadc"/></linearGradient><linearGradient id="SVGID_4_" gradientUnits="userSpaceOnUse" x1="343.684" x2="343.684" xlink:href="#lg3" y1="-28.85" y2="530.386"/><linearGradient id="SVGID_5_" gradientUnits="userSpaceOnUse" x1="530.171" x2="342.402" xlink:href="#lg2" y1="431.509" y2="243.741"/><linearGradient id="SVGID_6_" gradientUnits="userSpaceOnUse" x1="406.531" x2="437.198" xlink:href="#lg1" y1="137.327" y2="183.994"/><linearGradient id="SVGID_7_" gradientUnits="userSpaceOnUse" x1="119.694" x2="153.694" xlink:href="#lg1" y1="92.671" y2="141.337"/><linearGradient id="SVGID_8_" gradientUnits="userSpaceOnUse" x1="-2.039" x2="263.707" xlink:href="#lg1" y1="-69.468" y2="196.279"/><linearGradient id="SVGID_9_" gradientUnits="userSpaceOnUse" x1="16" x2="144.719" xlink:href="#lg2" y1="187.572" y2="187.572"/><linearGradient id="SVGID_10_" gradientUnits="userSpaceOnUse" x1="255" x2="255" xlink:href="#lg2" y1="196.149" y2="330.564"/><linearGradient id="SVGID_11_" gradientUnits="userSpaceOnUse" x1="343.682" x2="343.682" xlink:href="#lg3" y1="-97.063" y2="290.678"/><linearGradient id="SVGID_12_" gradientUnits="userSpaceOnUse" x1="388.889" x2="334.889" xlink:href="#lg2" y1="134.294" y2="163.294"/><linearGradient id="SVGID_13_" gradientUnits="userSpaceOnUse" x1="132.823" x2="298.068" y1="70.178" y2="235.423"><stop offset="0" stop-color="#e38523"/><stop offset=".7304" stop-color="#db4735"/><stop offset="1" stop-color="#d82f3c"/></linearGradient><linearGradient id="lg4"><stop offset="0" stop-color="#f7e07d"/><stop offset="1" stop-color="#e69642"/></linearGradient><linearGradient id="SVGID_14_" gradientUnits="userSpaceOnUse" x1="249.366" x2="249.366" xlink:href="#lg4" y1="90" y2="256.732"/><linearGradient id="lg5"><stop offset="0" stop-color="#5a5a5a"/><stop offset="1" stop-color="#464646"/></linearGradient><linearGradient id="SVGID_15_" gradientUnits="userSpaceOnUse" x1="190.386" x2="321.701" xlink:href="#lg5" y1="118.725" y2="118.725"/><linearGradient id="SVGID_16_" gradientUnits="userSpaceOnUse" x1="190.386" x2="321.701" xlink:href="#lg5" y1="156.592" y2="156.592"/><linearGradient id="SVGID_17_" gradientUnits="userSpaceOnUse" x1="190.386" x2="261.846" xlink:href="#lg5" y1="194.46" y2="194.46"/><linearGradient id="SVGID_18_" gradientUnits="userSpaceOnUse" x1="249.366" x2="249.366" y1="247.424" y2="318.47"><stop offset="0" stop-color="#d52c1c" stop-opacity="0"/><stop offset="1" stop-color="#a42b31"/></linearGradient><linearGradient id="SVGID_19_" gradientUnits="userSpaceOnUse" x1="270.023" x2="270.023" xlink:href="#lg4" y1="233.333" y2="290.192"/><linearGradient id="SVGID_20_" gradientUnits="userSpaceOnUse" x1="389.367" x2="411.367" xlink:href="#lg1" y1="281.31" y2="313.31"/><linearGradient id="SVGID_21_" gradientUnits="userSpaceOnUse" x1="156.392" x2="181.059" xlink:href="#lg1" y1="315.093" y2="349.76"/><g><path d="m240.287 292.94-162.655-105.367v174.827c0 9.948 5.04 19.218 13.389 24.627l149.265 96.694c8.952 5.799 20.475 5.799 29.427 0l149.265-96.694c8.349-5.408 13.389-14.679 13.389-24.627v-174.827l-162.654 105.367c-8.951 5.799-20.475 5.799-29.426 0z" fill="url(#SVGID_1_)"/><path d="m255 302.471-177.368-114.898v174.827c0 9.948 5.04 19.218 13.389 24.627l149.265 96.694c8.952 5.799 20.475 5.799 29.427 0l149.265-96.694c8.349-5.408 13.389-14.679 13.389-24.627v-174.827z" fill="url(#SVGID_1_)"/><path d="m432.365 187.571v174.832c0 9.942-5.033 19.213-13.384 24.619l-149.263 96.698c-1.561 1.003-3.194 1.84-4.889 2.491l-187.193-187.194v-111.446l177.364 114.898z" fill="url(#SVGID_3_)"/><path d="m269.713 483.72 149.265-96.694c8.349-5.408 13.389-14.679 13.389-24.626v-174.827l-177.367 114.898v185.599c5.119 0 10.237-1.45 14.713-4.35z" fill="url(#SVGID_4_)"/><path d="m418.979 387.027c8.349-5.408 13.389-14.678 13.389-24.626v-174.828l-177.368 114.898 115.779 115.779z" fill="url(#SVGID_5_)"/><g><path d="m505.441 140.236-73.074 47.337-177.367-114.899 71.884-46.566c8.599-5.57 19.668-5.57 28.267 0l150.291 97.358c6.078 3.938 6.078 12.832-.001 16.77z" fill="url(#SVGID_6_)"/><path d="m4.559 140.236 73.074 47.337 177.367-114.899-71.884-46.566c-8.599-5.57-19.668-5.57-28.267 0l-150.29 97.358c-6.079 3.938-6.079 12.832 0 16.77z" fill="url(#SVGID_7_)"/></g><g><path d="m432.365 187.571-147.92 95.83-29.445 19.068-177.364-114.898 177.364-114.897z" fill="url(#SVGID_8_)"/><path d="m432.365 187.571-147.92 95.83-29.445 19.068-177.364-114.898 177.364-114.897z" fill="url(#SVGID_9_)"/><path d="m244.368 271.211-18.812 12.186 29.444 19.074 29.444-19.074-18.812-12.186c-6.469-4.19-14.795-4.19-21.264 0z" fill="url(#SVGID_10_)"/><path d="m432.365 187.571-147.919 95.829-18.81-12.196c-3.235-2.077-6.935-3.132-10.635-3.132v-195.4z" fill="url(#SVGID_11_)"/></g><path d="m333.557 251.585 106.294-68.859-106.294-106.293z" fill="url(#SVGID_12_)"/><g><path d="m282.751 286.194h-122.689c-7.606 0-13.771-6.166-13.771-13.771v-205.942c0-4.955 4.017-8.972 8.972-8.972h155.656c4.955 0 8.972 4.017 8.972 8.972v182.573c.001 20.512-16.628 37.14-37.14 37.14z" fill="url(#SVGID_13_)"/><g><path d="m299.026 302.469h-122.689c-7.606 0-13.771-6.166-13.771-13.771v-205.942c0-4.955 4.017-8.972 8.972-8.972h155.656c4.955 0 8.972 4.017 8.972 8.972v182.573c.001 20.512-16.628 37.14-37.14 37.14z" fill="url(#SVGID_14_)"/><g><path d="m314.982 130.024h-117.878c-3.71 0-6.718-3.008-6.718-6.718v-9.162c0-3.711 3.008-6.718 6.718-6.718h117.878c3.711 0 6.718 3.008 6.718 6.718v9.162c.001 3.71-3.007 6.718-6.718 6.718z" fill="url(#SVGID_15_)"/><path d="m314.982 167.891h-117.878c-3.71 0-6.718-3.008-6.718-6.718v-9.162c0-3.71 3.008-6.718 6.718-6.718h117.878c3.711 0 6.718 3.008 6.718 6.718v9.162c.001 3.71-3.007 6.718-6.718 6.718z" fill="url(#SVGID_16_)"/><path d="m255.127 205.759h-58.023c-3.71 0-6.718-3.008-6.718-6.718v-9.162c0-3.71 3.008-6.718 6.718-6.718h58.023c3.71 0 6.718 3.008 6.718 6.718v9.162c.001 3.71-3.007 6.718-6.718 6.718z" fill="url(#SVGID_17_)"/></g><path d="m162.566 238.482v50.216c0 7.606 6.166 13.771 13.771 13.771h122.689c20.512 0 37.14-16.628 37.14-37.14v-26.847z" fill="url(#SVGID_18_)"/><path d="m190.108 237.995v50.703c0 7.606-6.166 13.771-13.771 13.771h150.231c20.512 0 37.14-16.628 37.14-37.14v-27.334c0-4.955-4.017-8.972-8.972-8.972h-155.655c-4.956 0-8.973 4.017-8.973 8.972z" fill="url(#SVGID_19_)"/></g></g><g><path d="m505.441 234.91-73.074-47.337-177.367 114.898 71.884 46.566c8.599 5.57 19.668 5.57 28.267 0l150.291-97.358c6.078-3.937 6.078-12.832-.001-16.769z" fill="url(#SVGID_20_)"/><path d="m4.559 234.91 73.074-47.337 177.367 114.898-71.884 46.566c-8.599 5.57-19.668 5.57-28.267 0l-150.29-97.358c-6.079-3.937-6.079-12.832 0-16.769z" fill="url(#SVGID_21_)"/></g></g></svg>