<svg xmlns="http://www.w3.org/2000/svg" xmlns:xlink="http://www.w3.org/1999/xlink" width="1200" zoomAndPan="magnify" viewBox="0 0 900 187.499995" height="250" preserveAspectRatio="xMidYMid meet" version="1.0"><defs><g/><clipPath id="5657840103"><path d="M 19.898438 16.695312 L 108.910156 16.695312 L 108.910156 170.035156 L 19.898438 170.035156 Z M 19.898438 16.695312 " clip-rule="nonzero"/></clipPath></defs><g clip-path="url(#5657840103)"><path fill="#fbc646" d="M 46.273438 16.699219 L 103.414062 16.699219 L 79.234375 61.710938 L 108.90625 61.710938 L 37.117188 170.03125 L 56.160156 90.253906 L 19.902344 90.253906 L 46.273438 16.699219 " fill-opacity="1" fill-rule="nonzero"/></g><g fill="#ffffff" fill-opacity="1"><g transform="translate(144.078718, 121.575478)"><g><path d="M 5.992188 0 L 31.222656 0 L 31.222656 -32.722656 L 58.53125 -32.722656 L 58.53125 0 L 83.644531 0 L 83.644531 -82.496094 L 58.53125 -82.496094 L 58.53125 -52.308594 L 31.222656 -52.308594 L 31.222656 -82.496094 L 5.992188 -82.496094 Z M 5.992188 0 "/></g></g></g><g fill="#ffffff" fill-opacity="1"><g transform="translate(233.715435, 121.575478)"><g><path d="M 27.652344 26.5 C 50.117188 26.5 64.980469 13.941406 64.980469 -5.53125 L 64.980469 -59.453125 L 42.628906 -59.453125 L 42.628906 -26.382812 C 42.628906 -20.394531 38.941406 -16.589844 33.875 -16.589844 C 29.148438 -16.589844 26.382812 -20.277344 26.382812 -25.808594 L 26.382812 -59.453125 L 4.148438 -59.453125 L 4.148438 -20.855469 C 4.148438 -7.375 11.753906 1.035156 24.078125 1.035156 C 32.144531 1.035156 39.058594 -3.6875 42.515625 -11.636719 L 42.628906 -11.636719 L 42.628906 -6.453125 C 42.628906 2.535156 35.945312 8.296875 25.460938 8.296875 C 18.089844 8.296875 9.910156 5.53125 4.378906 1.152344 L -1.382812 18.089844 C 5.070312 23.160156 16.476562 26.5 27.652344 26.5 Z M 27.652344 26.5 "/></g></g></g><g fill="#ffffff" fill-opacity="1"><g transform="translate(302.72879, 121.575478)"><g><path d="M 4.03125 24.195312 L 26.269531 24.195312 L 26.269531 -12.210938 L 26.382812 -12.210938 C 30.1875 -3.109375 36.984375 1.382812 45.742188 1.382812 C 60.257812 1.382812 70.28125 -10.714844 70.28125 -29.726562 C 70.28125 -48.851562 60.257812 -60.949219 45.742188 -60.949219 C 36.753906 -60.949219 29.957031 -56.457031 26.269531 -47.46875 L 26.152344 -47.46875 L 22.46875 -59.453125 L 4.03125 -59.453125 Z M 36.636719 -17.167969 C 30.070312 -17.167969 25.347656 -22.582031 25.347656 -29.726562 C 25.347656 -36.867188 30.070312 -42.285156 36.636719 -42.285156 C 43.207031 -42.285156 47.929688 -36.984375 47.929688 -29.726562 C 47.929688 -22.582031 43.320312 -17.167969 36.636719 -17.167969 Z M 36.636719 -17.167969 "/></g></g></g><g fill="#ffffff" fill-opacity="1"><g transform="translate(375.198571, 121.575478)"><g><path d="M 39.171875 2.304688 C 51.617188 2.304688 62.792969 -2.417969 67.976562 -9.449219 L 56.6875 -19.816406 C 53.113281 -15.785156 46.546875 -13.25 40.210938 -13.25 C 31.914062 -13.25 25.921875 -17.28125 25.117188 -23.734375 L 65.789062 -23.734375 C 66.480469 -26.039062 66.941406 -29.265625 66.941406 -32.261719 C 66.824219 -50.003906 54.382812 -61.753906 35.257812 -61.753906 C 15.324219 -61.753906 2.074219 -48.964844 2.1875 -29.957031 C 2.1875 -10.601562 17.28125 2.304688 39.171875 2.304688 Z M 24.886719 -35.257812 C 25.578125 -42.167969 29.609375 -46.664062 35.140625 -46.664062 C 40.554688 -46.664062 44.242188 -42.285156 44.472656 -35.257812 Z M 24.886719 -35.257812 "/></g></g></g><g fill="#ffffff" fill-opacity="1"><g transform="translate(445.133651, 121.575478)"><g><path d="M 41.707031 -60.949219 C 34.679688 -60.949219 28.457031 -56.800781 25.347656 -49.65625 L 25.230469 -49.65625 L 21.660156 -59.453125 L 4.03125 -59.453125 L 4.03125 0 L 26.269531 0 L 26.269531 -32.261719 C 26.269531 -40.210938 29.378906 -44.933594 34.449219 -44.933594 C 38.828125 -44.933594 41.707031 -41.015625 42.167969 -34.21875 L 60.832031 -39.058594 C 59.453125 -52.882812 52.308594 -60.949219 41.707031 -60.949219 Z M 41.707031 -60.949219 "/></g></g></g><g fill="#ffffff" fill-opacity="1"><g transform="translate(507.349377, 121.575478)"><g/></g></g><g fill="#ffffff" fill-opacity="1"><g transform="translate(529.700938, 121.575478)"><g><path d="M 5.992188 0 L 31.222656 0 L 31.222656 -27.996094 L 57.953125 -27.996094 L 57.953125 -46.664062 L 31.222656 -46.664062 L 31.222656 -61.179688 L 64.75 -61.179688 L 64.75 -82.496094 L 5.992188 -82.496094 Z M 5.992188 0 "/></g></g></g><g fill="#ffffff" fill-opacity="1"><g transform="translate(596.294787, 121.575478)"><g><path d="M 39.171875 2.304688 C 51.617188 2.304688 62.792969 -2.417969 67.976562 -9.449219 L 56.6875 -19.816406 C 53.113281 -15.785156 46.546875 -13.25 40.210938 -13.25 C 31.914062 -13.25 25.921875 -17.28125 25.117188 -23.734375 L 65.789062 -23.734375 C 66.480469 -26.039062 66.941406 -29.265625 66.941406 -32.261719 C 66.824219 -50.003906 54.382812 -61.753906 35.257812 -61.753906 C 15.324219 -61.753906 2.074219 -48.964844 2.1875 -29.957031 C 2.1875 -10.601562 17.28125 2.304688 39.171875 2.304688 Z M 24.886719 -35.257812 C 25.578125 -42.167969 29.609375 -46.664062 35.140625 -46.664062 C 40.554688 -46.664062 44.242188 -42.285156 44.472656 -35.257812 Z M 24.886719 -35.257812 "/></g></g></g><g fill="#ffffff" fill-opacity="1"><g transform="translate(666.229868, 121.575478)"><g><path d="M 36.40625 2.304688 C 44.242188 2.304688 52.652344 -0.574219 58.070312 -5.414062 L 53.804688 -20.738281 C 50.117188 -17.050781 46.894531 -15.324219 42.054688 -15.324219 C 37.328125 -15.324219 33.296875 -18.78125 33.296875 -25.347656 L 33.296875 -42.859375 L 55.304688 -42.859375 L 55.304688 -59.453125 L 33.296875 -59.453125 L 33.296875 -79.960938 L 11.0625 -75.003906 L 11.0625 -59.453125 L 0.921875 -59.453125 L 0.921875 -42.859375 L 10.945312 -42.859375 L 11.0625 -21.546875 C 11.0625 -6.796875 20.625 2.304688 36.40625 2.304688 Z M 36.40625 2.304688 "/></g></g></g><g fill="#ffffff" fill-opacity="1"><g transform="translate(726.256503, 121.575478)"><g><path d="M 34.566406 2.304688 C 52.421875 2.304688 65.210938 -8.527344 66.480469 -24.65625 L 46.085938 -27.304688 C 45.394531 -20.164062 41.132812 -15.4375 35.488281 -15.4375 C 29.148438 -15.4375 24.539062 -21.199219 24.425781 -29.726562 C 24.308594 -38.25 28.574219 -44.011719 34.566406 -44.011719 C 39.289062 -44.011719 43.320312 -40.671875 43.898438 -33.296875 L 63.945312 -38.597656 C 61.753906 -52.539062 49.773438 -61.753906 33.875 -61.753906 C 14.863281 -61.753906 2.1875 -48.964844 2.1875 -29.726562 C 2.1875 -10.484375 15.09375 2.304688 34.566406 2.304688 Z M 34.566406 2.304688 "/></g></g></g><g fill="#ffffff" fill-opacity="1"><g transform="translate(794.693801, 121.575478)"><g><path d="M 4.03125 0 L 26.269531 0 L 26.269531 -32.375 C 26.269531 -38.597656 29.957031 -42.398438 35.488281 -42.398438 C 39.863281 -42.398438 42.515625 -39.402344 42.515625 -34.566406 L 42.515625 0 L 64.867188 0 L 64.867188 -42.285156 C 64.867188 -54.035156 57.953125 -60.949219 46.546875 -60.949219 C 37.558594 -60.949219 30.300781 -55.996094 26.382812 -47.46875 L 26.269531 -47.46875 L 26.269531 -85.949219 L 4.03125 -85.949219 Z M 4.03125 0 "/></g></g></g><g fill="#ffffff" fill-opacity="1"><g transform="translate(863.467738, 121.575478)"><g/></g></g></svg>