<svg xmlns="http://www.w3.org/2000/svg" xmlns:xlink="http://www.w3.org/1999/xlink" width="1200" zoomAndPan="magnify" viewBox="0 0 900 187.499995" height="250" preserveAspectRatio="xMidYMid meet" version="1.0"><defs><g/><clipPath id="1a2b6d49e4"><path d="M 19.898438 16.695312 L 108.910156 16.695312 L 108.910156 170.035156 L 19.898438 170.035156 Z M 19.898438 16.695312 " clip-rule="nonzero"/></clipPath></defs><g clip-path="url(#1a2b6d49e4)"><path fill="#fbc646" d="M 46.273438 16.699219 L 103.414062 16.699219 L 79.234375 61.710938 L 108.90625 61.710938 L 37.117188 170.03125 L 56.160156 90.253906 L 19.902344 90.253906 L 46.273438 16.699219 " fill-opacity="1" fill-rule="nonzero"/></g><g fill="#000000" fill-opacity="1"><g transform="translate(144.050472, 123.053307)"><g><path d="M 5.992188 0 L 31.226562 0 L 31.226562 -32.726562 L 58.535156 -32.726562 L 58.535156 0 L 83.65625 0 L 83.65625 -82.503906 L 58.535156 -82.503906 L 58.535156 -52.316406 L 31.226562 -52.316406 L 31.226562 -82.503906 L 5.992188 -82.503906 Z M 5.992188 0 "/></g></g></g><g fill="#000000" fill-opacity="1"><g transform="translate(233.697699, 123.053307)"><g><path d="M 27.65625 26.503906 C 50.125 26.503906 64.988281 13.941406 64.988281 -5.53125 L 64.988281 -59.457031 L 42.636719 -59.457031 L 42.636719 -26.386719 C 42.636719 -20.394531 38.949219 -16.59375 33.878906 -16.59375 C 29.152344 -16.59375 26.386719 -20.28125 26.386719 -25.8125 L 26.386719 -59.457031 L 4.148438 -59.457031 L 4.148438 -20.855469 C 4.148438 -7.375 11.753906 1.035156 24.082031 1.035156 C 32.148438 1.035156 39.0625 -3.6875 42.519531 -11.636719 L 42.636719 -11.636719 L 42.636719 -6.453125 C 42.636719 2.535156 35.953125 8.296875 25.464844 8.296875 C 18.089844 8.296875 9.910156 5.53125 4.378906 1.152344 L -1.382812 18.089844 C 5.070312 23.160156 16.476562 26.503906 27.65625 26.503906 Z M 27.65625 26.503906 "/></g></g></g><g fill="#000000" fill-opacity="1"><g transform="translate(302.719149, 123.053307)"><g><path d="M 4.03125 24.199219 L 26.273438 24.199219 L 26.273438 -12.214844 L 26.386719 -12.214844 C 30.191406 -3.109375 36.988281 1.382812 45.746094 1.382812 C 60.265625 1.382812 70.289062 -10.714844 70.289062 -29.730469 C 70.289062 -48.859375 60.265625 -60.957031 45.746094 -60.957031 C 36.757812 -60.957031 29.960938 -56.460938 26.273438 -47.476562 L 26.15625 -47.476562 L 22.46875 -59.457031 L 4.03125 -59.457031 Z M 36.644531 -17.167969 C 30.074219 -17.167969 25.351562 -22.585938 25.351562 -29.730469 C 25.351562 -36.875 30.074219 -42.289062 36.644531 -42.289062 C 43.210938 -42.289062 47.9375 -36.988281 47.9375 -29.730469 C 47.9375 -22.585938 43.328125 -17.167969 36.644531 -17.167969 Z M 36.644531 -17.167969 "/></g></g></g><g fill="#000000" fill-opacity="1"><g transform="translate(375.197431, 123.053307)"><g><path d="M 39.179688 2.304688 C 51.625 2.304688 62.800781 -2.417969 67.984375 -9.449219 L 56.691406 -19.820312 C 53.121094 -15.785156 46.554688 -13.25 40.214844 -13.25 C 31.917969 -13.25 25.925781 -17.285156 25.121094 -23.738281 L 65.796875 -23.738281 C 66.488281 -26.042969 66.949219 -29.269531 66.949219 -32.265625 C 66.832031 -50.011719 54.386719 -61.761719 35.261719 -61.761719 C 15.324219 -61.761719 2.074219 -48.972656 2.1875 -29.960938 C 2.1875 -10.601562 17.285156 2.304688 39.179688 2.304688 Z M 24.890625 -35.261719 C 25.582031 -42.175781 29.613281 -46.667969 35.144531 -46.667969 C 40.5625 -46.667969 44.25 -42.289062 44.480469 -35.261719 Z M 24.890625 -35.261719 "/></g></g></g><g fill="#000000" fill-opacity="1"><g transform="translate(445.140717, 123.053307)"><g><path d="M 41.714844 -60.957031 C 34.683594 -60.957031 28.460938 -56.808594 25.351562 -49.664062 L 25.234375 -49.664062 L 21.664062 -59.457031 L 4.03125 -59.457031 L 4.03125 0 L 26.273438 0 L 26.273438 -32.265625 C 26.273438 -40.214844 29.382812 -44.941406 34.453125 -44.941406 C 38.832031 -44.941406 41.714844 -41.023438 42.175781 -34.222656 L 60.839844 -39.0625 C 59.457031 -52.890625 52.316406 -60.957031 41.714844 -60.957031 Z M 41.714844 -60.957031 "/></g></g></g><g fill="#000000" fill-opacity="1"><g transform="translate(507.363716, 123.053307)"><g/></g></g><g fill="#000000" fill-opacity="1"><g transform="translate(529.717907, 123.053307)"><g><path d="M 5.992188 0 L 31.226562 0 L 31.226562 -28 L 57.960938 -28 L 57.960938 -46.667969 L 31.226562 -46.667969 L 31.226562 -61.1875 L 64.757812 -61.1875 L 64.757812 -82.503906 L 5.992188 -82.503906 Z M 5.992188 0 "/></g></g></g><g fill="#000000" fill-opacity="1"><g transform="translate(596.319549, 123.053307)"><g><path d="M 39.179688 2.304688 C 51.625 2.304688 62.800781 -2.417969 67.984375 -9.449219 L 56.691406 -19.820312 C 53.121094 -15.785156 46.554688 -13.25 40.214844 -13.25 C 31.917969 -13.25 25.925781 -17.285156 25.121094 -23.738281 L 65.796875 -23.738281 C 66.488281 -26.042969 66.949219 -29.269531 66.949219 -32.265625 C 66.832031 -50.011719 54.386719 -61.761719 35.261719 -61.761719 C 15.324219 -61.761719 2.074219 -48.972656 2.1875 -29.960938 C 2.1875 -10.601562 17.285156 2.304688 39.179688 2.304688 Z M 24.890625 -35.261719 C 25.582031 -42.175781 29.613281 -46.667969 35.144531 -46.667969 C 40.5625 -46.667969 44.25 -42.289062 44.480469 -35.261719 Z M 24.890625 -35.261719 "/></g></g></g><g fill="#000000" fill-opacity="1"><g transform="translate(666.262835, 123.053307)"><g><path d="M 36.414062 2.304688 C 44.25 2.304688 52.660156 -0.574219 58.074219 -5.414062 L 53.8125 -20.742188 C 50.125 -17.054688 46.898438 -15.324219 42.058594 -15.324219 C 37.335938 -15.324219 33.300781 -18.78125 33.300781 -25.351562 L 33.300781 -42.867188 L 55.308594 -42.867188 L 55.308594 -59.457031 L 33.300781 -59.457031 L 33.300781 -79.96875 L 11.0625 -75.015625 L 11.0625 -59.457031 L 0.921875 -59.457031 L 0.921875 -42.867188 L 10.945312 -42.867188 L 11.0625 -21.546875 C 11.0625 -6.796875 20.625 2.304688 36.414062 2.304688 Z M 36.414062 2.304688 "/></g></g></g><g fill="#000000" fill-opacity="1"><g transform="translate(726.296512, 123.053307)"><g><path d="M 34.570312 2.304688 C 52.429688 2.304688 65.21875 -8.527344 66.488281 -24.660156 L 46.09375 -27.308594 C 45.402344 -20.164062 41.136719 -15.441406 35.492188 -15.441406 C 29.152344 -15.441406 24.542969 -21.203125 24.429688 -29.730469 C 24.3125 -38.257812 28.578125 -44.019531 34.570312 -44.019531 C 39.292969 -44.019531 43.328125 -40.675781 43.902344 -33.300781 L 63.953125 -38.601562 C 61.761719 -52.546875 49.78125 -61.761719 33.878906 -61.761719 C 14.863281 -61.761719 2.1875 -48.972656 2.1875 -29.730469 C 2.1875 -10.484375 15.09375 2.304688 34.570312 2.304688 Z M 34.570312 2.304688 "/></g></g></g><g fill="#000000" fill-opacity="1"><g transform="translate(794.741825, 123.053307)"><g><path d="M 4.03125 0 L 26.273438 0 L 26.273438 -32.378906 C 26.273438 -38.601562 29.960938 -42.40625 35.492188 -42.40625 C 39.871094 -42.40625 42.519531 -39.410156 42.519531 -34.570312 L 42.519531 0 L 64.875 0 L 64.875 -42.289062 C 64.875 -54.042969 57.960938 -60.957031 46.554688 -60.957031 C 37.566406 -60.957031 30.304688 -56 26.386719 -47.476562 L 26.273438 -47.476562 L 26.273438 -85.960938 L 4.03125 -85.960938 Z M 4.03125 0 "/></g></g></g><g fill="#000000" fill-opacity="1"><g transform="translate(863.526355, 123.053307)"><g/></g></g></svg>