<svg height="512" viewBox="0 0 24 24" width="512" xmlns="http://www.w3.org/2000/svg"><path d="m4.035 16.173c.287-.106.618-.169.963-.173h.002c.347.004.678.067.986.18l-.021-.007c.016-.05.028-.109.035-.169v-.004-1.5c0-.276.224-.5.5-.5h11c.276 0 .5.224.5.5v1.5c.007.064.019.123.037.179l-.002-.006c.287-.11.618-.173.965-.173s.678.063.984.179l-.019-.006c.016-.05.028-.109.035-.169v-.004-3c0-.552-.448-1-1-1h-6v-2.141c-.3.089-.644.141-1 .141s-.7-.051-1.026-.147l.026.006v2.141h-6c-.552 0-1 .448-1 1v3c.007.064.019.123.037.179z" fill="#9ba4b4"/><g fill="#495b7a"><path d="m16 6c0 2.209-1.791 4-4 4s-4-1.791-4-4 1.791-4 4-4 4 1.791 4 4z"/><path d="m8 19c0 1.657-1.343 3-3 3s-3-1.343-3-3 1.343-3 3-3 3 1.343 3 3z"/><path d="m22 19c0 1.657-1.343 3-3 3s-3-1.343-3-3 1.343-3 3-3 3 1.343 3 3z"/></g></svg>