<svg height="512" viewBox="0 0 24 24" width="512" xmlns="http://www.w3.org/2000/svg"><path d="m17 16h4c.552 0 1 .448 1 1v4c0 .552-.448 1-1 1h-4c-.552 0-1-.448-1-1v-4c0-.552.448-1 1-1z" fill="#495b7a"/><path d="m3 16h4c.552 0 1 .448 1 1v4c0 .552-.448 1-1 1h-4c-.552 0-1-.448-1-1v-4c0-.552.448-1 1-1z" fill="#495b7a"/><path d="m19 12h-6v-3h-2v3h-6c-.552 0-1 .448-1 1v3h2v-1.5c0-.276.224-.5.5-.5h11c.276 0 .5.224.5.5v1.5h2v-3c0-.552-.448-1-1-1z" fill="#9ba4b4"/><path d="m15 9c.552 0 1-.448 1-1v-5c0-.552-.448-1-1-1h-6c-.552 0-1 .448-1 1v5c0 .552.448 1 1 1z" fill="#495b7a"/></svg>