<svg height="512" viewBox="0 0 24 24" width="512" xmlns="http://www.w3.org/2000/svg"><path d="m19 7h-14c-1.103.003-1.997.897-2 2v10c.003 1.103.897 1.997 2 2h14c1.103-.003 1.997-.897 2-2v-10c-.003-1.103-.897-1.997-2-2zm0 5.983-6.594 2.931c-.119.054-.259.086-.406.086s-.287-.032-.412-.089l.006.003-6.594-2.931v-2.183l6.594 2.93c.119.054.259.086.406.086s.287-.032.412-.089l-.006.003 6.594-2.93z" fill="#495b7a"/><path d="m15 3h-6c-1.105 0-2 .895-2 2v2h2v-1.5c0-.276.224-.5.5-.5h5c.276 0 .5.224.5.5v1.5h2v-2c0-1.105-.895-2-2-2z" fill="#9ba4b4"/></svg>