<svg height="512" viewBox="0 0 24 24" width="512" xmlns="http://www.w3.org/2000/svg"><g fill="#9ba4b4"><path d="m14.105 17.447 2 4c.168.331.505.553.895.553.553 0 1-.448 1-1 0-.163-.039-.317-.108-.453l.003.006-1.777-3.553h-2.108v.025c0 .153.035.299.098.428z"/><path d="m12 21c.552 0 1-.448 1-1v-3h-2v3c0 .552.448 1 1 1z"/><path d="m6.553 21.9c.131.067.285.107.449.107.392 0 .731-.225.895-.554l.003-.006 2-4c.057-.121.091-.263.091-.412 0-.012 0-.025-.001-.037v.002h-2.108l-1.777 3.553c-.068.131-.108.287-.108.451 0 .39.224.728.55.893z"/></g><path d="m20 5h-16c-.552 0-1 .448-1 1v10c0 .552.448 1 1 1h16c.552 0 1-.448 1-1v-10c0-.552-.448-1-1-1z" fill="#495b7a"/><path d="m13 3c0-.552-.448-1-1-1s-1 .448-1 1v2h2z" fill="#9ba4b4"/></svg>