<svg height="512" viewBox="0 0 24 24" width="512" xmlns="http://www.w3.org/2000/svg"><g fill="#9ba4b4"><path d="m16.118 17h-2.108v.015c0 .157.037.306.103.438l-.003-.006 2 4c.168.331.505.553.895.553.553 0 1-.448 1-1 0-.163-.039-.317-.108-.453l.003.006z"/><path d="m6.105 20.553c-.066.13-.105.284-.105.447 0 .553.448 1 1 1 .39 0 .727-.223.892-.548l.003-.006 2-4c.06-.123.095-.269.095-.422 0-.009 0-.018 0-.026v.001h-2.108z"/><path d="m13 3c0-.552-.448-1-1-1s-1 .448-1 1v2h2z"/><path d="m11 20c0 .552.448 1 1 1s1-.448 1-1v-3h-2z"/></g><path d="m21 16v-10c0-.552-.448-1-1-1h-16c-.552 0-1 .448-1 1v10c0 .552.448 1 1 1h16c.552 0 1-.448 1-1zm-6-3c0 .552-.448 1-1 1h-4c-.552 0-1-.448-1-1s.448-1 1-1h1.586l-2.293-2.293c-.174-.18-.281-.425-.281-.695 0-.552.448-1 1-1 .27 0 .515.107.695.281l2.293 2.293v-1.586c0-.552.448-1 1-1s1 .448 1 1z" fill="#495b7a"/></svg>