<svg height="512" viewBox="0 0 24 24" width="512" xmlns="http://www.w3.org/2000/svg"><path d="m15.5 19.857c-3.038 0-5.5-1.535-5.5-3.428v2.142c0 1.894 2.462 3.429 5.5 3.429s5.5-1.535 5.5-3.429v-2.142c0 1.893-2.462 3.428-5.5 3.428z" fill="#495b7a"/><path d="m8.5 8.857c3.038 0 5.5-1.535 5.5-3.428s-2.462-3.429-5.5-3.429-5.5 1.535-5.5 3.429 2.462 3.428 5.5 3.428z" fill="#9ba4b4"/><g fill="#495b7a"><path d="m8.375 12.853c.488-1.005 1.235-1.819 2.156-2.375l.025-.014c-.612.159-1.315.25-2.039.25-.006 0-.012 0-.018 0h.001c-3.038 0-5.5-1.535-5.5-3.428v2.142c0 1.872 2.4 3.383 5.375 3.425z"/><path d="m8.5 22c.381 0 .755-.025 1.123-.072l-.044.005c-.614-.555-1.086-1.257-1.36-2.05l-.01-.035c-2.902-.095-5.209-1.587-5.209-3.419v2.142c0 1.894 2.462 3.429 5.5 3.429z"/><path d="m8 17.556v-2.156c-2.8-.16-5-1.613-5-3.4v2.143c0 1.788 2.2 3.257 5 3.413z"/></g><path d="m21 14.571c0 1.894-2.462 3.429-5.5 3.429s-5.5-1.535-5.5-3.429 2.462-3.429 5.5-3.429 5.5 1.535 5.5 3.429z" fill="#9ba4b4"/></svg>