<svg height="512" viewBox="0 0 24 24" width="512" xmlns="http://www.w3.org/2000/svg"><path d="m15 22c-3.314 0-6-2.686-6-6s2.686-6 6-6 6 2.686 6 6c0 3.314-2.686 6-6 6z" fill="#495b7a"/><g fill="#9ba4b4"><path d="m8.5 8.857c3.038 0 5.5-1.535 5.5-3.428s-2.462-3.429-5.5-3.429-5.5 1.535-5.5 3.429 2.462 3.428 5.5 3.428z"/><path d="m7.673 12.8c.363-.813.822-1.513 1.374-2.126l-.006.007c-.18.011-.356.033-.541.033-3.038 0-5.5-1.535-5.5-3.428v2.142c0 1.717 2.032 3.121 4.673 3.372z"/><path d="m7.139 17.456c-.086-.437-.137-.94-.139-1.454v-.002c0-.24.015-.477.036-.712-2.324-.399-4.036-1.712-4.036-3.288v2.143c0 1.599 1.762 2.934 4.139 3.313z"/><path d="m8.5 22c.381 0 .755-.025 1.123-.072l-.044.005c-.244-.23-.465-.479-.662-.747l-.011-.015c-.338-.395-.646-.835-.908-1.304l-.021-.041c-2.789-.166-4.977-1.615-4.977-3.397v2.142c0 1.894 2.462 3.429 5.5 3.429z"/></g></svg>