<svg height="512" viewBox="0 0 24 24" width="512" xmlns="http://www.w3.org/2000/svg"><path d="m4 21c0 .552.448 1 1 1h14c.552 0 1-.448 1-1v-18c0-.552-.448-1-1-1h-14c-.552 0-1 .448-1 1z" fill="#9ba4b4"/><g fill="#495b7a"><path d="m14 9.5c0 1.105-.895 2-2 2s-2-.895-2-2 .895-2 2-2 2 .895 2 2z"/><path d="m8.211 16.215c.551-1.594 2.039-2.718 3.789-2.718s3.238 1.124 3.781 2.69l.008.028c.028.087.044.188.044.292 0 .548-.445.993-.993.993-.003 0-.007 0-.01 0h-5.649c-.003 0-.007 0-.011 0-.552 0-1-.448-1-1 0-.102.015-.2.043-.292z"/></g></svg>