<svg height="512" viewBox="0 0 24 24" width="512" xmlns="http://www.w3.org/2000/svg"><path d="m12 2c-5.523 0-10 4.477-10 10s4.477 10 10 10 10-4.477 10-10c0-5.523-4.477-10-10-10z" fill="#9ba4b4"/><g fill="#495b7a"><path d="m10.5 8.5c0 1.105-.895 2-2 2s-2-.895-2-2 .895-2 2-2 2 .895 2 2z"/><path d="m8.707 16.707c-.182.188-.437.305-.719.305-.552 0-1-.448-1-1 0-.282.117-.537.305-.719l8-8c.182-.188.437-.305.719-.305.552 0 1 .448 1 1 0 .282-.117.537-.305.719z"/><path d="m17.5 15.5c0 1.105-.895 2-2 2s-2-.895-2-2 .895-2 2-2 2 .895 2 2z"/></g></svg>