<svg height="512" viewBox="0 0 24 24" width="512" xmlns="http://www.w3.org/2000/svg"><path d="m20 2h-16c-.552 0-1 .448-1 1v15h18v-15c0-.552-.448-1-1-1zm-5 12h-6c-.552 0-1-.448-1-1s.448-1 1-1h6c.552 0 1 .448 1 1s-.448 1-1 1zm0-6h-6c-.552 0-1-.448-1-1s.448-1 1-1h6c.552 0 1 .448 1 1s-.448 1-1 1z" fill="#495b7a"/><g fill="#9ba4b4"><path d="m4 22h3c.552 0 1-.448 1-1v-2.5c0-.276.224-.5.5-.5h-5.5v3c0 .552.448 1 1 1z"/><path d="m15.5 18c.276 0 .5.224.5.5v2.5c0 .552.448 1 1 1h3c.552 0 1-.448 1-1v-3z"/></g></svg>