<svg height="512" viewBox="0 0 24 24" width="512" xmlns="http://www.w3.org/2000/svg"><path d="m7.157 3.05c-2.85 1.628-4.82 4.516-5.154 7.886l-.003.042h2.993c.064-2.922.859-5.645 2.208-8.011z" fill="#495b7a"/><path d="m7 13.022h4v8.978c-2.106-.907-3.773-4.581-4-8.978z" fill="#9ba4b4"/><path d="m13.005 13.022v8.978c2.1-.907 3.768-4.581 3.994-8.978z" fill="#9ba4b4"/><path d="m11 2c-2.106.907-3.773 4.581-4 8.978h4z" fill="#495b7a"/><path d="m16.843 3.05c1.305 2.283 2.1 5.006 2.164 7.909v.019h2.993c-.337-3.412-2.307-6.3-5.107-7.902z" fill="#495b7a"/><path d="m16.843 20.95c2.85-1.628 4.82-4.516 5.154-7.886l.003-.042h-2.993c-.064 2.922-.859 5.645-2.208 8.011z" fill="#9ba4b4"/><path d="m13.005 2v8.978h3.995c-.227-4.397-1.894-8.071-3.995-8.978z" fill="#495b7a"/><path d="m7.157 20.95c-1.305-2.283-2.1-5.006-2.164-7.909v-.019h-2.993c.337 3.412 2.307 6.3 5.107 7.902z" fill="#9ba4b4"/></svg>