<svg height="512" viewBox="0 0 24 24" width="512" xmlns="http://www.w3.org/2000/svg"><path d="m2 12c0 .552.448 1 1 1h2c.552 0 1-.448 1-1s-.448-1-1-1h-2c-.552 0-1 .448-1 1z" fill="#9ba4b4"/><path d="m11 22h-9l1.749-4.371c.151-.372.51-.629.928-.629h3.646c.418 0 .777.257.926.622l.002.007z" fill="#495b7a"/><path d="m19.323 17h-3.646c-.418 0-.777.257-.926.622l-.002.007-1.749 4.371h9l-1.749-4.371c-.151-.372-.51-.629-.928-.629z" fill="#495b7a"/><path d="m9.249 10.629-1.749 4.371h9l-1.749-4.371c-.151-.372-.51-.629-.928-.629h-3.646c-.418 0-.777.257-.926.622z" fill="#495b7a"/><g fill="#9ba4b4"><path d="m13 5v-2c0-.552-.448-1-1-1s-1 .448-1 1v2c0 .552.448 1 1 1s1-.448 1-1z"/><path d="m17.657 7.757 1.414-1.414c.188-.182.305-.437.305-.719 0-.552-.448-1-1-1-.282 0-.537.117-.719.305l-1.414 1.414c-.188.182-.305.437-.305.719 0 .552.448 1 1 1 .282 0 .537-.117.719-.305z"/><path d="m6.343 4.929c-.18-.174-.425-.281-.695-.281-.552 0-1 .448-1 1 0 .27.107.515.281.695l1.414 1.414c.18.174.425.281.695.281.552 0 1-.448 1-1 0-.27-.107-.515-.281-.695z"/><path d="m21 11h-2c-.552 0-1 .448-1 1s.448 1 1 1h2c.552 0 1-.448 1-1s-.448-1-1-1z"/></g></svg>