<svg height="512" viewBox="0 0 24 24" width="512" xmlns="http://www.w3.org/2000/svg"><path d="m18 20h-12c-.552 0-1 .448-1 1s.448 1 1 1h12c.552 0 1-.448 1-1s-.448-1-1-1z" fill="#9ba4b4"/><path d="m21.9 11.553-3-6c-.044-.087-.099-.161-.164-.225-.181-.202-.443-.328-.735-.328h-.001-5v-2c0-.552-.448-1-1-1s-1 .448-1 1v2h-5c-.29.001-.55.127-.73.327l-.001.001c-.065.064-.12.138-.162.22l-.002.005-3 6c-.063.126-.1.275-.1.432v.016-.001h-.005c0 2.209 1.791 4 4 4s4-1.791 4-4h-.01c0-.004 0-.01 0-.015 0-.157-.037-.306-.103-.438l.003.006-2.272-4.553h3.382v13h2v-13h3.382l-2.277 4.553c-.063.126-.1.275-.1.432v.016-.001h-.005c0 2.209 1.791 4 4 4s4-1.791 4-4h-.01c0-.01.001-.023.001-.035 0-.149-.033-.291-.093-.418l.003.006zm-14.018.447h-3.764l1.882-3.764zm8.236 0 1.882-3.764 1.882 3.764z" fill="#495b7a"/></svg>