<svg height="512" viewBox="0 0 24 24" width="512" xmlns="http://www.w3.org/2000/svg"><path d="m15 16.372c2.671-1.187 4.5-3.817 4.5-6.874 0-4.142-3.358-7.5-7.5-7.5s-7.5 3.358-7.5 7.5c0 3.057 1.829 5.687 4.452 6.855l.048.019v1.628h6zm-3.779-10.285c-1.442.337-2.528 1.533-2.698 3.007l-.002.016c-.057.502-.479.889-.992.89-.039 0-.078-.002-.117-.006h.005c-.503-.057-.89-.48-.89-.994 0-.037.002-.074.006-.111v.004c.269-2.344 1.977-4.225 4.209-4.747l.037-.007c.066-.016.143-.025.221-.025.552 0 1 .448 1 1 0 .474-.33.871-.772.974l-.007.001z" fill="#495b7a"/><path d="m9 20h6v1c0 .552-.448 1-1 1h-4c-.552 0-1-.448-1-1z" fill="#9ba4b4"/></svg>