<svg height="512" viewBox="0 0 24 24" width="512" xmlns="http://www.w3.org/2000/svg"><path d="m15 16.372c2.671-1.187 4.5-3.817 4.5-6.874 0-4.142-3.358-7.5-7.5-7.5s-7.5 3.358-7.5 7.5c0 3.057 1.829 5.687 4.452 6.855l.048.019v1.628h6zm-.7-6.772-3 4c-.184.244-.474.4-.8.4-.552 0-1-.448-1-1 0-.226.075-.435.202-.603l-.002.003 1.8-2.4h-1c-.552 0-1-.448-1-1 0-.207.063-.399.17-.559l-.002.004 2-3c.182-.27.487-.445.832-.445.552 0 1 .448 1 1 0 .207-.063.399-.17.559l.002-.004-.963 1.445h1.131c.552 0 1 .448 1 1 0 .226-.075.435-.202.603z" fill="#495b7a"/><path d="m9 20h6v1c0 .552-.448 1-1 1h-4c-.552 0-1-.448-1-1z" fill="#9ba4b4"/></svg>