<svg height="512" viewBox="0 0 24 24" width="512" xmlns="http://www.w3.org/2000/svg"><path d="m10.922 7.113c.324-.075.696-.118 1.078-.118 2.761 0 5 2.239 5 5 0 2.038-1.219 3.791-2.968 4.57l-.032.013v3.422c0 1.105-.895 2-2 2s-2-.895-2-2v-3.422c-1.781-.791-3-2.545-3-4.583 0-2.379 1.662-4.371 3.889-4.876z" fill="#495b7a"/><g fill="#9ba4b4"><path d="m13 4v-1c0-.552-.448-1-1-1s-1 .448-1 1v1c0 .552.448 1 1 1s1-.448 1-1z"/><path d="m18.707 5.293c-.181-.181-.431-.293-.707-.293s-.526.112-.707.293l-.707.707c-.188.182-.305.437-.305.719 0 .552.448 1 1 1 .282 0 .537-.117.719-.305l.707-.707c.181-.181.293-.431.293-.707s-.112-.526-.293-.707z"/><path d="m5.293 18.707c.181.181.431.293.707.293s.526-.112.707-.293l.707-.707c.174-.18.281-.425.281-.695 0-.552-.448-1-1-1-.27 0-.515.107-.695.281l-.707.707c-.181.181-.293.431-.293.707s.112.526.293.707z"/><path d="m21 11h-1c-.552 0-1 .448-1 1s.448 1 1 1h1c.552 0 1-.448 1-1s-.448-1-1-1z"/><path d="m4 11h-1c-.552 0-1 .448-1 1s.448 1 1 1h1c.552 0 1-.448 1-1s-.448-1-1-1z"/><path d="m18 16.586c-.18-.174-.425-.281-.695-.281-.552 0-1 .448-1 1 0 .27.107.515.281.695l.707.707c.18.174.425.281.695.281.552 0 1-.448 1-1 0-.27-.107-.515-.281-.695z"/><path d="m6.707 5.293c-.18-.174-.425-.281-.695-.281-.552 0-1 .448-1 1 0 .27.107.515.281.695l.707.707c.18.174.425.281.695.281.552 0 1-.448 1-1 0-.27-.107-.515-.281-.695z"/></g></svg>