<svg height="512" viewBox="0 0 24 24" width="512" xmlns="http://www.w3.org/2000/svg"><path d="m21 5h-18c-.552 0-1 .448-1 1v12c0 .552.448 1 1 1h18c.552 0 1-.448 1-1v-12c0-.552-.448-1-1-1z" fill="#495b7a"/><g fill="#9ba4b4"><path d="m4 17v-3c1.657 0 3 1.343 3 3z"/><path d="m4 10v-3h3c0 1.657-1.343 3-3 3z"/><path d="m14.5 12c0 1.381-1.119 2.5-2.5 2.5s-2.5-1.119-2.5-2.5 1.119-2.5 2.5-2.5 2.5 1.119 2.5 2.5z"/><path d="m20 17h-3c0-1.657 1.343-3 3-3z"/><path d="m20 10c-1.657 0-3-1.343-3-3h3z"/></g></svg>