<svg height="512" viewBox="0 0 24 24" width="512" xmlns="http://www.w3.org/2000/svg"><path d="m21 3h-18c-.552 0-1 .448-1 1v16c0 .552.448 1 1 1h18c.552 0 1-.448 1-1v-16c0-.552-.448-1-1-1z" fill="#9ba4b4"/><g fill="#495b7a"><path d="m5.293 8.707c-.188-.182-.305-.437-.305-.719 0-.552.448-1 1-1 .282 0 .537.117.719.305l.793.793.793-.793c.182-.188.437-.305.719-.305.552 0 1 .448 1 1 0 .282-.117.537-.305.719l-.793.793.793.793c.174.18.281.425.281.695 0 .552-.448 1-1 1-.27 0-.515-.107-.695-.281l-.793-.793-.793.793c-.18.174-.425.281-.695.281-.552 0-1-.448-1-1 0-.27.107-.515.281-.695l.793-.793z"/><path d="m19 14c0 .552-.448 1-1 1s-1-.448-1-1v-1.586l-.192.192c-2.699 2.714-6.436 4.394-10.566 4.394-.015 0-.03 0-.045 0h-.198c-.552 0-1-.448-1-1s.448-1 1-1h.2.035c3.579 0 6.818-1.456 9.157-3.807l.001-.001.193-.192h-1.586c-.552 0-1-.448-1-1s.448-1 1-1h4c.552 0 1 .448 1 1z"/></g></svg>