<svg height="512" viewBox="0 0 24 24" width="512" xmlns="http://www.w3.org/2000/svg"><g fill="#9ba4b4"><path d="m10.921 9.834c-.681-.189-1.266-.534-1.737-.995l.001.001-3.019 5.177c-.057-.003-.109-.017-.166-.017.79.002 1.526.234 2.144.633l-.016-.009z"/><path d="m14.817 8.838c-.47.462-1.054.809-1.707.993l-.028.007 2.8 4.786c.599-.388 1.331-.621 2.117-.624h.001c-.053 0-.1.014-.155.016z"/><path d="m14 18c.005-.358.056-.701.148-1.028l-.007.028h-4.282c.089.3.141.644.141 1s-.051.7-.147 1.026l.006-.026h4.282c-.085-.299-.136-.642-.141-.997z"/></g><path d="m22 18c0 2.209-1.791 4-4 4s-4-1.791-4-4 1.791-4 4-4 4 1.791 4 4z" fill="#495b7a"/><path d="m10 18c0 2.209-1.791 4-4 4s-4-1.791-4-4 1.791-4 4-4 4 1.791 4 4z" fill="#495b7a"/><path d="m16 6c0 2.209-1.791 4-4 4s-4-1.791-4-4 1.791-4 4-4 4 1.791 4 4z" fill="#495b7a"/></svg>